<svg width="2972" height="1539" xmlns="http://www.w3.org/2000/svg" xmlns:xlink="http://www.w3.org/1999/xlink" xml:space="preserve" overflow="hidden"><defs><clipPath id="clip0"><rect x="667" y="460" width="2972" height="1539"/></clipPath></defs><g clip-path="url(#clip0)" transform="translate(-667 -460)"><path d="M0 0 1355.54 5.65013" stroke="#0D0D0D" stroke-width="3.4375" stroke-linejoin="round" stroke-miterlimit="10" fill="none" fill-rule="evenodd" transform="matrix(1 0 0 -1 1416.5 1212.15)"/><path d="M667 1116.67C667 1090.34 688.341 1069 714.668 1069L1368.33 1069C1394.66 1069 1416 1090.34 1416 1116.67L1416 1307.33C1416 1333.66 1394.66 1355 1368.33 1355L714.668 1355C688.341 1355 667 1333.66 667 1307.33Z" fill="#595959" fill-rule="evenodd"/><text fill="#FFFFFF" font-family="Segoe UI Light,Segoe UI Light_MSFontService,sans-serif" font-weight="300" font-size="83" transform="matrix(1 0 0 1 980.484 1176)">ICA </text><text fill="#FFFFFF" font-family="Segoe UI Light,Segoe UI Light_MSFontService,sans-serif" font-weight="300" font-size="55" transform="matrix(1 0 0 1 735.642 1249)">Informes de Cumplimiento </text><text fill="#FFFFFF" font-family="Segoe UI Light,Segoe UI Light_MSFontService,sans-serif" font-weight="300" font-size="55" transform="matrix(1 0 0 1 924.636 1315)">Ambiental</text><path d="M1684 507.668C1684 481.341 1705.34 460 1731.67 460L2398.33 460C2424.66 460 2446 481.341 2446 507.668L2446 698.332C2446 724.658 2424.66 746 2398.33 746L1731.67 746C1705.34 746 1684 724.658 1684 698.332Z" fill="#595959" fill-rule="evenodd"/><text fill="#FFFFFF" font-family="Segoe UI Light,Segoe UI Light_MSFontService,sans-serif" font-weight="300" font-size="83" transform="matrix(1 0 0 1 2008.67 568)">EIA </text><text fill="#FFFFFF" font-family="Segoe UI Light,Segoe UI Light_MSFontService,sans-serif" font-weight="300" font-size="55" transform="matrix(1 0 0 1 1842.82 641)">Estudio de Impacto </text><text fill="#FFFFFF" font-family="Segoe UI Light,Segoe UI Light_MSFontService,sans-serif" font-weight="300" font-size="55" transform="matrix(1 0 0 1 1947.94 707)">Ambiental</text><path d="M2772 1110.67C2772 1084.34 2793.34 1063 2819.67 1063L3591.33 1063C3617.66 1063 3639 1084.34 3639 1110.67L3639 1301.33C3639 1327.66 3617.66 1349 3591.33 1349L2819.67 1349C2793.34 1349 2772 1327.66 2772 1301.33Z" fill="#595959" fill-rule="evenodd"/><text fill="#FFFFFF" font-family="Segoe UI Light,Segoe UI Light_MSFontService,sans-serif" font-weight="300" font-size="83" transform="matrix(1 0 0 1 3126.46 1171)">DAA</text><text fill="#FFFFFF" font-family="Segoe UI Light,Segoe UI Light_MSFontService,sans-serif" font-weight="300" font-size="55" transform="matrix(1 0 0 1 2908.61 1243)">Diagnóstico Ambiental de </text><text fill="#FFFFFF" font-family="Segoe UI Light,Segoe UI Light_MSFontService,sans-serif" font-weight="300" font-size="55" transform="matrix(1 0 0 1 3072.56 1309)">Alternativas</text><path d="M0 0 648.613 465.501" stroke="#0D0D0D" stroke-width="3.4375" stroke-linejoin="round" stroke-miterlimit="10" fill="none" fill-rule="evenodd" transform="matrix(1 0 0 -1 1416.5 1212)"/><path d="M2065.5 746.5 2772.42 1206.35" stroke="#0D0D0D" stroke-width="3.4375" stroke-linejoin="round" stroke-miterlimit="10" fill="none" fill-rule="evenodd"/><path d="M1684 1754.67C1684 1728.34 1705.34 1707 1731.67 1707L2398.33 1707C2424.66 1707 2446 1728.34 2446 1754.67L2446 1945.33C2446 1971.66 2424.66 1993 2398.33 1993L1731.67 1993C1705.34 1993 1684 1971.66 1684 1945.33Z" fill="#595959" fill-rule="evenodd"/><text fill="#FFFFFF" font-family="Segoe UI Light,Segoe UI Light_MSFontService,sans-serif" font-weight="300" font-size="83" transform="matrix(1 0 0 1 1961.41 1814)">PMAE</text><text fill="#FFFFFF" font-family="Segoe UI Light,Segoe UI Light_MSFontService,sans-serif" font-weight="300" font-size="55" transform="matrix(1 0 0 1 1886.06 1887)">Plan de Manejo</text><text fill="#FFFFFF" font-family="Segoe UI Light,Segoe UI Light_MSFontService,sans-serif" font-weight="300" font-size="55" transform="matrix(1 0 0 1 1827.92 1953)">Ambiental Específico</text><path d="M1416.5 1212.5 2065.11 1707.7" stroke="#0D0D0D" stroke-width="3.4375" stroke-linejoin="round" stroke-miterlimit="10" fill="none" fill-rule="evenodd"/><path d="M0 0 706.924 500.85" stroke="#0D0D0D" stroke-width="3.4375" stroke-linejoin="round" stroke-miterlimit="10" fill="none" fill-rule="evenodd" transform="matrix(1 0 0 -1 2065.5 1707.35)"/><path d="M0 0 0.000360892 960.701" stroke="#000000" stroke-width="3.4375" stroke-linejoin="round" stroke-miterlimit="10" fill="none" fill-rule="evenodd" transform="matrix(1 0 0 -1 2065.5 1707.2)"/><path d="M1623 995.836C1623 931.309 1675.31 879 1739.84 879L2392.16 879C2456.69 879 2509 931.309 2509 995.836L2509 1463.16C2509 1527.69 2456.69 1580 2392.16 1580L1739.84 1580C1675.31 1580 1623 1527.69 1623 1463.16Z" fill="#595959" fill-rule="evenodd"/><text fill="#FFFFFF" font-family="Segoe UI Light,Segoe UI Light_MSFontService,sans-serif" font-weight="300" font-size="128" transform="matrix(1 0 0 1 1976.27 1247)">GIS</text><text fill="#FFFFFF" font-family="Segoe UI Light,Segoe UI Light_MSFontService,sans-serif" font-weight="300" font-size="50" transform="matrix(1 0 0 1 1697.26 1325)">Sistema de Información Geográfico</text></g></svg>