<svg width="2990" height="366" xmlns="http://www.w3.org/2000/svg" xmlns:xlink="http://www.w3.org/1999/xlink" xml:space="preserve" overflow="hidden"><defs><clipPath id="clip0"><rect x="711" y="1168" width="2990" height="366"/></clipPath></defs><g clip-path="url(#clip0)" transform="translate(-711 -1168)"><path d="M711 1350C711 1249.48 792.484 1168 893.001 1168L3518 1168C3618.52 1168 3700 1249.48 3700 1350L3700 1350C3700 1450.52 3618.52 1532 3518 1532L893.001 1532C792.484 1532 711 1450.52 711 1350Z" fill="#595959" fill-rule="evenodd"/><text fill="#FFFFFF" font-family="Segoe UI Light,Segoe UI Light_MSFontService,sans-serif" font-weight="700" font-size="128" transform="matrix(1 0 0 1 2115.91 1367)">GIS</text><text fill="#FFFFFF" font-family="Segoe UI Light,Segoe UI Light_MSFontService,sans-serif" font-weight="300" font-size="50" transform="matrix(1 0 0 1 1838.62 1445)">Sistema de Información Geográfica</text><path d="M0 0 1311.7 0.000360892" stroke="#D9D9D9" stroke-width="13.75" stroke-linejoin="round" stroke-miterlimit="10" fill="none" fill-rule="evenodd" transform="matrix(-1 0 0 1 2913.7 1393)"/><path d="M2898 1357.5C2898 1278.8 2961.8 1215 3040.5 1215L3505.5 1215C3584.2 1215 3648 1278.8 3648 1357.5L3648 1357.5C3648 1436.2 3584.2 1500 3505.5 1500L3040.5 1500C2961.8 1500 2898 1436.2 2898 1357.5Z" fill="#D9D9D9" fill-rule="evenodd"/><text font-family="Segoe UI Light,Segoe UI Light_MSFontService,sans-serif" font-weight="300" font-size="83" transform="matrix(1 0 0 1 3132.21 1300)">Impacto </text><text font-family="Segoe UI Light,Segoe UI Light_MSFontService,sans-serif" font-weight="300" font-size="83" transform="matrix(1 0 0 1 3102.71 1399)">ambiental</text><text font-family="Segoe UI Light,Segoe UI Light_MSFontService,sans-serif" font-weight="300" font-size="64" transform="matrix(1 0 0 1 3034.81 1480)">(Estado Evolutivo)</text><path d="M793 1349.5C793 1269.14 858.143 1204 938.5 1204L1514.5 1204C1594.86 1204 1660 1269.14 1660 1349.5L1660 1349.5C1660 1429.86 1594.86 1495 1514.5 1495L938.5 1495C858.143 1495 793 1429.86 793 1349.5Z" fill="#D9D9D9" fill-rule="evenodd"/><text font-family="Segoe UI Light,Segoe UI Light_MSFontService,sans-serif" font-weight="300" font-size="83" transform="matrix(1 0 0 1 1044.35 1342)">Línea base</text><text font-family="Segoe UI Light,Segoe UI Light_MSFontService,sans-serif" font-weight="300" font-size="64" transform="matrix(1 0 0 1 1026.59 1423)">(Estado Actual)</text></g></svg>