<?xml version="1.0" encoding="UTF-8"?>
<!DOCTYPE svg PUBLIC "-//W3C//DTD SVG 1.1//EN" "http://www.w3.org/Graphics/SVG/1.1/DTD/svg11.dtd">
<!-- Creator: CorelDRAW -->
<svg xmlns="http://www.w3.org/2000/svg" xml:space="preserve" width="4568px" height="277px" version="1.1" style="shape-rendering:geometricPrecision; text-rendering:geometricPrecision; image-rendering:optimizeQuality; fill-rule:evenodd; clip-rule:evenodd"
viewBox="0 0 5603.16 339.18"
 xmlns:xlink="http://www.w3.org/1999/xlink"
 xmlns:xodm="http://www.corel.com/coreldraw/odm/2003">
 <defs>
  <style type="text/css">
   <![CDATA[
    .str0 {stroke:black;stroke-width:0.9;stroke-miterlimit:22.9256}
    .fil0 {fill:#F0F0F0}
    .fil1 {fill:white}
    .fil3 {fill:black;fill-rule:nonzero}
    .fil2 {fill:black;fill-rule:nonzero}
   ]]>
  </style>
 </defs>
 <g id="Capa_x0020_1">
  <metadata id="CorelCorpID_0Corel-Layer"/>
  <rect class="fil0" width="5603.16" height="339.18" rx="338.78" ry="85.48"/>
  <g id="_2501978308224">
   <g>
    <path class="fil1" d="M4709 56.32l736.17 0c29.53,0 48.07,24.17 41.18,53.7l-27.76 119.14c-6.88,29.53 -36.68,53.69 -66.21,53.69l-736.17 0c-29.53,0 -48.07,-24.16 -41.18,-53.69l27.76 -119.14c6.88,-29.53 36.67,-53.7 66.21,-53.7z"/>
    <path id="_1" class="fil2" d="M5445.17 64.66l-736.17 0 -0.01 -16.67 736.18 0 0 0 0 16.67zm49.29 47.26l-16.21 -3.79 0 0 0.48 -2.36 0.36 -2.31 0.24 -2.25 0.12 -2.2 0 -2.16 -0.11 -2.09 -0.22 -2.04 -0.32 -1.98 -0.43 -1.92 -0.52 -1.86 -0.61 -1.79 -0.71 -1.74 -0.8 -1.66 -0.89 -1.6 -0.97 -1.54 -1.05 -1.46 -1.14 -1.39 -1.22 -1.33 -1.3 -1.25 -1.38 -1.18 -1.46 -1.1 -1.53 -1.02 -1.61 -0.94 -1.69 -0.86 -1.77 -0.77 -1.85 -0.68 -1.92 -0.59 -2 -0.5 -2.08 -0.38 -2.16 -0.29 -2.23 -0.17 -2.31 -0.06 0 -16.67 3.16 0.08 3.11 0.25 3.04 0.4 2.98 0.56 2.9 0.71 2.82 0.86 2.74 1.01 2.66 1.16 2.56 1.3 2.46 1.44 2.36 1.57 2.25 1.7 2.13 1.83 2.02 1.94 1.89 2.06 1.77 2.16 1.64 2.28 1.5 2.37 1.36 2.45 1.22 2.55 1.08 2.63 0.93 2.7 0.78 2.77 0.62 2.83 0.47 2.9 0.32 2.94 0.16 2.99 -0.01 3.03 -0.16 3.07 -0.33 3.1 -0.48 3.13 -0.66 3.16 0 0zm-43.98 115.34l27.77 -119.13 16.21 3.79 -27.76 119.13 -16.22 -3.79zm-58.09 63.93l-0.01 -16.67 0 0 2.35 -0.06 2.36 -0.18 2.36 -0.29 2.37 -0.41 2.36 -0.52 2.36 -0.63 2.35 -0.74 2.33 -0.85 2.31 -0.95 2.29 -1.05 2.25 -1.14 2.22 -1.24 2.18 -1.34 2.14 -1.42 2.09 -1.51 2.04 -1.58 1.97 -1.67 1.92 -1.74 1.84 -1.81 1.78 -1.88 1.7 -1.94 1.61 -1.99 1.53 -2.05 1.45 -2.11 1.35 -2.15 1.26 -2.19 1.15 -2.23 1.06 -2.26 0.94 -2.29 0.84 -2.33 0.73 -2.34 0.61 -2.37 16.22 3.79 -0.81 3.14 -0.96 3.09 -1.1 3.04 -1.23 2.98 -1.35 2.92 -1.49 2.85 -1.6 2.8 -1.71 2.72 -1.82 2.65 -1.93 2.58 -2.02 2.5 -2.12 2.42 -2.21 2.33 -2.29 2.25 -2.38 2.17 -2.46 2.06 -2.53 1.98 -2.6 1.87 -2.66 1.78 -2.73 1.66 -2.79 1.56 -2.85 1.45 -2.89 1.33 -2.95 1.21 -2.99 1.08 -3.03 0.96 -3.07 0.82 -3.1 0.68 -3.13 0.54 -3.15 0.4 -3.18 0.23 -3.18 0.09 0 0zm-736.19 -16.67l736.18 0 0.01 16.67 -736.18 0 0 0 -0.01 -16.67zm-49.28 -47.26l16.22 3.79 0 0 -0.49 2.36 -0.37 2.3 -0.23 2.26 -0.12 2.2 0 2.15 0.11 2.1 0.22 2.04 0.32 1.98 0.43 1.92 0.52 1.86 0.62 1.79 0.7 1.73 0.8 1.67 0.89 1.6 0.97 1.53 1.06 1.47 1.13 1.39 1.22 1.32 1.3 1.26 1.38 1.17 1.46 1.11 1.53 1.02 1.61 0.94 1.69 0.86 1.77 0.77 1.85 0.68 1.92 0.59 2 0.49 2.08 0.39 2.16 0.29 2.23 0.17 2.3 0.06 0.01 16.67 -3.16 -0.09 -3.11 -0.24 -3.05 -0.4 -2.97 -0.56 -2.9 -0.71 -2.82 -0.87 -2.74 -1.01 -2.66 -1.16 -2.56 -1.3 -2.46 -1.43 -2.36 -1.57 -2.25 -1.7 -2.13 -1.83 -2.02 -1.94 -1.9 -2.06 -1.76 -2.17 -1.64 -2.27 -1.5 -2.37 -1.36 -2.46 -1.22 -2.54 -1.08 -2.63 -0.93 -2.7 -0.78 -2.77 -0.62 -2.83 -0.47 -2.9 -0.32 -2.94 -0.16 -2.99 0.01 -3.04 0.16 -3.07 0.32 -3.1 0.49 -3.13 0.66 -3.15 0 0zm43.98 -115.34l-27.76 119.13 -16.22 -3.79 27.76 -119.13 16.22 3.79zm58.09 -63.93l0.01 16.67 0 0 -2.35 0.06 -2.36 0.17 -2.36 0.3 -2.37 0.41 -2.36 0.52 -2.36 0.63 -2.35 0.74 -2.33 0.84 -2.31 0.95 -2.29 1.05 -2.25 1.15 -2.22 1.24 -2.18 1.33 -2.14 1.43 -2.09 1.51 -2.04 1.58 -1.97 1.67 -1.92 1.74 -1.84 1.81 -1.78 1.87 -1.7 1.94 -1.61 2 -1.54 2.05 -1.44 2.1 -1.35 2.15 -1.26 2.19 -1.15 2.23 -1.06 2.27 -0.94 2.29 -0.84 2.32 -0.73 2.35 -0.61 2.37 -16.22 -3.79 0.81 -3.14 0.96 -3.09 1.09 -3.04 1.23 -2.98 1.36 -2.92 1.48 -2.86 1.61 -2.79 1.71 -2.72 1.82 -2.65 1.93 -2.58 2.02 -2.5 2.12 -2.42 2.21 -2.34 2.29 -2.25 2.38 -2.16 2.46 -2.07 2.53 -1.97 2.6 -1.88 2.66 -1.77 2.73 -1.67 2.79 -1.56 2.85 -1.44 2.89 -1.33 2.95 -1.21 2.99 -1.09 3.03 -0.95 3.07 -0.82 3.1 -0.69 3.13 -0.54 3.15 -0.39 3.18 -0.24 3.18 -0.08 0 0z"/>
   </g>
   <path class="fil3 str0" d="M4889.4 220.24l-15.46 -29.49c-1.54,-2.93 -3.01,-5.35 -4.46,-7.31 -1.41,-1.98 -2.91,-3.55 -4.42,-4.72 -1.52,-1.15 -3.16,-2.01 -4.9,-2.5 -1.76,-0.51 -3.69,-0.76 -5.85,-0.76l-11.3 0 0 44.78 -9.54 0 0 -102.77 29.58 0c3.87,0 7.61,0.56 11.23,1.71 3.6,1.15 6.8,2.84 9.62,5.09 2.81,2.25 5.09,5.07 6.77,8.44 1.69,3.41 2.55,7.34 2.55,11.82 0,3.62 -0.54,6.98 -1.64,10.03 -1.1,3.04 -2.67,5.76 -4.7,8.13 -2.03,2.35 -4.48,4.35 -7.36,5.99 -2.91,1.67 -6.17,2.89 -9.79,3.7l0 0.29c1.39,0.57 2.64,1.32 3.79,2.23 1.15,0.9 2.25,2 3.33,3.3 1.08,1.27 2.13,2.77 3.18,4.43 1.05,1.69 2.15,3.6 3.28,5.75l17.25 31.86 -11.16 0zm-46.39 -93.96l0 40.52 17.03 0c3.45,0 6.58,-0.49 9.44,-1.49 2.87,-1.01 5.31,-2.45 7.34,-4.31 2.04,-1.84 3.6,-4.09 4.73,-6.7 1.12,-2.62 1.69,-5.58 1.69,-8.86 0,-5.97 -1.91,-10.65 -5.76,-14.05 -3.84,-3.4 -9.39,-5.11 -16.66,-5.11l-17.81 0zm77.88 95.43c-1.9,0 -3.54,-0.66 -4.86,-2.01 -1.35,-1.32 -2.01,-2.96 -2.01,-4.87 0,-1.93 0.66,-3.59 1.96,-4.92 1.32,-1.34 2.96,-2 4.91,-2 0.96,0 1.84,0.17 2.67,0.54 0.83,0.36 1.57,0.83 2.18,1.42 0.64,0.61 1.12,1.32 1.52,2.17 0.36,0.88 0.56,1.81 0.56,2.79 0,0.96 -0.2,1.86 -0.56,2.69 -0.4,0.84 -0.88,1.57 -1.52,2.18 -0.61,0.61 -1.35,1.1 -2.18,1.47 -0.83,0.37 -1.71,0.54 -2.67,0.54zm38.96 -1.47l-9.54 0 0 -102.77 9.54 0 0 102.77zm93.35 0l-11.33 -30.39 -44.07 0 -11.04 30.39 -10.62 0 39.13 -102.77 9.62 0 38.9 102.77 -10.59 0zm-31.32 -84.79c-0.35,-0.9 -0.69,-1.95 -1.06,-3.15 -0.36,-1.18 -0.66,-2.55 -0.9,-4.09l-0.27 0c-0.29,1.54 -0.61,2.91 -0.98,4.09 -0.36,1.2 -0.71,2.25 -1.05,3.15l-16.66 45.74 37.73 0 -16.81 -45.74zm148.96 84.79l0 -70.96c0,-3.62 0.3,-9.47 0.86,-17.55l-0.29 0c-0.66,2.16 -1.28,4.02 -1.81,5.58 -0.57,1.6 -1.08,2.87 -1.55,3.87l-35.84 79.06 -4.09 0 -35.89 -78.55c-1.06,-2.39 -2.13,-5.75 -3.23,-10.1l-0.3 0c0.2,2.2 0.35,4.7 0.42,7.53 0.07,2.82 0.09,5.95 0.09,9.38l0 71.74 -9.24 0 0 -102.77 11.25 0 34.87 77.25c0.71,1.64 1.42,3.3 2.1,4.99 0.71,1.69 1.35,3.5 1.91,5.41l0.44 0c0.66,-1.91 1.28,-3.65 1.81,-5.24 0.57,-1.56 1.23,-3.28 2.06,-5.09l35.16 -77.32 10.67 0 0 102.77 -9.4 0zm36.15 0l0 -102.77 28.06 0c4.26,0 8.1,0.56 11.5,1.71 3.43,1.15 6.34,2.77 8.74,4.85 2.42,2.08 4.25,4.57 5.55,7.49 1.3,2.91 1.93,6.11 1.93,9.61 0,2.96 -0.41,5.73 -1.22,8.32 -0.81,2.57 -1.98,4.92 -3.5,7.05 -1.54,2.13 -3.4,3.99 -5.63,5.53 -2.22,1.56 -4.74,2.79 -7.56,3.69l0 0.3c3.45,0.31 6.61,1.15 9.45,2.49 2.81,1.35 5.26,3.09 7.26,5.24 2.01,2.15 3.58,4.67 4.68,7.56 1.1,2.89 1.66,6.04 1.66,9.49 0,4.33 -0.78,8.32 -2.37,11.92 -1.57,3.6 -3.79,6.7 -6.63,9.32 -2.84,2.6 -6.24,4.63 -10.16,6.05 -3.91,1.44 -8.24,2.15 -12.99,2.15l-28.77 0zm9.54 -93.96l0 36.41 13.33 0c3.48,0 6.63,-0.47 9.45,-1.37 2.84,-0.91 5.23,-2.2 7.24,-3.92 2.01,-1.71 3.55,-3.79 4.63,-6.24 1.07,-2.42 1.61,-5.16 1.61,-8.22 0,-11.11 -6.92,-16.66 -20.77,-16.66l-15.49 0zm0 45.07l0 40.23 17.71 0c7.61,0 13.46,-1.79 17.55,-5.34 4.08,-3.54 6.14,-8.58 6.14,-15.14 0,-13.17 -8.98,-19.75 -26.92,-19.75l-14.48 0z"/>
  </g>
  <g id="_2501978308752">
   <path class="fil3" d="M133.16 136.33c-0.97,-0.64 -2.08,-1.29 -3.33,-1.95 -1.25,-0.67 -2.64,-1.27 -4.15,-1.82 -1.5,-0.53 -3.14,-0.96 -4.92,-1.3 -1.8,-0.32 -3.71,-0.5 -5.75,-0.5 -5.01,0 -9.53,0.9 -13.56,2.66 -4.03,1.78 -7.44,4.21 -10.24,7.32 -2.81,3.11 -4.98,6.76 -6.5,10.95 -1.53,4.19 -2.28,8.73 -2.28,13.6 0,3.99 0.55,7.5 1.66,10.56 1.09,3.07 2.67,5.63 4.7,7.72 2.04,2.09 4.49,3.68 7.33,4.74 2.84,1.08 5.97,1.61 9.43,1.61 2.2,0 4.2,-0.12 6,-0.38 1.82,-0.26 3.47,-0.6 5.02,-1.06 1.54,-0.44 2.97,-0.98 4.34,-1.59 1.35,-0.62 2.65,-1.29 3.94,-1.99l-1.97 8.83c-2.7,1.24 -5.6,2.18 -8.69,2.83 -3.1,0.65 -6.56,0.97 -10.41,0.97 -4.55,0 -8.67,-0.75 -12.4,-2.26 -3.73,-1.49 -6.9,-3.62 -9.53,-6.38 -2.62,-2.76 -4.66,-6.08 -6.09,-9.96 -1.44,-3.87 -2.16,-8.18 -2.16,-12.93 0,-6.28 0.99,-12.05 3,-17.29 1.98,-5.25 4.8,-9.77 8.46,-13.53 3.66,-3.78 8.06,-6.73 13.18,-8.83 5.13,-2.1 10.83,-3.17 17.08,-3.17 4.27,0 8.05,0.47 11.34,1.39 3.3,0.93 6.08,1.97 8.35,3.13l-1.85 8.63zm61.7 31.74c-0.99,4.67 -2.26,8.84 -3.78,12.5 -1.52,3.65 -3.47,6.75 -5.87,9.24 -2.38,2.52 -5.3,4.42 -8.74,5.73 -3.44,1.34 -7.56,1.99 -12.39,1.99 -3.7,0 -7.01,-0.58 -9.92,-1.74 -2.9,-1.19 -5.34,-2.78 -7.31,-4.83 -1.98,-2.04 -3.47,-4.43 -4.52,-7.2 -1.04,-2.79 -1.55,-5.79 -1.55,-9.04 0,-1.43 0.1,-3.04 0.27,-4.86 0.19,-1.79 0.43,-3.5 0.74,-5.11l8.72 -40.35 8.66 0 -8.66 39.85c-0.13,0.77 -0.29,1.61 -0.42,2.5 -0.16,0.91 -0.3,1.81 -0.42,2.72 -0.12,0.89 -0.2,1.74 -0.27,2.55 -0.07,0.8 -0.1,1.5 -0.1,2.1 0,2.67 0.41,5 1.21,6.97 0.79,1.98 1.9,3.61 3.32,4.91 1.42,1.32 3.1,2.29 5.02,2.94 1.93,0.65 4,0.98 6.24,0.98 2.84,0 5.39,-0.41 7.61,-1.2 2.25,-0.8 4.23,-2.07 5.92,-3.77 1.72,-1.71 3.17,-3.88 4.39,-6.52 1.23,-2.63 2.24,-5.79 3.04,-9.47l9.57 -44.56 8.62 0 -9.38 43.67zm66.84 -25.88c0,3.1 -0.55,5.93 -1.63,8.42 -1.09,2.52 -2.58,4.68 -4.5,6.47 -1.9,1.8 -4.17,3.25 -6.81,4.33 -2.63,1.1 -5.51,1.76 -8.62,2.04l0 0.2c1.57,0.5 2.94,1.56 4.14,3.15 1.18,1.61 2.14,3.77 2.87,6.47l6.03 23.01 -9.23 0 -5.32 -21.46c-0.77,-3.14 -2,-5.44 -3.68,-6.91 -1.69,-1.47 -3.92,-2.21 -6.69,-2.21l-6.28 0 -6.55 30.58 -8.62 0 15.17 -71.88 19.82 0c3.51,0 6.52,0.46 9.01,1.4 2.52,0.93 4.57,2.21 6.17,3.83 1.6,1.63 2.8,3.51 3.55,5.67 0.78,2.16 1.17,4.45 1.17,6.89zm-8.83 0.91c0,-1.61 -0.24,-3.1 -0.75,-4.45 -0.5,-1.35 -1.27,-2.51 -2.31,-3.5 -1.03,-0.98 -2.35,-1.75 -3.96,-2.31 -1.6,-0.55 -3.5,-0.83 -5.71,-0.83l-11.07 0 -5.53 26.08 9.93 0c3.52,0 6.5,-0.43 8.94,-1.26 2.47,-0.84 4.47,-1.94 6.03,-3.31 1.55,-1.37 2.68,-2.96 3.38,-4.79 0.71,-1.81 1.05,-3.69 1.05,-5.63zm59.64 -7.92c-0.82,-0.6 -1.83,-1.18 -2.97,-1.71 -1.15,-0.53 -2.4,-0.99 -3.71,-1.41 -1.32,-0.39 -2.69,-0.71 -4.13,-0.95 -1.43,-0.22 -2.86,-0.35 -4.26,-0.35 -2.68,0 -4.93,0.38 -6.76,1.13 -1.81,0.76 -3.27,1.7 -4.38,2.86 -1.09,1.15 -1.9,2.42 -2.38,3.78 -0.48,1.37 -0.71,2.65 -0.71,3.87 0,1.56 0.2,2.98 0.64,4.26 0.43,1.27 1.08,2.48 1.96,3.64 0.87,1.19 1.98,2.35 3.35,3.53 1.37,1.16 2.98,2.41 4.81,3.75 2.07,1.5 3.92,2.99 5.54,4.46 1.63,1.48 2.99,2.98 4.14,4.54 1.13,1.56 1.99,3.2 2.59,4.91 0.58,1.73 0.87,3.59 0.87,5.59 0,1.23 -0.12,2.6 -0.38,4.09 -0.25,1.49 -0.7,2.98 -1.35,4.49 -0.65,1.5 -1.56,2.97 -2.69,4.41 -1.13,1.44 -2.58,2.7 -4.32,3.8 -1.77,1.11 -3.87,2 -6.35,2.67 -2.47,0.67 -5.37,0.99 -8.73,0.99 -1.86,0 -3.69,-0.14 -5.51,-0.39 -1.8,-0.28 -3.52,-0.62 -5.13,-1.06 -1.63,-0.43 -3.12,-0.93 -4.47,-1.48 -1.35,-0.54 -2.51,-1.09 -3.49,-1.62l1.46 -8.73c1.07,0.77 2.29,1.49 3.66,2.17 1.37,0.69 2.82,1.31 4.36,1.82 1.54,0.51 3.13,0.92 4.76,1.23 1.64,0.29 3.27,0.45 4.87,0.45 2.54,0 4.73,-0.31 6.54,-0.91 1.81,-0.6 3.32,-1.42 4.52,-2.48 1.18,-1.05 2.05,-2.29 2.6,-3.73 0.54,-1.44 0.82,-2.99 0.82,-4.67 0,-1.49 -0.22,-2.86 -0.7,-4.06 -0.46,-1.2 -1.18,-2.38 -2.16,-3.52 -0.96,-1.17 -2.19,-2.33 -3.68,-3.51 -1.48,-1.2 -3.25,-2.52 -5.28,-3.95 -1.65,-1.17 -3.2,-2.43 -4.69,-3.78 -1.49,-1.35 -2.79,-2.83 -3.92,-4.44 -1.11,-1.6 -2,-3.35 -2.65,-5.23 -0.65,-1.88 -0.98,-3.94 -0.98,-6.14 0,-2.74 0.52,-5.34 1.52,-7.81 1.03,-2.44 2.54,-4.6 4.56,-6.45 2,-1.86 4.48,-3.33 7.44,-4.41 2.94,-1.1 6.38,-1.65 10.3,-1.65 1.51,0 2.99,0.11 4.48,0.3 1.49,0.17 2.93,0.42 4.33,0.75 1.4,0.31 2.74,0.67 3.99,1.04 1.25,0.4 2.36,0.79 3.33,1.18l-1.66 8.73zm75.89 18.39c0,3.12 -0.27,6.2 -0.84,9.24 -0.58,3.07 -1.38,6.01 -2.46,8.85 -1.06,2.84 -2.38,5.54 -3.94,8.08 -1.55,2.55 -3.32,4.82 -5.28,6.87 -1.61,1.66 -3.34,3.19 -5.22,4.54 -1.87,1.35 -3.87,2.5 -6.01,3.45 -2.14,0.96 -4.43,1.68 -6.88,2.18 -2.43,0.51 -5.04,0.75 -7.87,0.75 -4.5,0 -8.57,-0.77 -12.16,-2.33 -3.61,-1.55 -6.69,-3.69 -9.21,-6.41 -2.53,-2.72 -4.45,-5.96 -5.78,-9.7 -1.35,-3.75 -2.02,-7.81 -2.02,-12.19 0,-6.94 1.13,-13.17 3.39,-18.7 2.26,-5.51 5.4,-10.28 9.44,-14.32 3.29,-3.29 7.07,-5.89 11.36,-7.8 4.3,-1.92 9.18,-2.9 14.62,-2.9 4.41,0 8.4,0.76 11.96,2.26 3.56,1.51 6.58,3.62 9.08,6.32 2.52,2.72 4.45,5.92 5.8,9.63 1.35,3.71 2.02,7.77 2.02,12.18zm-8.91 0.29c0,-3.57 -0.48,-6.77 -1.46,-9.61 -0.97,-2.84 -2.36,-5.27 -4.15,-7.27 -1.82,-2.01 -3.99,-3.55 -6.52,-4.61 -2.54,-1.07 -5.38,-1.61 -8.53,-1.61 -3.71,0 -7.25,0.81 -10.62,2.4 -3.37,1.61 -6.37,3.83 -8.98,6.67 -1.46,1.61 -2.79,3.44 -3.97,5.51 -1.2,2.07 -2.21,4.28 -3.07,6.62 -0.85,2.35 -1.5,4.78 -1.95,7.33 -0.46,2.53 -0.68,5.11 -0.68,7.72 0,3.33 0.46,6.41 1.39,9.22 0.9,2.8 2.24,5.22 4,7.24 1.74,2.03 3.92,3.61 6.48,4.74 2.59,1.14 5.55,1.71 8.88,1.71 3.72,0 7.26,-0.76 10.65,-2.23 3.4,-1.49 6.38,-3.69 8.95,-6.6 1.6,-1.8 3.01,-3.82 4.19,-6.04 1.18,-2.23 2.17,-4.52 2.98,-6.91 0.8,-2.4 1.4,-4.81 1.81,-7.24 0.39,-2.45 0.6,-4.79 0.6,-7.04zm32.92 -4.5c0,0.77 -0.14,1.49 -0.45,2.18 -0.3,0.68 -0.7,1.28 -1.2,1.78 -0.51,0.51 -1.09,0.89 -1.76,1.18 -0.66,0.29 -1.39,0.42 -2.15,0.42 -0.77,0 -1.49,-0.13 -2.16,-0.42 -0.67,-0.29 -1.25,-0.67 -1.75,-1.18 -0.51,-0.5 -0.9,-1.1 -1.18,-1.78 -0.29,-0.69 -0.42,-1.41 -0.42,-2.18 0,-0.73 0.13,-1.43 0.42,-2.1 0.28,-0.67 0.67,-1.27 1.18,-1.78 0.5,-0.53 1.08,-0.92 1.75,-1.23 0.67,-0.31 1.39,-0.45 2.16,-0.45 0.76,0 1.5,0.14 2.19,0.45 0.68,0.31 1.26,0.7 1.78,1.23 0.49,0.51 0.89,1.11 1.16,1.78 0.29,0.67 0.43,1.37 0.43,2.1zm-8.92 42.51c0,0.77 -0.13,1.49 -0.43,2.15 -0.29,0.67 -0.68,1.25 -1.18,1.77 -0.49,0.49 -1.09,0.88 -1.77,1.19 -0.69,0.31 -1.41,0.45 -2.18,0.45 -0.77,0 -1.49,-0.14 -2.15,-0.45 -0.67,-0.31 -1.27,-0.7 -1.77,-1.19 -0.49,-0.52 -0.89,-1.1 -1.18,-1.77 -0.27,-0.66 -0.43,-1.38 -0.43,-2.15 0,-0.77 0.16,-1.49 0.43,-2.18 0.29,-0.68 0.69,-1.28 1.18,-1.77 0.5,-0.52 1.1,-0.91 1.77,-1.19 0.66,-0.29 1.38,-0.42 2.15,-0.42 0.77,0 1.49,0.13 2.18,0.42 0.68,0.28 1.28,0.67 1.77,1.19 0.5,0.49 0.89,1.09 1.18,1.77 0.3,0.69 0.43,1.41 0.43,2.18zm88.02 -56.69c-0.82,-0.6 -1.83,-1.18 -2.98,-1.71 -1.15,-0.53 -2.39,-0.99 -3.71,-1.41 -1.32,-0.39 -2.69,-0.71 -4.12,-0.95 -1.44,-0.22 -2.86,-0.35 -4.26,-0.35 -2.69,0 -4.93,0.38 -6.76,1.13 -1.82,0.76 -3.27,1.7 -4.38,2.86 -1.1,1.15 -1.9,2.42 -2.38,3.78 -0.48,1.37 -0.72,2.65 -0.72,3.87 0,1.56 0.21,2.98 0.65,4.26 0.43,1.27 1.08,2.48 1.95,3.64 0.87,1.19 1.99,2.35 3.35,3.53 1.37,1.16 2.98,2.41 4.81,3.75 2.07,1.5 3.92,2.99 5.55,4.46 1.62,1.48 2.99,2.98 4.14,4.54 1.12,1.56 1.98,3.2 2.58,4.91 0.58,1.73 0.87,3.59 0.87,5.59 0,1.23 -0.12,2.6 -0.37,4.09 -0.26,1.49 -0.71,2.98 -1.35,4.49 -0.66,1.5 -1.56,2.97 -2.69,4.41 -1.13,1.44 -2.59,2.7 -4.33,3.8 -1.76,1.11 -3.87,2 -6.35,2.67 -2.46,0.67 -5.37,0.99 -8.72,0.99 -1.87,0 -3.7,-0.14 -5.51,-0.39 -1.8,-0.28 -3.53,-0.62 -5.14,-1.06 -1.62,-0.43 -3.11,-0.93 -4.46,-1.48 -1.36,-0.54 -2.52,-1.09 -3.49,-1.62l1.45 -8.73c1.08,0.77 2.29,1.49 3.66,2.17 1.37,0.69 2.83,1.31 4.37,1.82 1.53,0.51 3.13,0.92 4.75,1.23 1.64,0.29 3.27,0.45 4.88,0.45 2.53,0 4.72,-0.31 6.53,-0.91 1.82,-0.6 3.32,-1.42 4.52,-2.48 1.18,-1.05 2.06,-2.29 2.6,-3.73 0.55,-1.44 0.82,-2.99 0.82,-4.67 0,-1.49 -0.22,-2.86 -0.7,-4.06 -0.46,-1.2 -1.18,-2.38 -2.15,-3.52 -0.96,-1.17 -2.19,-2.33 -3.68,-3.51 -1.49,-1.2 -3.25,-2.52 -5.29,-3.95 -1.64,-1.17 -3.2,-2.43 -4.69,-3.78 -1.49,-1.35 -2.79,-2.83 -3.92,-4.44 -1.11,-1.6 -2,-3.35 -2.65,-5.23 -0.65,-1.88 -0.97,-3.94 -0.97,-6.14 0,-2.74 0.51,-5.34 1.52,-7.81 1.03,-2.44 2.53,-4.6 4.55,-6.45 2,-1.86 4.48,-3.33 7.44,-4.41 2.95,-1.1 6.39,-1.65 10.3,-1.65 1.51,0 3,0.11 4.49,0.3 1.49,0.17 2.92,0.42 4.33,0.75 1.4,0.31 2.73,0.67 3.98,1.04 1.25,0.4 2.36,0.79 3.34,1.18l-1.66 8.73zm22.21 60.9c-0.84,0.27 -1.78,0.49 -2.84,0.65 -1.04,0.17 -2.09,0.25 -3.13,0.25 -3.37,0 -5.9,-0.83 -7.57,-2.53 -1.67,-1.69 -2.51,-3.95 -2.51,-6.79 0,-0.84 0.09,-1.81 0.26,-2.96 0.17,-1.13 0.42,-2.53 0.8,-4.21l7.46 -35.54 8.33 0 -7.53 35.74c-0.28,1.41 -0.51,2.49 -0.61,3.25 -0.12,0.78 -0.19,1.43 -0.19,1.97 0,1.37 0.38,2.42 1.13,3.13 0.75,0.72 1.95,1.08 3.59,1.08 0.88,0 1.63,-0.05 2.28,-0.15 0.65,-0.1 1.27,-0.26 1.83,-0.46l-1.3 6.57zm5.87 -69.42c0,1.5 -0.51,2.79 -1.54,3.85 -1.01,1.08 -2.28,1.61 -3.78,1.61 -1.47,0 -2.76,-0.53 -3.84,-1.58 -1.09,-1.06 -1.62,-2.36 -1.62,-3.88 0,-1.54 0.53,-2.79 1.62,-3.77 1.08,-0.97 2.37,-1.45 3.84,-1.45 1.47,0 2.72,0.5 3.76,1.47 1.03,0.99 1.56,2.24 1.56,3.75zm36.19 27.31c-1.51,-0.96 -3.19,-1.75 -5.07,-2.35 -1.86,-0.6 -3.74,-0.9 -5.61,-0.9 -3.15,0 -5.58,0.71 -7.29,2.15 -1.73,1.44 -2.58,3.34 -2.58,5.72 0,0.95 0.15,1.85 0.48,2.65 0.31,0.8 0.78,1.56 1.4,2.28 0.62,0.71 1.4,1.42 2.35,2.08 0.95,0.67 2.05,1.39 3.28,2.16 3.75,2.17 6.45,4.4 8.09,6.69 1.66,2.29 2.49,4.87 2.49,7.75 0,1.93 -0.36,3.83 -1.08,5.68 -0.72,1.87 -1.85,3.49 -3.43,4.91 -1.57,1.42 -3.61,2.57 -6.09,3.44 -2.49,0.87 -5.52,1.3 -9.1,1.3 -0.99,0 -2.1,-0.07 -3.3,-0.2 -1.22,-0.12 -2.41,-0.33 -3.65,-0.6 -1.21,-0.26 -2.38,-0.58 -3.5,-0.98 -1.12,-0.38 -2.09,-0.82 -2.93,-1.32l1.66 -7.82c0.67,0.47 1.49,0.93 2.48,1.41 0.98,0.46 2.05,0.87 3.2,1.25 1.15,0.36 2.36,0.66 3.61,0.9 1.25,0.23 2.5,0.35 3.73,0.35 3.35,0 5.85,-0.67 7.49,-2.01 1.67,-1.33 2.49,-3.2 2.49,-5.56 0,-0.87 -0.12,-1.67 -0.38,-2.41 -0.24,-0.73 -0.68,-1.47 -1.32,-2.21 -0.63,-0.73 -1.47,-1.47 -2.51,-2.22 -1.03,-0.75 -2.35,-1.59 -3.9,-2.53 -3.43,-2.07 -5.94,-4.25 -7.55,-6.51 -1.62,-2.24 -2.43,-4.79 -2.43,-7.63 0,-2.07 0.38,-4.05 1.15,-5.95 0.77,-1.88 1.91,-3.56 3.44,-5 1.52,-1.45 3.42,-2.62 5.73,-3.49 2.31,-0.87 4.99,-1.3 8.07,-1.3 2.42,0 4.69,0.22 6.85,0.7 2.15,0.46 3.98,1.06 5.49,1.8l-1.76 7.77zm38.81 -2.06l-12.94 0 -5.77 27.23c-0.2,1.04 -0.41,2.15 -0.6,3.35 -0.2,1.22 -0.3,2.17 -0.3,2.91 0,1.71 0.37,2.94 1.13,3.69 0.75,0.76 1.95,1.13 3.57,1.13 0.41,0 0.93,-0.06 1.56,-0.2 0.63,-0.14 1.28,-0.31 1.95,-0.5 0.68,-0.2 1.33,-0.43 1.98,-0.68 0.65,-0.26 1.24,-0.48 1.73,-0.69l-1.55 7.22c-1.17,0.52 -2.5,0.93 -3.98,1.29 -1.48,0.34 -2.9,0.53 -4.24,0.53 -1.9,0 -3.52,-0.24 -4.86,-0.74 -1.33,-0.48 -2.43,-1.18 -3.28,-2.07 -0.86,-0.9 -1.47,-2 -1.85,-3.28 -0.39,-1.29 -0.58,-2.74 -0.58,-4.35 0,-0.96 0.08,-2.09 0.27,-3.37 0.19,-1.3 0.41,-2.46 0.69,-3.54l5.9 -27.93 -8.52 0 1.56 -6.96 8.41 0 2.66 -12.52c0.13,-0.07 0.65,-0.25 1.54,-0.48 0.88,-0.26 1.84,-0.55 2.9,-0.86 1.05,-0.33 2.02,-0.62 2.91,-0.87 0.88,-0.28 1.37,-0.43 1.48,-0.46l-3.17 15.19 12.93 0 -1.53 6.96zm46.71 5.07c0,2.7 -0.6,5.16 -1.82,7.39 -1.19,2.22 -3.18,4.12 -5.95,5.71 -2.79,1.6 -6.44,2.83 -10.99,3.7 -4.55,0.86 -10.16,1.32 -16.83,1.35 -0.07,0.36 -0.11,0.75 -0.11,1.15 0,0.38 0,0.7 0,1.01 0,1.8 0.24,3.51 0.76,5.1 0.49,1.61 1.26,3.01 2.32,4.22 1.05,1.2 2.42,2.16 4.06,2.86 1.66,0.7 3.63,1.05 5.88,1.05 2.32,0 4.85,-0.45 7.6,-1.34 2.76,-0.87 5.39,-2.14 7.91,-3.78l-1.56 8.13c-1.85,1.06 -4.02,2 -6.57,2.8 -2.53,0.81 -5.37,1.2 -8.52,1.2 -3.78,0 -6.97,-0.58 -9.55,-1.74 -2.58,-1.19 -4.67,-2.74 -6.26,-4.69 -1.59,-1.97 -2.74,-4.21 -3.44,-6.78 -0.7,-2.55 -1.05,-5.23 -1.05,-8.04 0,-3.01 0.33,-5.9 1,-8.69 0.67,-2.79 1.61,-5.39 2.84,-7.81 1.21,-2.39 2.67,-4.6 4.38,-6.58 1.71,-1.99 3.59,-3.68 5.66,-5.08 2.07,-1.41 4.3,-2.5 6.67,-3.27 2.37,-0.77 4.83,-1.15 7.36,-1.15 2.65,0 4.98,0.34 7,1.04 2.02,0.71 3.71,1.66 5.07,2.9 1.35,1.21 2.37,2.61 3.08,4.22 0.7,1.61 1.06,3.32 1.06,5.12zm-8.39 0.41c0,-2.12 -0.77,-3.75 -2.33,-4.93 -1.55,-1.16 -3.61,-1.74 -6.19,-1.74 -2.04,0 -4,0.44 -5.9,1.33 -1.92,0.87 -3.66,2.1 -5.27,3.65 -1.61,1.55 -3,3.42 -4.16,5.57 -1.16,2.16 -2.02,4.49 -2.57,6.98 4.79,0 8.85,-0.23 12.19,-0.71 3.35,-0.5 6.07,-1.2 8.18,-2.14 2.1,-0.93 3.64,-2.07 4.6,-3.43 0.97,-1.35 1.45,-2.89 1.45,-4.58zm93.21 0.5c0,0.42 -0.07,1.09 -0.18,1.98 -0.12,0.87 -0.27,1.83 -0.46,2.82 -0.19,1.01 -0.36,2 -0.55,2.98 -0.19,0.99 -0.34,1.81 -0.48,2.48l-6.05 28.13 -8.23 0 6.26 -30.08c0.14,-0.56 0.27,-1.2 0.41,-1.9 0.14,-0.7 0.26,-1.4 0.38,-2.09 0.12,-0.68 0.2,-1.31 0.27,-1.89 0.07,-0.59 0.1,-1.05 0.1,-1.39 0,-2.64 -0.56,-4.67 -1.71,-6.09 -1.13,-1.42 -2.91,-2.12 -5.3,-2.12 -1.29,0 -2.59,0.29 -3.94,0.87 -1.37,0.58 -2.68,1.38 -3.97,2.38 -1.28,1.01 -2.51,2.17 -3.71,3.5 -1.18,1.34 -2.26,2.78 -3.25,4.3 -0.99,1.52 -1.83,3.08 -2.53,4.65 -0.7,1.6 -1.22,3.15 -1.56,4.69l-5.36 25.17 -8.33 0 6.37 -30.08c0.13,-0.56 0.27,-1.2 0.41,-1.9 0.13,-0.7 0.25,-1.4 0.37,-2.09 0.12,-0.68 0.21,-1.31 0.28,-1.89 0.07,-0.59 0.1,-1.05 0.1,-1.39 0,-2.64 -0.58,-4.67 -1.76,-6.09 -1.17,-1.42 -2.93,-2.12 -5.26,-2.12 -1.3,0 -2.65,0.29 -4.02,0.87 -1.37,0.58 -2.7,1.38 -4,2.41 -1.3,1.01 -2.55,2.21 -3.73,3.56 -1.2,1.35 -2.28,2.79 -3.27,4.31 -0.97,1.53 -1.81,3.07 -2.5,4.66 -0.68,1.59 -1.2,3.15 -1.54,4.68l-5.35 25.07 -8.32 0 7.91 -36.65c0.27,-1.3 0.54,-2.65 0.8,-4.07 0.27,-1.42 0.53,-2.79 0.75,-4.13 0.24,-1.31 0.45,-2.54 0.6,-3.67 0.17,-1.13 0.31,-2.07 0.41,-2.81l8.03 0c-0.17,1.3 -0.38,2.67 -0.62,4.09 -0.22,1.42 -0.43,2.72 -0.6,3.93 -0.18,1.41 -0.41,2.78 -0.65,4.11l0.21 0c1.2,-1.93 2.5,-3.73 3.9,-5.37 1.4,-1.63 2.89,-3.05 4.47,-4.23 1.57,-1.18 3.21,-2.12 4.91,-2.79 1.71,-0.66 3.47,-0.99 5.32,-0.99 2.14,0 3.97,0.31 5.51,0.94 1.54,0.65 2.82,1.54 3.83,2.69 1.03,1.14 1.8,2.55 2.33,4.19 0.54,1.63 0.85,3.46 0.95,5.46 1.24,-1.87 2.57,-3.61 3.99,-5.24 1.42,-1.62 2.95,-3.03 4.57,-4.21 1.61,-1.18 3.34,-2.12 5.15,-2.8 1.83,-0.69 3.77,-1.03 5.8,-1.03 4.28,0 7.48,1.25 9.62,3.73 2.14,2.5 3.22,5.97 3.22,10.46zm50.56 21.95c-0.26,1.26 -0.52,2.7 -0.77,4.29 -0.26,1.58 -0.46,3.15 -0.65,4.71 -0.19,1.56 -0.34,2.99 -0.45,4.33 -0.12,1.33 -0.19,2.37 -0.19,3.11l-8.52 0c0.04,-0.67 0.09,-1.47 0.16,-2.41 0.06,-0.92 0.15,-1.9 0.27,-2.91 0.12,-0.99 0.24,-1.98 0.36,-2.94 0.1,-0.98 0.24,-1.82 0.38,-2.52l-0.21 0c-1.04,1.64 -2.09,3.18 -3.16,4.64 -1.07,1.45 -2.25,2.74 -3.56,3.83 -1.3,1.11 -2.76,1.97 -4.37,2.62 -1.59,0.63 -3.49,0.94 -5.66,0.94 -2.23,0 -4.28,-0.39 -6.14,-1.2 -1.85,-0.8 -3.44,-2 -4.78,-3.59 -1.33,-1.58 -2.38,-3.58 -3.08,-5.95 -0.72,-2.4 -1.08,-5.17 -1.08,-8.36 0,-1.93 0.19,-4.13 0.61,-6.62 0.39,-2.46 1.07,-4.99 2.01,-7.56 0.96,-2.57 2.23,-5.08 3.82,-7.55 1.59,-2.46 3.56,-4.65 5.92,-6.58 2.34,-1.95 5.13,-3.49 8.35,-4.67 3.2,-1.17 6.91,-1.75 11.12,-1.75 2.67,0 5.42,0.19 8.27,0.6 2.83,0.39 5.66,0.89 8.46,1.45l-7.11 34.09zm-2.35 -28.11c-1.18,-0.28 -2.55,-0.52 -4.12,-0.71 -1.56,-0.2 -3.03,-0.3 -4.4,-0.3 -2.91,0 -5.47,0.46 -7.7,1.36 -2.22,0.93 -4.16,2.13 -5.78,3.62 -1.64,1.48 -3.03,3.2 -4.14,5.15 -1.13,1.93 -2.02,3.91 -2.69,5.93 -0.67,2.02 -1.15,4.02 -1.42,5.99 -0.29,1.97 -0.43,3.77 -0.43,5.36 0,1.91 0.18,3.62 0.5,5.15 0.34,1.52 0.86,2.8 1.57,3.88 0.72,1.06 1.65,1.9 2.76,2.48 1.13,0.58 2.46,0.88 3.98,0.88 1.68,0 3.24,-0.35 4.69,-1.03 1.46,-0.69 2.83,-1.61 4.09,-2.79 1.27,-1.16 2.43,-2.52 3.46,-4.06 1.04,-1.54 1.97,-3.16 2.81,-4.89 0.83,-1.71 1.55,-3.47 2.13,-5.25 0.59,-1.8 1.07,-3.53 1.42,-5.19l3.27 -15.58zm48.97 2.24c-1.5,-0.96 -3.18,-1.75 -5.06,-2.35 -1.87,-0.6 -3.75,-0.9 -5.61,-0.9 -3.15,0 -5.58,0.71 -7.29,2.15 -1.73,1.44 -2.59,3.34 -2.59,5.72 0,0.95 0.16,1.85 0.48,2.65 0.31,0.8 0.79,1.56 1.41,2.28 0.61,0.71 1.4,1.42 2.34,2.08 0.96,0.67 2.05,1.39 3.29,2.16 3.74,2.17 6.45,4.4 8.09,6.69 1.66,2.29 2.48,4.87 2.48,7.75 0,1.93 -0.36,3.83 -1.08,5.68 -0.72,1.87 -1.85,3.49 -3.42,4.91 -1.57,1.42 -3.61,2.57 -6.09,3.44 -2.5,0.87 -5.53,1.3 -9.1,1.3 -1,0 -2.11,-0.07 -3.31,-0.2 -1.21,-0.12 -2.41,-0.33 -3.64,-0.6 -1.22,-0.26 -2.38,-0.58 -3.51,-0.98 -1.11,-0.38 -2.09,-0.82 -2.93,-1.32l1.67 -7.82c0.66,0.47 1.48,0.93 2.48,1.41 0.97,0.46 2.05,0.87 3.2,1.25 1.14,0.36 2.36,0.66 3.61,0.9 1.25,0.23 2.49,0.35 3.73,0.35 3.35,0 5.85,-0.67 7.49,-2.01 1.66,-1.33 2.48,-3.2 2.48,-5.56 0,-0.87 -0.12,-1.67 -0.37,-2.41 -0.24,-0.73 -0.69,-1.47 -1.32,-2.21 -0.63,-0.73 -1.47,-1.47 -2.52,-2.22 -1.02,-0.75 -2.34,-1.59 -3.9,-2.53 -3.42,-2.07 -5.93,-4.25 -7.55,-6.51 -1.62,-2.24 -2.42,-4.79 -2.42,-7.63 0,-2.07 0.37,-4.05 1.14,-5.95 0.77,-1.88 1.92,-3.56 3.44,-5 1.52,-1.45 3.42,-2.62 5.73,-3.49 2.31,-0.87 5,-1.3 8.08,-1.3 2.41,0 4.69,0.22 6.84,0.7 2.16,0.46 3.99,1.06 5.5,1.8l-1.77 7.77z"/>
   <path class="fil3" d="M900.9 180.49c-0.24,1.08 -0.46,2.36 -0.68,3.87 -0.23,1.5 -0.41,3.01 -0.59,4.53 -0.15,1.52 -0.3,2.94 -0.41,4.28 -0.12,1.33 -0.18,2.37 -0.18,3.11l-8.53 0c0,-0.56 0.06,-1.33 0.14,-2.27 0.07,-0.96 0.17,-1.96 0.29,-3 0.12,-1.03 0.24,-2.02 0.38,-2.97 0.14,-0.96 0.26,-1.73 0.36,-2.33l-0.21 0c-1.2,1.93 -2.41,3.64 -3.61,5.13 -1.2,1.49 -2.48,2.72 -3.81,3.71 -1.34,0.99 -2.76,1.73 -4.26,2.23 -1.51,0.51 -3.15,0.75 -4.97,0.75 -2.32,0 -4.44,-0.41 -6.31,-1.25 -1.87,-0.84 -3.47,-2.07 -4.79,-3.68 -1.32,-1.62 -2.33,-3.62 -3.03,-6.02 -0.7,-2.4 -1.04,-5.13 -1.04,-8.25 0,-2.46 0.25,-5.04 0.77,-7.71 0.51,-2.67 1.32,-5.31 2.41,-7.87 1.08,-2.57 2.46,-5.02 4.12,-7.33 1.68,-2.29 3.66,-4.33 5.97,-6.06 2.31,-1.74 4.95,-3.11 7.93,-4.14 2.97,-1.01 6.29,-1.52 9.97,-1.52 1.87,0 3.61,0.12 5.2,0.38 1.61,0.24 3,0.49 4.18,0.77l5.2 -24.56 8.13 0 -12.63 60.2zm-2.15 -28.58c-1.29,-0.36 -2.61,-0.65 -3.99,-0.87 -1.39,-0.22 -2.88,-0.32 -4.43,-0.32 -2.91,0 -5.48,0.44 -7.7,1.35 -2.23,0.9 -4.16,2.1 -5.82,3.61 -1.66,1.5 -3.05,3.22 -4.16,5.13 -1.13,1.94 -2.02,3.9 -2.7,5.92 -0.69,2.02 -1.18,4.01 -1.46,5.97 -0.29,1.95 -0.42,3.72 -0.42,5.29 0,1.87 0.15,3.58 0.47,5.12 0.31,1.52 0.83,2.84 1.55,3.95 0.71,1.09 1.65,1.95 2.78,2.55 1.13,0.6 2.5,0.91 4.11,0.91 1.68,0 3.23,-0.35 4.69,-1.05 1.45,-0.7 2.82,-1.66 4.09,-2.86 1.26,-1.21 2.41,-2.6 3.45,-4.17 1.05,-1.56 1.97,-3.24 2.81,-5.02 0.84,-1.76 1.54,-3.55 2.14,-5.38 0.58,-1.82 1.06,-3.56 1.42,-5.24l3.17 -14.89zm60.65 5.07c0,2.7 -0.6,5.16 -1.81,7.39 -1.2,2.22 -3.18,4.12 -5.96,5.71 -2.78,1.6 -6.43,2.83 -10.98,3.7 -4.55,0.86 -10.16,1.32 -16.84,1.35 -0.07,0.36 -0.1,0.75 -0.1,1.15 0,0.38 0,0.7 0,1.01 0,1.8 0.24,3.51 0.75,5.1 0.5,1.61 1.27,3.01 2.33,4.22 1.04,1.2 2.41,2.16 4.06,2.86 1.66,0.7 3.62,1.05 5.88,1.05 2.31,0 4.84,-0.45 7.6,-1.34 2.75,-0.87 5.39,-2.14 7.9,-3.78l-1.55 8.13c-1.85,1.06 -4.02,2 -6.57,2.8 -2.54,0.81 -5.38,1.2 -8.53,1.2 -3.78,0 -6.96,-0.58 -9.54,-1.74 -2.59,-1.19 -4.67,-2.74 -6.26,-4.69 -1.6,-1.97 -2.74,-4.21 -3.45,-6.78 -0.7,-2.55 -1.04,-5.23 -1.04,-8.04 0,-3.01 0.33,-5.9 0.99,-8.69 0.67,-2.79 1.61,-5.39 2.84,-7.81 1.22,-2.39 2.67,-4.6 4.38,-6.58 1.72,-1.99 3.6,-3.68 5.67,-5.08 2.07,-1.41 4.29,-2.5 6.67,-3.27 2.36,-0.77 4.83,-1.15 7.36,-1.15 2.65,0 4.98,0.34 7,1.04 2.02,0.71 3.71,1.66 5.06,2.9 1.35,1.21 2.38,2.61 3.08,4.22 0.7,1.61 1.06,3.32 1.06,5.12zm-8.38 0.41c0,-2.12 -0.77,-3.75 -2.33,-4.93 -1.56,-1.16 -3.61,-1.74 -6.19,-1.74 -2.04,0 -4.01,0.44 -5.91,1.33 -1.91,0.87 -3.66,2.1 -5.27,3.65 -1.6,1.55 -2.99,3.42 -4.15,5.57 -1.17,2.16 -2.02,4.49 -2.57,6.98 4.79,0 8.85,-0.23 12.18,-0.71 3.36,-0.5 6.08,-1.2 8.18,-2.14 2.11,-0.93 3.65,-2.07 4.6,-3.43 0.98,-1.35 1.46,-2.89 1.46,-4.58zm50.89 38.89l-8.63 0 15.18 -71.88 8.73 0 -15.28 71.88zm67.43 -38.5c0,0.5 -0.07,1.18 -0.19,2.06 -0.12,0.87 -0.25,1.81 -0.44,2.8 -0.19,1.01 -0.38,2 -0.55,2.98 -0.19,0.99 -0.36,1.83 -0.53,2.53l-5.97 28.13 -8.32 0 6.26 -30.08c0.14,-0.53 0.28,-1.14 0.41,-1.85 0.12,-0.7 0.24,-1.4 0.35,-2.1 0.1,-0.7 0.19,-1.35 0.25,-1.93 0.07,-0.59 0.11,-1.05 0.11,-1.39 0,-2.53 -0.62,-4.53 -1.83,-6.01 -1.24,-1.47 -3.05,-2.2 -5.45,-2.2 -2.2,0 -4.39,0.65 -6.57,1.95 -2.17,1.3 -4.17,2.96 -6.02,4.96 -1.83,2 -3.4,4.21 -4.72,6.62 -1.34,2.41 -2.23,4.72 -2.69,6.96l-5.37 25.07 -8.32 0 7.93 -36.65c0.27,-1.3 0.53,-2.65 0.8,-4.07 0.26,-1.42 0.51,-2.79 0.75,-4.13 0.23,-1.31 0.43,-2.54 0.6,-3.67 0.17,-1.13 0.29,-2.07 0.4,-2.81l8.02 0c-0.17,1.3 -0.36,2.67 -0.6,4.09 -0.24,1.42 -0.43,2.72 -0.6,3.93 -0.2,1.41 -0.42,2.78 -0.65,4.11l0.19 0c1.18,-1.83 2.46,-3.57 3.88,-5.18 1.43,-1.63 2.97,-3.05 4.62,-4.26 1.66,-1.24 3.41,-2.19 5.27,-2.9 1.85,-0.7 3.8,-1.04 5.84,-1.04 2.27,0 4.22,0.34 5.87,1.03 1.62,0.68 2.99,1.64 4.07,2.87 1.1,1.23 1.9,2.72 2.41,4.47 0.52,1.74 0.79,3.64 0.79,5.71zm46.51 -30.37c-0.33,-0.17 -0.74,-0.32 -1.2,-0.48 -0.48,-0.15 -0.98,-0.29 -1.5,-0.43 -0.54,-0.13 -1.1,-0.24 -1.68,-0.32 -0.58,-0.09 -1.15,-0.12 -1.68,-0.12 -2.74,0 -4.86,0.89 -6.35,2.67 -1.49,1.8 -2.62,4.45 -3.39,8.01l-1.84 8.21 12.13 0 -1.66 6.96 -12.13 0 -13.13 61.42 -8.33 0 13.24 -61.42 -8.83 0 1.56 -6.96 8.83 0 2.05 -9.53c0.64,-2.94 1.53,-5.44 2.66,-7.51 1.13,-2.07 2.48,-3.77 4.05,-5.07 1.58,-1.3 3.36,-2.26 5.34,-2.85 2,-0.6 4.17,-0.91 6.55,-0.91 1.24,0 2.45,0.1 3.63,0.31 1.18,0.2 2.19,0.43 3.03,0.7l-1.35 7.32zm40.06 36.53c0,4.55 -0.64,8.87 -1.92,12.94 -1.3,4.09 -3.15,7.65 -5.58,10.71 -2.41,3.05 -5.36,5.47 -8.81,7.25 -3.46,1.8 -7.36,2.69 -11.71,2.69 -2.94,0 -5.59,-0.46 -7.95,-1.4 -2.35,-0.94 -4.35,-2.28 -6.01,-4.04 -1.66,-1.75 -2.92,-3.87 -3.81,-6.37 -0.9,-2.48 -1.32,-5.3 -1.32,-8.43 0,-4.72 0.67,-9.12 2.02,-13.21 1.35,-4.11 3.27,-7.67 5.71,-10.68 2.47,-3.03 5.41,-5.4 8.83,-7.11 3.42,-1.73 7.21,-2.59 11.35,-2.59 2.91,0 5.54,0.46 7.9,1.4 2.36,0.93 4.36,2.28 6.04,4.04 1.66,1.75 2.96,3.87 3.88,6.37 0.93,2.48 1.38,5.3 1.38,8.43zm-8.43 0.41c0,-2.17 -0.25,-4.1 -0.8,-5.8 -0.53,-1.67 -1.28,-3.09 -2.24,-4.26 -0.97,-1.14 -2.14,-2.03 -3.53,-2.65 -1.36,-0.62 -2.89,-0.92 -4.6,-0.92 -2.94,0 -5.59,0.75 -7.97,2.25 -2.38,1.51 -4.38,3.48 -6.01,5.94 -1.64,2.45 -2.91,5.25 -3.8,8.37 -0.87,3.13 -1.31,6.33 -1.31,9.6 0,2.07 0.25,3.95 0.77,5.65 0.51,1.67 1.25,3.11 2.2,4.31 0.96,1.18 2.13,2.08 3.51,2.72 1.39,0.65 2.94,0.96 4.69,0.96 2.98,0 5.65,-0.74 8.03,-2.23 2.36,-1.49 4.38,-3.46 6,-5.92 1.64,-2.46 2.89,-5.25 3.76,-8.4 0.88,-3.13 1.3,-6.35 1.3,-9.62zm50.74 -10.67l-0.21 0c-0.66,-0.41 -1.54,-0.81 -2.61,-1.18 -1.1,-0.4 -2.18,-0.59 -3.24,-0.59 -1.95,0 -3.8,0.64 -5.58,1.89 -1.76,1.24 -3.37,2.9 -4.82,4.96 -1.45,2.05 -2.72,4.39 -3.82,7.05 -1.07,2.63 -1.93,5.34 -2.53,8.11l-4.81 22.36 -8.23 0 7.22 -34.08c0.31,-1.41 0.6,-2.88 0.91,-4.42 0.31,-1.54 0.58,-3.08 0.82,-4.62 0.26,-1.52 0.48,-2.99 0.69,-4.39 0.2,-1.41 0.34,-2.69 0.44,-3.82l8.13 0c-0.1,1.01 -0.22,2.07 -0.36,3.18 -0.12,1.11 -0.26,2.21 -0.4,3.25 -0.13,1.06 -0.27,2.02 -0.39,2.86 -0.13,0.86 -0.24,1.52 -0.31,1.99l0.21 0c1.06,-1.9 2.16,-3.63 3.25,-5.17 1.11,-1.53 2.26,-2.84 3.49,-3.94 1.22,-1.08 2.52,-1.91 3.88,-2.51 1.37,-0.62 2.86,-0.91 4.47,-0.91 0.92,0 1.85,0.09 2.77,0.27 0.93,0.19 1.75,0.38 2.48,0.59l-1.45 9.12zm81.02 4.21c0,0.42 -0.07,1.09 -0.17,1.98 -0.12,0.87 -0.28,1.83 -0.47,2.82 -0.18,1.01 -0.35,2 -0.54,2.98 -0.19,0.99 -0.35,1.81 -0.48,2.48l-6.06 28.13 -8.23 0 6.26 -30.08c0.14,-0.56 0.28,-1.2 0.41,-1.9 0.14,-0.7 0.26,-1.4 0.38,-2.09 0.12,-0.68 0.21,-1.31 0.27,-1.89 0.07,-0.59 0.11,-1.05 0.11,-1.39 0,-2.64 -0.57,-4.67 -1.71,-6.09 -1.13,-1.42 -2.91,-2.12 -5.31,-2.12 -1.28,0 -2.58,0.29 -3.93,0.87 -1.37,0.58 -2.69,1.38 -3.97,2.38 -1.29,1.01 -2.52,2.17 -3.72,3.5 -1.18,1.34 -2.25,2.78 -3.25,4.3 -0.99,1.52 -1.83,3.08 -2.53,4.65 -0.7,1.6 -1.22,3.15 -1.56,4.69l-5.35 25.17 -8.33 0 6.36 -30.08c0.14,-0.56 0.27,-1.2 0.41,-1.9 0.14,-0.7 0.26,-1.4 0.38,-2.09 0.12,-0.68 0.2,-1.31 0.27,-1.89 0.07,-0.59 0.1,-1.05 0.1,-1.39 0,-2.64 -0.58,-4.67 -1.76,-6.09 -1.16,-1.42 -2.93,-2.12 -5.25,-2.12 -1.3,0 -2.65,0.29 -4.02,0.87 -1.37,0.58 -2.71,1.38 -4.01,2.41 -1.3,1.01 -2.55,2.21 -3.73,3.56 -1.19,1.35 -2.27,2.79 -3.27,4.31 -0.97,1.53 -1.81,3.07 -2.49,4.66 -0.69,1.59 -1.2,3.15 -1.54,4.68l-5.36 25.07 -8.32 0 7.91 -36.65c0.27,-1.3 0.55,-2.65 0.8,-4.07 0.28,-1.42 0.53,-2.79 0.76,-4.13 0.24,-1.31 0.44,-2.54 0.59,-3.67 0.18,-1.13 0.31,-2.07 0.42,-2.81l8.02 0c-0.17,1.3 -0.38,2.67 -0.61,4.09 -0.23,1.42 -0.43,2.72 -0.6,3.93 -0.19,1.41 -0.41,2.78 -0.65,4.11l0.2 0c1.2,-1.93 2.5,-3.73 3.9,-5.37 1.41,-1.63 2.89,-3.05 4.47,-4.23 1.57,-1.18 3.21,-2.12 4.91,-2.79 1.71,-0.66 3.47,-0.99 5.32,-0.99 2.14,0 3.97,0.31 5.51,0.94 1.54,0.65 2.82,1.54 3.83,2.69 1.03,1.14 1.8,2.55 2.33,4.19 0.55,1.63 0.85,3.46 0.96,5.46 1.23,-1.87 2.56,-3.61 3.99,-5.24 1.42,-1.62 2.94,-3.03 4.57,-4.21 1.6,-1.18 3.33,-2.12 5.14,-2.8 1.84,-0.69 3.77,-1.03 5.8,-1.03 4.28,0 7.48,1.25 9.62,3.73 2.14,2.5 3.22,5.97 3.22,10.46zm50.56 21.95c-0.26,1.26 -0.51,2.7 -0.77,4.29 -0.26,1.58 -0.46,3.15 -0.65,4.71 -0.19,1.56 -0.34,2.99 -0.45,4.33 -0.11,1.33 -0.18,2.37 -0.18,3.11l-8.52 0c0.03,-0.67 0.08,-1.47 0.15,-2.41 0.07,-0.92 0.15,-1.9 0.27,-2.91 0.12,-0.99 0.24,-1.98 0.36,-2.94 0.1,-0.98 0.24,-1.82 0.38,-2.52l-0.21 0c-1.04,1.64 -2.08,3.18 -3.16,4.64 -1.06,1.45 -2.24,2.74 -3.56,3.83 -1.3,1.11 -2.76,1.97 -4.36,2.62 -1.6,0.63 -3.49,0.94 -5.67,0.94 -2.22,0 -4.28,-0.39 -6.14,-1.2 -1.85,-0.8 -3.44,-2 -4.77,-3.59 -1.34,-1.58 -2.38,-3.58 -3.08,-5.95 -0.72,-2.4 -1.08,-5.17 -1.08,-8.36 0,-1.93 0.19,-4.13 0.6,-6.62 0.39,-2.46 1.08,-4.99 2.02,-7.56 0.95,-2.57 2.22,-5.08 3.81,-7.55 1.59,-2.46 3.56,-4.65 5.92,-6.58 2.35,-1.95 5.14,-3.49 8.35,-4.67 3.2,-1.17 6.92,-1.75 11.12,-1.75 2.67,0 5.43,0.19 8.27,0.6 2.84,0.39 5.66,0.89 8.47,1.45l-7.12 34.09zm-2.34 -28.11c-1.18,-0.28 -2.55,-0.52 -4.13,-0.71 -1.55,-0.2 -3.03,-0.3 -4.39,-0.3 -2.91,0 -5.48,0.46 -7.7,1.36 -2.23,0.93 -4.16,2.13 -5.79,3.62 -1.64,1.48 -3.03,3.2 -4.14,5.15 -1.13,1.93 -2.02,3.91 -2.68,5.93 -0.67,2.02 -1.15,4.02 -1.42,5.99 -0.3,1.97 -0.43,3.77 -0.43,5.36 0,1.91 0.17,3.62 0.49,5.15 0.35,1.52 0.86,2.8 1.58,3.88 0.72,1.06 1.64,1.9 2.75,2.48 1.13,0.58 2.47,0.88 3.99,0.88 1.68,0 3.23,-0.35 4.69,-1.03 1.45,-0.69 2.82,-1.61 4.09,-2.79 1.26,-1.16 2.43,-2.52 3.45,-4.06 1.05,-1.54 1.97,-3.16 2.81,-4.89 0.84,-1.71 1.56,-3.47 2.14,-5.25 0.58,-1.8 1.06,-3.53 1.42,-5.19l3.27 -15.58zm55.93 3.4c-1.4,-1.25 -3.1,-2.29 -5.08,-3.13 -1.99,-0.86 -4.19,-1.28 -6.59,-1.28 -2.31,0 -4.4,0.39 -6.24,1.19 -1.85,0.81 -3.51,1.89 -4.95,3.22 -1.44,1.33 -2.67,2.88 -3.69,4.6 -1.05,1.75 -1.9,3.54 -2.57,5.43 -0.67,1.86 -1.16,3.73 -1.47,5.58 -0.33,1.86 -0.48,3.59 -0.48,5.18 0,4.79 1.04,8.42 3.15,10.88 2.12,2.48 4.98,3.72 8.62,3.72 2.21,0 4.5,-0.47 6.88,-1.39 2.36,-0.91 4.6,-2.09 6.71,-3.53l-1.75 8.22c-2.17,1.18 -4.34,2.09 -6.5,2.74 -2.16,0.65 -4.43,0.97 -6.84,0.97 -3.14,0 -5.87,-0.53 -8.2,-1.61 -2.31,-1.06 -4.24,-2.53 -5.78,-4.39 -1.54,-1.89 -2.69,-4.1 -3.46,-6.66 -0.77,-2.55 -1.15,-5.32 -1.15,-8.28 0,-2.81 0.28,-5.58 0.84,-8.3 0.58,-2.72 1.42,-5.31 2.53,-7.72 1.13,-2.43 2.5,-4.67 4.14,-6.74 1.65,-2.09 3.53,-3.87 5.65,-5.34 2.12,-1.49 4.48,-2.67 7.09,-3.52 2.6,-0.84 5.44,-1.27 8.46,-1.27 1.44,0 2.81,0.1 4.11,0.29 1.32,0.21 2.5,0.48 3.56,0.8 1.08,0.35 2.04,0.71 2.86,1.08 0.84,0.4 1.5,0.77 2.02,1.13l-1.87 8.13zm22.32 40.95c-0.84,0.27 -1.78,0.49 -2.85,0.65 -1.04,0.17 -2.08,0.25 -3.13,0.25 -3.37,0 -5.9,-0.83 -7.56,-2.53 -1.68,-1.69 -2.52,-3.95 -2.52,-6.79 0,-0.84 0.09,-1.81 0.26,-2.96 0.17,-1.13 0.43,-2.53 0.81,-4.21l7.45 -35.54 8.34 0 -7.53 35.74c-0.29,1.41 -0.51,2.49 -0.62,3.25 -0.12,0.78 -0.19,1.43 -0.19,1.97 0,1.37 0.38,2.42 1.14,3.13 0.75,0.72 1.95,1.08 3.59,1.08 0.87,0 1.62,-0.05 2.27,-0.15 0.65,-0.1 1.27,-0.26 1.83,-0.46l-1.29 6.57zm5.86 -69.42c0,1.5 -0.51,2.79 -1.54,3.85 -1.01,1.08 -2.27,1.61 -3.78,1.61 -1.47,0 -2.75,-0.53 -3.83,-1.58 -1.1,-1.06 -1.63,-2.36 -1.63,-3.88 0,-1.54 0.53,-2.79 1.63,-3.77 1.08,-0.97 2.36,-1.45 3.83,-1.45 1.47,0 2.72,0.5 3.77,1.47 1.02,0.99 1.55,2.24 1.55,3.75zm50.87 37.28c0,4.55 -0.63,8.87 -1.91,12.94 -1.3,4.09 -3.15,7.65 -5.58,10.71 -2.41,3.05 -5.36,5.47 -8.81,7.25 -3.46,1.8 -7.36,2.69 -11.71,2.69 -2.94,0 -5.59,-0.46 -7.95,-1.4 -2.35,-0.94 -4.35,-2.28 -6.01,-4.04 -1.66,-1.75 -2.92,-3.87 -3.81,-6.37 -0.89,-2.48 -1.32,-5.3 -1.32,-8.43 0,-4.72 0.67,-9.12 2.02,-13.21 1.35,-4.11 3.26,-7.67 5.71,-10.68 2.47,-3.03 5.41,-5.4 8.83,-7.11 3.42,-1.73 7.21,-2.59 11.35,-2.59 2.9,0 5.54,0.46 7.9,1.4 2.36,0.93 4.37,2.28 6.04,4.04 1.66,1.75 2.96,3.87 3.89,6.37 0.92,2.48 1.36,5.3 1.36,8.43zm-8.41 0.41c0,-2.17 -0.26,-4.1 -0.81,-5.8 -0.53,-1.67 -1.28,-3.09 -2.24,-4.26 -0.97,-1.14 -2.14,-2.03 -3.52,-2.65 -1.37,-0.62 -2.9,-0.92 -4.61,-0.92 -2.94,0 -5.59,0.75 -7.97,2.25 -2.38,1.51 -4.38,3.48 -6.01,5.94 -1.64,2.45 -2.91,5.25 -3.8,8.37 -0.87,3.13 -1.31,6.33 -1.31,9.6 0,2.07 0.25,3.95 0.77,5.65 0.51,1.67 1.25,3.11 2.21,4.31 0.95,1.18 2.12,2.08 3.5,2.72 1.39,0.65 2.94,0.96 4.69,0.96 2.98,0 5.65,-0.74 8.03,-2.23 2.36,-1.49 4.38,-3.46 6,-5.92 1.64,-2.46 2.89,-5.25 3.77,-8.4 0.87,-3.13 1.3,-6.35 1.3,-9.62zm-10.56 -29.17l-6.16 0 14.47 -16.39 8.08 0 -16.39 16.39zm75.34 22.6c0,0.5 -0.07,1.18 -0.19,2.06 -0.12,0.87 -0.26,1.81 -0.45,2.8 -0.18,1.01 -0.37,2 -0.55,2.98 -0.18,0.99 -0.35,1.83 -0.52,2.53l-5.98 28.13 -8.31 0 6.26 -30.08c0.14,-0.53 0.27,-1.14 0.41,-1.85 0.12,-0.7 0.24,-1.4 0.34,-2.1 0.11,-0.7 0.19,-1.35 0.26,-1.93 0.07,-0.59 0.1,-1.05 0.1,-1.39 0,-2.53 -0.61,-4.53 -1.83,-6.01 -1.23,-1.47 -3.04,-2.2 -5.44,-2.2 -2.21,0 -4.4,0.65 -6.57,1.95 -2.17,1.3 -4.18,2.96 -6.02,4.96 -1.83,2 -3.41,4.21 -4.72,6.62 -1.34,2.41 -2.23,4.72 -2.69,6.96l-5.37 25.07 -8.32 0 7.92 -36.65c0.28,-1.3 0.53,-2.65 0.81,-4.07 0.25,-1.42 0.51,-2.79 0.75,-4.13 0.22,-1.31 0.43,-2.54 0.6,-3.67 0.17,-1.13 0.29,-2.07 0.39,-2.81l8.03 0c-0.18,1.3 -0.36,2.67 -0.6,4.09 -0.24,1.42 -0.43,2.72 -0.6,3.93 -0.21,1.41 -0.43,2.78 -0.65,4.11l0.19 0c1.18,-1.83 2.46,-3.57 3.88,-5.18 1.42,-1.63 2.96,-3.05 4.62,-4.26 1.66,-1.24 3.41,-2.19 5.27,-2.9 1.85,-0.7 3.8,-1.04 5.84,-1.04 2.27,0 4.22,0.34 5.86,1.03 1.63,0.68 3,1.64 4.08,2.87 1.09,1.23 1.9,2.72 2.41,4.47 0.51,1.74 0.79,3.64 0.79,5.71zm101.14 -21.15c-1.1,-0.73 -2.36,-1.45 -3.78,-2.15 -1.42,-0.7 -2.98,-1.34 -4.69,-1.88 -1.71,-0.55 -3.56,-1 -5.54,-1.34 -1.99,-0.32 -4.09,-0.5 -6.33,-0.5 -4.99,0 -9.43,0.9 -13.35,2.66 -3.9,1.78 -7.22,4.19 -9.93,7.24 -2.7,3.06 -4.77,6.67 -6.21,10.81 -1.43,4.14 -2.15,8.57 -2.15,13.28 0,3.92 0.55,7.42 1.62,10.52 1.1,3.11 2.65,5.75 4.69,7.92 2.04,2.18 4.5,3.84 7.39,5 2.89,1.15 6.16,1.73 9.81,1.73 2.51,0 4.77,-0.21 6.79,-0.64 2.02,-0.41 3.9,-0.95 5.65,-1.62l4.31 -20.96 -16.65 0 1.66 -7.46 25.25 0 -7.06 33.12c-2.84,1.51 -5.99,2.78 -9.43,3.77 -3.44,1.01 -7.29,1.5 -11.53,1.5 -4.91,0 -9.29,-0.82 -13.18,-2.44 -3.88,-1.65 -7.17,-3.9 -9.85,-6.76 -2.69,-2.86 -4.74,-6.23 -6.16,-10.12 -1.42,-3.9 -2.14,-8.09 -2.14,-12.61 0,-3.88 0.41,-7.61 1.21,-11.22 0.81,-3.61 1.99,-7 3.56,-10.16 1.57,-3.15 3.53,-6.03 5.85,-8.63 2.35,-2.58 5.05,-4.8 8.13,-6.65 3.08,-1.87 6.5,-3.31 10.3,-4.31 3.8,-1.03 7.96,-1.55 12.46,-1.55 2.48,0 4.77,0.16 6.89,0.47 2.13,0.29 4.06,0.68 5.82,1.14 1.75,0.48 3.32,0.98 4.69,1.54 1.37,0.55 2.53,1.08 3.51,1.58l-1.61 8.72zm50.99 20.35c0,2.7 -0.6,5.16 -1.82,7.39 -1.19,2.22 -3.18,4.12 -5.95,5.71 -2.79,1.6 -6.43,2.83 -10.98,3.7 -4.56,0.86 -10.17,1.32 -16.84,1.35 -0.07,0.36 -0.1,0.75 -0.1,1.15 0,0.38 0,0.7 0,1.01 0,1.8 0.23,3.51 0.75,5.1 0.49,1.61 1.26,3.01 2.33,4.22 1.04,1.2 2.41,2.16 4.05,2.86 1.66,0.7 3.63,1.05 5.89,1.05 2.31,0 4.84,-0.45 7.59,-1.34 2.76,-0.87 5.39,-2.14 7.91,-3.78l-1.56 8.13c-1.85,1.06 -4.02,2 -6.57,2.8 -2.53,0.81 -5.37,1.2 -8.52,1.2 -3.78,0 -6.96,-0.58 -9.55,-1.74 -2.58,-1.19 -4.67,-2.74 -6.26,-4.69 -1.59,-1.97 -2.74,-4.21 -3.44,-6.78 -0.7,-2.55 -1.04,-5.23 -1.04,-8.04 0,-3.01 0.32,-5.9 0.99,-8.69 0.67,-2.79 1.61,-5.39 2.84,-7.81 1.21,-2.39 2.67,-4.6 4.38,-6.58 1.71,-1.99 3.59,-3.68 5.66,-5.08 2.07,-1.41 4.3,-2.5 6.68,-3.27 2.36,-0.77 4.82,-1.15 7.36,-1.15 2.65,0 4.97,0.34 6.99,1.04 2.02,0.71 3.72,1.66 5.07,2.9 1.35,1.21 2.38,2.61 3.08,4.22 0.7,1.61 1.06,3.32 1.06,5.12zm-8.39 0.41c0,-2.12 -0.77,-3.75 -2.32,-4.93 -1.56,-1.16 -3.61,-1.74 -6.2,-1.74 -2.03,0 -4,0.44 -5.9,1.33 -1.92,0.87 -3.66,2.1 -5.27,3.65 -1.61,1.55 -2.99,3.42 -4.16,5.57 -1.16,2.16 -2.02,4.49 -2.57,6.98 4.8,0 8.85,-0.23 12.19,-0.71 3.35,-0.5 6.07,-1.2 8.18,-2.14 2.1,-0.93 3.64,-2.07 4.6,-3.43 0.97,-1.35 1.45,-2.89 1.45,-4.58zm61.36 6.55c0,4.55 -0.63,8.87 -1.91,12.94 -1.3,4.09 -3.15,7.65 -5.58,10.71 -2.41,3.05 -5.36,5.47 -8.81,7.25 -3.46,1.8 -7.36,2.69 -11.71,2.69 -2.94,0 -5.59,-0.46 -7.95,-1.4 -2.35,-0.94 -4.35,-2.28 -6.01,-4.04 -1.66,-1.75 -2.92,-3.87 -3.81,-6.37 -0.9,-2.48 -1.32,-5.3 -1.32,-8.43 0,-4.72 0.67,-9.12 2.02,-13.21 1.35,-4.11 3.26,-7.67 5.71,-10.68 2.46,-3.03 5.41,-5.4 8.83,-7.11 3.42,-1.73 7.2,-2.59 11.35,-2.59 2.9,0 5.54,0.46 7.9,1.4 2.36,0.93 4.36,2.28 6.04,4.04 1.66,1.75 2.96,3.87 3.88,6.37 0.93,2.48 1.37,5.3 1.37,8.43zm-8.42 0.41c0,-2.17 -0.25,-4.1 -0.8,-5.8 -0.53,-1.67 -1.28,-3.09 -2.24,-4.26 -0.98,-1.14 -2.14,-2.03 -3.53,-2.65 -1.37,-0.62 -2.89,-0.92 -4.6,-0.92 -2.94,0 -5.59,0.75 -7.97,2.25 -2.38,1.51 -4.38,3.48 -6.01,5.94 -1.64,2.45 -2.91,5.25 -3.8,8.37 -0.87,3.13 -1.31,6.33 -1.31,9.6 0,2.07 0.25,3.95 0.77,5.65 0.51,1.67 1.25,3.11 2.2,4.31 0.96,1.18 2.12,2.08 3.51,2.72 1.39,0.65 2.94,0.96 4.69,0.96 2.98,0 5.65,-0.74 8.02,-2.23 2.36,-1.49 4.38,-3.46 6.01,-5.92 1.64,-2.46 2.89,-5.25 3.76,-8.4 0.88,-3.13 1.3,-6.35 1.3,-9.62z"/>
   <path class="fil3" d="M1770.44 192.57c-0.84,4.02 -1.94,7.71 -3.3,11.1 -1.37,3.39 -3.19,6.33 -5.45,8.83 -2.26,2.48 -5.03,4.42 -8.35,5.82 -3.3,1.39 -7.32,2.07 -12.08,2.07 -3.26,0 -6.12,-0.38 -8.54,-1.15 -2.42,-0.77 -4.63,-1.69 -6.65,-2.75l1.56 -7.68c2.1,1.28 4.34,2.34 6.72,3.21 2.38,0.88 4.93,1.31 7.67,1.31 2.97,0 5.56,-0.43 7.75,-1.31 2.19,-0.87 4.07,-2.15 5.66,-3.83 1.59,-1.69 2.91,-3.75 3.95,-6.19 1.06,-2.45 1.94,-5.24 2.64,-8.37l1.76 -8.03 -0.2 0c-1.27,2.04 -2.52,3.8 -3.73,5.29 -1.24,1.49 -2.5,2.72 -3.84,3.71 -1.35,0.98 -2.75,1.72 -4.22,2.21 -1.46,0.48 -3.08,0.72 -4.86,0.72 -2.31,0 -4.4,-0.41 -6.26,-1.23 -1.87,-0.81 -3.48,-2.02 -4.8,-3.63 -1.31,-1.61 -2.34,-3.61 -3.04,-6.02 -0.72,-2.4 -1.08,-5.17 -1.08,-8.32 0,-2.97 0.32,-5.9 0.97,-8.77 0.66,-2.88 1.6,-5.6 2.83,-8.17 1.23,-2.56 2.75,-4.94 4.53,-7.1 1.8,-2.15 3.84,-4.02 6.1,-5.58 2.27,-1.57 4.77,-2.8 7.49,-3.69 2.72,-0.87 5.64,-1.32 8.76,-1.32 3.1,0 6.21,0.19 9.31,0.6 3.11,0.39 5.97,0.86 8.57,1.35l-9.87 46.92zm0.41 -40.84c-1.15,-0.28 -2.52,-0.52 -4.14,-0.71 -1.63,-0.2 -3.36,-0.3 -5.19,-0.3 -3.15,0 -6.02,0.71 -8.62,2.17 -2.6,1.45 -4.86,3.44 -6.74,5.92 -1.9,2.5 -3.36,5.39 -4.42,8.69 -1.04,3.32 -1.57,6.81 -1.57,10.49 0,1.8 0.15,3.47 0.48,5.01 0.3,1.53 0.8,2.86 1.49,3.96 0.7,1.11 1.57,1.96 2.66,2.6 1.08,0.65 2.42,0.96 3.99,0.96 1.83,0 3.53,-0.38 5.08,-1.15 1.56,-0.77 2.98,-1.8 4.28,-3.06 1.32,-1.27 2.48,-2.72 3.49,-4.33 1.03,-1.63 1.92,-3.29 2.71,-5 0.78,-1.71 1.45,-3.39 1.98,-5.03 0.53,-1.66 0.96,-3.15 1.25,-4.5l3.27 -15.72zm51.02 1.95l-0.2 0c-0.67,-0.41 -1.54,-0.81 -2.62,-1.18 -1.1,-0.4 -2.17,-0.59 -3.23,-0.59 -1.96,0 -3.8,0.64 -5.58,1.89 -1.77,1.24 -3.37,2.9 -4.83,4.96 -1.45,2.05 -2.72,4.39 -3.81,7.05 -1.08,2.63 -1.94,5.34 -2.54,8.11l-4.8 22.36 -8.23 0 7.22 -34.08c0.3,-1.41 0.59,-2.88 0.9,-4.42 0.31,-1.54 0.58,-3.08 0.83,-4.62 0.25,-1.52 0.47,-2.99 0.68,-4.39 0.2,-1.41 0.34,-2.69 0.44,-3.82l8.13 0c-0.1,1.01 -0.22,2.07 -0.36,3.18 -0.12,1.11 -0.26,2.21 -0.39,3.25 -0.14,1.06 -0.27,2.02 -0.39,2.86 -0.14,0.86 -0.25,1.52 -0.31,1.99l0.2 0c1.06,-1.9 2.16,-3.63 3.25,-5.17 1.11,-1.53 2.26,-2.84 3.49,-3.94 1.22,-1.08 2.52,-1.91 3.89,-2.51 1.37,-0.62 2.85,-0.91 4.46,-0.91 0.93,0 1.85,0.09 2.78,0.27 0.92,0.19 1.74,0.38 2.48,0.59l-1.46 9.12zm42.71 26.16c-0.26,1.26 -0.51,2.7 -0.77,4.29 -0.26,1.58 -0.46,3.15 -0.65,4.71 -0.19,1.56 -0.34,2.99 -0.45,4.33 -0.11,1.33 -0.18,2.37 -0.18,3.11l-8.52 0c0.03,-0.67 0.08,-1.47 0.15,-2.41 0.07,-0.92 0.15,-1.9 0.27,-2.91 0.12,-0.99 0.24,-1.98 0.36,-2.94 0.11,-0.98 0.24,-1.82 0.38,-2.52l-0.21 0c-1.04,1.64 -2.08,3.18 -3.16,4.64 -1.06,1.45 -2.24,2.74 -3.56,3.83 -1.3,1.11 -2.76,1.97 -4.36,2.62 -1.59,0.63 -3.49,0.94 -5.67,0.94 -2.22,0 -4.28,-0.39 -6.14,-1.2 -1.85,-0.8 -3.44,-2 -4.77,-3.59 -1.34,-1.58 -2.38,-3.58 -3.08,-5.95 -0.72,-2.4 -1.08,-5.17 -1.08,-8.36 0,-1.93 0.19,-4.13 0.6,-6.62 0.39,-2.46 1.08,-4.99 2.02,-7.56 0.95,-2.57 2.22,-5.08 3.81,-7.55 1.59,-2.46 3.56,-4.65 5.92,-6.58 2.35,-1.95 5.14,-3.49 8.35,-4.67 3.2,-1.17 6.92,-1.75 11.12,-1.75 2.67,0 5.43,0.19 8.27,0.6 2.84,0.39 5.66,0.89 8.47,1.45l-7.12 34.09zm-2.34 -28.11c-1.18,-0.28 -2.55,-0.52 -4.13,-0.71 -1.55,-0.2 -3.03,-0.3 -4.4,-0.3 -2.9,0 -5.47,0.46 -7.69,1.36 -2.23,0.93 -4.16,2.13 -5.79,3.62 -1.64,1.48 -3.03,3.2 -4.14,5.15 -1.13,1.93 -2.02,3.91 -2.69,5.93 -0.66,2.02 -1.14,4.02 -1.42,5.99 -0.29,1.97 -0.42,3.77 -0.42,5.36 0,1.91 0.17,3.62 0.49,5.15 0.35,1.52 0.86,2.8 1.58,3.88 0.72,1.06 1.64,1.9 2.75,2.48 1.13,0.58 2.47,0.88 3.99,0.88 1.68,0 3.23,-0.35 4.69,-1.03 1.45,-0.69 2.82,-1.61 4.09,-2.79 1.26,-1.16 2.43,-2.52 3.45,-4.06 1.05,-1.54 1.97,-3.16 2.81,-4.89 0.84,-1.71 1.56,-3.47 2.14,-5.25 0.58,-1.8 1.06,-3.53 1.42,-5.19l3.27 -15.58zm-7.99 -16.55l-6.17 0 14.48 -16.39 8.08 0 -16.39 16.39zm61.87 -7.77c-0.33,-0.17 -0.74,-0.32 -1.2,-0.48 -0.48,-0.15 -0.98,-0.29 -1.5,-0.43 -0.54,-0.13 -1.1,-0.24 -1.68,-0.32 -0.58,-0.09 -1.15,-0.12 -1.68,-0.12 -2.74,0 -4.86,0.89 -6.35,2.67 -1.49,1.8 -2.61,4.45 -3.38,8.01l-1.85 8.21 12.13 0 -1.66 6.96 -12.13 0 -13.13 61.42 -8.33 0 13.24 -61.42 -8.82 0 1.55 -6.96 8.83 0 2.05 -9.53c0.64,-2.94 1.53,-5.44 2.66,-7.51 1.13,-2.07 2.48,-3.77 4.05,-5.07 1.58,-1.3 3.36,-2.26 5.34,-2.85 2,-0.6 4.18,-0.91 6.55,-0.91 1.24,0 2.45,0.1 3.63,0.31 1.18,0.2 2.19,0.43 3.03,0.7l-1.35 7.32zm9.92 68.67c-0.84,0.27 -1.78,0.49 -2.82,0.65 -1.06,0.17 -2.11,0.25 -3.13,0.25 -3.39,0 -5.91,-0.83 -7.58,-2.53 -1.66,-1.69 -2.5,-3.95 -2.5,-6.79 0,-0.84 0.09,-1.81 0.24,-2.96 0.17,-1.13 0.44,-2.53 0.8,-4.21l7.48 -35.54 8.32 0 -7.51 35.74c-0.31,1.41 -0.52,2.49 -0.64,3.25 -0.12,0.78 -0.17,1.43 -0.17,1.97 0,1.37 0.38,2.42 1.13,3.13 0.75,0.72 1.93,1.08 3.58,1.08 0.87,0 1.62,-0.05 2.27,-0.15 0.67,-0.1 1.27,-0.26 1.83,-0.46l-1.3 6.57zm5.87 -69.42c0,1.5 -0.51,2.79 -1.52,3.85 -1.03,1.08 -2.29,1.61 -3.8,1.61 -1.45,0 -2.74,-0.53 -3.83,-1.58 -1.08,-1.06 -1.63,-2.36 -1.63,-3.88 0,-1.54 0.55,-2.79 1.63,-3.77 1.09,-0.97 2.38,-1.45 3.83,-1.45 1.47,0 2.74,0.5 3.76,1.47 1.05,0.99 1.56,2.24 1.56,3.75zm43.1 28.47c-1.4,-1.25 -3.09,-2.29 -5.08,-3.13 -1.98,-0.86 -4.19,-1.28 -6.59,-1.28 -2.31,0 -4.39,0.39 -6.24,1.19 -1.85,0.81 -3.51,1.89 -4.95,3.22 -1.43,1.33 -2.67,2.88 -3.69,4.6 -1.05,1.75 -1.9,3.54 -2.57,5.43 -0.67,1.86 -1.16,3.73 -1.47,5.58 -0.33,1.86 -0.48,3.59 -0.48,5.18 0,4.79 1.04,8.42 3.15,10.88 2.12,2.48 4.98,3.72 8.62,3.72 2.21,0 4.5,-0.47 6.88,-1.39 2.36,-0.91 4.6,-2.09 6.71,-3.53l-1.75 8.22c-2.17,1.18 -4.34,2.09 -6.5,2.74 -2.16,0.65 -4.43,0.97 -6.84,0.97 -3.14,0 -5.87,-0.53 -8.2,-1.61 -2.31,-1.06 -4.24,-2.53 -5.78,-4.39 -1.54,-1.89 -2.69,-4.1 -3.46,-6.66 -0.77,-2.55 -1.15,-5.32 -1.15,-8.28 0,-2.81 0.28,-5.58 0.84,-8.3 0.58,-2.72 1.42,-5.31 2.54,-7.72 1.12,-2.43 2.49,-4.67 4.14,-6.74 1.64,-2.09 3.52,-3.87 5.64,-5.34 2.12,-1.49 4.48,-2.67 7.09,-3.52 2.6,-0.84 5.44,-1.27 8.47,-1.27 1.43,0 2.8,0.1 4.1,0.29 1.32,0.21 2.5,0.48 3.56,0.8 1.08,0.35 2.04,0.71 2.86,1.08 0.84,0.4 1.5,0.77 2.02,1.13l-1.87 8.13zm46.82 24.71c-0.26,1.26 -0.51,2.7 -0.77,4.29 -0.26,1.58 -0.46,3.15 -0.65,4.71 -0.19,1.56 -0.34,2.99 -0.45,4.33 -0.12,1.33 -0.18,2.37 -0.18,3.11l-8.53 0c0.04,-0.67 0.09,-1.47 0.16,-2.41 0.07,-0.92 0.15,-1.9 0.27,-2.91 0.12,-0.99 0.24,-1.98 0.36,-2.94 0.1,-0.98 0.24,-1.82 0.38,-2.52l-0.21 0c-1.04,1.64 -2.09,3.18 -3.16,4.64 -1.06,1.45 -2.25,2.74 -3.56,3.83 -1.3,1.11 -2.76,1.97 -4.37,2.62 -1.59,0.63 -3.49,0.94 -5.66,0.94 -2.22,0 -4.28,-0.39 -6.14,-1.2 -1.85,-0.8 -3.44,-2 -4.78,-3.59 -1.33,-1.58 -2.37,-3.58 -3.08,-5.95 -0.71,-2.4 -1.07,-5.17 -1.07,-8.36 0,-1.93 0.19,-4.13 0.6,-6.62 0.39,-2.46 1.07,-4.99 2.01,-7.56 0.96,-2.57 2.23,-5.08 3.82,-7.55 1.59,-2.46 3.56,-4.65 5.92,-6.58 2.34,-1.95 5.13,-3.49 8.35,-4.67 3.2,-1.17 6.91,-1.75 11.12,-1.75 2.67,0 5.43,0.19 8.27,0.6 2.84,0.39 5.66,0.89 8.47,1.45l-7.12 34.09zm-2.35 -28.11c-1.18,-0.28 -2.55,-0.52 -4.12,-0.71 -1.56,-0.2 -3.03,-0.3 -4.4,-0.3 -2.91,0 -5.47,0.46 -7.7,1.36 -2.22,0.93 -4.15,2.13 -5.78,3.62 -1.64,1.48 -3.03,3.2 -4.14,5.15 -1.13,1.93 -2.02,3.91 -2.69,5.93 -0.66,2.02 -1.14,4.02 -1.42,5.99 -0.29,1.97 -0.42,3.77 -0.42,5.36 0,1.91 0.17,3.62 0.49,5.15 0.34,1.52 0.86,2.8 1.58,3.88 0.71,1.06 1.64,1.9 2.75,2.48 1.13,0.58 2.46,0.88 3.99,0.88 1.67,0 3.23,-0.35 4.69,-1.03 1.45,-0.69 2.82,-1.61 4.08,-2.79 1.27,-1.16 2.43,-2.52 3.46,-4.06 1.04,-1.54 1.97,-3.16 2.81,-4.89 0.83,-1.71 1.56,-3.47 2.13,-5.25 0.59,-1.8 1.07,-3.53 1.43,-5.19l3.26 -15.58zm86.21 28.11c-0.26,1.26 -0.51,2.7 -0.77,4.29 -0.26,1.58 -0.46,3.15 -0.65,4.71 -0.19,1.56 -0.34,2.99 -0.45,4.33 -0.11,1.33 -0.18,2.37 -0.18,3.11l-8.53 0c0.04,-0.67 0.09,-1.47 0.16,-2.41 0.07,-0.92 0.15,-1.9 0.27,-2.91 0.12,-0.99 0.24,-1.98 0.36,-2.94 0.1,-0.98 0.24,-1.82 0.38,-2.52l-0.21 0c-1.04,1.64 -2.08,3.18 -3.16,4.64 -1.06,1.45 -2.25,2.74 -3.56,3.83 -1.3,1.11 -2.76,1.97 -4.37,2.62 -1.59,0.63 -3.49,0.94 -5.66,0.94 -2.22,0 -4.28,-0.39 -6.14,-1.2 -1.85,-0.8 -3.44,-2 -4.78,-3.59 -1.33,-1.58 -2.37,-3.58 -3.08,-5.95 -0.71,-2.4 -1.07,-5.17 -1.07,-8.36 0,-1.93 0.19,-4.13 0.6,-6.62 0.39,-2.46 1.07,-4.99 2.02,-7.56 0.95,-2.57 2.22,-5.08 3.81,-7.55 1.59,-2.46 3.56,-4.65 5.92,-6.58 2.34,-1.95 5.13,-3.49 8.35,-4.67 3.2,-1.17 6.91,-1.75 11.12,-1.75 2.67,0 5.43,0.19 8.27,0.6 2.84,0.39 5.66,0.89 8.47,1.45l-7.12 34.09zm-2.35 -28.11c-1.18,-0.28 -2.55,-0.52 -4.12,-0.71 -1.56,-0.2 -3.03,-0.3 -4.4,-0.3 -2.9,0 -5.47,0.46 -7.7,1.36 -2.22,0.93 -4.15,2.13 -5.78,3.62 -1.64,1.48 -3.03,3.2 -4.14,5.15 -1.13,1.93 -2.02,3.91 -2.69,5.93 -0.66,2.02 -1.14,4.02 -1.42,5.99 -0.29,1.97 -0.42,3.77 -0.42,5.36 0,1.91 0.17,3.62 0.49,5.15 0.34,1.52 0.86,2.8 1.58,3.88 0.71,1.06 1.64,1.9 2.75,2.48 1.13,0.58 2.46,0.88 3.99,0.88 1.67,0 3.23,-0.35 4.69,-1.03 1.45,-0.69 2.82,-1.61 4.08,-2.79 1.27,-1.16 2.43,-2.52 3.46,-4.06 1.05,-1.54 1.97,-3.16 2.81,-4.89 0.84,-1.71 1.56,-3.47 2.14,-5.25 0.58,-1.8 1.06,-3.53 1.42,-5.19l3.26 -15.58zm64.36 11.17c0,2.46 -0.26,5.03 -0.79,7.7 -0.55,2.65 -1.37,5.27 -2.46,7.83 -1.1,2.57 -2.48,5.02 -4.14,7.33 -1.65,2.31 -3.6,4.33 -5.84,6.09 -2.24,1.75 -4.77,3.13 -7.61,4.16 -2.84,1.01 -5.99,1.52 -9.43,1.52 -1.97,0 -3.92,-0.19 -5.83,-0.55 -1.94,-0.36 -3.62,-0.8 -5.05,-1.3l-5.12 24.42 -8.31 0 12.52 -59.36c0.24,-1.08 0.46,-2.36 0.67,-3.86 0.19,-1.51 0.36,-3.02 0.51,-4.54 0.16,-1.52 0.28,-2.94 0.38,-4.28 0.1,-1.35 0.15,-2.37 0.15,-3.11l8.42 0c0,0.56 -0.04,1.34 -0.12,2.31 -0.09,0.96 -0.19,1.97 -0.32,3.03 -0.14,1.04 -0.28,2.07 -0.42,3.06 -0.12,0.98 -0.23,1.78 -0.34,2.38l0.21 0c2.36,-4.04 5.05,-7.07 8.01,-9.05 2.97,-1.99 6.22,-2.98 9.73,-2.98 2.33,0 4.45,0.39 6.31,1.2 1.87,0.8 3.48,2 4.8,3.61 1.31,1.61 2.32,3.61 3.03,6.02 0.7,2.4 1.04,5.19 1.04,8.37zm-8.42 0.34c0,-1.79 -0.15,-3.47 -0.48,-5.01 -0.31,-1.53 -0.84,-2.86 -1.57,-3.95 -0.74,-1.12 -1.68,-1.97 -2.83,-2.61 -1.16,-0.65 -2.56,-0.95 -4.24,-0.95 -1.73,0 -3.37,0.36 -4.89,1.07 -1.51,0.72 -2.93,1.68 -4.23,2.88 -1.3,1.21 -2.5,2.6 -3.56,4.19 -1.08,1.59 -2.02,3.23 -2.86,4.95 -0.83,1.69 -1.54,3.4 -2.14,5.13 -0.58,1.71 -1.02,3.34 -1.31,4.84l-3.17 14.89c0.6,0.25 1.32,0.49 2.16,0.72 0.84,0.22 1.71,0.41 2.6,0.58 0.91,0.17 1.83,0.29 2.77,0.39 0.93,0.11 1.8,0.16 2.6,0.16 2.31,0 4.43,-0.38 6.38,-1.15 1.97,-0.77 3.72,-1.82 5.27,-3.13 1.56,-1.34 2.93,-2.88 4.11,-4.67 1.2,-1.78 2.19,-3.7 2.99,-5.72 0.81,-2.02 1.41,-4.1 1.8,-6.26 0.41,-2.16 0.6,-4.28 0.6,-6.35zm33.2 32.84c-0.84,0.27 -1.78,0.49 -2.84,0.65 -1.05,0.17 -2.09,0.25 -3.14,0.25 -3.37,0 -5.9,-0.83 -7.56,-2.53 -1.68,-1.69 -2.52,-3.95 -2.52,-6.79 0,-0.84 0.09,-1.81 0.26,-2.96 0.17,-1.13 0.43,-2.53 0.81,-4.21l12.83 -60.25 8.31 0 -12.88 60.45c-0.29,1.41 -0.51,2.49 -0.61,3.25 -0.12,0.78 -0.19,1.43 -0.19,1.97 0,1.37 0.37,2.42 1.13,3.13 0.75,0.72 1.95,1.08 3.59,1.08 0.87,0 1.62,-0.05 2.27,-0.15 0.66,-0.1 1.27,-0.26 1.83,-0.46l-1.29 6.57zm26.57 0c-0.84,0.27 -1.78,0.49 -2.84,0.65 -1.04,0.17 -2.09,0.25 -3.13,0.25 -3.37,0 -5.91,-0.83 -7.57,-2.53 -1.67,-1.69 -2.51,-3.95 -2.51,-6.79 0,-0.84 0.08,-1.81 0.26,-2.96 0.17,-1.13 0.42,-2.53 0.8,-4.21l7.46 -35.54 8.33 0 -7.53 35.74c-0.29,1.41 -0.51,2.49 -0.61,3.25 -0.12,0.78 -0.19,1.43 -0.19,1.97 0,1.37 0.38,2.42 1.13,3.13 0.75,0.72 1.95,1.08 3.59,1.08 0.88,0 1.63,-0.05 2.28,-0.15 0.65,-0.1 1.26,-0.26 1.83,-0.46l-1.3 6.57zm5.87 -69.42c0,1.5 -0.52,2.79 -1.54,3.85 -1.01,1.08 -2.28,1.61 -3.78,1.61 -1.47,0 -2.76,-0.53 -3.84,-1.58 -1.09,-1.06 -1.62,-2.36 -1.62,-3.88 0,-1.54 0.53,-2.79 1.62,-3.77 1.08,-0.97 2.37,-1.45 3.84,-1.45 1.47,0 2.72,0.5 3.76,1.47 1.03,0.99 1.56,2.24 1.56,3.75zm43.15 28.47c-1.4,-1.25 -3.1,-2.29 -5.08,-3.13 -1.98,-0.86 -4.19,-1.28 -6.59,-1.28 -2.31,0 -4.4,0.39 -6.24,1.19 -1.85,0.81 -3.51,1.89 -4.95,3.22 -1.43,1.33 -2.67,2.88 -3.69,4.6 -1.05,1.75 -1.9,3.54 -2.57,5.43 -0.67,1.86 -1.16,3.73 -1.47,5.58 -0.33,1.86 -0.48,3.59 -0.48,5.18 0,4.79 1.04,8.42 3.15,10.88 2.12,2.48 4.98,3.72 8.62,3.72 2.21,0 4.5,-0.47 6.88,-1.39 2.36,-0.91 4.6,-2.09 6.71,-3.53l-1.75 8.22c-2.17,1.18 -4.35,2.09 -6.5,2.74 -2.16,0.65 -4.43,0.97 -6.84,0.97 -3.14,0 -5.87,-0.53 -8.2,-1.61 -2.31,-1.06 -4.24,-2.53 -5.78,-4.39 -1.55,-1.89 -2.69,-4.1 -3.46,-6.66 -0.77,-2.55 -1.15,-5.32 -1.15,-8.28 0,-2.81 0.28,-5.58 0.84,-8.3 0.58,-2.72 1.42,-5.31 2.53,-7.72 1.13,-2.43 2.5,-4.67 4.14,-6.74 1.65,-2.09 3.53,-3.87 5.65,-5.34 2.12,-1.49 4.48,-2.67 7.08,-3.52 2.61,-0.84 5.45,-1.27 8.48,-1.27 1.43,0 2.8,0.1 4.1,0.29 1.32,0.21 2.5,0.48 3.56,0.8 1.08,0.35 2.04,0.71 2.86,1.08 0.84,0.4 1.5,0.77 2.02,1.13l-1.87 8.13zm46.82 24.71c-0.26,1.26 -0.52,2.7 -0.77,4.29 -0.26,1.58 -0.46,3.15 -0.65,4.71 -0.19,1.56 -0.35,2.99 -0.45,4.33 -0.12,1.33 -0.19,2.37 -0.19,3.11l-8.52 0c0.04,-0.67 0.09,-1.47 0.16,-2.41 0.06,-0.92 0.15,-1.9 0.27,-2.91 0.12,-0.99 0.24,-1.98 0.36,-2.94 0.1,-0.98 0.24,-1.82 0.38,-2.52l-0.21 0c-1.04,1.64 -2.09,3.18 -3.16,4.64 -1.07,1.45 -2.25,2.74 -3.56,3.83 -1.3,1.11 -2.76,1.97 -4.37,2.62 -1.59,0.63 -3.49,0.94 -5.66,0.94 -2.23,0 -4.28,-0.39 -6.14,-1.2 -1.85,-0.8 -3.44,-2 -4.78,-3.59 -1.33,-1.58 -2.38,-3.58 -3.08,-5.95 -0.71,-2.4 -1.08,-5.17 -1.08,-8.36 0,-1.93 0.19,-4.13 0.6,-6.62 0.4,-2.46 1.08,-4.99 2.02,-7.56 0.96,-2.57 2.23,-5.08 3.82,-7.55 1.59,-2.46 3.56,-4.65 5.92,-6.58 2.34,-1.95 5.13,-3.49 8.35,-4.67 3.2,-1.17 6.91,-1.75 11.12,-1.75 2.67,0 5.42,0.19 8.27,0.6 2.84,0.39 5.66,0.89 8.47,1.45l-7.12 34.09zm-2.35 -28.11c-1.18,-0.28 -2.55,-0.52 -4.12,-0.71 -1.56,-0.2 -3.03,-0.3 -4.4,-0.3 -2.91,0 -5.47,0.46 -7.7,1.36 -2.22,0.93 -4.16,2.13 -5.78,3.62 -1.64,1.48 -3.03,3.2 -4.14,5.15 -1.13,1.93 -2.02,3.91 -2.69,5.93 -0.67,2.02 -1.15,4.02 -1.42,5.99 -0.29,1.97 -0.43,3.77 -0.43,5.36 0,1.91 0.18,3.62 0.5,5.15 0.34,1.52 0.86,2.8 1.57,3.88 0.72,1.06 1.65,1.9 2.76,2.48 1.13,0.58 2.46,0.88 3.98,0.88 1.68,0 3.24,-0.35 4.69,-1.03 1.46,-0.69 2.83,-1.61 4.09,-2.79 1.27,-1.16 2.43,-2.52 3.46,-4.06 1.04,-1.54 1.97,-3.16 2.81,-4.89 0.83,-1.71 1.55,-3.47 2.13,-5.25 0.59,-1.8 1.07,-3.53 1.43,-5.19l3.26 -15.58zm57.8 28.76c-0.24,1.08 -0.46,2.36 -0.68,3.87 -0.22,1.5 -0.41,3.01 -0.58,4.53 -0.16,1.52 -0.31,2.94 -0.41,4.28 -0.12,1.33 -0.19,2.37 -0.19,3.11l-8.52 0c0,-0.56 0.05,-1.33 0.13,-2.27 0.07,-0.96 0.17,-1.96 0.29,-3 0.12,-1.03 0.24,-2.02 0.38,-2.97 0.14,-0.96 0.26,-1.73 0.36,-2.33l-0.2 0c-1.2,1.93 -2.42,3.64 -3.61,5.13 -1.2,1.49 -2.49,2.72 -3.82,3.71 -1.34,0.99 -2.75,1.73 -4.26,2.23 -1.51,0.51 -3.15,0.75 -4.96,0.75 -2.33,0 -4.45,-0.41 -6.32,-1.25 -1.86,-0.84 -3.47,-2.07 -4.79,-3.68 -1.31,-1.62 -2.32,-3.62 -3.03,-6.02 -0.7,-2.4 -1.04,-5.13 -1.04,-8.25 0,-2.46 0.26,-5.04 0.77,-7.71 0.51,-2.67 1.32,-5.31 2.41,-7.87 1.08,-2.57 2.47,-5.02 4.13,-7.33 1.67,-2.29 3.66,-4.33 5.97,-6.06 2.31,-1.74 4.94,-3.11 7.92,-4.14 2.98,-1.01 6.3,-1.52 9.97,-1.52 1.87,0 3.61,0.12 5.21,0.38 1.61,0.24 2.99,0.49 4.17,0.77l5.2 -24.56 8.13 0 -12.63 60.2zm-2.15 -28.58c-1.29,-0.36 -2.6,-0.65 -3.99,-0.87 -1.39,-0.22 -2.87,-0.32 -4.43,-0.32 -2.91,0 -5.48,0.44 -7.7,1.35 -2.23,0.9 -4.16,2.1 -5.82,3.61 -1.66,1.5 -3.05,3.22 -4.16,5.13 -1.13,1.94 -2.01,3.9 -2.7,5.92 -0.68,2.02 -1.18,4.01 -1.45,5.97 -0.3,1.95 -0.43,3.72 -0.43,5.29 0,1.87 0.15,3.58 0.48,5.12 0.3,1.52 0.82,2.84 1.54,3.95 0.72,1.09 1.66,1.95 2.79,2.55 1.13,0.6 2.49,0.91 4.1,0.91 1.68,0 3.24,-0.35 4.69,-1.05 1.46,-0.7 2.82,-1.66 4.09,-2.86 1.27,-1.21 2.41,-2.6 3.46,-4.17 1.04,-1.56 1.96,-3.24 2.8,-5.02 0.84,-1.76 1.54,-3.55 2.14,-5.38 0.58,-1.82 1.06,-3.56 1.42,-5.24l3.17 -14.89zm63.65 12.03c0,4.55 -0.63,8.87 -1.92,12.94 -1.3,4.09 -3.15,7.65 -5.58,10.71 -2.41,3.05 -5.35,5.47 -8.81,7.25 -3.45,1.8 -7.36,2.69 -11.7,2.69 -2.94,0 -5.6,-0.46 -7.96,-1.4 -2.34,-0.94 -4.34,-2.28 -6,-4.04 -1.66,-1.75 -2.93,-3.87 -3.82,-6.37 -0.89,-2.48 -1.32,-5.3 -1.32,-8.43 0,-4.72 0.67,-9.12 2.02,-13.21 1.36,-4.11 3.27,-7.67 5.72,-10.68 2.46,-3.03 5.41,-5.4 8.83,-7.11 3.42,-1.73 7.2,-2.59 11.34,-2.59 2.91,0 5.55,0.46 7.91,1.4 2.36,0.93 4.36,2.28 6.04,4.04 1.66,1.75 2.96,3.87 3.88,6.37 0.93,2.48 1.37,5.3 1.37,8.43zm-8.42 0.41c0,-2.17 -0.26,-4.1 -0.8,-5.8 -0.53,-1.67 -1.29,-3.09 -2.24,-4.26 -0.98,-1.14 -2.14,-2.03 -3.53,-2.65 -1.37,-0.62 -2.89,-0.92 -4.6,-0.92 -2.95,0 -5.6,0.75 -7.98,2.25 -2.37,1.51 -4.38,3.48 -6,5.94 -1.65,2.45 -2.91,5.25 -3.8,8.37 -0.87,3.13 -1.32,6.33 -1.32,9.6 0,2.07 0.26,3.95 0.77,5.65 0.52,1.67 1.25,3.11 2.21,4.31 0.96,1.18 2.12,2.08 3.51,2.72 1.38,0.65 2.94,0.96 4.69,0.96 2.97,0 5.64,-0.74 8.02,-2.23 2.36,-1.49 4.38,-3.46 6.01,-5.92 1.64,-2.46 2.89,-5.25 3.76,-8.4 0.87,-3.13 1.3,-6.35 1.3,-9.62z"/>
   <path class="fil3" d="M2472.1 153.97c-1.51,-0.96 -3.18,-1.75 -5.06,-2.35 -1.87,-0.6 -3.75,-0.9 -5.62,-0.9 -3.14,0 -5.57,0.71 -7.29,2.15 -1.72,1.44 -2.58,3.34 -2.58,5.72 0,0.95 0.16,1.85 0.48,2.65 0.31,0.8 0.79,1.56 1.4,2.28 0.62,0.71 1.41,1.42 2.35,2.08 0.96,0.67 2.05,1.39 3.28,2.16 3.75,2.17 6.45,4.4 8.09,6.69 1.67,2.29 2.49,4.87 2.49,7.75 0,1.93 -0.36,3.83 -1.08,5.68 -0.72,1.87 -1.85,3.49 -3.42,4.91 -1.58,1.42 -3.61,2.57 -6.1,3.44 -2.49,0.87 -5.52,1.3 -9.1,1.3 -0.99,0 -2.1,-0.07 -3.3,-0.2 -1.22,-0.12 -2.41,-0.33 -3.64,-0.6 -1.22,-0.26 -2.38,-0.58 -3.51,-0.98 -1.11,-0.38 -2.09,-0.82 -2.93,-1.32l1.66 -7.82c0.67,0.47 1.49,0.93 2.48,1.41 0.98,0.46 2.06,0.87 3.2,1.25 1.15,0.36 2.36,0.66 3.61,0.9 1.25,0.23 2.5,0.35 3.73,0.35 3.36,0 5.85,-0.67 7.5,-2.01 1.66,-1.33 2.48,-3.2 2.48,-5.56 0,-0.87 -0.12,-1.67 -0.38,-2.41 -0.24,-0.73 -0.68,-1.47 -1.31,-2.21 -0.64,-0.73 -1.48,-1.47 -2.52,-2.22 -1.03,-0.75 -2.34,-1.59 -3.9,-2.53 -3.42,-2.07 -5.94,-4.25 -7.55,-6.51 -1.62,-2.24 -2.43,-4.79 -2.43,-7.63 0,-2.07 0.38,-4.05 1.15,-5.95 0.77,-1.88 1.91,-3.56 3.44,-5 1.52,-1.45 3.42,-2.62 5.73,-3.49 2.31,-0.87 5,-1.3 8.08,-1.3 2.41,0 4.68,0.22 6.84,0.7 2.16,0.46 3.99,1.06 5.49,1.8l-1.76 7.77zm77.79 25.87c-0.26,1.26 -0.52,2.7 -0.77,4.29 -0.26,1.58 -0.47,3.15 -0.65,4.71 -0.19,1.56 -0.35,2.99 -0.45,4.33 -0.12,1.33 -0.19,2.37 -0.19,3.11l-8.52 0c0.04,-0.67 0.09,-1.47 0.16,-2.41 0.06,-0.92 0.15,-1.9 0.27,-2.91 0.12,-0.99 0.24,-1.98 0.36,-2.94 0.1,-0.98 0.24,-1.82 0.37,-2.52l-0.2 0c-1.04,1.64 -2.09,3.18 -3.16,4.64 -1.07,1.45 -2.25,2.74 -3.56,3.83 -1.31,1.11 -2.76,1.97 -4.37,2.62 -1.59,0.63 -3.49,0.94 -5.66,0.94 -2.23,0 -4.28,-0.39 -6.14,-1.2 -1.85,-0.8 -3.44,-2 -4.78,-3.59 -1.33,-1.58 -2.38,-3.58 -3.08,-5.95 -0.72,-2.4 -1.08,-5.17 -1.08,-8.36 0,-1.93 0.19,-4.13 0.6,-6.62 0.4,-2.46 1.08,-4.99 2.02,-7.56 0.96,-2.57 2.23,-5.08 3.82,-7.55 1.59,-2.46 3.56,-4.65 5.92,-6.58 2.34,-1.95 5.13,-3.49 8.35,-4.67 3.2,-1.17 6.91,-1.75 11.12,-1.75 2.67,0 5.42,0.19 8.26,0.6 2.84,0.39 5.67,0.89 8.47,1.45l-7.11 34.09zm-2.35 -28.11c-1.18,-0.28 -2.55,-0.52 -4.12,-0.71 -1.56,-0.2 -3.03,-0.3 -4.4,-0.3 -2.91,0 -5.47,0.46 -7.7,1.36 -2.22,0.93 -4.16,2.13 -5.78,3.62 -1.64,1.48 -3.03,3.2 -4.14,5.15 -1.13,1.93 -2.02,3.91 -2.69,5.93 -0.67,2.02 -1.15,4.02 -1.42,5.99 -0.29,1.97 -0.43,3.77 -0.43,5.36 0,1.91 0.17,3.62 0.5,5.15 0.34,1.52 0.85,2.8 1.57,3.88 0.72,1.06 1.64,1.9 2.76,2.48 1.13,0.58 2.46,0.88 3.98,0.88 1.68,0 3.24,-0.35 4.69,-1.03 1.46,-0.69 2.82,-1.61 4.09,-2.79 1.27,-1.16 2.43,-2.52 3.46,-4.06 1.04,-1.54 1.97,-3.16 2.81,-4.89 0.83,-1.71 1.55,-3.47 2.13,-5.25 0.58,-1.8 1.06,-3.53 1.42,-5.19l3.27 -15.58zm94.54 -19.72l-27.72 0 -5.22 24.52 25.67 0 -1.66 7.62 -25.67 0 -5.25 24.52 29.46 0 -1.5 7.61 -38.09 0 15.18 -71.88 36.44 0 -1.64 7.61zm33.88 21.96c-1.51,-0.96 -3.18,-1.75 -5.07,-2.35 -1.86,-0.6 -3.74,-0.9 -5.61,-0.9 -3.15,0 -5.58,0.71 -7.29,2.15 -1.73,1.44 -2.58,3.34 -2.58,5.72 0,0.95 0.15,1.85 0.48,2.65 0.31,0.8 0.79,1.56 1.4,2.28 0.62,0.71 1.4,1.42 2.35,2.08 0.95,0.67 2.05,1.39 3.28,2.16 3.75,2.17 6.45,4.4 8.09,6.69 1.66,2.29 2.49,4.87 2.49,7.75 0,1.93 -0.36,3.83 -1.08,5.68 -0.72,1.87 -1.85,3.49 -3.43,4.91 -1.57,1.42 -3.61,2.57 -6.09,3.44 -2.49,0.87 -5.52,1.3 -9.1,1.3 -0.99,0 -2.1,-0.07 -3.3,-0.2 -1.22,-0.12 -2.41,-0.33 -3.65,-0.6 -1.21,-0.26 -2.37,-0.58 -3.5,-0.98 -1.12,-0.38 -2.09,-0.82 -2.93,-1.32l1.66 -7.82c0.67,0.47 1.49,0.93 2.48,1.41 0.98,0.46 2.06,0.87 3.2,1.25 1.15,0.36 2.36,0.66 3.61,0.9 1.25,0.23 2.5,0.35 3.73,0.35 3.35,0 5.85,-0.67 7.49,-2.01 1.67,-1.33 2.49,-3.2 2.49,-5.56 0,-0.87 -0.12,-1.67 -0.38,-2.41 -0.24,-0.73 -0.68,-1.47 -1.32,-2.21 -0.63,-0.73 -1.47,-1.47 -2.51,-2.22 -1.03,-0.75 -2.35,-1.59 -3.9,-2.53 -3.43,-2.07 -5.94,-4.25 -7.55,-6.51 -1.62,-2.24 -2.43,-4.79 -2.43,-7.63 0,-2.07 0.38,-4.05 1.15,-5.95 0.77,-1.88 1.91,-3.56 3.44,-5 1.52,-1.45 3.42,-2.62 5.73,-3.49 2.31,-0.87 5,-1.3 8.07,-1.3 2.42,0 4.69,0.22 6.85,0.7 2.15,0.46 3.98,1.06 5.49,1.8l-1.76 7.77zm38.81 -2.06l-12.94 0 -5.77 27.23c-0.2,1.04 -0.41,2.15 -0.6,3.35 -0.2,1.22 -0.3,2.17 -0.3,2.91 0,1.71 0.37,2.94 1.13,3.69 0.75,0.76 1.95,1.13 3.57,1.13 0.41,0 0.93,-0.06 1.56,-0.2 0.63,-0.14 1.28,-0.31 1.95,-0.5 0.69,-0.2 1.33,-0.43 1.99,-0.68 0.64,-0.26 1.23,-0.48 1.72,-0.69l-1.55 7.22c-1.17,0.52 -2.5,0.93 -3.97,1.29 -1.49,0.34 -2.91,0.53 -4.25,0.53 -1.9,0 -3.52,-0.24 -4.86,-0.74 -1.33,-0.48 -2.43,-1.18 -3.28,-2.07 -0.86,-0.9 -1.47,-2 -1.85,-3.28 -0.39,-1.29 -0.58,-2.74 -0.58,-4.35 0,-0.96 0.08,-2.09 0.27,-3.37 0.19,-1.3 0.41,-2.46 0.69,-3.54l5.9 -27.93 -8.52 0 1.56 -6.96 8.41 0 2.66 -12.52c0.13,-0.07 0.65,-0.25 1.54,-0.48 0.89,-0.26 1.84,-0.55 2.9,-0.86 1.05,-0.33 2.02,-0.62 2.91,-0.87 0.88,-0.28 1.37,-0.43 1.48,-0.46l-3.17 15.19 12.93 0 -1.53 6.96zm45.2 29.78c-0.31,1.31 -0.58,2.67 -0.84,4.07 -0.24,1.4 -0.48,2.75 -0.71,4.05 -0.24,1.3 -0.45,2.52 -0.6,3.67 -0.17,1.12 -0.31,2.06 -0.41,2.8l-8.03 0c0.17,-1.3 0.36,-2.67 0.58,-4.09 0.23,-1.42 0.43,-2.72 0.64,-3.93 0.22,-1.41 0.44,-2.78 0.65,-4.11l-0.21 0c-1.16,1.83 -2.46,3.56 -3.88,5.19 -1.42,1.62 -2.97,3.04 -4.61,4.26 -1.66,1.23 -3.42,2.19 -5.27,2.89 -1.84,0.7 -3.78,1.04 -5.78,1.04 -2.21,0 -4.14,-0.34 -5.8,-1.03 -1.66,-0.68 -3.03,-1.64 -4.14,-2.87 -1.1,-1.25 -1.92,-2.74 -2.48,-4.47 -0.55,-1.74 -0.82,-3.68 -0.82,-5.81 0,-0.43 0.07,-1.08 0.2,-1.95 0.14,-0.88 0.27,-1.82 0.45,-2.81 0.17,-1.01 0.36,-2 0.58,-2.99 0.22,-0.98 0.39,-1.82 0.53,-2.52l5.95 -28.13 8.34 0 -6.37 30.08c-0.14,0.53 -0.27,1.15 -0.41,1.85 -0.14,0.7 -0.26,1.4 -0.38,2.1 -0.12,0.7 -0.2,1.35 -0.27,1.94 -0.07,0.58 -0.1,1.04 -0.1,1.38 0,2.5 0.61,4.5 1.83,5.99 1.21,1.49 3.04,2.23 5.49,2.23 1.47,0 2.94,-0.31 4.42,-0.91 1.47,-0.6 2.89,-1.4 4.27,-2.43 1.39,-1.01 2.71,-2.21 3.94,-3.56 1.23,-1.35 2.36,-2.79 3.35,-4.31 1.01,-1.52 1.87,-3.08 2.57,-4.69 0.7,-1.59 1.21,-3.13 1.56,-4.6l5.35 -25.07 8.28 0 -7.87 36.74zm55.85 -1.2c-0.24,1.08 -0.46,2.36 -0.68,3.87 -0.23,1.5 -0.42,3.01 -0.59,4.53 -0.15,1.52 -0.3,2.94 -0.41,4.28 -0.12,1.33 -0.18,2.37 -0.18,3.11l-8.52 0c0,-0.56 0.05,-1.33 0.13,-2.27 0.07,-0.96 0.17,-1.96 0.29,-3 0.12,-1.03 0.24,-2.02 0.38,-2.97 0.14,-0.96 0.26,-1.73 0.36,-2.33l-0.21 0c-1.2,1.93 -2.41,3.64 -3.61,5.13 -1.2,1.49 -2.48,2.72 -3.81,3.71 -1.34,0.99 -2.76,1.73 -4.26,2.23 -1.51,0.51 -3.15,0.75 -4.96,0.75 -2.33,0 -4.45,-0.41 -6.32,-1.25 -1.86,-0.84 -3.47,-2.07 -4.79,-3.68 -1.32,-1.62 -2.33,-3.62 -3.03,-6.02 -0.7,-2.4 -1.04,-5.13 -1.04,-8.25 0,-2.46 0.25,-5.04 0.77,-7.71 0.51,-2.67 1.31,-5.31 2.41,-7.87 1.08,-2.57 2.46,-5.02 4.12,-7.33 1.68,-2.29 3.67,-4.33 5.97,-6.06 2.31,-1.74 4.95,-3.11 7.93,-4.14 2.97,-1.01 6.29,-1.52 9.97,-1.52 1.87,0 3.61,0.12 5.2,0.38 1.61,0.24 3,0.49 4.18,0.77l5.2 -24.56 8.13 0 -12.63 60.2zm-2.15 -28.58c-1.29,-0.36 -2.61,-0.65 -3.99,-0.87 -1.39,-0.22 -2.88,-0.32 -4.43,-0.32 -2.91,0 -5.48,0.44 -7.7,1.35 -2.23,0.9 -4.16,2.1 -5.82,3.61 -1.66,1.5 -3.05,3.22 -4.16,5.13 -1.13,1.94 -2.02,3.9 -2.7,5.92 -0.69,2.02 -1.18,4.01 -1.46,5.97 -0.29,1.95 -0.42,3.72 -0.42,5.29 0,1.87 0.15,3.58 0.47,5.12 0.31,1.52 0.83,2.84 1.54,3.95 0.72,1.09 1.66,1.95 2.79,2.55 1.13,0.6 2.5,0.91 4.11,0.91 1.68,0 3.23,-0.35 4.69,-1.05 1.45,-0.7 2.82,-1.66 4.09,-2.86 1.26,-1.21 2.41,-2.6 3.45,-4.17 1.05,-1.56 1.97,-3.24 2.81,-5.02 0.84,-1.76 1.54,-3.55 2.14,-5.38 0.58,-1.82 1.06,-3.56 1.42,-5.24l3.17 -14.89zm33.48 44.17c-0.84,0.27 -1.78,0.49 -2.84,0.65 -1.04,0.17 -2.09,0.25 -3.13,0.25 -3.37,0 -5.9,-0.83 -7.56,-2.53 -1.68,-1.69 -2.52,-3.95 -2.52,-6.79 0,-0.84 0.09,-1.81 0.26,-2.96 0.17,-1.13 0.43,-2.53 0.8,-4.21l7.46 -35.54 8.34 0 -7.53 35.74c-0.29,1.41 -0.52,2.49 -0.62,3.25 -0.12,0.78 -0.19,1.43 -0.19,1.97 0,1.37 0.38,2.42 1.13,3.13 0.75,0.72 1.95,1.08 3.6,1.08 0.87,0 1.62,-0.05 2.27,-0.15 0.65,-0.1 1.27,-0.26 1.83,-0.46l-1.3 6.57zm5.87 -69.42c0,1.5 -0.51,2.79 -1.54,3.85 -1.01,1.08 -2.28,1.61 -3.78,1.61 -1.47,0 -2.76,-0.53 -3.84,-1.58 -1.09,-1.06 -1.62,-2.36 -1.62,-3.88 0,-1.54 0.53,-2.79 1.62,-3.77 1.08,-0.97 2.37,-1.45 3.84,-1.45 1.47,0 2.72,0.5 3.76,1.47 1.03,0.99 1.56,2.24 1.56,3.75zm50.87 37.28c0,4.55 -0.63,8.87 -1.92,12.94 -1.3,4.09 -3.14,7.65 -5.57,10.71 -2.42,3.05 -5.36,5.47 -8.82,7.25 -3.45,1.8 -7.35,2.69 -11.7,2.69 -2.94,0 -5.59,-0.46 -7.96,-1.4 -2.34,-0.94 -4.34,-2.28 -6,-4.04 -1.66,-1.75 -2.93,-3.87 -3.82,-6.37 -0.89,-2.48 -1.32,-5.3 -1.32,-8.43 0,-4.72 0.67,-9.12 2.02,-13.21 1.36,-4.11 3.27,-7.67 5.72,-10.68 2.46,-3.03 5.41,-5.4 8.83,-7.11 3.42,-1.73 7.2,-2.59 11.34,-2.59 2.91,0 5.55,0.46 7.91,1.4 2.36,0.93 4.36,2.28 6.04,4.04 1.66,1.75 2.96,3.87 3.88,6.37 0.93,2.48 1.37,5.3 1.37,8.43zm-8.42 0.41c0,-2.17 -0.25,-4.1 -0.8,-5.8 -0.53,-1.67 -1.28,-3.09 -2.24,-4.26 -0.98,-1.14 -2.14,-2.03 -3.53,-2.65 -1.37,-0.62 -2.89,-0.92 -4.6,-0.92 -2.94,0 -5.6,0.75 -7.98,2.25 -2.37,1.51 -4.38,3.48 -6,5.94 -1.64,2.45 -2.91,5.25 -3.8,8.37 -0.87,3.13 -1.32,6.33 -1.32,9.6 0,2.07 0.26,3.95 0.77,5.65 0.52,1.67 1.25,3.11 2.21,4.31 0.96,1.18 2.12,2.08 3.51,2.72 1.38,0.65 2.94,0.96 4.69,0.96 2.98,0 5.64,-0.74 8.02,-2.23 2.36,-1.49 4.38,-3.46 6.01,-5.92 1.64,-2.46 2.89,-5.25 3.76,-8.4 0.88,-3.13 1.3,-6.35 1.3,-9.62zm48.68 -10.38c-1.5,-0.96 -3.18,-1.75 -5.06,-2.35 -1.87,-0.6 -3.75,-0.9 -5.62,-0.9 -3.14,0 -5.57,0.71 -7.29,2.15 -1.72,1.44 -2.58,3.34 -2.58,5.72 0,0.95 0.16,1.85 0.48,2.65 0.31,0.8 0.79,1.56 1.4,2.28 0.62,0.71 1.41,1.42 2.35,2.08 0.96,0.67 2.05,1.39 3.28,2.16 3.75,2.17 6.45,4.4 8.1,6.69 1.66,2.29 2.48,4.87 2.48,7.75 0,1.93 -0.36,3.83 -1.08,5.68 -0.72,1.87 -1.85,3.49 -3.42,4.91 -1.58,1.42 -3.61,2.57 -6.09,3.44 -2.5,0.87 -5.53,1.3 -9.11,1.3 -0.99,0 -2.1,-0.07 -3.3,-0.2 -1.21,-0.12 -2.41,-0.33 -3.64,-0.6 -1.22,-0.26 -2.38,-0.58 -3.51,-0.98 -1.11,-0.38 -2.09,-0.82 -2.93,-1.32l1.66 -7.82c0.67,0.47 1.49,0.93 2.48,1.41 0.98,0.46 2.06,0.87 3.2,1.25 1.15,0.36 2.37,0.66 3.61,0.9 1.25,0.23 2.5,0.35 3.73,0.35 3.36,0 5.86,-0.67 7.5,-2.01 1.66,-1.33 2.48,-3.2 2.48,-5.56 0,-0.87 -0.12,-1.67 -0.38,-2.41 -0.24,-0.73 -0.68,-1.47 -1.31,-2.21 -0.64,-0.73 -1.47,-1.47 -2.52,-2.22 -1.03,-0.75 -2.34,-1.59 -3.9,-2.53 -3.42,-2.07 -5.94,-4.25 -7.55,-6.51 -1.62,-2.24 -2.43,-4.79 -2.43,-7.63 0,-2.07 0.38,-4.05 1.15,-5.95 0.77,-1.88 1.92,-3.56 3.44,-5 1.52,-1.45 3.42,-2.62 5.73,-3.49 2.31,-0.87 5,-1.3 8.08,-1.3 2.41,0 4.69,0.22 6.84,0.7 2.16,0.46 3.99,1.06 5.49,1.8l-1.76 7.77zm82.51 42.31l-3.27 -20.1 -30.47 0 -11.64 20.1 -9.92 0 42.81 -71.88 8.83 0 12.52 71.88 -8.86 0zm-9.22 -58.29c-0.04,-0.35 -0.07,-0.72 -0.09,-1.17 -0.02,-0.43 -0.02,-0.85 -0.02,-1.3 0,-0.46 0,-0.9 0,-1.3 0,-0.43 0,-0.8 0,-1.09l-0.2 0c-0.1,0.29 -0.24,0.65 -0.4,1.07 -0.17,0.42 -0.35,0.84 -0.56,1.3 -0.19,0.45 -0.39,0.89 -0.61,1.32 -0.23,0.45 -0.42,0.82 -0.59,1.17l-17.74 30.57 24.81 0 -4.6 -30.57zm106.87 19.9c0,0.42 -0.07,1.09 -0.17,1.98 -0.12,0.87 -0.28,1.83 -0.46,2.82 -0.19,1.01 -0.36,2 -0.55,2.98 -0.19,0.99 -0.34,1.81 -0.48,2.48l-6.06 28.13 -8.23 0 6.26 -30.08c0.14,-0.56 0.28,-1.2 0.42,-1.9 0.13,-0.7 0.25,-1.4 0.37,-2.09 0.12,-0.68 0.21,-1.31 0.27,-1.89 0.07,-0.59 0.11,-1.05 0.11,-1.39 0,-2.64 -0.57,-4.67 -1.71,-6.09 -1.13,-1.42 -2.91,-2.12 -5.31,-2.12 -1.28,0 -2.58,0.29 -3.93,0.87 -1.37,0.58 -2.69,1.38 -3.97,2.38 -1.29,1.01 -2.52,2.17 -3.72,3.5 -1.18,1.34 -2.25,2.78 -3.25,4.3 -0.99,1.52 -1.83,3.08 -2.53,4.65 -0.7,1.6 -1.21,3.15 -1.55,4.69l-5.36 25.17 -8.33 0 6.36 -30.08c0.14,-0.56 0.27,-1.2 0.41,-1.9 0.14,-0.7 0.26,-1.4 0.38,-2.09 0.12,-0.68 0.2,-1.31 0.27,-1.89 0.07,-0.59 0.1,-1.05 0.1,-1.39 0,-2.64 -0.58,-4.67 -1.76,-6.09 -1.16,-1.42 -2.92,-2.12 -5.25,-2.12 -1.3,0 -2.65,0.29 -4.02,0.87 -1.37,0.58 -2.7,1.38 -4.01,2.41 -1.3,1.01 -2.54,2.21 -3.73,3.56 -1.19,1.35 -2.27,2.79 -3.26,4.31 -0.98,1.53 -1.82,3.07 -2.5,4.66 -0.69,1.59 -1.2,3.15 -1.54,4.68l-5.36 25.07 -8.31 0 7.9 -36.65c0.27,-1.3 0.55,-2.65 0.81,-4.07 0.27,-1.42 0.53,-2.79 0.75,-4.13 0.24,-1.31 0.44,-2.54 0.6,-3.67 0.17,-1.13 0.31,-2.07 0.41,-2.81l8.02 0c-0.17,1.3 -0.37,2.67 -0.61,4.09 -0.22,1.42 -0.43,2.72 -0.6,3.93 -0.19,1.41 -0.41,2.78 -0.65,4.11l0.2 0c1.2,-1.93 2.5,-3.73 3.9,-5.37 1.41,-1.63 2.9,-3.05 4.47,-4.23 1.58,-1.18 3.22,-2.12 4.91,-2.79 1.71,-0.66 3.47,-0.99 5.32,-0.99 2.14,0 3.97,0.31 5.51,0.94 1.54,0.65 2.83,1.54 3.84,2.69 1.02,1.14 1.79,2.55 2.32,4.19 0.55,1.63 0.86,3.46 0.96,5.46 1.23,-1.87 2.57,-3.61 3.99,-5.24 1.42,-1.62 2.94,-3.03 4.57,-4.21 1.6,-1.18 3.33,-2.12 5.15,-2.8 1.83,-0.69 3.76,-1.03 5.8,-1.03 4.27,0 7.47,1.25 9.61,3.73 2.14,2.5 3.22,5.97 3.22,10.46zm56.93 5.01c0,2.27 -0.22,4.7 -0.7,7.29 -0.47,2.58 -1.22,5.17 -2.25,7.72 -1.04,2.56 -2.36,5.02 -3.97,7.39 -1.6,2.37 -3.52,4.46 -5.78,6.28 -2.26,1.79 -4.86,3.25 -7.82,4.33 -2.96,1.07 -6.31,1.62 -10.06,1.62 -1.52,0 -3.11,-0.1 -4.76,-0.32 -1.64,-0.23 -3.23,-0.54 -4.8,-0.93 -1.58,-0.39 -3.09,-0.89 -4.52,-1.45 -1.44,-0.57 -2.74,-1.22 -3.9,-1.95l15.43 -72.59 8.32 0 -5.15 24.56c-0.38,1.64 -0.76,3.35 -1.13,5.17 -0.4,1.79 -0.77,3.4 -1.13,4.8l0.1 0c1.06,-1.71 2.19,-3.23 3.41,-4.6 1.19,-1.37 2.49,-2.55 3.88,-3.51 1.39,-0.97 2.88,-1.73 4.47,-2.24 1.57,-0.51 3.3,-0.77 5.18,-0.77 4.88,0 8.62,1.66 11.24,5.01 2.64,3.34 3.94,8.06 3.94,14.19zm-8.42 0.19c0,-1.9 -0.17,-3.61 -0.51,-5.15 -0.36,-1.54 -0.91,-2.84 -1.66,-3.92 -0.76,-1.06 -1.72,-1.88 -2.9,-2.45 -1.16,-0.56 -2.58,-0.85 -4.26,-0.85 -2.1,0 -4.12,0.61 -6.05,1.84 -1.94,1.25 -3.72,2.88 -5.32,4.91 -1.6,2.06 -2.98,4.35 -4.16,6.93 -1.17,2.57 -2.02,5.19 -2.55,7.88l-3.37 15.98c1.14,0.63 2.56,1.18 4.29,1.61 1.73,0.42 3.51,0.65 5.34,0.65 2.38,0 4.55,-0.4 6.52,-1.18 1.97,-0.79 3.75,-1.87 5.3,-3.24 1.58,-1.37 2.95,-2.96 4.13,-4.76 1.16,-1.81 2.14,-3.71 2.89,-5.73 0.77,-2.03 1.35,-4.12 1.75,-6.28 0.37,-2.15 0.56,-4.22 0.56,-6.24zm33.19 32.99c-0.83,0.27 -1.78,0.49 -2.84,0.65 -1.04,0.17 -2.08,0.25 -3.13,0.25 -3.37,0 -5.9,-0.83 -7.56,-2.53 -1.68,-1.69 -2.52,-3.95 -2.52,-6.79 0,-0.84 0.09,-1.81 0.26,-2.96 0.17,-1.13 0.43,-2.53 0.81,-4.21l7.46 -35.54 8.33 0 -7.53 35.74c-0.29,1.41 -0.51,2.49 -0.62,3.25 -0.12,0.78 -0.18,1.43 -0.18,1.97 0,1.37 0.37,2.42 1.12,3.13 0.76,0.72 1.96,1.08 3.6,1.08 0.87,0 1.62,-0.05 2.27,-0.15 0.65,-0.1 1.27,-0.26 1.83,-0.46l-1.3 6.57zm5.87 -69.42c0,1.5 -0.51,2.79 -1.54,3.85 -1.01,1.08 -2.27,1.61 -3.78,1.61 -1.47,0 -2.75,-0.53 -3.83,-1.58 -1.1,-1.06 -1.63,-2.36 -1.63,-3.88 0,-1.54 0.53,-2.79 1.63,-3.77 1.08,-0.97 2.36,-1.45 3.83,-1.45 1.47,0 2.72,0.5 3.77,1.47 1.02,0.99 1.55,2.24 1.55,3.75zm47.88 30.32c0,2.7 -0.6,5.16 -1.81,7.39 -1.2,2.22 -3.19,4.12 -5.96,5.71 -2.79,1.6 -6.43,2.83 -10.98,3.7 -4.55,0.86 -10.17,1.32 -16.84,1.35 -0.07,0.36 -0.1,0.75 -0.1,1.15 0,0.38 0,0.7 0,1.01 0,1.8 0.24,3.51 0.75,5.1 0.5,1.61 1.27,3.01 2.33,4.22 1.04,1.2 2.41,2.16 4.05,2.86 1.66,0.7 3.63,1.05 5.89,1.05 2.31,0 4.84,-0.45 7.6,-1.34 2.75,-0.87 5.39,-2.14 7.9,-3.78l-1.56 8.13c-1.84,1.06 -4.02,2 -6.57,2.8 -2.53,0.81 -5.37,1.2 -8.52,1.2 -3.78,0 -6.96,-0.58 -9.55,-1.74 -2.58,-1.19 -4.67,-2.74 -6.26,-4.69 -1.59,-1.97 -2.74,-4.21 -3.44,-6.78 -0.7,-2.55 -1.04,-5.23 -1.04,-8.04 0,-3.01 0.32,-5.9 0.99,-8.69 0.67,-2.79 1.61,-5.39 2.84,-7.81 1.22,-2.39 2.67,-4.6 4.38,-6.58 1.71,-1.99 3.59,-3.68 5.67,-5.08 2.07,-1.41 4.29,-2.5 6.67,-3.27 2.36,-0.77 4.82,-1.15 7.36,-1.15 2.65,0 4.97,0.34 6.99,1.04 2.02,0.71 3.72,1.66 5.07,2.9 1.35,1.21 2.38,2.61 3.08,4.22 0.7,1.61 1.06,3.32 1.06,5.12zm-8.38 0.41c0,-2.12 -0.78,-3.75 -2.33,-4.93 -1.56,-1.16 -3.61,-1.74 -6.2,-1.74 -2.03,0 -4,0.44 -5.9,1.33 -1.91,0.87 -3.66,2.1 -5.27,3.65 -1.61,1.55 -2.99,3.42 -4.16,5.57 -1.16,2.16 -2.01,4.49 -2.56,6.98 4.79,0 8.84,-0.23 12.18,-0.71 3.35,-0.5 6.07,-1.2 8.18,-2.14 2.1,-0.93 3.64,-2.07 4.6,-3.43 0.98,-1.35 1.46,-2.89 1.46,-4.58zm62.77 0.39c0,0.5 -0.06,1.18 -0.18,2.06 -0.12,0.87 -0.26,1.81 -0.45,2.8 -0.19,1.01 -0.38,2 -0.55,2.98 -0.18,0.99 -0.36,1.83 -0.53,2.53l-5.97 28.13 -8.31 0 6.26 -30.08c0.14,-0.53 0.27,-1.14 0.41,-1.85 0.12,-0.7 0.24,-1.4 0.34,-2.1 0.1,-0.7 0.19,-1.35 0.26,-1.93 0.07,-0.59 0.1,-1.05 0.1,-1.39 0,-2.53 -0.61,-4.53 -1.83,-6.01 -1.23,-1.47 -3.04,-2.2 -5.44,-2.2 -2.21,0 -4.4,0.65 -6.57,1.95 -2.17,1.3 -4.18,2.96 -6.03,4.96 -1.83,2 -3.4,4.21 -4.72,6.62 -1.33,2.41 -2.22,4.72 -2.68,6.96l-5.38 25.07 -8.31 0 7.92 -36.65c0.27,-1.3 0.53,-2.65 0.81,-4.07 0.25,-1.42 0.51,-2.79 0.75,-4.13 0.22,-1.31 0.43,-2.54 0.6,-3.67 0.17,-1.13 0.29,-2.07 0.39,-2.81l8.02 0c-0.17,1.3 -0.35,2.67 -0.59,4.09 -0.24,1.42 -0.43,2.72 -0.6,3.93 -0.21,1.41 -0.43,2.78 -0.65,4.11l0.19 0c1.18,-1.83 2.46,-3.57 3.88,-5.18 1.42,-1.63 2.96,-3.05 4.62,-4.26 1.66,-1.24 3.4,-2.19 5.27,-2.9 1.85,-0.7 3.8,-1.04 5.83,-1.04 2.28,0 4.23,0.34 5.87,1.03 1.63,0.68 3,1.64 4.07,2.87 1.1,1.23 1.9,2.72 2.42,4.47 0.51,1.74 0.78,3.64 0.78,5.71zm39.86 -5.87l-12.94 0 -5.77 27.23c-0.2,1.04 -0.41,2.15 -0.59,3.35 -0.21,1.22 -0.31,2.17 -0.31,2.91 0,1.71 0.37,2.94 1.13,3.69 0.75,0.76 1.95,1.13 3.57,1.13 0.42,0 0.93,-0.06 1.56,-0.2 0.63,-0.14 1.28,-0.31 1.95,-0.5 0.69,-0.2 1.34,-0.43 1.99,-0.68 0.65,-0.26 1.23,-0.48 1.72,-0.69l-1.55 7.22c-1.17,0.52 -2.5,0.93 -3.97,1.29 -1.49,0.34 -2.91,0.53 -4.25,0.53 -1.9,0 -3.52,-0.24 -4.86,-0.74 -1.33,-0.48 -2.42,-1.18 -3.28,-2.07 -0.86,-0.9 -1.47,-2 -1.85,-3.28 -0.39,-1.29 -0.58,-2.74 -0.58,-4.35 0,-0.96 0.08,-2.09 0.27,-3.37 0.19,-1.3 0.41,-2.46 0.69,-3.54l5.9 -27.93 -8.52 0 1.56 -6.96 8.41 0 2.66 -12.52c0.13,-0.07 0.65,-0.25 1.54,-0.48 0.89,-0.26 1.85,-0.55 2.91,-0.86 1.04,-0.33 2.01,-0.62 2.9,-0.87 0.88,-0.28 1.37,-0.43 1.48,-0.46l-3.17 15.19 12.94 0 -1.54 6.96z"/>
   <path class="fil3" d="M3397.45 179.84c-0.26,1.26 -0.51,2.7 -0.77,4.29 -0.26,1.58 -0.46,3.15 -0.65,4.71 -0.19,1.56 -0.34,2.99 -0.45,4.33 -0.11,1.33 -0.18,2.37 -0.18,3.11l-8.52 0c0.03,-0.67 0.08,-1.47 0.15,-2.41 0.07,-0.92 0.15,-1.9 0.27,-2.91 0.12,-0.99 0.24,-1.98 0.36,-2.94 0.1,-0.98 0.24,-1.82 0.38,-2.52l-0.21 0c-1.04,1.64 -2.08,3.18 -3.16,4.64 -1.06,1.45 -2.24,2.74 -3.56,3.83 -1.3,1.11 -2.76,1.97 -4.36,2.62 -1.6,0.63 -3.49,0.94 -5.67,0.94 -2.22,0 -4.27,-0.39 -6.14,-1.2 -1.85,-0.8 -3.44,-2 -4.77,-3.59 -1.34,-1.58 -2.38,-3.58 -3.08,-5.95 -0.72,-2.4 -1.08,-5.17 -1.08,-8.36 0,-1.93 0.19,-4.13 0.6,-6.62 0.39,-2.46 1.08,-4.99 2.02,-7.56 0.95,-2.57 2.22,-5.08 3.81,-7.55 1.59,-2.46 3.56,-4.65 5.92,-6.58 2.35,-1.95 5.14,-3.49 8.35,-4.67 3.2,-1.17 6.92,-1.75 11.12,-1.75 2.67,0 5.43,0.19 8.27,0.6 2.84,0.39 5.66,0.89 8.47,1.45l-7.12 34.09zm-2.34 -28.11c-1.18,-0.28 -2.55,-0.52 -4.13,-0.71 -1.55,-0.2 -3.03,-0.3 -4.39,-0.3 -2.91,0 -5.48,0.46 -7.71,1.36 -2.22,0.93 -4.15,2.13 -5.78,3.62 -1.64,1.48 -3.03,3.2 -4.14,5.15 -1.13,1.93 -2.02,3.91 -2.69,5.93 -0.66,2.02 -1.14,4.02 -1.41,5.99 -0.3,1.97 -0.43,3.77 -0.43,5.36 0,1.91 0.17,3.62 0.49,5.15 0.35,1.52 0.86,2.8 1.58,3.88 0.72,1.06 1.64,1.9 2.75,2.48 1.13,0.58 2.47,0.88 3.99,0.88 1.68,0 3.23,-0.35 4.69,-1.03 1.45,-0.69 2.82,-1.61 4.09,-2.79 1.26,-1.16 2.43,-2.52 3.45,-4.06 1.05,-1.54 1.97,-3.16 2.81,-4.89 0.84,-1.71 1.56,-3.47 2.14,-5.25 0.58,-1.8 1.06,-3.53 1.42,-5.19l3.27 -15.58zm33.48 44.35c-0.84,0.27 -1.78,0.49 -2.84,0.65 -1.04,0.17 -2.09,0.25 -3.13,0.25 -3.37,0 -5.9,-0.83 -7.56,-2.53 -1.68,-1.69 -2.52,-3.95 -2.52,-6.79 0,-0.84 0.09,-1.81 0.26,-2.96 0.17,-1.13 0.43,-2.53 0.8,-4.21l12.84 -60.25 8.31 0 -12.88 60.45c-0.29,1.41 -0.52,2.49 -0.62,3.25 -0.12,0.78 -0.19,1.43 -0.19,1.97 0,1.37 0.38,2.42 1.13,3.13 0.76,0.72 1.95,1.08 3.6,1.08 0.87,0 1.62,-0.05 2.27,-0.15 0.65,-0.1 1.27,-0.26 1.83,-0.46l-1.3 6.57zm53.75 -39.1c0,2.7 -0.6,5.16 -1.82,7.39 -1.19,2.22 -3.18,4.12 -5.95,5.71 -2.79,1.6 -6.43,2.83 -10.98,3.7 -4.56,0.86 -10.17,1.32 -16.84,1.35 -0.07,0.36 -0.11,0.75 -0.11,1.15 0,0.38 0,0.7 0,1.01 0,1.8 0.24,3.51 0.76,5.1 0.49,1.61 1.26,3.01 2.32,4.22 1.05,1.2 2.42,2.16 4.06,2.86 1.66,0.7 3.63,1.05 5.89,1.05 2.31,0 4.84,-0.45 7.59,-1.34 2.76,-0.87 5.39,-2.14 7.91,-3.78l-1.56 8.13c-1.85,1.06 -4.02,2 -6.57,2.8 -2.53,0.81 -5.37,1.2 -8.52,1.2 -3.78,0 -6.96,-0.58 -9.55,-1.74 -2.58,-1.19 -4.67,-2.74 -6.26,-4.69 -1.59,-1.97 -2.74,-4.21 -3.44,-6.78 -0.7,-2.55 -1.04,-5.23 -1.04,-8.04 0,-3.01 0.32,-5.9 0.99,-8.69 0.67,-2.79 1.61,-5.39 2.84,-7.81 1.21,-2.39 2.67,-4.6 4.38,-6.58 1.71,-1.99 3.59,-3.68 5.66,-5.08 2.07,-1.41 4.3,-2.5 6.68,-3.27 2.36,-0.77 4.82,-1.15 7.35,-1.15 2.66,0 4.98,0.34 7,1.04 2.02,0.71 3.72,1.66 5.07,2.9 1.35,1.21 2.37,2.61 3.08,4.22 0.7,1.61 1.06,3.32 1.06,5.12zm-8.39 0.41c0,-2.12 -0.77,-3.75 -2.32,-4.93 -1.56,-1.16 -3.61,-1.74 -6.2,-1.74 -2.03,0 -4,0.44 -5.9,1.33 -1.92,0.87 -3.66,2.1 -5.27,3.65 -1.61,1.55 -3,3.42 -4.16,5.57 -1.16,2.16 -2.02,4.49 -2.57,6.98 4.8,0 8.85,-0.23 12.19,-0.71 3.35,-0.5 6.07,-1.2 8.18,-2.14 2.1,-0.93 3.64,-2.07 4.6,-3.43 0.97,-1.35 1.45,-2.89 1.45,-4.58zm46.68 -3.42c-1.51,-0.96 -3.18,-1.75 -5.06,-2.35 -1.87,-0.6 -3.75,-0.9 -5.62,-0.9 -3.14,0 -5.57,0.71 -7.29,2.15 -1.72,1.44 -2.58,3.34 -2.58,5.72 0,0.95 0.16,1.85 0.48,2.65 0.31,0.8 0.79,1.56 1.4,2.28 0.62,0.71 1.41,1.42 2.35,2.08 0.96,0.67 2.05,1.39 3.28,2.16 3.75,2.17 6.45,4.4 8.1,6.69 1.66,2.29 2.48,4.87 2.48,7.75 0,1.93 -0.36,3.83 -1.08,5.68 -0.72,1.87 -1.85,3.49 -3.42,4.91 -1.58,1.42 -3.61,2.57 -6.09,3.44 -2.5,0.87 -5.53,1.3 -9.11,1.3 -0.99,0 -2.1,-0.07 -3.3,-0.2 -1.21,-0.12 -2.41,-0.33 -3.64,-0.6 -1.22,-0.26 -2.38,-0.58 -3.51,-0.98 -1.11,-0.38 -2.09,-0.82 -2.93,-1.32l1.66 -7.82c0.67,0.47 1.49,0.93 2.48,1.41 0.98,0.46 2.06,0.87 3.2,1.25 1.15,0.36 2.36,0.66 3.61,0.9 1.25,0.23 2.5,0.35 3.73,0.35 3.36,0 5.86,-0.67 7.5,-2.01 1.66,-1.33 2.48,-3.2 2.48,-5.56 0,-0.87 -0.12,-1.67 -0.38,-2.41 -0.24,-0.73 -0.68,-1.47 -1.31,-2.21 -0.64,-0.73 -1.48,-1.47 -2.52,-2.22 -1.03,-0.75 -2.34,-1.59 -3.9,-2.53 -3.42,-2.07 -5.94,-4.25 -7.55,-6.51 -1.62,-2.24 -2.43,-4.79 -2.43,-7.63 0,-2.07 0.38,-4.05 1.15,-5.95 0.77,-1.88 1.91,-3.56 3.44,-5 1.52,-1.45 3.42,-2.62 5.73,-3.49 2.31,-0.87 5,-1.3 8.08,-1.3 2.41,0 4.69,0.22 6.84,0.7 2.16,0.46 3.99,1.06 5.49,1.8l-1.76 7.77z"/>
  </g>
 </g>
</svg>
