<?xml version="1.0" encoding="UTF-8"?>
<!DOCTYPE svg PUBLIC "-//W3C//DTD SVG 1.1//EN" "http://www.w3.org/Graphics/SVG/1.1/DTD/svg11.dtd">
<!-- Creator: CorelDRAW -->
<svg xmlns="http://www.w3.org/2000/svg" xml:space="preserve" width="4335px" height="244px" version="1.1" style="shape-rendering:geometricPrecision; text-rendering:geometricPrecision; image-rendering:optimizeQuality; fill-rule:evenodd; clip-rule:evenodd"
viewBox="0 0 3551.26 200.16"
 xmlns:xlink="http://www.w3.org/1999/xlink"
 xmlns:xodm="http://www.corel.com/coreldraw/odm/2003">
 <defs>
  <style type="text/css">
   <![CDATA[
    .str0 {stroke:black;stroke-width:0.74;stroke-miterlimit:22.9256}
    .fil0 {fill:white}
    .fil2 {fill:black;fill-rule:nonzero}
    .fil1 {fill:black;fill-rule:nonzero}
   ]]>
  </style>
 </defs>
 <g id="Capa_x0020_1">
  <metadata id="CorelCorpID_0Corel-Layer"/>
  <g id="_2501635909680">
   <g>
    <path class="fil0" d="M2903.44 6.86l605.91 0c24.3,0 39.56,19.88 33.89,44.19l-22.85 98.06c-5.66,24.3 -30.19,44.19 -54.49,44.19l-605.91 0c-24.3,0 -39.56,-19.89 -33.89,-44.19l22.85 -98.06c5.66,-24.31 30.18,-44.19 54.49,-44.19z"/>
    <path id="_1" class="fil1" d="M3509.35 13.72l-605.91 0 0 -13.72 605.9 0 0 0 0.01 13.72zm40.57 38.89l-13.35 -3.12 0 0 0.4 -1.93 0.3 -1.9 0.19 -1.86 0.1 -1.81 0 -1.78 -0.09 -1.72 -0.18 -1.68 -0.27 -1.63 -0.35 -1.58 -0.43 -1.53 -0.5 -1.47 -0.59 -1.43 -0.65 -1.37 -0.73 -1.32 -0.8 -1.26 -0.87 -1.21 -0.94 -1.14 -1 -1.09 -1.07 -1.03 -1.13 -0.97 -1.2 -0.91 -1.27 -0.84 -1.32 -0.77 -1.4 -0.71 -1.45 -0.64 -1.52 -0.56 -1.58 -0.48 -1.65 -0.41 -1.71 -0.32 -1.78 -0.23 -1.83 -0.14 -1.9 -0.05 -0.01 -13.72 2.61 0.07 2.56 0.2 2.5 0.33 2.45 0.46 2.39 0.58 2.32 0.71 2.26 0.84 2.18 0.95 2.11 1.07 2.03 1.18 1.94 1.3 1.85 1.4 1.75 1.5 1.66 1.6 1.56 1.69 1.46 1.79 1.34 1.86 1.24 1.95 1.12 2.03 1.01 2.09 0.88 2.16 0.77 2.23 0.64 2.28 0.51 2.33 0.39 2.38 0.26 2.42 0.13 2.47 0 2.49 -0.14 2.53 -0.26 2.55 -0.41 2.58 -0.53 2.59 0 0zm-36.2 94.94l22.85 -98.06 13.35 3.12 -22.86 98.06 -13.34 -3.12zm-47.82 52.61l0 -13.72 0 0 1.93 -0.05 1.94 -0.14 1.95 -0.24 1.94 -0.34 1.95 -0.43 1.94 -0.52 1.93 -0.61 1.92 -0.69 1.9 -0.78 1.88 -0.87 1.86 -0.94 1.83 -1.03 1.8 -1.09 1.76 -1.17 1.71 -1.24 1.68 -1.31 1.63 -1.37 1.57 -1.43 1.52 -1.49 1.46 -1.55 1.4 -1.59 1.33 -1.65 1.26 -1.68 1.19 -1.74 1.11 -1.76 1.04 -1.81 0.95 -1.83 0.87 -1.87 0.78 -1.88 0.69 -1.91 0.59 -1.93 0.51 -1.95 13.34 3.12 -0.66 2.58 -0.79 2.54 -0.9 2.5 -1.02 2.45 -1.11 2.41 -1.22 2.35 -1.32 2.3 -1.41 2.24 -1.5 2.18 -1.58 2.12 -1.67 2.06 -1.74 1.99 -1.82 1.92 -1.89 1.86 -1.96 1.78 -2.02 1.7 -2.08 1.62 -2.14 1.55 -2.2 1.46 -2.24 1.37 -2.3 1.28 -2.34 1.19 -2.39 1.1 -2.42 0.99 -2.46 0.89 -2.5 0.79 -2.52 0.68 -2.55 0.56 -2.58 0.44 -2.6 0.33 -2.61 0.19 -2.62 0.07 0 0zm-605.91 -13.72l605.91 0 0 13.72 -605.91 0 0 0 0 -13.72zm-40.57 -38.89l13.35 3.12 0 0 -0.4 1.93 -0.3 1.9 -0.19 1.86 -0.1 1.81 0 1.77 0.09 1.73 0.18 1.68 0.26 1.63 0.35 1.58 0.43 1.53 0.51 1.47 0.59 1.43 0.65 1.37 0.73 1.32 0.8 1.26 0.87 1.2 0.94 1.15 1 1.09 1.07 1.03 1.13 0.97 1.2 0.91 1.26 0.84 1.33 0.77 1.39 0.71 1.46 0.63 1.52 0.57 1.58 0.48 1.65 0.41 1.71 0.32 1.77 0.23 1.84 0.14 1.9 0.05 0 13.72 -2.6 -0.07 -2.56 -0.2 -2.5 -0.33 -2.45 -0.46 -2.39 -0.58 -2.32 -0.72 -2.26 -0.83 -2.18 -0.95 -2.11 -1.07 -2.03 -1.18 -1.94 -1.3 -1.85 -1.4 -1.75 -1.5 -1.67 -1.6 -1.56 -1.69 -1.45 -1.79 -1.35 -1.87 -1.23 -1.94 -1.12 -2.03 -1.01 -2.09 -0.89 -2.17 -0.76 -2.22 -0.64 -2.28 -0.51 -2.33 -0.39 -2.38 -0.26 -2.43 -0.13 -2.46 0 -2.49 0.13 -2.53 0.27 -2.55 0.4 -2.58 0.54 -2.59 0 0zm36.2 -94.94l-22.85 98.06 -13.35 -3.12 22.85 -98.06 0 0 13.35 3.12zm47.82 -52.61l0 13.72 0 0 -1.93 0.05 -1.95 0.14 -1.94 0.24 -1.95 0.34 -1.94 0.43 -1.94 0.52 -1.94 0.61 -1.91 0.69 -1.9 0.78 -1.89 0.87 -1.85 0.94 -1.83 1.02 -1.8 1.1 -1.76 1.17 -1.72 1.24 -1.67 1.31 -1.63 1.37 -1.57 1.43 -1.52 1.49 -1.46 1.55 -1.4 1.59 -1.33 1.64 -1.26 1.69 -1.19 1.73 -1.12 1.77 -1.03 1.8 -0.95 1.84 -0.87 1.86 -0.78 1.89 -0.69 1.91 -0.6 1.93 -0.5 1.95 -13.35 -3.12 0.67 -2.58 0.79 -2.54 0.9 -2.5 1.01 -2.46 1.12 -2.4 1.22 -2.35 1.32 -2.3 1.41 -2.24 1.5 -2.18 1.58 -2.12 1.67 -2.06 1.74 -1.99 1.82 -1.93 1.89 -1.85 1.96 -1.78 2.02 -1.7 2.08 -1.62 2.14 -1.55 2.2 -1.46 2.24 -1.37 2.3 -1.28 2.34 -1.19 2.38 -1.1 2.43 -0.99 2.46 -0.9 2.49 -0.78 2.53 -0.68 2.55 -0.56 2.58 -0.44 2.59 -0.33 2.61 -0.19 2.63 -0.07 0 0z"/>
   </g>
   <path class="fil2 str0" d="M3051.92 141.77l-12.73 -24.27c-1.26,-2.42 -2.47,-4.41 -3.66,-6.02 -1.17,-1.63 -2.4,-2.92 -3.65,-3.89 -1.25,-0.95 -2.6,-1.65 -4.02,-2.05 -1.45,-0.43 -3.05,-0.63 -4.82,-0.63l-9.3 0 0 36.86 -7.86 0 0 -84.59 24.35 0c3.18,0 6.27,0.47 9.25,1.41 2.96,0.95 5.59,2.34 7.91,4.19 2.32,1.85 4.19,4.17 5.58,6.95 1.39,2.8 2.09,6.04 2.09,9.73 0,2.98 -0.44,5.74 -1.35,8.25 -0.9,2.5 -2.19,4.74 -3.86,6.69 -1.67,1.93 -3.69,3.58 -6.06,4.93 -2.4,1.37 -5.08,2.38 -8.06,3.04l0 0.25c1.15,0.46 2.18,1.08 3.12,1.83 0.95,0.75 1.85,1.65 2.74,2.72 0.89,1.05 1.75,2.27 2.62,3.64 0.86,1.39 1.77,2.96 2.7,4.74l14.2 26.22 -9.19 0zm-38.18 -77.34l0 33.35 14.01 0c2.84,0 5.42,-0.4 7.78,-1.23 2.35,-0.82 4.37,-2.01 6.04,-3.54 1.67,-1.51 2.96,-3.36 3.89,-5.52 0.92,-2.15 1.39,-4.59 1.39,-7.29 0,-4.91 -1.57,-8.76 -4.74,-11.56 -3.16,-2.8 -7.73,-4.21 -13.71,-4.21l-14.66 0zm64.1 78.55c-1.57,0 -2.92,-0.55 -4.01,-1.66 -1.1,-1.08 -1.65,-2.43 -1.65,-4 0,-1.59 0.55,-2.96 1.61,-4.05 1.09,-1.11 2.44,-1.65 4.05,-1.65 0.79,0 1.51,0.14 2.2,0.44 0.68,0.3 1.29,0.68 1.79,1.17 0.52,0.5 0.93,1.09 1.25,1.79 0.3,0.73 0.46,1.49 0.46,2.3 0,0.78 -0.16,1.53 -0.46,2.21 -0.32,0.69 -0.73,1.29 -1.25,1.79 -0.5,0.51 -1.11,0.91 -1.79,1.21 -0.69,0.3 -1.41,0.45 -2.2,0.45zm32.06 -1.21l-7.85 0 0 -84.59 7.85 0 0 84.59zm76.83 0l-9.32 -25.02 -36.27 0 -9.09 25.02 -8.74 0 32.21 -84.59 7.91 0 32.02 84.59 -8.72 0zm-25.78 -69.79c-0.28,-0.74 -0.56,-1.61 -0.86,-2.59 -0.3,-0.97 -0.54,-2.1 -0.75,-3.37l-0.22 0c-0.24,1.27 -0.5,2.4 -0.8,3.37 -0.31,0.98 -0.59,1.85 -0.87,2.59l-13.71 37.65 31.05 0 -13.84 -37.65zm122.61 69.79l0 -58.41c0,-2.98 0.24,-7.79 0.71,-14.44l-0.25 0c-0.54,1.78 -1.04,3.31 -1.49,4.6 -0.46,1.31 -0.88,2.35 -1.26,3.18l-29.51 65.07 -3.36 0 -29.54 -64.65c-0.87,-1.97 -1.76,-4.73 -2.66,-8.32l-0.25 0c0.17,1.82 0.29,3.87 0.35,6.21 0.06,2.31 0.08,4.89 0.08,7.71l0 59.05 -7.61 0 0 -84.59 9.26 0 28.7 63.58c0.58,1.35 1.16,2.72 1.73,4.11 0.58,1.39 1.11,2.88 1.57,4.45l0.36 0c0.55,-1.57 1.05,-3 1.49,-4.31 0.47,-1.29 1.01,-2.7 1.69,-4.19l28.94 -63.64 8.78 0 0 84.59 -7.73 0zm29.75 0l0 -84.59 23.1 0c3.5,0 6.66,0.47 9.46,1.41 2.82,0.95 5.22,2.28 7.19,3.99 2,1.71 3.51,3.77 4.57,6.16 1.07,2.4 1.59,5.04 1.59,7.92 0,2.43 -0.34,4.71 -1,6.84 -0.67,2.12 -1.63,4.05 -2.88,5.8 -1.27,1.76 -2.8,3.29 -4.63,4.56 -1.84,1.29 -3.91,2.29 -6.23,3.04l0 0.24c2.84,0.26 5.44,0.95 7.78,2.05 2.31,1.11 4.33,2.54 5.98,4.31 1.65,1.78 2.94,3.85 3.84,6.23 0.91,2.37 1.37,4.97 1.37,7.81 0,3.56 -0.64,6.85 -1.95,9.81 -1.29,2.96 -3.12,5.52 -5.46,7.67 -2.33,2.14 -5.13,3.81 -8.36,4.98 -3.22,1.18 -6.78,1.77 -10.69,1.77l-23.68 0zm7.85 -77.34l0 29.97 10.98 0c2.86,0 5.45,-0.38 7.77,-1.13 2.34,-0.74 4.31,-1.81 5.96,-3.22 1.65,-1.41 2.92,-3.12 3.81,-5.14 0.88,-1.99 1.33,-4.25 1.33,-6.76 0,-9.15 -5.7,-13.72 -17.1,-13.72l-12.75 0zm0 37.1l0 33.11 14.58 0c6.27,0 11.08,-1.47 14.44,-4.39 3.37,-2.92 5.06,-7.07 5.06,-12.47 0,-10.83 -7.39,-16.25 -22.16,-16.25l-11.92 0z"/>
  </g>
  <g id="_2501635908960">
   <path class="fil2" d="M37.87 78.93c-0.62,-0.4 -1.33,-0.82 -2.12,-1.24 -0.8,-0.42 -1.68,-0.81 -2.63,-1.15 -0.96,-0.34 -2.01,-0.61 -3.14,-0.83 -1.14,-0.21 -2.36,-0.32 -3.65,-0.32 -3.19,0 -6.06,0.57 -8.62,1.69 -2.57,1.13 -4.73,2.68 -6.52,4.66 -1.78,1.98 -3.16,4.3 -4.13,6.96 -0.97,2.67 -1.45,5.55 -1.45,8.65 0,2.53 0.35,4.76 1.06,6.71 0.7,1.95 1.7,3.58 2.99,4.91 1.3,1.32 2.85,2.34 4.66,3.01 1.8,0.69 3.79,1.02 5.99,1.02 1.4,0 2.68,-0.07 3.82,-0.24 1.15,-0.16 2.21,-0.38 3.19,-0.67 0.98,-0.28 1.89,-0.62 2.76,-1.01 0.86,-0.39 1.69,-0.82 2.5,-1.26l-1.25 5.61c-1.72,0.78 -3.56,1.38 -5.52,1.8 -1.97,0.41 -4.17,0.61 -6.62,0.61 -2.89,0 -5.51,-0.47 -7.89,-1.43 -2.37,-0.95 -4.38,-2.31 -6.06,-4.06 -1.66,-1.75 -2.95,-3.86 -3.87,-6.33 -0.91,-2.46 -1.37,-5.2 -1.37,-8.23 0,-3.99 0.63,-7.65 1.9,-10.98 1.27,-3.34 3.06,-6.21 5.39,-8.61 2.33,-2.4 5.12,-4.27 8.38,-5.61 3.26,-1.34 6.88,-2.01 10.85,-2.01 2.72,0 5.13,0.29 7.22,0.88 2.1,0.58 3.86,1.25 5.31,1.99l-1.18 5.48zm39.23 20.18c-0.63,2.97 -1.44,5.63 -2.4,7.95 -0.97,2.32 -2.21,4.29 -3.74,5.88 -1.51,1.6 -3.37,2.81 -5.56,3.64 -2.18,0.85 -4.8,1.26 -7.87,1.26 -2.35,0 -4.46,-0.36 -6.31,-1.1 -1.84,-0.76 -3.4,-1.77 -4.65,-3.07 -1.26,-1.3 -2.21,-2.82 -2.87,-4.58 -0.66,-1.78 -0.99,-3.68 -0.99,-5.75 0,-0.91 0.07,-1.93 0.18,-3.09 0.11,-1.14 0.27,-2.23 0.46,-3.25l5.55 -25.65 5.51 0 -5.51 25.33c-0.09,0.49 -0.18,1.03 -0.27,1.59 -0.1,0.58 -0.19,1.16 -0.26,1.73 -0.08,0.57 -0.13,1.11 -0.18,1.62 -0.04,0.52 -0.06,0.96 -0.06,1.34 0,1.7 0.26,3.18 0.77,4.43 0.5,1.26 1.21,2.3 2.11,3.12 0.9,0.84 1.97,1.46 3.19,1.87 1.23,0.42 2.55,0.62 3.97,0.62 1.81,0 3.43,-0.26 4.84,-0.76 1.43,-0.51 2.69,-1.31 3.76,-2.39 1.09,-1.09 2.02,-2.47 2.79,-4.15 0.78,-1.67 1.43,-3.68 1.94,-6.02l6.08 -28.33 5.48 0 -5.96 27.76zm42.49 -16.45c0,1.97 -0.35,3.77 -1.03,5.35 -0.7,1.6 -1.64,2.97 -2.86,4.12 -1.21,1.14 -2.66,2.06 -4.33,2.75 -1.68,0.7 -3.5,1.12 -5.48,1.29l0 0.13c1,0.32 1.87,0.99 2.63,2.01 0.75,1.02 1.36,2.39 1.83,4.11l3.83 14.63 -5.87 0 -3.38 -13.64c-0.49,-2 -1.28,-3.46 -2.34,-4.4 -1.08,-0.93 -2.49,-1.4 -4.25,-1.4l-4 0 -4.16 19.44 -5.49 0 9.65 -45.7 12.6 0c2.23,0 4.15,0.29 5.73,0.89 1.6,0.59 2.91,1.4 3.92,2.44 1.02,1.03 1.78,2.23 2.26,3.6 0.49,1.37 0.74,2.83 0.74,4.38zm-5.61 0.58c0,-1.02 -0.15,-1.97 -0.48,-2.83 -0.31,-0.86 -0.8,-1.6 -1.47,-2.23 -0.65,-0.62 -1.49,-1.11 -2.51,-1.47 -1.02,-0.35 -2.23,-0.52 -3.63,-0.52l-7.04 0 -3.52 16.58 6.31 0c2.24,0 4.14,-0.27 5.69,-0.81 1.57,-0.53 2.84,-1.23 3.83,-2.1 0.99,-0.87 1.71,-1.88 2.16,-3.04 0.44,-1.16 0.66,-2.35 0.66,-3.58zm37.92 -5.04c-0.52,-0.38 -1.16,-0.75 -1.89,-1.09 -0.73,-0.33 -1.52,-0.63 -2.36,-0.89 -0.84,-0.25 -1.71,-0.46 -2.62,-0.61 -0.92,-0.14 -1.82,-0.22 -2.71,-0.22 -1.71,0 -3.13,0.24 -4.3,0.72 -1.15,0.48 -2.08,1.08 -2.78,1.82 -0.7,0.73 -1.21,1.53 -1.52,2.4 -0.3,0.87 -0.45,1.69 -0.45,2.46 0,0.99 0.13,1.9 0.41,2.71 0.27,0.81 0.69,1.58 1.24,2.32 0.56,0.75 1.26,1.49 2.13,2.24 0.87,0.74 1.9,1.53 3.06,2.38 1.32,0.96 2.49,1.91 3.53,2.84 1.03,0.94 1.9,1.89 2.63,2.88 0.72,0.99 1.26,2.04 1.64,3.13 0.37,1.1 0.56,2.28 0.56,3.55 0,0.79 -0.08,1.66 -0.24,2.6 -0.17,0.95 -0.45,1.9 -0.86,2.85 -0.42,0.96 -0.99,1.9 -1.71,2.81 -0.72,0.91 -1.64,1.72 -2.75,2.42 -1.12,0.7 -2.46,1.27 -4.04,1.69 -1.57,0.43 -3.42,0.63 -5.55,0.63 -1.18,0 -2.35,-0.08 -3.5,-0.25 -1.14,-0.17 -2.24,-0.39 -3.27,-0.67 -1.03,-0.27 -1.97,-0.59 -2.83,-0.94 -0.86,-0.34 -1.6,-0.69 -2.22,-1.03l0.92 -5.55c0.69,0.49 1.46,0.95 2.33,1.38 0.87,0.44 1.79,0.83 2.77,1.16 0.98,0.32 1.99,0.59 3.03,0.78 1.04,0.19 2.08,0.28 3.1,0.28 1.61,0 3,-0.19 4.15,-0.57 1.16,-0.38 2.11,-0.91 2.88,-1.58 0.75,-0.66 1.3,-1.46 1.65,-2.37 0.35,-0.92 0.52,-1.91 0.52,-2.97 0,-0.95 -0.14,-1.82 -0.44,-2.58 -0.3,-0.76 -0.75,-1.51 -1.37,-2.24 -0.61,-0.74 -1.4,-1.48 -2.34,-2.23 -0.95,-0.76 -2.07,-1.6 -3.37,-2.51 -1.04,-0.74 -2.03,-1.55 -2.98,-2.41 -0.94,-0.86 -1.77,-1.79 -2.49,-2.82 -0.7,-1.02 -1.27,-2.13 -1.68,-3.33 -0.42,-1.19 -0.62,-2.5 -0.62,-3.9 0,-1.74 0.32,-3.4 0.96,-4.96 0.66,-1.56 1.61,-2.93 2.9,-4.1 1.27,-1.19 2.85,-2.12 4.73,-2.81 1.87,-0.7 4.06,-1.04 6.55,-1.04 0.96,0 1.9,0.06 2.85,0.18 0.95,0.11 1.86,0.27 2.75,0.48 0.89,0.2 1.74,0.42 2.54,0.66 0.79,0.25 1.5,0.5 2.12,0.75l-1.06 5.55zm48.25 11.7c0,1.98 -0.17,3.94 -0.53,5.87 -0.37,1.95 -0.88,3.82 -1.57,5.63 -0.67,1.8 -1.51,3.52 -2.5,5.13 -0.99,1.62 -2.11,3.07 -3.36,4.37 -1.02,1.06 -2.12,2.03 -3.32,2.89 -1.18,0.86 -2.46,1.58 -3.82,2.19 -1.36,0.61 -2.82,1.07 -4.37,1.39 -1.55,0.32 -3.21,0.47 -5.01,0.47 -2.86,0 -5.45,-0.49 -7.73,-1.48 -2.3,-0.99 -4.25,-2.35 -5.85,-4.07 -1.61,-1.73 -2.83,-3.79 -3.68,-6.17 -0.86,-2.39 -1.28,-4.96 -1.28,-7.75 0,-4.42 0.71,-8.38 2.15,-11.89 1.44,-3.5 3.44,-6.54 6,-9.11 2.09,-2.08 4.5,-3.74 7.23,-4.96 2.73,-1.21 5.83,-1.83 9.29,-1.83 2.81,0 5.34,0.47 7.6,1.43 2.27,0.96 4.19,2.3 5.78,4.02 1.6,1.73 2.83,3.76 3.69,6.12 0.86,2.36 1.28,4.94 1.28,7.75zm-5.67 0.18c0,-2.27 -0.3,-4.31 -0.92,-6.11 -0.62,-1.81 -1.5,-3.35 -2.64,-4.63 -1.16,-1.27 -2.54,-2.25 -4.15,-2.92 -1.61,-0.69 -3.42,-1.03 -5.42,-1.03 -2.36,0 -4.61,0.52 -6.75,1.53 -2.15,1.02 -4.05,2.43 -5.71,4.24 -0.93,1.02 -1.78,2.19 -2.53,3.5 -0.76,1.32 -1.4,2.72 -1.95,4.21 -0.54,1.49 -0.95,3.04 -1.24,4.66 -0.29,1.61 -0.43,3.25 -0.43,4.91 0,2.12 0.29,4.08 0.88,5.86 0.58,1.78 1.43,3.32 2.55,4.6 1.11,1.3 2.49,2.3 4.12,3.02 1.64,0.72 3.52,1.08 5.65,1.08 2.36,0 4.61,-0.47 6.76,-1.41 2.17,-0.95 4.06,-2.35 5.69,-4.2 1.02,-1.14 1.92,-2.43 2.67,-3.84 0.75,-1.41 1.38,-2.87 1.89,-4.4 0.51,-1.52 0.89,-3.05 1.15,-4.6 0.25,-1.55 0.38,-3.04 0.38,-4.47zm20.93 -2.86c0,0.49 -0.08,0.95 -0.28,1.38 -0.19,0.44 -0.44,0.82 -0.76,1.13 -0.33,0.33 -0.7,0.57 -1.12,0.75 -0.42,0.19 -0.88,0.28 -1.37,0.28 -0.49,0 -0.95,-0.09 -1.37,-0.28 -0.43,-0.18 -0.8,-0.42 -1.11,-0.75 -0.33,-0.31 -0.58,-0.69 -0.75,-1.13 -0.19,-0.43 -0.27,-0.89 -0.27,-1.38 0,-0.47 0.08,-0.91 0.27,-1.34 0.17,-0.42 0.42,-0.8 0.75,-1.13 0.31,-0.34 0.68,-0.59 1.11,-0.78 0.42,-0.2 0.88,-0.28 1.37,-0.28 0.49,0 0.96,0.08 1.39,0.28 0.44,0.19 0.81,0.44 1.13,0.78 0.32,0.33 0.57,0.71 0.74,1.13 0.19,0.43 0.27,0.87 0.27,1.34zm-5.66 27.02c0,0.49 -0.09,0.95 -0.27,1.37 -0.19,0.43 -0.44,0.8 -0.76,1.13 -0.31,0.31 -0.69,0.56 -1.13,0.76 -0.43,0.19 -0.89,0.28 -1.38,0.28 -0.49,0 -0.95,-0.09 -1.37,-0.28 -0.42,-0.2 -0.81,-0.45 -1.12,-0.76 -0.31,-0.33 -0.57,-0.7 -0.75,-1.13 -0.17,-0.42 -0.27,-0.88 -0.27,-1.37 0,-0.49 0.1,-0.94 0.27,-1.38 0.18,-0.43 0.44,-0.81 0.75,-1.13 0.31,-0.33 0.7,-0.58 1.12,-0.75 0.42,-0.18 0.88,-0.27 1.37,-0.27 0.49,0 0.95,0.09 1.38,0.27 0.44,0.17 0.82,0.42 1.13,0.75 0.32,0.32 0.57,0.7 0.76,1.13 0.18,0.44 0.27,0.89 0.27,1.38zm55.96 -36.04c-0.52,-0.38 -1.17,-0.75 -1.89,-1.09 -0.73,-0.33 -1.53,-0.63 -2.37,-0.89 -0.83,-0.25 -1.7,-0.46 -2.62,-0.61 -0.91,-0.14 -1.81,-0.22 -2.71,-0.22 -1.7,0 -3.13,0.24 -4.29,0.72 -1.16,0.48 -2.08,1.08 -2.79,1.82 -0.69,0.73 -1.21,1.53 -1.51,2.4 -0.31,0.87 -0.46,1.69 -0.46,2.46 0,0.99 0.13,1.9 0.42,2.71 0.27,0.81 0.68,1.58 1.24,2.32 0.55,0.75 1.26,1.49 2.13,2.24 0.87,0.74 1.89,1.53 3.06,2.38 1.31,0.96 2.49,1.91 3.52,2.84 1.03,0.94 1.9,1.89 2.63,2.88 0.72,0.99 1.27,2.04 1.65,3.13 0.37,1.1 0.55,2.28 0.55,3.55 0,0.79 -0.08,1.66 -0.24,2.6 -0.16,0.95 -0.45,1.9 -0.86,2.85 -0.41,0.96 -0.99,1.9 -1.71,2.81 -0.71,0.91 -1.64,1.72 -2.75,2.42 -1.12,0.7 -2.46,1.27 -4.03,1.69 -1.57,0.43 -3.42,0.63 -5.55,0.63 -1.19,0 -2.35,-0.08 -3.51,-0.25 -1.14,-0.17 -2.24,-0.39 -3.26,-0.67 -1.03,-0.27 -1.98,-0.59 -2.84,-0.94 -0.86,-0.34 -1.6,-0.69 -2.22,-1.03l0.93 -5.55c0.68,0.49 1.45,0.95 2.33,1.38 0.86,0.44 1.79,0.83 2.77,1.16 0.98,0.32 1.99,0.59 3.02,0.78 1.05,0.19 2.08,0.28 3.1,0.28 1.61,0 3.01,-0.19 4.16,-0.57 1.15,-0.38 2.11,-0.91 2.87,-1.58 0.75,-0.66 1.31,-1.46 1.66,-2.37 0.34,-0.92 0.52,-1.91 0.52,-2.97 0,-0.95 -0.14,-1.82 -0.45,-2.58 -0.29,-0.76 -0.75,-1.51 -1.37,-2.24 -0.61,-0.74 -1.39,-1.48 -2.34,-2.23 -0.94,-0.76 -2.07,-1.6 -3.36,-2.51 -1.04,-0.74 -2.03,-1.55 -2.98,-2.41 -0.95,-0.86 -1.77,-1.79 -2.49,-2.82 -0.71,-1.02 -1.27,-2.13 -1.69,-3.33 -0.41,-1.19 -0.62,-2.5 -0.62,-3.9 0,-1.74 0.33,-3.4 0.97,-4.96 0.65,-1.56 1.61,-2.93 2.89,-4.1 1.28,-1.19 2.85,-2.12 4.74,-2.81 1.87,-0.7 4.05,-1.04 6.54,-1.04 0.96,0 1.91,0.06 2.86,0.18 0.94,0.11 1.86,0.27 2.75,0.48 0.89,0.2 1.74,0.42 2.53,0.66 0.8,0.25 1.5,0.5 2.12,0.75l-1.05 5.55zm14.12 38.72c-0.53,0.17 -1.13,0.32 -1.81,0.41 -0.66,0.11 -1.32,0.17 -1.99,0.17 -2.14,0 -3.75,-0.54 -4.81,-1.61 -1.06,-1.08 -1.6,-2.52 -1.6,-4.32 0,-0.54 0.06,-1.16 0.17,-1.88 0.11,-0.72 0.27,-1.61 0.51,-2.68l4.74 -22.6 5.3 0 -4.79 22.73c-0.18,0.89 -0.32,1.58 -0.39,2.07 -0.07,0.49 -0.12,0.9 -0.12,1.25 0,0.87 0.24,1.53 0.72,1.99 0.48,0.46 1.24,0.68 2.29,0.68 0.55,0 1.03,-0.03 1.44,-0.09 0.42,-0.07 0.81,-0.17 1.17,-0.3l-0.83 4.18zm3.73 -44.14c0,0.96 -0.32,1.78 -0.98,2.45 -0.64,0.69 -1.45,1.02 -2.4,1.02 -0.94,0 -1.75,-0.33 -2.44,-1 -0.7,-0.67 -1.03,-1.5 -1.03,-2.47 0,-0.98 0.33,-1.77 1.03,-2.39 0.69,-0.62 1.5,-0.92 2.44,-0.92 0.93,0 1.73,0.31 2.39,0.93 0.65,0.63 0.99,1.43 0.99,2.38zm23.01 17.37c-0.96,-0.61 -2.02,-1.11 -3.22,-1.49 -1.19,-0.38 -2.38,-0.58 -3.57,-0.58 -2,0 -3.54,0.46 -4.63,1.37 -1.1,0.91 -1.64,2.12 -1.64,3.63 0,0.61 0.09,1.18 0.3,1.69 0.2,0.51 0.5,0.99 0.89,1.45 0.39,0.45 0.89,0.9 1.49,1.33 0.61,0.42 1.31,0.88 2.09,1.37 2.38,1.38 4.1,2.79 5.15,4.25 1.05,1.46 1.58,3.1 1.58,4.93 0,1.23 -0.23,2.43 -0.69,3.61 -0.46,1.18 -1.18,2.22 -2.18,3.12 -1,0.9 -2.29,1.63 -3.87,2.19 -1.59,0.55 -3.51,0.82 -5.79,0.82 -0.63,0 -1.33,-0.04 -2.1,-0.13 -0.77,-0.07 -1.53,-0.2 -2.31,-0.38 -0.78,-0.16 -1.52,-0.37 -2.23,-0.62 -0.71,-0.24 -1.33,-0.52 -1.86,-0.83l1.05 -4.98c0.43,0.3 0.95,0.59 1.58,0.9 0.62,0.29 1.3,0.55 2.03,0.79 0.73,0.23 1.5,0.42 2.3,0.58 0.79,0.14 1.59,0.21 2.37,0.21 2.13,0 3.72,-0.42 4.76,-1.27 1.06,-0.85 1.58,-2.03 1.58,-3.53 0,-0.56 -0.07,-1.07 -0.24,-1.54 -0.15,-0.47 -0.43,-0.93 -0.83,-1.4 -0.41,-0.47 -0.94,-0.94 -1.6,-1.42 -0.66,-0.47 -1.49,-1.01 -2.48,-1.61 -2.18,-1.31 -3.78,-2.69 -4.8,-4.13 -1.04,-1.43 -1.55,-3.05 -1.55,-4.85 0,-1.32 0.24,-2.58 0.73,-3.79 0.49,-1.2 1.22,-2.26 2.19,-3.17 0.97,-0.93 2.17,-1.67 3.64,-2.22 1.47,-0.56 3.18,-0.83 5.14,-0.83 1.53,0 2.98,0.14 4.35,0.45 1.37,0.29 2.53,0.67 3.49,1.14l-1.12 4.94zm24.67 -1.31l-8.22 0 -3.67 17.31c-0.13,0.66 -0.26,1.37 -0.38,2.13 -0.13,0.78 -0.19,1.38 -0.19,1.85 0,1.09 0.24,1.87 0.71,2.35 0.48,0.48 1.25,0.72 2.28,0.72 0.26,0 0.59,-0.04 0.99,-0.13 0.4,-0.09 0.81,-0.2 1.24,-0.32 0.43,-0.13 0.85,-0.27 1.26,-0.43 0.41,-0.16 0.78,-0.31 1.1,-0.44l-0.99 4.59c-0.74,0.33 -1.59,0.59 -2.52,0.82 -0.95,0.22 -1.85,0.34 -2.7,0.34 -1.21,0 -2.24,-0.15 -3.09,-0.47 -0.85,-0.3 -1.55,-0.75 -2.09,-1.32 -0.54,-0.57 -0.94,-1.27 -1.18,-2.09 -0.25,-0.81 -0.37,-1.74 -0.37,-2.76 0,-0.61 0.06,-1.33 0.18,-2.14 0.12,-0.83 0.26,-1.57 0.43,-2.25l3.76 -17.76 -5.42 0 0.99 -4.43 5.35 0 1.69 -7.96c0.08,-0.04 0.41,-0.15 0.98,-0.31 0.56,-0.16 1.17,-0.34 1.85,-0.54 0.66,-0.21 1.28,-0.39 1.85,-0.55 0.55,-0.18 0.87,-0.28 0.93,-0.3l-2.01 9.66 8.22 0 -0.98 4.43zm29.7 3.22c0,1.72 -0.38,3.29 -1.15,4.7 -0.76,1.42 -2.02,2.62 -3.79,3.63 -1.77,1.02 -4.09,1.8 -6.98,2.35 -2.89,0.55 -6.46,0.84 -10.7,0.86 -0.05,0.23 -0.07,0.48 -0.07,0.73 0,0.24 0,0.45 0,0.64 0,1.15 0.15,2.23 0.48,3.25 0.31,1.02 0.8,1.91 1.48,2.68 0.66,0.76 1.53,1.37 2.58,1.82 1.05,0.45 2.3,0.66 3.74,0.66 1.47,0 3.08,-0.28 4.83,-0.84 1.75,-0.56 3.43,-1.36 5.03,-2.41l-0.99 5.17c-1.18,0.67 -2.56,1.27 -4.18,1.78 -1.61,0.51 -3.42,0.76 -5.42,0.76 -2.4,0 -4.43,-0.36 -6.07,-1.1 -1.64,-0.76 -2.97,-1.75 -3.98,-2.99 -1.01,-1.25 -1.74,-2.67 -2.19,-4.3 -0.45,-1.62 -0.66,-3.33 -0.66,-5.12 0,-1.91 0.2,-3.75 0.63,-5.52 0.42,-1.78 1.02,-3.43 1.81,-4.96 0.77,-1.53 1.69,-2.93 2.78,-4.19 1.09,-1.27 2.28,-2.34 3.6,-3.23 1.32,-0.9 2.73,-1.59 4.24,-2.08 1.5,-0.49 3.07,-0.73 4.68,-0.73 1.69,0 3.17,0.22 4.45,0.66 1.28,0.45 2.36,1.06 3.22,1.84 0.86,0.77 1.51,1.67 1.96,2.69 0.44,1.02 0.67,2.11 0.67,3.25zm-5.33 0.26c0,-1.35 -0.49,-2.38 -1.48,-3.13 -0.99,-0.74 -2.29,-1.11 -3.94,-1.11 -1.29,0 -2.54,0.28 -3.75,0.85 -1.22,0.55 -2.33,1.34 -3.35,2.32 -1.02,0.99 -1.9,2.17 -2.64,3.54 -0.74,1.37 -1.29,2.85 -1.63,4.44 3.04,0 5.62,-0.15 7.74,-0.46 2.13,-0.31 3.86,-0.76 5.2,-1.36 1.34,-0.58 2.32,-1.31 2.93,-2.17 0.62,-0.86 0.92,-1.84 0.92,-2.92zm59.26 0.32c0,0.27 -0.04,0.69 -0.11,1.26 -0.07,0.56 -0.17,1.16 -0.29,1.79 -0.12,0.65 -0.23,1.28 -0.35,1.9 -0.12,0.63 -0.22,1.15 -0.3,1.57l-3.86 17.89 -5.23 0 3.98 -19.12c0.09,-0.36 0.18,-0.77 0.26,-1.21 0.09,-0.45 0.17,-0.89 0.24,-1.33 0.08,-0.43 0.13,-0.84 0.18,-1.21 0.04,-0.37 0.06,-0.66 0.06,-0.88 0,-1.67 -0.36,-2.97 -1.09,-3.87 -0.71,-0.9 -1.84,-1.35 -3.37,-1.35 -0.81,0 -1.64,0.18 -2.5,0.55 -0.87,0.37 -1.71,0.89 -2.52,1.52 -0.82,0.64 -1.6,1.38 -2.36,2.23 -0.76,0.85 -1.44,1.76 -2.07,2.73 -0.63,0.97 -1.17,1.96 -1.61,2.96 -0.45,1.01 -0.77,2 -0.99,2.98l-3.41 16 -5.29 0 4.04 -19.12c0.09,-0.36 0.18,-0.77 0.26,-1.21 0.09,-0.45 0.17,-0.89 0.24,-1.33 0.08,-0.43 0.13,-0.84 0.18,-1.21 0.04,-0.37 0.06,-0.66 0.06,-0.88 0,-1.67 -0.37,-2.97 -1.12,-3.87 -0.74,-0.9 -1.86,-1.35 -3.34,-1.35 -0.82,0 -1.68,0.18 -2.55,0.55 -0.87,0.37 -1.72,0.89 -2.55,1.54 -0.83,0.64 -1.62,1.4 -2.37,2.26 -0.76,0.86 -1.45,1.77 -2.08,2.74 -0.62,0.97 -1.15,1.95 -1.59,2.96 -0.43,1.01 -0.76,2 -0.98,2.98l-3.4 15.94 -5.29 0 5.03 -23.3c0.17,-0.83 0.35,-1.69 0.51,-2.59 0.17,-0.9 0.34,-1.78 0.48,-2.62 0.15,-0.84 0.28,-1.62 0.38,-2.34 0.11,-0.72 0.19,-1.32 0.26,-1.79l5.1 0c-0.11,0.83 -0.24,1.7 -0.39,2.6 -0.14,0.91 -0.27,1.73 -0.38,2.51 -0.12,0.89 -0.26,1.76 -0.41,2.61l0.13 0c0.76,-1.23 1.58,-2.37 2.48,-3.42 0.89,-1.03 1.83,-1.94 2.84,-2.69 1,-0.75 2.04,-1.34 3.12,-1.77 1.09,-0.42 2.21,-0.63 3.38,-0.63 1.36,0 2.53,0.2 3.5,0.6 0.98,0.41 1.8,0.98 2.44,1.71 0.65,0.72 1.14,1.62 1.48,2.66 0.35,1.03 0.54,2.2 0.61,3.47 0.78,-1.18 1.63,-2.29 2.53,-3.33 0.91,-1.03 1.88,-1.92 2.91,-2.67 1.02,-0.76 2.12,-1.35 3.27,-1.79 1.17,-0.43 2.4,-0.65 3.69,-0.65 2.72,0 4.76,0.79 6.12,2.37 1.36,1.59 2.04,3.8 2.04,6.65zm32.15 13.96c-0.16,0.8 -0.33,1.72 -0.49,2.73 -0.16,1 -0.29,2 -0.41,2.99 -0.12,0.99 -0.22,1.9 -0.29,2.75 -0.07,0.85 -0.12,1.51 -0.12,1.98l-5.41 0c0.02,-0.42 0.05,-0.94 0.09,-1.53 0.05,-0.59 0.1,-1.21 0.18,-1.85 0.07,-0.63 0.15,-1.27 0.23,-1.87 0.06,-0.62 0.15,-1.16 0.24,-1.6l-0.14 0c-0.66,1.04 -1.32,2.02 -2.01,2.94 -0.67,0.93 -1.42,1.75 -2.26,2.44 -0.83,0.71 -1.75,1.25 -2.77,1.67 -1.02,0.4 -2.22,0.59 -3.61,0.59 -1.41,0 -2.72,-0.25 -3.9,-0.76 -1.18,-0.51 -2.19,-1.27 -3.04,-2.28 -0.85,-1 -1.51,-2.27 -1.95,-3.79 -0.46,-1.52 -0.69,-3.28 -0.69,-5.31 0,-1.23 0.12,-2.63 0.38,-4.21 0.25,-1.56 0.69,-3.17 1.29,-4.81 0.6,-1.63 1.41,-3.23 2.42,-4.79 1.01,-1.57 2.26,-2.96 3.76,-4.19 1.49,-1.24 3.27,-2.22 5.31,-2.97 2.04,-0.74 4.4,-1.11 7.07,-1.11 1.7,0 3.45,0.12 5.26,0.38 1.81,0.25 3.6,0.57 5.38,0.92l-4.52 21.68zm-1.49 -17.88c-0.75,-0.17 -1.62,-0.33 -2.62,-0.44 -0.99,-0.13 -1.93,-0.2 -2.8,-0.2 -1.85,0 -3.48,0.29 -4.89,0.87 -1.42,0.59 -2.65,1.35 -3.68,2.3 -1.05,0.94 -1.93,2.03 -2.63,3.27 -0.72,1.23 -1.29,2.49 -1.71,3.78 -0.43,1.28 -0.73,2.55 -0.9,3.8 -0.19,1.25 -0.28,2.4 -0.28,3.41 0,1.22 0.11,2.3 0.32,3.27 0.22,0.97 0.54,1.79 1,2.47 0.46,0.68 1.04,1.21 1.75,1.58 0.72,0.37 1.57,0.55 2.53,0.55 1.07,0 2.06,-0.21 2.99,-0.65 0.92,-0.43 1.79,-1.02 2.6,-1.77 0.8,-0.74 1.54,-1.6 2.19,-2.58 0.67,-0.98 1.26,-2.01 1.79,-3.11 0.53,-1.09 0.99,-2.21 1.36,-3.34 0.37,-1.14 0.67,-2.24 0.9,-3.3l2.08 -9.91zm31.13 1.43c-0.95,-0.61 -2.02,-1.11 -3.22,-1.49 -1.18,-0.38 -2.38,-0.58 -3.56,-0.58 -2.01,0 -3.55,0.46 -4.64,1.37 -1.1,0.91 -1.64,2.12 -1.64,3.63 0,0.61 0.1,1.18 0.3,1.69 0.2,0.51 0.5,0.99 0.9,1.45 0.39,0.45 0.89,0.9 1.49,1.33 0.6,0.42 1.3,0.88 2.09,1.37 2.38,1.38 4.1,2.79 5.14,4.25 1.06,1.46 1.58,3.1 1.58,4.93 0,1.23 -0.23,2.43 -0.69,3.61 -0.45,1.18 -1.17,2.22 -2.17,3.12 -1,0.9 -2.3,1.63 -3.88,2.19 -1.58,0.55 -3.51,0.82 -5.78,0.82 -0.63,0 -1.34,-0.04 -2.1,-0.13 -0.78,-0.07 -1.54,-0.2 -2.32,-0.38 -0.77,-0.16 -1.51,-0.37 -2.23,-0.62 -0.71,-0.24 -1.33,-0.52 -1.86,-0.83l1.05 -4.98c0.43,0.3 0.95,0.59 1.58,0.9 0.62,0.29 1.31,0.55 2.04,0.79 0.72,0.23 1.5,0.42 2.29,0.58 0.8,0.14 1.59,0.21 2.37,0.21 2.13,0 3.72,-0.42 4.77,-1.27 1.05,-0.85 1.58,-2.03 1.58,-3.53 0,-0.56 -0.08,-1.07 -0.24,-1.54 -0.16,-0.47 -0.44,-0.93 -0.84,-1.4 -0.4,-0.47 -0.94,-0.94 -1.6,-1.42 -0.65,-0.47 -1.49,-1.01 -2.48,-1.61 -2.18,-1.31 -3.78,-2.69 -4.8,-4.13 -1.03,-1.43 -1.54,-3.05 -1.54,-4.85 0,-1.32 0.24,-2.58 0.73,-3.79 0.48,-1.2 1.21,-2.26 2.18,-3.17 0.97,-0.93 2.18,-1.67 3.65,-2.22 1.46,-0.56 3.17,-0.83 5.13,-0.83 1.53,0 2.98,0.14 4.35,0.45 1.37,0.29 2.54,0.67 3.49,1.14l-1.12 4.94z"/>
   <path class="fil2" d="M526 107.01c-0.15,0.69 -0.29,1.5 -0.43,2.46 -0.15,0.96 -0.27,1.91 -0.37,2.88 -0.1,0.97 -0.2,1.87 -0.27,2.72 -0.07,0.85 -0.12,1.51 -0.12,1.98l-5.41 0c0,-0.36 0.03,-0.85 0.08,-1.45 0.05,-0.61 0.11,-1.24 0.19,-1.9 0.08,-0.65 0.15,-1.28 0.24,-1.89 0.09,-0.61 0.16,-1.1 0.23,-1.48l-0.13 0c-0.77,1.23 -1.54,2.31 -2.3,3.26 -0.76,0.95 -1.58,1.73 -2.42,2.36 -0.85,0.63 -1.76,1.1 -2.71,1.42 -0.96,0.32 -2.01,0.47 -3.16,0.47 -1.48,0 -2.83,-0.26 -4.01,-0.79 -1.19,-0.53 -2.21,-1.32 -3.05,-2.34 -0.84,-1.03 -1.48,-2.31 -1.92,-3.83 -0.45,-1.52 -0.67,-3.26 -0.67,-5.24 0,-1.57 0.16,-3.21 0.49,-4.91 0.33,-1.7 0.84,-3.37 1.53,-5 0.69,-1.63 1.57,-3.19 2.63,-4.66 1.06,-1.46 2.32,-2.75 3.79,-3.85 1.47,-1.11 3.15,-1.98 5.04,-2.63 1.89,-0.64 4,-0.97 6.34,-0.97 1.19,0 2.3,0.07 3.31,0.24 1.02,0.15 1.9,0.31 2.65,0.49l3.31 -15.61 5.17 0 -8.03 38.27zm-1.37 -18.17c-0.82,-0.23 -1.65,-0.41 -2.53,-0.55 -0.89,-0.14 -1.83,-0.21 -2.82,-0.21 -1.85,0 -3.48,0.28 -4.9,0.86 -1.41,0.58 -2.64,1.34 -3.7,2.29 -1.05,0.96 -1.93,2.05 -2.64,3.27 -0.72,1.23 -1.28,2.48 -1.72,3.76 -0.43,1.29 -0.75,2.55 -0.92,3.8 -0.19,1.24 -0.28,2.36 -0.28,3.36 0,1.19 0.1,2.28 0.31,3.25 0.19,0.97 0.52,1.81 0.98,2.52 0.46,0.69 1.05,1.24 1.77,1.62 0.72,0.38 1.59,0.57 2.61,0.57 1.07,0 2.06,-0.21 2.98,-0.66 0.93,-0.45 1.8,-1.06 2.6,-1.82 0.81,-0.77 1.54,-1.65 2.2,-2.65 0.66,-0.99 1.25,-2.06 1.78,-3.19 0.54,-1.12 0.98,-2.26 1.36,-3.43 0.37,-1.15 0.68,-2.26 0.91,-3.32l2.01 -9.47zm38.57 3.22c0,1.72 -0.38,3.29 -1.16,4.7 -0.76,1.42 -2.02,2.62 -3.78,3.63 -1.78,1.02 -4.09,1.8 -6.99,2.35 -2.89,0.55 -6.46,0.84 -10.7,0.86 -0.04,0.23 -0.07,0.48 -0.07,0.73 0,0.24 0,0.45 0,0.64 0,1.15 0.16,2.23 0.48,3.25 0.32,1.02 0.81,1.91 1.48,2.68 0.66,0.76 1.53,1.37 2.58,1.82 1.06,0.45 2.31,0.66 3.74,0.66 1.47,0 3.08,-0.28 4.83,-0.84 1.75,-0.56 3.43,-1.36 5.03,-2.41l-0.99 5.17c-1.18,0.67 -2.56,1.27 -4.18,1.78 -1.61,0.51 -3.42,0.76 -5.42,0.76 -2.4,0 -4.42,-0.36 -6.07,-1.1 -1.64,-0.76 -2.97,-1.75 -3.98,-2.99 -1.01,-1.25 -1.74,-2.67 -2.19,-4.3 -0.44,-1.62 -0.66,-3.33 -0.66,-5.12 0,-1.91 0.21,-3.75 0.63,-5.52 0.43,-1.78 1.02,-3.43 1.81,-4.96 0.77,-1.53 1.69,-2.93 2.78,-4.19 1.09,-1.27 2.29,-2.34 3.6,-3.23 1.32,-0.9 2.73,-1.59 4.25,-2.08 1.5,-0.49 3.06,-0.73 4.67,-0.73 1.69,0 3.17,0.22 4.45,0.66 1.29,0.45 2.36,1.06 3.22,1.84 0.86,0.77 1.52,1.67 1.96,2.69 0.45,1.02 0.68,2.11 0.68,3.25zm-5.33 0.26c0,-1.35 -0.49,-2.38 -1.48,-3.13 -0.99,-0.74 -2.3,-1.11 -3.94,-1.11 -1.3,0 -2.55,0.28 -3.76,0.85 -1.21,0.55 -2.32,1.34 -3.35,2.32 -1.02,0.99 -1.9,2.17 -2.64,3.54 -0.74,1.37 -1.28,2.85 -1.63,4.44 3.04,0 5.62,-0.15 7.74,-0.46 2.14,-0.31 3.87,-0.76 5.2,-1.36 1.34,-0.58 2.32,-1.31 2.93,-2.17 0.62,-0.86 0.93,-1.84 0.93,-2.92zm32.35 24.73l-5.48 0 9.65 -45.7 5.54 0 -9.71 45.7zm42.87 -24.48c0,0.32 -0.04,0.75 -0.11,1.31 -0.08,0.55 -0.17,1.15 -0.29,1.78 -0.12,0.64 -0.24,1.28 -0.35,1.89 -0.11,0.64 -0.22,1.17 -0.33,1.61l-3.8 17.89 -5.29 0 3.99 -19.12c0.08,-0.34 0.17,-0.73 0.26,-1.18 0.07,-0.45 0.15,-0.89 0.21,-1.34 0.07,-0.44 0.12,-0.86 0.17,-1.23 0.04,-0.37 0.06,-0.66 0.06,-0.88 0,-1.61 -0.39,-2.88 -1.16,-3.82 -0.79,-0.93 -1.94,-1.4 -3.46,-1.4 -1.4,0 -2.8,0.41 -4.18,1.24 -1.38,0.83 -2.65,1.88 -3.83,3.15 -1.16,1.28 -2.16,2.68 -3,4.21 -0.85,1.54 -1.41,3.01 -1.71,4.43l-3.41 15.94 -5.29 0 5.04 -23.3c0.17,-0.83 0.33,-1.69 0.51,-2.59 0.16,-0.9 0.32,-1.78 0.48,-2.62 0.14,-0.84 0.27,-1.62 0.38,-2.34 0.1,-0.72 0.18,-1.32 0.25,-1.79l5.1 0c-0.11,0.83 -0.23,1.7 -0.38,2.6 -0.16,0.91 -0.27,1.73 -0.38,2.51 -0.13,0.89 -0.27,1.76 -0.42,2.61l0.12 0c0.75,-1.17 1.57,-2.28 2.47,-3.3 0.91,-1.03 1.88,-1.94 2.94,-2.71 1.05,-0.78 2.16,-1.39 3.35,-1.84 1.18,-0.44 2.42,-0.66 3.71,-0.66 1.45,0 2.69,0.22 3.73,0.65 1.03,0.44 1.91,1.05 2.59,1.83 0.7,0.78 1.21,1.73 1.53,2.84 0.33,1.11 0.5,2.32 0.5,3.63zm29.57 -19.31c-0.2,-0.11 -0.46,-0.2 -0.76,-0.3 -0.3,-0.1 -0.62,-0.19 -0.95,-0.27 -0.34,-0.09 -0.7,-0.16 -1.07,-0.21 -0.37,-0.06 -0.73,-0.08 -1.07,-0.08 -1.74,0 -3.09,0.57 -4.03,1.7 -0.95,1.14 -1.67,2.83 -2.16,5.09l-1.17 5.22 7.71 0 -1.05 4.43 -7.72 0 -8.34 39.05 -5.3 0 8.42 -39.05 -5.61 0 0.99 -4.43 5.61 0 1.31 -6.06c0.4,-1.87 0.97,-3.46 1.68,-4.77 0.72,-1.32 1.58,-2.4 2.58,-3.22 1,-0.83 2.13,-1.44 3.4,-1.82 1.27,-0.38 2.65,-0.58 4.16,-0.58 0.79,0 1.56,0.07 2.31,0.2 0.75,0.13 1.39,0.27 1.92,0.45l-0.86 4.65zm25.47 23.23c0,2.89 -0.4,5.63 -1.22,8.22 -0.82,2.6 -2,4.87 -3.54,6.81 -1.54,1.94 -3.41,3.49 -5.61,4.62 -2.19,1.14 -4.67,1.7 -7.44,1.7 -1.87,0 -3.55,-0.29 -5.06,-0.89 -1.48,-0.6 -2.76,-1.44 -3.81,-2.56 -1.06,-1.11 -1.86,-2.46 -2.43,-4.05 -0.57,-1.58 -0.84,-3.37 -0.84,-5.37 0,-3 0.43,-5.79 1.29,-8.39 0.86,-2.61 2.07,-4.88 3.63,-6.79 1.57,-1.93 3.44,-3.44 5.61,-4.53 2.18,-1.1 4.58,-1.64 7.22,-1.64 1.85,0 3.52,0.29 5.02,0.89 1.5,0.59 2.78,1.45 3.84,2.57 1.06,1.11 1.88,2.46 2.47,4.05 0.59,1.57 0.87,3.37 0.87,5.36zm-5.35 0.26c0,-1.38 -0.16,-2.61 -0.51,-3.69 -0.34,-1.06 -0.82,-1.97 -1.43,-2.71 -0.62,-0.73 -1.36,-1.29 -2.24,-1.68 -0.87,-0.39 -1.84,-0.59 -2.92,-0.59 -1.87,0 -3.56,0.48 -5.07,1.44 -1.52,0.95 -2.79,2.2 -3.82,3.77 -1.05,1.56 -1.85,3.34 -2.42,5.32 -0.55,1.99 -0.83,4.03 -0.83,6.1 0,1.32 0.16,2.52 0.49,3.59 0.32,1.07 0.79,1.98 1.4,2.75 0.61,0.75 1.35,1.32 2.23,1.73 0.88,0.41 1.87,0.6 2.98,0.6 1.89,0 3.59,-0.46 5.1,-1.41 1.5,-0.95 2.79,-2.2 3.82,-3.76 1.04,-1.57 1.84,-3.34 2.39,-5.35 0.56,-1.99 0.83,-4.03 0.83,-6.11zm32.26 -6.79l-0.13 0c-0.43,-0.26 -0.98,-0.51 -1.67,-0.75 -0.69,-0.25 -1.38,-0.37 -2.05,-0.37 -1.24,0 -2.42,0.4 -3.55,1.2 -1.12,0.79 -2.14,1.85 -3.07,3.15 -0.92,1.31 -1.73,2.8 -2.43,4.49 -0.68,1.67 -1.22,3.39 -1.61,5.15l-3.05 14.22 -5.23 0 4.59 -21.67c0.19,-0.89 0.38,-1.83 0.57,-2.81 0.2,-0.98 0.37,-1.96 0.52,-2.93 0.17,-0.97 0.31,-1.91 0.44,-2.8 0.13,-0.89 0.22,-1.71 0.28,-2.43l5.17 0c-0.06,0.65 -0.14,1.32 -0.23,2.03 -0.07,0.7 -0.16,1.4 -0.25,2.06 -0.08,0.68 -0.17,1.29 -0.25,1.82 -0.09,0.54 -0.15,0.97 -0.19,1.26l0.13 0c0.67,-1.2 1.37,-2.3 2.06,-3.28 0.71,-0.97 1.44,-1.81 2.22,-2.5 0.78,-0.69 1.6,-1.22 2.47,-1.6 0.87,-0.4 1.82,-0.58 2.84,-0.58 0.59,0 1.18,0.05 1.76,0.17 0.59,0.12 1.11,0.24 1.58,0.37l-0.92 5.8zm51.51 2.68c0,0.27 -0.04,0.69 -0.11,1.26 -0.08,0.56 -0.17,1.16 -0.29,1.79 -0.12,0.65 -0.23,1.28 -0.35,1.9 -0.12,0.63 -0.22,1.15 -0.31,1.57l-3.85 17.89 -5.23 0 3.98 -19.12c0.09,-0.36 0.18,-0.77 0.26,-1.21 0.09,-0.45 0.17,-0.89 0.24,-1.33 0.08,-0.43 0.13,-0.84 0.18,-1.21 0.04,-0.37 0.06,-0.66 0.06,-0.88 0,-1.67 -0.36,-2.97 -1.09,-3.87 -0.72,-0.9 -1.85,-1.35 -3.37,-1.35 -0.82,0 -1.64,0.18 -2.5,0.55 -0.87,0.37 -1.71,0.89 -2.52,1.52 -0.82,0.64 -1.6,1.38 -2.37,2.23 -0.75,0.85 -1.43,1.76 -2.06,2.73 -0.63,0.97 -1.17,1.96 -1.61,2.96 -0.45,1.01 -0.78,2 -0.99,2.98l-3.41 16 -5.3 0 4.05 -19.12c0.09,-0.36 0.18,-0.77 0.26,-1.21 0.09,-0.45 0.16,-0.89 0.24,-1.33 0.08,-0.43 0.13,-0.84 0.17,-1.21 0.05,-0.37 0.07,-0.66 0.07,-0.88 0,-1.67 -0.37,-2.97 -1.12,-3.87 -0.74,-0.9 -1.86,-1.35 -3.34,-1.35 -0.83,0 -1.69,0.18 -2.56,0.55 -0.87,0.37 -1.72,0.89 -2.54,1.54 -0.83,0.64 -1.62,1.4 -2.37,2.26 -0.77,0.86 -1.45,1.77 -2.08,2.74 -0.62,0.97 -1.16,1.95 -1.59,2.96 -0.44,1.01 -0.76,2 -0.98,2.98l-3.4 15.94 -5.29 0 5.02 -23.3c0.18,-0.83 0.35,-1.69 0.52,-2.59 0.17,-0.9 0.33,-1.78 0.47,-2.62 0.16,-0.84 0.29,-1.62 0.38,-2.34 0.11,-0.72 0.2,-1.32 0.27,-1.79l5.1 0c-0.11,0.83 -0.24,1.7 -0.39,2.6 -0.14,0.91 -0.28,1.73 -0.38,2.51 -0.12,0.89 -0.27,1.76 -0.42,2.61l0.13 0c0.76,-1.23 1.59,-2.37 2.48,-3.42 0.9,-1.03 1.84,-1.94 2.84,-2.69 1,-0.75 2.05,-1.34 3.13,-1.77 1.08,-0.42 2.2,-0.63 3.38,-0.63 1.36,0 2.52,0.2 3.5,0.6 0.98,0.41 1.8,0.98 2.44,1.71 0.65,0.72 1.14,1.62 1.48,2.66 0.35,1.03 0.54,2.2 0.61,3.47 0.78,-1.18 1.63,-2.29 2.53,-3.33 0.91,-1.03 1.87,-1.92 2.91,-2.67 1.02,-0.76 2.12,-1.35 3.27,-1.79 1.17,-0.43 2.39,-0.65 3.69,-0.65 2.72,0 4.75,0.79 6.11,2.37 1.36,1.59 2.05,3.8 2.05,6.65zm32.15 13.96c-0.17,0.8 -0.33,1.72 -0.49,2.73 -0.17,1 -0.3,2 -0.42,2.99 -0.12,0.99 -0.21,1.9 -0.28,2.75 -0.07,0.85 -0.12,1.51 -0.12,1.98l-5.42 0c0.03,-0.42 0.06,-0.94 0.1,-1.53 0.04,-0.59 0.1,-1.21 0.18,-1.85 0.07,-0.63 0.15,-1.27 0.22,-1.87 0.07,-0.62 0.16,-1.16 0.24,-1.6l-0.13 0c-0.66,1.04 -1.32,2.02 -2.01,2.94 -0.67,0.93 -1.43,1.75 -2.26,2.44 -0.83,0.71 -1.75,1.25 -2.78,1.67 -1.01,0.4 -2.22,0.59 -3.6,0.59 -1.41,0 -2.72,-0.25 -3.9,-0.76 -1.18,-0.51 -2.19,-1.27 -3.04,-2.28 -0.85,-1 -1.51,-2.27 -1.96,-3.79 -0.45,-1.52 -0.68,-3.28 -0.68,-5.31 0,-1.23 0.12,-2.63 0.38,-4.21 0.25,-1.56 0.68,-3.17 1.28,-4.81 0.61,-1.63 1.42,-3.23 2.43,-4.79 1.01,-1.57 2.26,-2.96 3.76,-4.19 1.49,-1.24 3.27,-2.22 5.31,-2.97 2.04,-0.74 4.4,-1.11 7.07,-1.11 1.7,0 3.45,0.12 5.26,0.38 1.8,0.25 3.6,0.57 5.38,0.92l-4.52 21.68zm-1.49 -17.88c-0.75,-0.17 -1.63,-0.33 -2.63,-0.44 -0.99,-0.13 -1.92,-0.2 -2.79,-0.2 -1.85,0 -3.48,0.29 -4.9,0.87 -1.41,0.59 -2.64,1.35 -3.67,2.3 -1.05,0.94 -1.93,2.03 -2.64,3.27 -0.71,1.23 -1.28,2.49 -1.7,3.78 -0.43,1.28 -0.73,2.55 -0.91,3.8 -0.18,1.25 -0.27,2.4 -0.27,3.41 0,1.22 0.11,2.3 0.32,3.27 0.21,0.97 0.54,1.79 1,2.47 0.45,0.68 1.04,1.21 1.75,1.58 0.72,0.37 1.56,0.55 2.53,0.55 1.07,0 2.06,-0.21 2.98,-0.65 0.93,-0.43 1.8,-1.02 2.6,-1.77 0.81,-0.74 1.55,-1.6 2.2,-2.58 0.67,-0.98 1.25,-2.01 1.79,-3.11 0.53,-1.09 0.99,-2.21 1.35,-3.34 0.38,-1.14 0.68,-2.24 0.91,-3.3l2.08 -9.91zm35.56 2.17c-0.89,-0.8 -1.97,-1.46 -3.23,-1.99 -1.26,-0.55 -2.67,-0.82 -4.19,-0.82 -1.47,0 -2.8,0.25 -3.97,0.76 -1.18,0.51 -2.23,1.2 -3.14,2.05 -0.92,0.84 -1.7,1.82 -2.35,2.92 -0.67,1.11 -1.21,2.26 -1.64,3.45 -0.42,1.19 -0.74,2.37 -0.93,3.55 -0.21,1.18 -0.31,2.28 -0.31,3.29 0,3.05 0.67,5.36 2.01,6.92 1.35,1.58 3.16,2.36 5.48,2.36 1.4,0 2.86,-0.29 4.37,-0.88 1.5,-0.57 2.93,-1.32 4.27,-2.24l-1.11 5.22c-1.38,0.75 -2.77,1.33 -4.14,1.75 -1.37,0.41 -2.82,0.61 -4.35,0.61 -1.99,0 -3.73,-0.33 -5.21,-1.02 -1.47,-0.67 -2.7,-1.61 -3.68,-2.79 -0.98,-1.2 -1.7,-2.6 -2.19,-4.24 -0.49,-1.62 -0.73,-3.38 -0.73,-5.26 0,-1.79 0.17,-3.55 0.53,-5.28 0.37,-1.73 0.9,-3.37 1.61,-4.9 0.72,-1.55 1.59,-2.97 2.63,-4.29 1.05,-1.33 2.24,-2.46 3.59,-3.39 1.35,-0.95 2.85,-1.7 4.51,-2.25 1.65,-0.53 3.46,-0.8 5.38,-0.8 0.92,0 1.79,0.07 2.61,0.18 0.84,0.13 1.59,0.31 2.26,0.52 0.69,0.21 1.3,0.44 1.82,0.68 0.53,0.25 0.96,0.49 1.29,0.72l-1.19 5.17zm14.19 26.03c-0.54,0.17 -1.13,0.32 -1.81,0.41 -0.66,0.11 -1.33,0.17 -1.99,0.17 -2.14,0 -3.75,-0.54 -4.81,-1.61 -1.07,-1.08 -1.6,-2.52 -1.6,-4.32 0,-0.54 0.06,-1.16 0.17,-1.88 0.1,-0.72 0.27,-1.61 0.51,-2.68l4.74 -22.6 5.3 0 -4.79 22.73c-0.18,0.89 -0.33,1.58 -0.39,2.07 -0.08,0.49 -0.12,0.9 -0.12,1.25 0,0.87 0.24,1.53 0.72,1.99 0.48,0.46 1.24,0.68 2.28,0.68 0.56,0 1.04,-0.03 1.45,-0.09 0.41,-0.07 0.8,-0.17 1.16,-0.3l-0.82 4.18zm3.73 -44.14c0,0.96 -0.33,1.78 -0.98,2.45 -0.64,0.69 -1.45,1.02 -2.4,1.02 -0.94,0 -1.76,-0.33 -2.44,-1 -0.7,-0.67 -1.04,-1.5 -1.04,-2.47 0,-0.98 0.34,-1.77 1.04,-2.39 0.68,-0.62 1.5,-0.92 2.44,-0.92 0.93,0 1.72,0.31 2.39,0.93 0.65,0.63 0.99,1.43 0.99,2.38zm32.34 23.71c0,2.89 -0.4,5.63 -1.22,8.22 -0.82,2.6 -2,4.87 -3.54,6.81 -1.54,1.94 -3.41,3.49 -5.61,4.62 -2.19,1.14 -4.67,1.7 -7.44,1.7 -1.87,0 -3.55,-0.29 -5.06,-0.89 -1.49,-0.6 -2.76,-1.44 -3.82,-2.56 -1.05,-1.11 -1.85,-2.46 -2.42,-4.05 -0.57,-1.58 -0.84,-3.37 -0.84,-5.37 0,-3 0.43,-5.79 1.29,-8.39 0.86,-2.61 2.07,-4.88 3.63,-6.79 1.57,-1.93 3.44,-3.44 5.61,-4.53 2.18,-1.1 4.58,-1.64 7.22,-1.64 1.85,0 3.52,0.29 5.02,0.89 1.5,0.59 2.78,1.45 3.84,2.57 1.06,1.11 1.88,2.46 2.47,4.05 0.59,1.57 0.87,3.37 0.87,5.36zm-5.35 0.26c0,-1.38 -0.16,-2.61 -0.51,-3.69 -0.34,-1.06 -0.82,-1.97 -1.43,-2.71 -0.62,-0.73 -1.36,-1.29 -2.24,-1.68 -0.87,-0.39 -1.84,-0.59 -2.92,-0.59 -1.88,0 -3.56,0.48 -5.07,1.44 -1.52,0.95 -2.79,2.2 -3.82,3.77 -1.05,1.56 -1.85,3.34 -2.42,5.32 -0.55,1.99 -0.84,4.03 -0.84,6.1 0,1.32 0.17,2.52 0.49,3.59 0.33,1.07 0.8,1.98 1.41,2.75 0.61,0.75 1.35,1.32 2.23,1.73 0.88,0.41 1.87,0.6 2.98,0.6 1.89,0 3.59,-0.46 5.1,-1.41 1.5,-0.95 2.79,-2.2 3.82,-3.76 1.04,-1.57 1.84,-3.34 2.39,-5.35 0.56,-1.99 0.83,-4.03 0.83,-6.11zm-6.71 -18.55l-3.92 0 9.2 -10.42 5.14 0 -10.42 10.42zm47.9 14.37c0,0.32 -0.05,0.75 -0.12,1.31 -0.08,0.55 -0.16,1.15 -0.29,1.78 -0.11,0.64 -0.23,1.28 -0.34,1.89 -0.12,0.64 -0.23,1.17 -0.34,1.61l-3.8 17.89 -5.28 0 3.98 -19.12c0.08,-0.34 0.17,-0.73 0.26,-1.18 0.07,-0.45 0.15,-0.89 0.22,-1.34 0.06,-0.44 0.12,-0.86 0.16,-1.23 0.04,-0.37 0.06,-0.66 0.06,-0.88 0,-1.61 -0.39,-2.88 -1.16,-3.82 -0.78,-0.93 -1.94,-1.4 -3.46,-1.4 -1.4,0 -2.8,0.41 -4.18,1.24 -1.38,0.83 -2.65,1.88 -3.83,3.15 -1.16,1.28 -2.16,2.68 -3,4.21 -0.85,1.54 -1.41,3.01 -1.71,4.43l-3.41 15.94 -5.29 0 5.04 -23.3c0.17,-0.83 0.33,-1.69 0.51,-2.59 0.16,-0.9 0.33,-1.78 0.48,-2.62 0.14,-0.84 0.27,-1.62 0.38,-2.34 0.11,-0.72 0.18,-1.32 0.25,-1.79l5.1 0c-0.11,0.83 -0.23,1.7 -0.38,2.6 -0.15,0.91 -0.27,1.73 -0.38,2.51 -0.13,0.89 -0.27,1.76 -0.42,2.61l0.12 0c0.76,-1.17 1.57,-2.28 2.47,-3.3 0.91,-1.03 1.89,-1.94 2.94,-2.71 1.06,-0.78 2.17,-1.39 3.35,-1.84 1.18,-0.44 2.42,-0.66 3.71,-0.66 1.45,0 2.69,0.22 3.73,0.65 1.04,0.44 1.91,1.05 2.59,1.83 0.7,0.78 1.21,1.73 1.54,2.84 0.32,1.11 0.5,2.32 0.5,3.63zm64.3 -13.44c-0.69,-0.47 -1.5,-0.93 -2.4,-1.37 -0.9,-0.45 -1.89,-0.85 -2.98,-1.2 -1.09,-0.35 -2.26,-0.63 -3.53,-0.85 -1.26,-0.21 -2.6,-0.32 -4.02,-0.32 -3.17,0 -6,0.57 -8.49,1.69 -2.48,1.13 -4.59,2.67 -6.31,4.6 -1.72,1.95 -3.03,4.25 -3.95,6.88 -0.91,2.63 -1.37,5.45 -1.37,8.44 0,2.49 0.35,4.72 1.04,6.69 0.69,1.98 1.68,3.66 2.98,5.04 1.29,1.38 2.86,2.44 4.7,3.17 1.84,0.73 3.91,1.1 6.23,1.1 1.6,0 3.04,-0.13 4.32,-0.4 1.28,-0.26 2.48,-0.61 3.59,-1.03l2.74 -13.33 -10.58 0 1.05 -4.74 16.06 0 -4.49 21.06c-1.81,0.96 -3.81,1.76 -6,2.39 -2.18,0.64 -4.63,0.96 -7.33,0.96 -3.12,0 -5.91,-0.52 -8.38,-1.56 -2.47,-1.04 -4.56,-2.48 -6.26,-4.29 -1.71,-1.82 -3.02,-3.96 -3.92,-6.43 -0.9,-2.48 -1.36,-5.15 -1.36,-8.02 0,-2.47 0.26,-4.84 0.77,-7.14 0.51,-2.29 1.27,-4.45 2.27,-6.46 1,-2 2.24,-3.83 3.72,-5.48 1.49,-1.65 3.2,-3.06 5.16,-4.23 1.96,-1.19 4.14,-2.1 6.55,-2.74 2.42,-0.66 5.06,-0.98 7.92,-0.98 1.58,0 3.04,0.09 4.39,0.29 1.35,0.18 2.58,0.43 3.7,0.73 1.11,0.3 2.11,0.62 2.98,0.98 0.87,0.35 1.61,0.68 2.23,1l-1.03 5.55zm32.42 12.93c0,1.72 -0.38,3.29 -1.15,4.7 -0.76,1.42 -2.02,2.62 -3.79,3.63 -1.77,1.02 -4.09,1.8 -6.98,2.35 -2.89,0.55 -6.46,0.84 -10.71,0.86 -0.04,0.23 -0.06,0.48 -0.06,0.73 0,0.24 0,0.45 0,0.64 0,1.15 0.15,2.23 0.48,3.25 0.31,1.02 0.8,1.91 1.48,2.68 0.66,0.76 1.53,1.37 2.58,1.82 1.05,0.45 2.3,0.66 3.74,0.66 1.47,0 3.08,-0.28 4.83,-0.84 1.75,-0.56 3.43,-1.36 5.02,-2.41l-0.98 5.17c-1.18,0.67 -2.56,1.27 -4.18,1.78 -1.61,0.51 -3.42,0.76 -5.42,0.76 -2.41,0 -4.43,-0.36 -6.07,-1.1 -1.64,-0.76 -2.97,-1.75 -3.98,-2.99 -1.01,-1.25 -1.74,-2.67 -2.19,-4.3 -0.45,-1.62 -0.66,-3.33 -0.66,-5.12 0,-1.91 0.2,-3.75 0.63,-5.52 0.42,-1.78 1.02,-3.43 1.8,-4.96 0.78,-1.53 1.7,-2.93 2.79,-4.19 1.09,-1.27 2.28,-2.34 3.6,-3.23 1.32,-0.9 2.73,-1.59 4.24,-2.08 1.5,-0.49 3.07,-0.73 4.68,-0.73 1.69,0 3.17,0.22 4.45,0.66 1.28,0.45 2.36,1.06 3.22,1.84 0.86,0.77 1.51,1.67 1.96,2.69 0.45,1.02 0.67,2.11 0.67,3.25zm-5.33 0.26c0,-1.35 -0.49,-2.38 -1.48,-3.13 -0.99,-0.74 -2.29,-1.11 -3.94,-1.11 -1.29,0 -2.54,0.28 -3.75,0.85 -1.22,0.55 -2.33,1.34 -3.35,2.32 -1.02,0.99 -1.9,2.17 -2.64,3.54 -0.74,1.37 -1.29,2.85 -1.63,4.44 3.04,0 5.62,-0.15 7.74,-0.46 2.13,-0.31 3.86,-0.76 5.2,-1.36 1.34,-0.58 2.32,-1.31 2.93,-2.17 0.62,-0.86 0.92,-1.84 0.92,-2.92zm39.02 4.17c0,2.89 -0.41,5.63 -1.22,8.22 -0.83,2.6 -2.01,4.87 -3.55,6.81 -1.53,1.94 -3.41,3.49 -5.6,4.62 -2.2,1.14 -4.68,1.7 -7.44,1.7 -1.88,0 -3.56,-0.29 -5.06,-0.89 -1.49,-0.6 -2.77,-1.44 -3.82,-2.56 -1.06,-1.11 -1.86,-2.46 -2.43,-4.05 -0.56,-1.58 -0.84,-3.37 -0.84,-5.37 0,-3 0.43,-5.79 1.29,-8.39 0.86,-2.61 2.08,-4.88 3.63,-6.79 1.57,-1.93 3.44,-3.44 5.62,-4.53 2.17,-1.1 4.58,-1.64 7.21,-1.64 1.85,0 3.52,0.29 5.02,0.89 1.51,0.59 2.78,1.45 3.85,2.57 1.05,1.11 1.88,2.46 2.46,4.05 0.59,1.57 0.88,3.37 0.88,5.36zm-5.36 0.26c0,-1.38 -0.16,-2.61 -0.51,-3.69 -0.34,-1.06 -0.81,-1.97 -1.42,-2.71 -0.62,-0.73 -1.36,-1.29 -2.25,-1.68 -0.87,-0.39 -1.83,-0.59 -2.92,-0.59 -1.87,0 -3.56,0.48 -5.07,1.44 -1.51,0.95 -2.79,2.2 -3.82,3.77 -1.05,1.56 -1.85,3.34 -2.42,5.32 -0.55,1.99 -0.83,4.03 -0.83,6.1 0,1.32 0.16,2.52 0.49,3.59 0.32,1.07 0.79,1.98 1.4,2.75 0.61,0.75 1.35,1.32 2.23,1.73 0.88,0.41 1.87,0.6 2.98,0.6 1.89,0 3.59,-0.46 5.1,-1.41 1.51,-0.95 2.79,-2.2 3.82,-3.76 1.05,-1.57 1.84,-3.34 2.39,-5.35 0.56,-1.99 0.83,-4.03 0.83,-6.11z"/>
   <path class="fil2" d="M1078.85 114.69c-0.53,2.56 -1.23,4.91 -2.09,7.06 -0.88,2.16 -2.03,4.03 -3.46,5.61 -1.44,1.58 -3.2,2.81 -5.31,3.7 -2.1,0.88 -4.66,1.32 -7.68,1.32 -2.08,0 -3.9,-0.24 -5.43,-0.73 -1.55,-0.49 -2.95,-1.08 -4.23,-1.75l0.99 -4.89c1.33,0.82 2.76,1.49 4.27,2.05 1.51,0.55 3.13,0.83 4.88,0.83 1.89,0 3.53,-0.28 4.92,-0.83 1.39,-0.56 2.59,-1.37 3.6,-2.44 1.02,-1.07 1.85,-2.38 2.52,-3.94 0.67,-1.55 1.23,-3.33 1.67,-5.32l1.12 -5.1 -0.13 0c-0.8,1.3 -1.6,2.42 -2.37,3.36 -0.78,0.95 -1.59,1.73 -2.44,2.36 -0.86,0.62 -1.75,1.09 -2.68,1.41 -0.93,0.3 -1.96,0.45 -3.09,0.45 -1.47,0 -2.8,-0.26 -3.98,-0.78 -1.19,-0.51 -2.21,-1.28 -3.05,-2.31 -0.84,-1.02 -1.49,-2.29 -1.94,-3.82 -0.45,-1.53 -0.68,-3.29 -0.68,-5.29 0,-1.89 0.2,-3.75 0.62,-5.58 0.41,-1.83 1.01,-3.56 1.79,-5.19 0.79,-1.63 1.75,-3.15 2.89,-4.52 1.14,-1.37 2.43,-2.55 3.87,-3.54 1.45,-1 3.03,-1.79 4.76,-2.35 1.73,-0.56 3.59,-0.84 5.57,-0.84 1.97,0 3.95,0.12 5.92,0.38 1.98,0.25 3.8,0.54 5.45,0.86l-6.28 29.83zm0.27 -25.97c-0.73,-0.17 -1.6,-0.33 -2.64,-0.44 -1.03,-0.13 -2.13,-0.2 -3.29,-0.2 -2,0 -3.83,0.46 -5.49,1.38 -1.65,0.93 -3.09,2.19 -4.28,3.77 -1.21,1.58 -2.14,3.42 -2.81,5.52 -0.66,2.11 -1,4.33 -1,6.67 0,1.14 0.1,2.21 0.3,3.19 0.2,0.97 0.52,1.82 0.95,2.51 0.45,0.71 1,1.25 1.7,1.66 0.68,0.41 1.53,0.6 2.53,0.6 1.17,0 2.24,-0.24 3.23,-0.72 0.99,-0.49 1.9,-1.15 2.72,-1.95 0.84,-0.81 1.58,-1.73 2.22,-2.75 0.66,-1.04 1.22,-2.09 1.72,-3.18 0.5,-1.09 0.93,-2.15 1.26,-3.2 0.34,-1.05 0.61,-2 0.8,-2.86l2.08 -10zm32.44 1.24l-0.13 0c-0.43,-0.26 -0.98,-0.51 -1.67,-0.75 -0.69,-0.25 -1.38,-0.37 -2.05,-0.37 -1.24,0 -2.42,0.4 -3.55,1.2 -1.12,0.79 -2.14,1.85 -3.07,3.15 -0.92,1.31 -1.73,2.8 -2.42,4.49 -0.69,1.67 -1.23,3.39 -1.61,5.15l-3.06 14.22 -5.23 0 4.59 -21.67c0.19,-0.89 0.38,-1.83 0.57,-2.81 0.2,-0.98 0.37,-1.96 0.53,-2.93 0.16,-0.97 0.3,-1.91 0.43,-2.8 0.13,-0.89 0.22,-1.71 0.28,-2.43l5.17 0c-0.06,0.65 -0.14,1.32 -0.23,2.03 -0.07,0.7 -0.16,1.4 -0.25,2.06 -0.08,0.68 -0.17,1.29 -0.25,1.82 -0.08,0.54 -0.15,0.97 -0.19,1.26l0.13 0c0.67,-1.2 1.37,-2.3 2.06,-3.28 0.71,-0.97 1.44,-1.81 2.22,-2.5 0.78,-0.69 1.6,-1.22 2.47,-1.6 0.87,-0.4 1.82,-0.58 2.84,-0.58 0.59,0 1.18,0.05 1.76,0.17 0.59,0.12 1.11,0.24 1.58,0.37l-0.92 5.8zm27.15 16.64c-0.16,0.8 -0.32,1.72 -0.49,2.73 -0.16,1 -0.29,2 -0.41,2.99 -0.12,0.99 -0.22,1.9 -0.29,2.75 -0.07,0.85 -0.11,1.51 -0.11,1.98l-5.42 0c0.02,-0.42 0.05,-0.94 0.1,-1.53 0.04,-0.59 0.09,-1.21 0.17,-1.85 0.08,-0.63 0.15,-1.27 0.23,-1.87 0.06,-0.62 0.15,-1.16 0.24,-1.6l-0.13 0c-0.67,1.04 -1.33,2.02 -2.01,2.94 -0.68,0.93 -1.43,1.75 -2.27,2.44 -0.82,0.71 -1.75,1.25 -2.77,1.67 -1.01,0.4 -2.22,0.59 -3.6,0.59 -1.42,0 -2.72,-0.25 -3.91,-0.76 -1.17,-0.51 -2.19,-1.27 -3.03,-2.28 -0.85,-1 -1.52,-2.27 -1.96,-3.79 -0.46,-1.52 -0.69,-3.28 -0.69,-5.31 0,-1.23 0.12,-2.63 0.38,-4.21 0.25,-1.56 0.69,-3.17 1.29,-4.81 0.61,-1.63 1.41,-3.23 2.42,-4.79 1.01,-1.57 2.27,-2.96 3.77,-4.19 1.49,-1.24 3.26,-2.22 5.31,-2.97 2.03,-0.74 4.39,-1.11 7.07,-1.11 1.69,0 3.45,0.12 5.25,0.38 1.81,0.25 3.6,0.57 5.39,0.92l-4.53 21.68zm-1.49 -17.88c-0.75,-0.17 -1.62,-0.33 -2.62,-0.44 -0.99,-0.13 -1.93,-0.2 -2.8,-0.2 -1.85,0 -3.48,0.29 -4.89,0.87 -1.42,0.59 -2.65,1.35 -3.68,2.3 -1.04,0.94 -1.92,2.03 -2.63,3.27 -0.72,1.23 -1.28,2.49 -1.71,3.78 -0.42,1.28 -0.73,2.55 -0.9,3.8 -0.19,1.25 -0.27,2.4 -0.27,3.41 0,1.22 0.1,2.3 0.31,3.27 0.22,0.97 0.55,1.79 1,2.47 0.46,0.68 1.05,1.21 1.75,1.58 0.72,0.37 1.57,0.55 2.54,0.55 1.06,0 2.05,-0.21 2.98,-0.65 0.92,-0.43 1.79,-1.02 2.6,-1.77 0.8,-0.74 1.54,-1.6 2.2,-2.58 0.66,-0.98 1.25,-2.01 1.78,-3.11 0.53,-1.09 0.99,-2.21 1.36,-3.34 0.37,-1.14 0.67,-2.24 0.9,-3.3l2.08 -9.91zm-5.08 -10.52l-3.92 0 9.21 -10.42 5.13 0 -10.42 10.42zm39.34 -4.94c-0.21,-0.11 -0.47,-0.2 -0.76,-0.3 -0.31,-0.1 -0.62,-0.19 -0.96,-0.27 -0.34,-0.09 -0.7,-0.16 -1.07,-0.21 -0.37,-0.06 -0.72,-0.08 -1.06,-0.08 -1.74,0 -3.09,0.57 -4.04,1.7 -0.94,1.14 -1.66,2.83 -2.15,5.09l-1.18 5.22 7.72 0 -1.06 4.43 -7.71 0 -8.35 39.05 -5.29 0 8.42 -39.05 -5.62 0 0.99 -4.43 5.62 0 1.3 -6.06c0.4,-1.87 0.97,-3.46 1.69,-4.77 0.72,-1.32 1.57,-2.4 2.58,-3.22 1,-0.83 2.13,-1.44 3.39,-1.82 1.27,-0.38 2.65,-0.58 4.17,-0.58 0.78,0 1.55,0.07 2.3,0.2 0.75,0.13 1.4,0.27 1.93,0.45l-0.86 4.65zm6.31 43.66c-0.53,0.17 -1.13,0.32 -1.8,0.41 -0.67,0.11 -1.33,0.17 -1.99,0.17 -2.15,0 -3.75,-0.54 -4.82,-1.61 -1.05,-1.08 -1.58,-2.52 -1.58,-4.32 0,-0.54 0.05,-1.16 0.15,-1.88 0.11,-0.72 0.28,-1.61 0.51,-2.68l4.75 -22.6 5.29 0 -4.77 22.73c-0.2,0.89 -0.33,1.58 -0.41,2.07 -0.07,0.49 -0.11,0.9 -0.11,1.25 0,0.87 0.24,1.53 0.72,1.99 0.48,0.46 1.23,0.68 2.28,0.68 0.55,0 1.03,-0.03 1.44,-0.09 0.43,-0.07 0.81,-0.17 1.17,-0.3l-0.83 4.18zm3.73 -44.14c0,0.96 -0.33,1.78 -0.97,2.45 -0.65,0.69 -1.46,1.02 -2.41,1.02 -0.93,0 -1.74,-0.33 -2.44,-1 -0.69,-0.67 -1.03,-1.5 -1.03,-2.47 0,-0.98 0.34,-1.77 1.03,-2.39 0.7,-0.62 1.51,-0.92 2.44,-0.92 0.93,0 1.74,0.31 2.39,0.93 0.66,0.63 0.99,1.43 0.99,2.38zm27.41 18.11c-0.9,-0.8 -1.97,-1.46 -3.24,-1.99 -1.26,-0.55 -2.66,-0.82 -4.19,-0.82 -1.46,0 -2.79,0.25 -3.97,0.76 -1.17,0.51 -2.23,1.2 -3.14,2.05 -0.91,0.84 -1.7,1.82 -2.35,2.92 -0.66,1.11 -1.21,2.26 -1.63,3.45 -0.42,1.19 -0.74,2.37 -0.94,3.55 -0.2,1.18 -0.3,2.28 -0.3,3.29 0,3.05 0.66,5.36 2,6.92 1.35,1.58 3.17,2.36 5.48,2.36 1.41,0 2.86,-0.29 4.38,-0.88 1.5,-0.57 2.92,-1.32 4.26,-2.24l-1.11 5.22c-1.38,0.75 -2.76,1.33 -4.13,1.75 -1.37,0.41 -2.82,0.61 -4.35,0.61 -1.99,0 -3.74,-0.33 -5.21,-1.02 -1.47,-0.67 -2.7,-1.61 -3.68,-2.79 -0.98,-1.2 -1.71,-2.6 -2.2,-4.24 -0.49,-1.62 -0.73,-3.38 -0.73,-5.26 0,-1.79 0.18,-3.55 0.53,-5.28 0.37,-1.73 0.91,-3.37 1.62,-4.9 0.71,-1.55 1.58,-2.97 2.63,-4.29 1.04,-1.33 2.24,-2.46 3.59,-3.39 1.35,-0.95 2.85,-1.7 4.5,-2.25 1.66,-0.53 3.46,-0.8 5.39,-0.8 0.91,0 1.78,0.07 2.61,0.18 0.84,0.13 1.59,0.31 2.26,0.52 0.69,0.21 1.3,0.44 1.82,0.68 0.53,0.25 0.95,0.49 1.28,0.72l-1.18 5.17zm29.76 15.71c-0.16,0.8 -0.33,1.72 -0.49,2.73 -0.16,1 -0.29,2 -0.41,2.99 -0.12,0.99 -0.22,1.9 -0.29,2.75 -0.07,0.85 -0.12,1.51 -0.12,1.98l-5.41 0c0.02,-0.42 0.05,-0.94 0.1,-1.53 0.04,-0.59 0.09,-1.21 0.17,-1.85 0.07,-0.63 0.15,-1.27 0.23,-1.87 0.06,-0.62 0.15,-1.16 0.24,-1.6l-0.13 0c-0.67,1.04 -1.33,2.02 -2.02,2.94 -0.67,0.93 -1.42,1.75 -2.26,2.44 -0.83,0.71 -1.75,1.25 -2.77,1.67 -1.01,0.4 -2.22,0.59 -3.6,0.59 -1.42,0 -2.72,-0.25 -3.91,-0.76 -1.17,-0.51 -2.19,-1.27 -3.04,-2.28 -0.84,-1 -1.51,-2.27 -1.95,-3.79 -0.46,-1.52 -0.69,-3.28 -0.69,-5.31 0,-1.23 0.12,-2.63 0.38,-4.21 0.25,-1.56 0.69,-3.17 1.29,-4.81 0.61,-1.63 1.41,-3.23 2.42,-4.79 1.01,-1.57 2.26,-2.96 3.77,-4.19 1.49,-1.24 3.26,-2.22 5.3,-2.97 2.04,-0.74 4.4,-1.11 7.08,-1.11 1.69,0 3.45,0.12 5.25,0.38 1.81,0.25 3.6,0.57 5.39,0.92l-4.53 21.68zm-1.49 -17.88c-0.75,-0.17 -1.62,-0.33 -2.62,-0.44 -0.99,-0.13 -1.93,-0.2 -2.8,-0.2 -1.85,0 -3.48,0.29 -4.89,0.87 -1.42,0.59 -2.65,1.35 -3.68,2.3 -1.04,0.94 -1.93,2.03 -2.63,3.27 -0.72,1.23 -1.29,2.49 -1.71,3.78 -0.43,1.28 -0.73,2.55 -0.9,3.8 -0.19,1.25 -0.28,2.4 -0.28,3.41 0,1.22 0.11,2.3 0.32,3.27 0.22,0.97 0.54,1.79 1,2.47 0.46,0.68 1.04,1.21 1.75,1.58 0.72,0.37 1.57,0.55 2.54,0.55 1.06,0 2.05,-0.21 2.98,-0.65 0.92,-0.43 1.79,-1.02 2.6,-1.77 0.8,-0.74 1.54,-1.6 2.2,-2.58 0.66,-0.98 1.25,-2.01 1.78,-3.11 0.53,-1.09 0.99,-2.21 1.36,-3.34 0.37,-1.14 0.67,-2.24 0.9,-3.3l2.08 -9.91zm54.81 17.88c-0.16,0.8 -0.33,1.72 -0.49,2.73 -0.16,1 -0.29,2 -0.41,2.99 -0.12,0.99 -0.22,1.9 -0.29,2.75 -0.07,0.85 -0.12,1.51 -0.12,1.98l-5.41 0c0.02,-0.42 0.05,-0.94 0.09,-1.53 0.05,-0.59 0.1,-1.21 0.18,-1.85 0.07,-0.63 0.15,-1.27 0.23,-1.87 0.06,-0.62 0.15,-1.16 0.24,-1.6l-0.13 0c-0.67,1.04 -1.33,2.02 -2.02,2.94 -0.67,0.93 -1.42,1.75 -2.26,2.44 -0.83,0.71 -1.75,1.25 -2.77,1.67 -1.02,0.4 -2.22,0.59 -3.61,0.59 -1.41,0 -2.72,-0.25 -3.9,-0.76 -1.18,-0.51 -2.19,-1.27 -3.04,-2.28 -0.85,-1 -1.51,-2.27 -1.95,-3.79 -0.46,-1.52 -0.69,-3.28 -0.69,-5.31 0,-1.23 0.12,-2.63 0.38,-4.21 0.25,-1.56 0.69,-3.17 1.28,-4.81 0.61,-1.63 1.42,-3.23 2.43,-4.79 1.01,-1.57 2.26,-2.96 3.76,-4.19 1.49,-1.24 3.27,-2.22 5.31,-2.97 2.04,-0.74 4.4,-1.11 7.08,-1.11 1.69,0 3.44,0.12 5.25,0.38 1.81,0.25 3.6,0.57 5.38,0.92l-4.52 21.68zm-1.49 -17.88c-0.75,-0.17 -1.62,-0.33 -2.62,-0.44 -0.99,-0.13 -1.93,-0.2 -2.8,-0.2 -1.85,0 -3.48,0.29 -4.89,0.87 -1.42,0.59 -2.65,1.35 -3.68,2.3 -1.05,0.94 -1.93,2.03 -2.63,3.27 -0.72,1.23 -1.29,2.49 -1.71,3.78 -0.43,1.28 -0.73,2.55 -0.91,3.8 -0.18,1.25 -0.27,2.4 -0.27,3.41 0,1.22 0.11,2.3 0.32,3.27 0.22,0.97 0.54,1.79 1,2.47 0.46,0.68 1.04,1.21 1.75,1.58 0.72,0.37 1.57,0.55 2.53,0.55 1.07,0 2.06,-0.21 2.99,-0.65 0.92,-0.43 1.79,-1.02 2.6,-1.77 0.8,-0.74 1.54,-1.6 2.19,-2.58 0.67,-0.98 1.26,-2.01 1.79,-3.11 0.53,-1.09 0.99,-2.21 1.36,-3.34 0.37,-1.14 0.67,-2.24 0.9,-3.3l2.08 -9.91zm40.91 7.11c0,1.56 -0.16,3.19 -0.49,4.89 -0.35,1.69 -0.88,3.35 -1.57,4.98 -0.7,1.64 -1.58,3.19 -2.63,4.66 -1.05,1.47 -2.29,2.75 -3.71,3.87 -1.43,1.11 -3.04,1.99 -4.85,2.65 -1.8,0.64 -3.8,0.96 -5.99,0.96 -1.25,0 -2.49,-0.12 -3.71,-0.34 -1.23,-0.23 -2.29,-0.51 -3.21,-0.83l-3.25 15.52 -5.29 0 7.96 -37.73c0.16,-0.69 0.3,-1.51 0.43,-2.46 0.12,-0.96 0.23,-1.92 0.33,-2.89 0.09,-0.96 0.17,-1.87 0.23,-2.72 0.07,-0.86 0.1,-1.51 0.1,-1.98l5.35 0c0,0.36 -0.02,0.85 -0.07,1.47 -0.06,0.61 -0.12,1.25 -0.21,1.93 -0.09,0.66 -0.17,1.31 -0.26,1.95 -0.08,0.62 -0.15,1.13 -0.22,1.51l0.13 0c1.51,-2.57 3.21,-4.5 5.09,-5.76 1.9,-1.26 3.97,-1.89 6.2,-1.89 1.47,0 2.82,0.25 4.01,0.76 1.19,0.51 2.21,1.27 3.05,2.3 0.83,1.02 1.48,2.29 1.92,3.83 0.45,1.52 0.66,3.29 0.66,5.32zm-5.35 0.21c0,-1.14 -0.1,-2.2 -0.3,-3.18 -0.2,-0.97 -0.53,-1.82 -1,-2.52 -0.47,-0.7 -1.07,-1.25 -1.8,-1.65 -0.74,-0.41 -1.63,-0.61 -2.7,-0.61 -1.09,0 -2.14,0.23 -3.11,0.69 -0.95,0.45 -1.86,1.06 -2.68,1.82 -0.83,0.78 -1.59,1.66 -2.27,2.67 -0.68,1.01 -1.28,2.05 -1.81,3.14 -0.54,1.08 -0.98,2.17 -1.36,3.27 -0.37,1.08 -0.66,2.12 -0.84,3.07l-2.02 9.47c0.39,0.16 0.84,0.32 1.38,0.46 0.53,0.14 1.08,0.26 1.65,0.37 0.58,0.1 1.16,0.18 1.76,0.25 0.59,0.06 1.14,0.09 1.66,0.09 1.46,0 2.81,-0.24 4.05,-0.72 1.25,-0.49 2.36,-1.16 3.36,-2 0.98,-0.84 1.86,-1.82 2.61,-2.96 0.76,-1.14 1.39,-2.35 1.9,-3.64 0.51,-1.28 0.89,-2.61 1.14,-3.98 0.26,-1.37 0.38,-2.72 0.38,-4.04zm21.11 20.88c-0.53,0.17 -1.13,0.32 -1.81,0.41 -0.66,0.11 -1.33,0.17 -1.99,0.17 -2.14,0 -3.75,-0.54 -4.81,-1.61 -1.06,-1.08 -1.6,-2.52 -1.6,-4.32 0,-0.54 0.06,-1.16 0.17,-1.88 0.11,-0.72 0.27,-1.61 0.51,-2.68l8.16 -38.31 5.28 0 -8.19 38.44c-0.18,0.89 -0.32,1.58 -0.39,2.07 -0.07,0.49 -0.12,0.9 -0.12,1.25 0,0.87 0.24,1.53 0.72,1.99 0.48,0.46 1.24,0.68 2.28,0.68 0.56,0 1.04,-0.03 1.45,-0.09 0.41,-0.07 0.81,-0.17 1.16,-0.3l-0.82 4.18zm16.89 0c-0.53,0.17 -1.13,0.32 -1.8,0.41 -0.67,0.11 -1.33,0.17 -1.99,0.17 -2.15,0 -3.76,-0.54 -4.81,-1.61 -1.07,-1.08 -1.6,-2.52 -1.6,-4.32 0,-0.54 0.05,-1.16 0.16,-1.88 0.11,-0.72 0.28,-1.61 0.51,-2.68l4.75 -22.6 5.3 0 -4.79 22.73c-0.19,0.89 -0.33,1.58 -0.39,2.07 -0.08,0.49 -0.12,0.9 -0.12,1.25 0,0.87 0.24,1.53 0.71,1.99 0.48,0.46 1.25,0.68 2.29,0.68 0.55,0 1.03,-0.03 1.45,-0.09 0.41,-0.07 0.8,-0.17 1.16,-0.3l-0.83 4.18zm3.74 -44.14c0,0.96 -0.33,1.78 -0.98,2.45 -0.65,0.69 -1.45,1.02 -2.41,1.02 -0.93,0 -1.75,-0.33 -2.44,-1 -0.69,-0.67 -1.03,-1.5 -1.03,-2.47 0,-0.98 0.34,-1.77 1.03,-2.39 0.69,-0.62 1.51,-0.92 2.44,-0.92 0.94,0 1.73,0.31 2.4,0.93 0.65,0.63 0.99,1.43 0.99,2.38zm27.43 18.11c-0.89,-0.8 -1.97,-1.46 -3.23,-1.99 -1.26,-0.55 -2.66,-0.82 -4.19,-0.82 -1.47,0 -2.79,0.25 -3.97,0.76 -1.17,0.51 -2.23,1.2 -3.14,2.05 -0.92,0.84 -1.7,1.82 -2.35,2.92 -0.67,1.11 -1.21,2.26 -1.63,3.45 -0.43,1.19 -0.74,2.37 -0.94,3.55 -0.21,1.18 -0.3,2.28 -0.3,3.29 0,3.05 0.66,5.36 2,6.92 1.35,1.58 3.16,2.36 5.48,2.36 1.4,0 2.86,-0.29 4.37,-0.88 1.51,-0.57 2.93,-1.32 4.27,-2.24l-1.11 5.22c-1.38,0.75 -2.76,1.33 -4.13,1.75 -1.38,0.41 -2.82,0.61 -4.36,0.61 -1.99,0 -3.73,-0.33 -5.21,-1.02 -1.47,-0.67 -2.69,-1.61 -3.67,-2.79 -0.98,-1.2 -1.71,-2.6 -2.2,-4.24 -0.49,-1.62 -0.73,-3.38 -0.73,-5.26 0,-1.79 0.17,-3.55 0.53,-5.28 0.37,-1.73 0.91,-3.37 1.61,-4.9 0.72,-1.55 1.59,-2.97 2.64,-4.29 1.04,-1.33 2.24,-2.46 3.59,-3.39 1.34,-0.95 2.85,-1.7 4.5,-2.25 1.65,-0.53 3.46,-0.8 5.38,-0.8 0.92,0 1.79,0.07 2.62,0.18 0.83,0.13 1.58,0.31 2.26,0.52 0.68,0.21 1.29,0.44 1.81,0.68 0.54,0.25 0.96,0.49 1.29,0.72l-1.19 5.17zm29.77 15.71c-0.16,0.8 -0.33,1.72 -0.49,2.73 -0.17,1 -0.29,2 -0.41,2.99 -0.12,0.99 -0.22,1.9 -0.29,2.75 -0.07,0.85 -0.12,1.51 -0.12,1.98l-5.42 0c0.03,-0.42 0.06,-0.94 0.1,-1.53 0.05,-0.59 0.1,-1.21 0.18,-1.85 0.07,-0.63 0.15,-1.27 0.23,-1.87 0.06,-0.62 0.15,-1.16 0.23,-1.6l-0.13 0c-0.66,1.04 -1.32,2.02 -2.01,2.94 -0.67,0.93 -1.42,1.75 -2.26,2.44 -0.83,0.71 -1.75,1.25 -2.78,1.67 -1.01,0.4 -2.21,0.59 -3.6,0.59 -1.41,0 -2.72,-0.25 -3.9,-0.76 -1.18,-0.51 -2.19,-1.27 -3.04,-2.28 -0.85,-1 -1.51,-2.27 -1.96,-3.79 -0.45,-1.52 -0.68,-3.28 -0.68,-5.31 0,-1.23 0.12,-2.63 0.38,-4.21 0.25,-1.56 0.68,-3.17 1.28,-4.81 0.61,-1.63 1.42,-3.23 2.43,-4.79 1.01,-1.57 2.26,-2.96 3.76,-4.19 1.49,-1.24 3.27,-2.22 5.31,-2.97 2.04,-0.74 4.4,-1.11 7.07,-1.11 1.7,0 3.45,0.12 5.26,0.38 1.8,0.25 3.6,0.57 5.38,0.92l-4.52 21.68zm-1.49 -17.88c-0.75,-0.17 -1.62,-0.33 -2.62,-0.44 -0.99,-0.13 -1.93,-0.2 -2.8,-0.2 -1.85,0 -3.48,0.29 -4.9,0.87 -1.41,0.59 -2.64,1.35 -3.67,2.3 -1.05,0.94 -1.93,2.03 -2.64,3.27 -0.71,1.23 -1.28,2.49 -1.7,3.78 -0.43,1.28 -0.73,2.55 -0.91,3.8 -0.18,1.25 -0.27,2.4 -0.27,3.41 0,1.22 0.11,2.3 0.32,3.27 0.21,0.97 0.54,1.79 1,2.47 0.46,0.68 1.04,1.21 1.75,1.58 0.72,0.37 1.57,0.55 2.53,0.55 1.07,0 2.06,-0.21 2.99,-0.65 0.92,-0.43 1.79,-1.02 2.59,-1.77 0.81,-0.74 1.55,-1.6 2.2,-2.58 0.67,-0.98 1.25,-2.01 1.79,-3.11 0.53,-1.09 0.99,-2.21 1.36,-3.34 0.37,-1.14 0.67,-2.24 0.9,-3.3l2.08 -9.91zm36.75 18.29c-0.15,0.69 -0.3,1.5 -0.44,2.46 -0.14,0.96 -0.26,1.91 -0.37,2.88 -0.1,0.97 -0.19,1.87 -0.26,2.72 -0.07,0.85 -0.12,1.51 -0.12,1.98l-5.42 0c0,-0.36 0.04,-0.85 0.09,-1.45 0.04,-0.61 0.11,-1.24 0.19,-1.9 0.07,-0.65 0.15,-1.28 0.24,-1.89 0.08,-0.61 0.16,-1.1 0.22,-1.48l-0.13 0c-0.76,1.23 -1.53,2.31 -2.29,3.26 -0.76,0.95 -1.58,1.73 -2.43,2.36 -0.85,0.63 -1.75,1.1 -2.71,1.42 -0.95,0.32 -2,0.47 -3.15,0.47 -1.48,0 -2.83,-0.26 -4.02,-0.79 -1.18,-0.53 -2.2,-1.32 -3.04,-2.34 -0.84,-1.03 -1.48,-2.31 -1.93,-3.83 -0.45,-1.52 -0.66,-3.26 -0.66,-5.24 0,-1.57 0.16,-3.21 0.49,-4.91 0.32,-1.7 0.84,-3.37 1.53,-5 0.69,-1.63 1.57,-3.19 2.62,-4.66 1.07,-1.46 2.33,-2.75 3.8,-3.85 1.47,-1.11 3.14,-1.98 5.04,-2.63 1.89,-0.64 4,-0.97 6.34,-0.97 1.19,0 2.29,0.07 3.31,0.24 1.02,0.15 1.9,0.31 2.65,0.49l3.31 -15.61 5.17 0 -8.03 38.27zm-1.37 -18.17c-0.82,-0.23 -1.66,-0.41 -2.54,-0.55 -0.88,-0.14 -1.83,-0.21 -2.82,-0.21 -1.85,0 -3.48,0.28 -4.89,0.86 -1.42,0.58 -2.65,1.34 -3.7,2.29 -1.06,0.96 -1.94,2.05 -2.64,3.27 -0.72,1.23 -1.29,2.48 -1.72,3.76 -0.44,1.29 -0.75,2.55 -0.93,3.8 -0.18,1.24 -0.27,2.36 -0.27,3.36 0,1.19 0.1,2.28 0.31,3.25 0.19,0.97 0.52,1.81 0.97,2.52 0.46,0.69 1.06,1.24 1.78,1.62 0.72,0.38 1.59,0.57 2.61,0.57 1.06,0 2.05,-0.21 2.98,-0.66 0.92,-0.45 1.8,-1.06 2.6,-1.82 0.8,-0.77 1.53,-1.65 2.2,-2.65 0.66,-0.99 1.25,-2.06 1.78,-3.19 0.53,-1.12 0.98,-2.26 1.36,-3.43 0.37,-1.15 0.68,-2.26 0.9,-3.32l2.02 -9.47zm40.47 7.65c0,2.89 -0.4,5.63 -1.22,8.22 -0.83,2.6 -2,4.87 -3.55,6.81 -1.53,1.94 -3.4,3.49 -5.6,4.62 -2.2,1.14 -4.68,1.7 -7.44,1.7 -1.87,0 -3.56,-0.29 -5.06,-0.89 -1.49,-0.6 -2.76,-1.44 -3.82,-2.56 -1.05,-1.11 -1.86,-2.46 -2.42,-4.05 -0.57,-1.58 -0.84,-3.37 -0.84,-5.37 0,-3 0.42,-5.79 1.28,-8.39 0.86,-2.61 2.08,-4.88 3.63,-6.79 1.57,-1.93 3.44,-3.44 5.62,-4.53 2.17,-1.1 4.58,-1.64 7.21,-1.64 1.85,0 3.53,0.29 5.03,0.89 1.5,0.59 2.77,1.45 3.84,2.57 1.05,1.11 1.88,2.46 2.47,4.05 0.58,1.57 0.87,3.37 0.87,5.36zm-5.36 0.26c0,-1.38 -0.16,-2.61 -0.51,-3.69 -0.33,-1.06 -0.81,-1.97 -1.42,-2.71 -0.62,-0.73 -1.36,-1.29 -2.24,-1.68 -0.87,-0.39 -1.84,-0.59 -2.93,-0.59 -1.87,0 -3.56,0.48 -5.07,1.44 -1.51,0.95 -2.78,2.2 -3.82,3.77 -1.04,1.56 -1.85,3.34 -2.41,5.32 -0.56,1.99 -0.84,4.03 -0.84,6.1 0,1.32 0.16,2.52 0.49,3.59 0.33,1.07 0.79,1.98 1.4,2.75 0.61,0.75 1.35,1.32 2.23,1.73 0.88,0.41 1.87,0.6 2.98,0.6 1.9,0 3.59,-0.46 5.11,-1.41 1.5,-0.95 2.78,-2.2 3.81,-3.76 1.05,-1.57 1.84,-3.34 2.4,-5.35 0.55,-1.99 0.82,-4.03 0.82,-6.11z"/>
   <path class="fil2" d="M1524.98 90.15c-0.96,-0.61 -2.03,-1.11 -3.22,-1.49 -1.19,-0.38 -2.39,-0.58 -3.57,-0.58 -2.01,0 -3.55,0.46 -4.64,1.37 -1.1,0.91 -1.64,2.12 -1.64,3.63 0,0.61 0.1,1.18 0.3,1.69 0.2,0.51 0.5,0.99 0.9,1.45 0.39,0.45 0.89,0.9 1.49,1.33 0.61,0.42 1.3,0.88 2.09,1.37 2.38,1.38 4.1,2.79 5.14,4.25 1.06,1.46 1.58,3.1 1.58,4.93 0,1.23 -0.23,2.43 -0.69,3.61 -0.45,1.18 -1.17,2.22 -2.17,3.12 -1,0.9 -2.3,1.63 -3.88,2.19 -1.58,0.55 -3.51,0.82 -5.78,0.82 -0.63,0 -1.34,-0.04 -2.1,-0.13 -0.78,-0.07 -1.54,-0.2 -2.32,-0.38 -0.77,-0.16 -1.51,-0.37 -2.23,-0.62 -0.71,-0.24 -1.33,-0.52 -1.86,-0.83l1.06 -4.98c0.42,0.3 0.94,0.59 1.57,0.9 0.62,0.29 1.31,0.55 2.04,0.79 0.73,0.23 1.5,0.42 2.29,0.58 0.8,0.14 1.59,0.21 2.37,0.21 2.14,0 3.72,-0.42 4.77,-1.27 1.05,-0.85 1.58,-2.03 1.58,-3.53 0,-0.56 -0.08,-1.07 -0.24,-1.54 -0.16,-0.47 -0.44,-0.93 -0.84,-1.4 -0.4,-0.47 -0.94,-0.94 -1.6,-1.42 -0.65,-0.47 -1.49,-1.01 -2.48,-1.61 -2.18,-1.31 -3.78,-2.69 -4.8,-4.13 -1.03,-1.43 -1.54,-3.05 -1.54,-4.85 0,-1.32 0.24,-2.58 0.73,-3.79 0.49,-1.2 1.21,-2.26 2.18,-3.17 0.97,-0.93 2.18,-1.67 3.65,-2.22 1.47,-0.56 3.17,-0.83 5.13,-0.83 1.54,0 2.98,0.14 4.35,0.45 1.37,0.29 2.54,0.67 3.5,1.14l-1.12 4.94zm49.45 16.45c-0.16,0.8 -0.32,1.72 -0.49,2.73 -0.16,1 -0.29,2 -0.41,2.99 -0.12,0.99 -0.22,1.9 -0.28,2.75 -0.08,0.85 -0.12,1.51 -0.12,1.98l-5.42 0c0.02,-0.42 0.05,-0.94 0.1,-1.53 0.04,-0.59 0.09,-1.21 0.17,-1.85 0.08,-0.63 0.15,-1.27 0.23,-1.87 0.06,-0.62 0.15,-1.16 0.24,-1.6l-0.13 0c-0.67,1.04 -1.33,2.02 -2.01,2.94 -0.68,0.93 -1.43,1.75 -2.27,2.44 -0.82,0.71 -1.75,1.25 -2.77,1.67 -1.01,0.4 -2.22,0.59 -3.6,0.59 -1.42,0 -2.72,-0.25 -3.91,-0.76 -1.17,-0.51 -2.19,-1.27 -3.03,-2.28 -0.85,-1 -1.52,-2.27 -1.96,-3.79 -0.46,-1.52 -0.69,-3.28 -0.69,-5.31 0,-1.23 0.12,-2.63 0.38,-4.21 0.25,-1.56 0.69,-3.17 1.29,-4.81 0.61,-1.63 1.41,-3.23 2.42,-4.79 1.01,-1.57 2.27,-2.96 3.77,-4.19 1.49,-1.24 3.26,-2.22 5.31,-2.97 2.03,-0.74 4.39,-1.11 7.07,-1.11 1.69,0 3.45,0.12 5.25,0.38 1.81,0.25 3.6,0.57 5.39,0.92l-4.53 21.68zm-1.49 -17.88c-0.75,-0.17 -1.62,-0.33 -2.62,-0.44 -0.99,-0.13 -1.93,-0.2 -2.8,-0.2 -1.85,0 -3.48,0.29 -4.89,0.87 -1.42,0.59 -2.65,1.35 -3.68,2.3 -1.04,0.94 -1.93,2.03 -2.63,3.27 -0.72,1.23 -1.29,2.49 -1.71,3.78 -0.42,1.28 -0.73,2.55 -0.9,3.8 -0.19,1.25 -0.27,2.4 -0.27,3.41 0,1.22 0.1,2.3 0.31,3.27 0.22,0.97 0.54,1.79 1,2.47 0.46,0.68 1.04,1.21 1.75,1.58 0.72,0.37 1.57,0.55 2.54,0.55 1.06,0 2.05,-0.21 2.98,-0.65 0.92,-0.43 1.79,-1.02 2.6,-1.77 0.8,-0.74 1.54,-1.6 2.2,-2.58 0.66,-0.98 1.25,-2.01 1.78,-3.11 0.53,-1.09 0.99,-2.21 1.36,-3.34 0.37,-1.14 0.67,-2.24 0.9,-3.3l2.08 -9.91zm60.11 -12.53l-17.63 0 -3.31 15.59 16.31 0 -1.05 4.84 -16.32 0 -3.34 15.59 18.73 0 -0.95 4.84 -24.22 0 9.65 -45.7 23.17 0 -1.04 4.84zm21.54 13.96c-0.96,-0.61 -2.02,-1.11 -3.22,-1.49 -1.19,-0.38 -2.38,-0.58 -3.57,-0.58 -2,0 -3.55,0.46 -4.63,1.37 -1.1,0.91 -1.65,2.12 -1.65,3.63 0,0.61 0.1,1.18 0.31,1.69 0.19,0.51 0.5,0.99 0.89,1.45 0.39,0.45 0.89,0.9 1.49,1.33 0.61,0.42 1.31,0.88 2.09,1.37 2.38,1.38 4.1,2.79 5.14,4.25 1.06,1.46 1.58,3.1 1.58,4.93 0,1.23 -0.23,2.43 -0.68,3.61 -0.46,1.18 -1.18,2.22 -2.18,3.12 -1,0.9 -2.29,1.63 -3.87,2.19 -1.59,0.55 -3.52,0.82 -5.79,0.82 -0.63,0 -1.34,-0.04 -2.1,-0.13 -0.77,-0.07 -1.53,-0.2 -2.32,-0.38 -0.77,-0.16 -1.51,-0.37 -2.23,-0.62 -0.7,-0.24 -1.32,-0.52 -1.86,-0.83l1.06 -4.98c0.42,0.3 0.94,0.59 1.58,0.9 0.62,0.29 1.3,0.55 2.03,0.79 0.73,0.23 1.5,0.42 2.3,0.58 0.79,0.14 1.58,0.21 2.37,0.21 2.13,0 3.72,-0.42 4.76,-1.27 1.06,-0.85 1.58,-2.03 1.58,-3.53 0,-0.56 -0.08,-1.07 -0.24,-1.54 -0.15,-0.47 -0.43,-0.93 -0.84,-1.4 -0.4,-0.47 -0.93,-0.94 -1.6,-1.42 -0.65,-0.47 -1.49,-1.01 -2.48,-1.61 -2.17,-1.31 -3.77,-2.69 -4.79,-4.13 -1.04,-1.43 -1.55,-3.05 -1.55,-4.85 0,-1.32 0.24,-2.58 0.73,-3.79 0.49,-1.2 1.22,-2.26 2.19,-3.17 0.96,-0.93 2.17,-1.67 3.64,-2.22 1.47,-0.56 3.18,-0.83 5.14,-0.83 1.53,0 2.98,0.14 4.35,0.45 1.37,0.29 2.53,0.67 3.49,1.14l-1.12 4.94zm24.67 -1.31l-8.22 0 -3.67 17.31c-0.13,0.66 -0.26,1.37 -0.38,2.13 -0.13,0.78 -0.2,1.38 -0.2,1.85 0,1.09 0.24,1.87 0.72,2.35 0.48,0.48 1.24,0.72 2.28,0.72 0.26,0 0.58,-0.04 0.99,-0.13 0.4,-0.09 0.81,-0.2 1.24,-0.32 0.43,-0.13 0.84,-0.27 1.26,-0.43 0.41,-0.16 0.78,-0.31 1.1,-0.44l-0.99 4.59c-0.74,0.33 -1.59,0.59 -2.53,0.82 -0.94,0.22 -1.85,0.34 -2.69,0.34 -1.21,0 -2.25,-0.15 -3.09,-0.47 -0.85,-0.3 -1.55,-0.75 -2.09,-1.32 -0.55,-0.57 -0.94,-1.27 -1.18,-2.09 -0.25,-0.81 -0.37,-1.74 -0.37,-2.76 0,-0.61 0.06,-1.33 0.18,-2.14 0.12,-0.83 0.26,-1.57 0.43,-2.25l3.76 -17.76 -5.42 0 0.99 -4.43 5.35 0 1.69 -7.96c0.08,-0.04 0.41,-0.15 0.97,-0.31 0.57,-0.16 1.18,-0.34 1.85,-0.54 0.67,-0.21 1.29,-0.39 1.85,-0.55 0.56,-0.18 0.87,-0.28 0.94,-0.3l-2.01 9.66 8.22 0 -0.98 4.43zm28.74 18.93c-0.19,0.84 -0.37,1.7 -0.53,2.59 -0.15,0.89 -0.3,1.75 -0.46,2.58 -0.15,0.82 -0.28,1.6 -0.38,2.33 -0.1,0.71 -0.19,1.31 -0.26,1.78l-5.1 0c0.11,-0.83 0.23,-1.7 0.37,-2.6 0.14,-0.9 0.27,-1.73 0.4,-2.5 0.14,-0.89 0.29,-1.76 0.42,-2.61l-0.13 0c-0.74,1.16 -1.57,2.26 -2.47,3.29 -0.91,1.04 -1.89,1.94 -2.93,2.71 -1.05,0.79 -2.18,1.4 -3.35,1.84 -1.18,0.45 -2.4,0.66 -3.68,0.66 -1.4,0 -2.63,-0.21 -3.69,-0.65 -1.05,-0.43 -1.92,-1.04 -2.63,-1.83 -0.7,-0.79 -1.22,-1.74 -1.58,-2.83 -0.34,-1.12 -0.52,-2.34 -0.52,-3.7 0,-0.28 0.05,-0.69 0.13,-1.24 0.09,-0.56 0.18,-1.16 0.28,-1.79 0.11,-0.64 0.23,-1.27 0.37,-1.9 0.15,-0.62 0.26,-1.16 0.34,-1.6l3.79 -17.89 5.3 0 -4.05 19.13c-0.09,0.34 -0.18,0.73 -0.26,1.17 -0.09,0.45 -0.16,0.9 -0.24,1.34 -0.08,0.45 -0.13,0.86 -0.18,1.23 -0.04,0.37 -0.06,0.66 -0.06,0.88 0,1.59 0.39,2.86 1.16,3.81 0.78,0.95 1.94,1.41 3.5,1.41 0.93,0 1.87,-0.19 2.8,-0.57 0.94,-0.38 1.84,-0.89 2.72,-1.55 0.88,-0.64 1.72,-1.4 2.5,-2.26 0.79,-0.86 1.51,-1.77 2.14,-2.74 0.64,-0.97 1.18,-1.96 1.63,-2.98 0.44,-1.01 0.77,-1.99 0.99,-2.93l3.4 -15.94 5.27 0 -5.01 23.36zm35.51 -0.76c-0.15,0.69 -0.29,1.5 -0.43,2.46 -0.14,0.96 -0.26,1.91 -0.37,2.88 -0.1,0.97 -0.2,1.87 -0.26,2.72 -0.08,0.85 -0.12,1.51 -0.12,1.98l-5.42 0c0,-0.36 0.03,-0.85 0.09,-1.45 0.04,-0.61 0.1,-1.24 0.18,-1.9 0.08,-0.65 0.15,-1.28 0.24,-1.89 0.09,-0.61 0.16,-1.1 0.23,-1.48l-0.13 0c-0.76,1.23 -1.54,2.31 -2.3,3.26 -0.76,0.95 -1.57,1.73 -2.42,2.36 -0.85,0.63 -1.75,1.1 -2.71,1.42 -0.96,0.32 -2,0.47 -3.16,0.47 -1.48,0 -2.82,-0.26 -4.01,-0.79 -1.19,-0.53 -2.21,-1.32 -3.05,-2.34 -0.83,-1.03 -1.48,-2.31 -1.92,-3.83 -0.45,-1.52 -0.67,-3.26 -0.67,-5.24 0,-1.57 0.17,-3.21 0.49,-4.91 0.33,-1.7 0.84,-3.37 1.54,-5 0.68,-1.63 1.56,-3.19 2.62,-4.66 1.07,-1.46 2.33,-2.75 3.8,-3.85 1.46,-1.11 3.14,-1.98 5.03,-2.63 1.9,-0.64 4.01,-0.97 6.34,-0.97 1.19,0 2.3,0.07 3.31,0.24 1.03,0.15 1.91,0.31 2.66,0.49l3.3 -15.61 5.17 0 -8.03 38.27zm-1.37 -18.17c-0.81,-0.23 -1.65,-0.41 -2.53,-0.55 -0.88,-0.14 -1.83,-0.21 -2.82,-0.21 -1.85,0 -3.48,0.28 -4.9,0.86 -1.41,0.58 -2.64,1.34 -3.69,2.29 -1.06,0.96 -1.94,2.05 -2.65,3.27 -0.72,1.23 -1.28,2.48 -1.72,3.76 -0.43,1.29 -0.75,2.55 -0.92,3.8 -0.19,1.24 -0.27,2.36 -0.27,3.36 0,1.19 0.09,2.28 0.3,3.25 0.2,0.97 0.52,1.81 0.98,2.52 0.46,0.69 1.06,1.24 1.77,1.62 0.72,0.38 1.59,0.57 2.61,0.57 1.07,0 2.06,-0.21 2.99,-0.66 0.92,-0.45 1.79,-1.06 2.6,-1.82 0.8,-0.77 1.53,-1.65 2.19,-2.65 0.67,-0.99 1.25,-2.06 1.79,-3.19 0.53,-1.12 0.98,-2.26 1.36,-3.43 0.37,-1.15 0.67,-2.26 0.9,-3.32l2.01 -9.47zm21.29 28.08c-0.53,0.17 -1.13,0.32 -1.8,0.41 -0.67,0.11 -1.33,0.17 -1.99,0.17 -2.15,0 -3.76,-0.54 -4.81,-1.61 -1.07,-1.08 -1.6,-2.52 -1.6,-4.32 0,-0.54 0.05,-1.16 0.16,-1.88 0.11,-0.72 0.27,-1.61 0.51,-2.68l4.75 -22.6 5.3 0 -4.79 22.73c-0.19,0.89 -0.33,1.58 -0.39,2.07 -0.08,0.49 -0.12,0.9 -0.12,1.25 0,0.87 0.24,1.53 0.71,1.99 0.48,0.46 1.25,0.68 2.29,0.68 0.55,0 1.03,-0.03 1.45,-0.09 0.41,-0.07 0.8,-0.17 1.16,-0.3l-0.83 4.18zm3.73 -44.14c0,0.96 -0.32,1.78 -0.97,2.45 -0.65,0.69 -1.45,1.02 -2.41,1.02 -0.93,0 -1.75,-0.33 -2.44,-1 -0.69,-0.67 -1.03,-1.5 -1.03,-2.47 0,-0.98 0.34,-1.77 1.03,-2.39 0.69,-0.62 1.51,-0.92 2.44,-0.92 0.94,0 1.73,0.31 2.39,0.93 0.66,0.63 0.99,1.43 0.99,2.38zm32.35 23.71c0,2.89 -0.4,5.63 -1.22,8.22 -0.83,2.6 -2,4.87 -3.55,6.81 -1.53,1.94 -3.4,3.49 -5.6,4.62 -2.2,1.14 -4.68,1.7 -7.44,1.7 -1.87,0 -3.56,-0.29 -5.06,-0.89 -1.49,-0.6 -2.76,-1.44 -3.82,-2.56 -1.05,-1.11 -1.86,-2.46 -2.42,-4.05 -0.57,-1.58 -0.84,-3.37 -0.84,-5.37 0,-3 0.42,-5.79 1.28,-8.39 0.86,-2.61 2.08,-4.88 3.64,-6.79 1.56,-1.93 3.43,-3.44 5.61,-4.53 2.18,-1.1 4.58,-1.64 7.21,-1.64 1.85,0 3.53,0.29 5.03,0.89 1.5,0.59 2.77,1.45 3.84,2.57 1.05,1.11 1.88,2.46 2.47,4.05 0.59,1.57 0.87,3.37 0.87,5.36zm-5.35 0.26c0,-1.38 -0.17,-2.61 -0.52,-3.69 -0.33,-1.06 -0.81,-1.97 -1.42,-2.71 -0.62,-0.73 -1.36,-1.29 -2.24,-1.68 -0.87,-0.39 -1.84,-0.59 -2.93,-0.59 -1.87,0 -3.55,0.48 -5.07,1.44 -1.51,0.95 -2.78,2.2 -3.82,3.77 -1.04,1.56 -1.85,3.34 -2.41,5.32 -0.56,1.99 -0.84,4.03 -0.84,6.1 0,1.32 0.16,2.52 0.49,3.59 0.33,1.07 0.8,1.98 1.41,2.75 0.6,0.75 1.34,1.32 2.22,1.73 0.89,0.41 1.88,0.6 2.99,0.6 1.89,0 3.59,-0.46 5.1,-1.41 1.5,-0.95 2.78,-2.2 3.82,-3.76 1.04,-1.57 1.84,-3.34 2.39,-5.35 0.55,-1.99 0.83,-4.03 0.83,-6.11zm30.95 -6.6c-0.96,-0.61 -2.03,-1.11 -3.22,-1.49 -1.19,-0.38 -2.39,-0.58 -3.57,-0.58 -2,0 -3.55,0.46 -4.64,1.37 -1.09,0.91 -1.64,2.12 -1.64,3.63 0,0.61 0.1,1.18 0.31,1.69 0.19,0.51 0.5,0.99 0.89,1.45 0.39,0.45 0.89,0.9 1.49,1.33 0.61,0.42 1.3,0.88 2.09,1.37 2.38,1.38 4.1,2.79 5.14,4.25 1.06,1.46 1.58,3.1 1.58,4.93 0,1.23 -0.23,2.43 -0.68,3.61 -0.46,1.18 -1.18,2.22 -2.18,3.12 -1,0.9 -2.3,1.63 -3.87,2.19 -1.59,0.55 -3.52,0.82 -5.79,0.82 -0.63,0 -1.34,-0.04 -2.1,-0.13 -0.77,-0.07 -1.53,-0.2 -2.32,-0.38 -0.77,-0.16 -1.51,-0.37 -2.23,-0.62 -0.71,-0.24 -1.33,-0.52 -1.86,-0.83l1.06 -4.98c0.42,0.3 0.94,0.59 1.57,0.9 0.62,0.29 1.31,0.55 2.04,0.79 0.73,0.23 1.5,0.42 2.29,0.58 0.8,0.14 1.59,0.21 2.38,0.21 2.13,0 3.72,-0.42 4.76,-1.27 1.06,-0.85 1.58,-2.03 1.58,-3.53 0,-0.56 -0.08,-1.07 -0.24,-1.54 -0.15,-0.47 -0.44,-0.93 -0.84,-1.4 -0.4,-0.47 -0.93,-0.94 -1.6,-1.42 -0.65,-0.47 -1.49,-1.01 -2.48,-1.61 -2.17,-1.31 -3.77,-2.69 -4.8,-4.13 -1.03,-1.43 -1.54,-3.05 -1.54,-4.85 0,-1.32 0.24,-2.58 0.73,-3.79 0.49,-1.2 1.22,-2.26 2.19,-3.17 0.96,-0.93 2.17,-1.67 3.64,-2.22 1.47,-0.56 3.18,-0.83 5.13,-0.83 1.54,0 2.98,0.14 4.35,0.45 1.38,0.29 2.54,0.67 3.5,1.14l-1.12 4.94zm52.46 26.9l-2.08 -12.78 -19.38 0 -7.4 12.78 -6.31 0 27.22 -45.7 5.62 0 7.96 45.7 -5.63 0zm-5.87 -37.06c-0.02,-0.22 -0.04,-0.46 -0.05,-0.74 -0.01,-0.28 -0.01,-0.55 -0.01,-0.83 0,-0.29 0,-0.58 0,-0.83 0,-0.27 0,-0.51 0,-0.69l-0.14 0c-0.06,0.18 -0.15,0.41 -0.24,0.68 -0.11,0.26 -0.23,0.53 -0.36,0.83 -0.12,0.28 -0.25,0.56 -0.4,0.84 -0.14,0.28 -0.26,0.52 -0.36,0.74l-11.29 19.44 15.78 0 -2.93 -19.44zm67.95 12.65c0,0.27 -0.04,0.69 -0.11,1.26 -0.07,0.56 -0.17,1.16 -0.29,1.79 -0.12,0.65 -0.23,1.28 -0.35,1.9 -0.12,0.63 -0.22,1.15 -0.3,1.57l-3.85 17.89 -5.24 0 3.98 -19.12c0.09,-0.36 0.18,-0.77 0.27,-1.21 0.08,-0.45 0.16,-0.89 0.23,-1.33 0.08,-0.43 0.14,-0.84 0.18,-1.21 0.04,-0.37 0.06,-0.66 0.06,-0.88 0,-1.67 -0.36,-2.97 -1.08,-3.87 -0.72,-0.9 -1.85,-1.35 -3.38,-1.35 -0.81,0 -1.64,0.18 -2.5,0.55 -0.87,0.37 -1.71,0.89 -2.52,1.52 -0.82,0.64 -1.6,1.38 -2.36,2.23 -0.75,0.85 -1.44,1.76 -2.07,2.73 -0.63,0.97 -1.17,1.96 -1.61,2.96 -0.45,1.01 -0.77,2 -0.99,2.98l-3.41 16 -5.29 0 4.04 -19.12c0.09,-0.36 0.18,-0.77 0.26,-1.21 0.09,-0.45 0.17,-0.89 0.24,-1.33 0.08,-0.43 0.13,-0.84 0.18,-1.21 0.04,-0.37 0.06,-0.66 0.06,-0.88 0,-1.67 -0.37,-2.97 -1.12,-3.87 -0.74,-0.9 -1.86,-1.35 -3.34,-1.35 -0.82,0 -1.68,0.18 -2.55,0.55 -0.87,0.37 -1.72,0.89 -2.55,1.54 -0.83,0.64 -1.62,1.4 -2.37,2.26 -0.76,0.86 -1.45,1.77 -2.08,2.74 -0.62,0.97 -1.15,1.95 -1.59,2.96 -0.43,1.01 -0.76,2 -0.98,2.98l-3.4 15.94 -5.29 0 5.03 -23.3c0.17,-0.83 0.35,-1.69 0.51,-2.59 0.17,-0.9 0.34,-1.78 0.48,-2.62 0.15,-0.84 0.28,-1.62 0.38,-2.34 0.11,-0.72 0.19,-1.32 0.26,-1.79l5.1 0c-0.11,0.83 -0.24,1.7 -0.39,2.6 -0.14,0.91 -0.27,1.73 -0.38,2.51 -0.12,0.89 -0.26,1.76 -0.41,2.61l0.13 0c0.76,-1.23 1.58,-2.37 2.48,-3.42 0.89,-1.03 1.84,-1.94 2.84,-2.69 1,-0.75 2.04,-1.34 3.12,-1.77 1.09,-0.42 2.21,-0.63 3.38,-0.63 1.36,0 2.53,0.2 3.5,0.6 0.98,0.41 1.8,0.98 2.44,1.71 0.65,0.72 1.14,1.62 1.48,2.66 0.35,1.03 0.54,2.2 0.61,3.47 0.78,-1.18 1.63,-2.29 2.54,-3.33 0.9,-1.03 1.87,-1.92 2.9,-2.67 1.02,-0.76 2.12,-1.35 3.27,-1.79 1.17,-0.43 2.4,-0.65 3.69,-0.65 2.72,0 4.76,0.79 6.12,2.37 1.36,1.59 2.04,3.8 2.04,6.65zm36.2 3.19c0,1.44 -0.14,2.99 -0.45,4.63 -0.29,1.64 -0.77,3.29 -1.43,4.91 -0.66,1.63 -1.5,3.19 -2.52,4.7 -1.02,1.51 -2.24,2.84 -3.68,3.99 -1.43,1.14 -3.09,2.07 -4.97,2.75 -1.88,0.69 -4.01,1.03 -6.39,1.03 -0.97,0 -1.98,-0.06 -3.03,-0.2 -1.04,-0.14 -2.05,-0.34 -3.06,-0.59 -1,-0.25 -1.95,-0.56 -2.87,-0.92 -0.91,-0.36 -1.74,-0.78 -2.48,-1.24l9.81 -46.15 5.29 0 -3.27 15.61c-0.24,1.04 -0.48,2.13 -0.72,3.28 -0.25,1.15 -0.49,2.17 -0.72,3.06l0.07 0c0.67,-1.09 1.39,-2.06 2.16,-2.93 0.76,-0.87 1.59,-1.62 2.47,-2.23 0.88,-0.62 1.83,-1.09 2.84,-1.42 1,-0.33 2.1,-0.49 3.3,-0.49 3.1,0 5.48,1.06 7.14,3.19 1.68,2.12 2.51,5.12 2.51,9.02zm-5.36 0.12c0,-1.21 -0.1,-2.3 -0.32,-3.28 -0.23,-0.98 -0.58,-1.81 -1.06,-2.49 -0.48,-0.67 -1.09,-1.2 -1.84,-1.56 -0.74,-0.36 -1.64,-0.54 -2.7,-0.54 -1.34,0 -2.63,0.39 -3.86,1.17 -1.23,0.8 -2.36,1.83 -3.38,3.13 -1.01,1.3 -1.89,2.76 -2.64,4.4 -0.74,1.63 -1.29,3.3 -1.62,5.01l-2.15 10.16c0.73,0.4 1.63,0.75 2.73,1.02 1.1,0.27 2.23,0.41 3.4,0.41 1.51,0 2.89,-0.25 4.14,-0.75 1.25,-0.5 2.39,-1.18 3.38,-2.05 1,-0.87 1.87,-1.88 2.62,-3.03 0.74,-1.15 1.36,-2.36 1.84,-3.64 0.48,-1.3 0.86,-2.62 1.11,-3.99 0.23,-1.37 0.35,-2.69 0.35,-3.97zm21.11 20.97c-0.53,0.17 -1.13,0.32 -1.81,0.41 -0.66,0.11 -1.32,0.17 -1.99,0.17 -2.14,0 -3.75,-0.54 -4.81,-1.61 -1.06,-1.08 -1.59,-2.52 -1.59,-4.32 0,-0.54 0.05,-1.16 0.16,-1.88 0.11,-0.72 0.27,-1.61 0.51,-2.68l4.74 -22.6 5.3 0 -4.79 22.73c-0.18,0.89 -0.32,1.58 -0.39,2.07 -0.07,0.49 -0.12,0.9 -0.12,1.25 0,0.87 0.24,1.53 0.72,1.99 0.48,0.46 1.24,0.68 2.29,0.68 0.55,0 1.03,-0.03 1.44,-0.09 0.42,-0.07 0.81,-0.17 1.17,-0.3l-0.83 4.18zm3.73 -44.14c0,0.96 -0.33,1.78 -0.98,2.45 -0.64,0.69 -1.44,1.02 -2.4,1.02 -0.94,0 -1.75,-0.33 -2.44,-1 -0.7,-0.67 -1.03,-1.5 -1.03,-2.47 0,-0.98 0.33,-1.77 1.03,-2.39 0.69,-0.62 1.5,-0.92 2.44,-0.92 0.93,0 1.73,0.31 2.39,0.93 0.65,0.63 0.99,1.43 0.99,2.38zm30.44 19.28c0,1.72 -0.38,3.29 -1.15,4.7 -0.76,1.42 -2.03,2.62 -3.79,3.63 -1.77,1.02 -4.09,1.8 -6.98,2.35 -2.9,0.55 -6.46,0.84 -10.71,0.86 -0.04,0.23 -0.06,0.48 -0.06,0.73 0,0.24 0,0.45 0,0.64 0,1.15 0.15,2.23 0.48,3.25 0.31,1.02 0.8,1.91 1.48,2.68 0.66,0.76 1.53,1.37 2.57,1.82 1.06,0.45 2.31,0.66 3.75,0.66 1.47,0 3.08,-0.28 4.83,-0.84 1.75,-0.56 3.42,-1.36 5.02,-2.41l-0.99 5.17c-1.17,0.67 -2.55,1.27 -4.17,1.78 -1.61,0.51 -3.42,0.76 -5.42,0.76 -2.41,0 -4.43,-0.36 -6.07,-1.1 -1.65,-0.76 -2.97,-1.75 -3.98,-2.99 -1.02,-1.25 -1.75,-2.67 -2.19,-4.3 -0.45,-1.62 -0.66,-3.33 -0.66,-5.12 0,-1.91 0.2,-3.75 0.63,-5.52 0.42,-1.78 1.02,-3.43 1.8,-4.96 0.77,-1.53 1.7,-2.93 2.79,-4.19 1.09,-1.27 2.28,-2.34 3.6,-3.23 1.31,-0.9 2.73,-1.59 4.24,-2.08 1.5,-0.49 3.07,-0.73 4.68,-0.73 1.69,0 3.16,0.22 4.45,0.66 1.28,0.45 2.36,1.06 3.22,1.84 0.86,0.77 1.51,1.67 1.96,2.69 0.44,1.02 0.67,2.11 0.67,3.25zm-5.33 0.26c0,-1.35 -0.49,-2.38 -1.48,-3.13 -0.99,-0.74 -2.29,-1.11 -3.94,-1.11 -1.29,0 -2.54,0.28 -3.75,0.85 -1.22,0.55 -2.33,1.34 -3.35,2.32 -1.02,0.99 -1.9,2.17 -2.64,3.54 -0.74,1.37 -1.29,2.85 -1.64,4.44 3.05,0 5.63,-0.15 7.75,-0.46 2.13,-0.31 3.86,-0.76 5.2,-1.36 1.34,-0.58 2.32,-1.31 2.93,-2.17 0.62,-0.86 0.92,-1.84 0.92,-2.92zm39.92 0.25c0,0.32 -0.05,0.75 -0.12,1.31 -0.08,0.55 -0.17,1.15 -0.29,1.78 -0.12,0.64 -0.24,1.28 -0.35,1.89 -0.11,0.64 -0.22,1.17 -0.33,1.61l-3.8 17.89 -5.29 0 3.99 -19.12c0.08,-0.34 0.17,-0.73 0.26,-1.18 0.07,-0.45 0.15,-0.89 0.21,-1.34 0.07,-0.44 0.12,-0.86 0.17,-1.23 0.04,-0.37 0.06,-0.66 0.06,-0.88 0,-1.61 -0.39,-2.88 -1.16,-3.82 -0.78,-0.93 -1.94,-1.4 -3.46,-1.4 -1.4,0 -2.8,0.41 -4.18,1.24 -1.38,0.83 -2.65,1.88 -3.83,3.15 -1.16,1.28 -2.16,2.68 -3,4.21 -0.85,1.54 -1.41,3.01 -1.71,4.43l-3.41 15.94 -5.29 0 5.04 -23.3c0.17,-0.83 0.33,-1.69 0.51,-2.59 0.16,-0.9 0.32,-1.78 0.48,-2.62 0.14,-0.84 0.27,-1.62 0.38,-2.34 0.11,-0.72 0.18,-1.32 0.25,-1.79l5.1 0c-0.11,0.83 -0.23,1.7 -0.38,2.6 -0.16,0.91 -0.27,1.73 -0.38,2.51 -0.13,0.89 -0.27,1.76 -0.42,2.61l0.12 0c0.75,-1.17 1.57,-2.28 2.47,-3.3 0.91,-1.03 1.89,-1.94 2.94,-2.71 1.06,-0.78 2.16,-1.39 3.35,-1.84 1.18,-0.44 2.42,-0.66 3.71,-0.66 1.45,0 2.69,0.22 3.73,0.65 1.04,0.44 1.91,1.05 2.59,1.83 0.7,0.78 1.21,1.73 1.54,2.84 0.32,1.11 0.5,2.32 0.5,3.63zm25.33 -3.73l-8.22 0 -3.67 17.31c-0.13,0.66 -0.26,1.37 -0.38,2.13 -0.13,0.78 -0.19,1.38 -0.19,1.85 0,1.09 0.24,1.87 0.71,2.35 0.48,0.48 1.24,0.72 2.28,0.72 0.26,0 0.59,-0.04 0.99,-0.13 0.4,-0.09 0.81,-0.2 1.24,-0.32 0.43,-0.13 0.85,-0.27 1.26,-0.43 0.41,-0.16 0.78,-0.31 1.1,-0.44l-0.99 4.59c-0.74,0.33 -1.59,0.59 -2.53,0.82 -0.94,0.22 -1.84,0.34 -2.69,0.34 -1.21,0 -2.24,-0.15 -3.09,-0.47 -0.85,-0.3 -1.55,-0.75 -2.09,-1.32 -0.55,-0.57 -0.94,-1.27 -1.18,-2.09 -0.25,-0.81 -0.37,-1.74 -0.37,-2.76 0,-0.61 0.06,-1.33 0.18,-2.14 0.12,-0.83 0.26,-1.57 0.43,-2.25l3.76 -17.76 -5.42 0 0.99 -4.43 5.35 0 1.69 -7.96c0.08,-0.04 0.41,-0.15 0.98,-0.31 0.56,-0.16 1.17,-0.34 1.85,-0.54 0.66,-0.21 1.28,-0.39 1.85,-0.55 0.55,-0.18 0.87,-0.28 0.93,-0.3l-2.01 9.66 8.22 0 -0.98 4.43z"/>
   <path class="fil2" d="M2113.32 106.6c-0.17,0.8 -0.33,1.72 -0.49,2.73 -0.17,1 -0.3,2 -0.42,2.99 -0.12,0.99 -0.21,1.9 -0.28,2.75 -0.08,0.85 -0.12,1.51 -0.12,1.98l-5.42 0c0.02,-0.42 0.06,-0.94 0.1,-1.53 0.04,-0.59 0.1,-1.21 0.17,-1.85 0.08,-0.63 0.16,-1.27 0.23,-1.87 0.07,-0.62 0.16,-1.16 0.24,-1.6l-0.13 0c-0.66,1.04 -1.33,2.02 -2.01,2.94 -0.68,0.93 -1.43,1.75 -2.26,2.44 -0.83,0.71 -1.76,1.25 -2.78,1.67 -1.01,0.4 -2.22,0.59 -3.6,0.59 -1.41,0 -2.72,-0.25 -3.9,-0.76 -1.18,-0.51 -2.19,-1.27 -3.04,-2.28 -0.85,-1 -1.51,-2.27 -1.96,-3.79 -0.45,-1.52 -0.68,-3.28 -0.68,-5.31 0,-1.23 0.12,-2.63 0.38,-4.21 0.25,-1.56 0.68,-3.17 1.28,-4.81 0.61,-1.63 1.42,-3.23 2.43,-4.79 1.01,-1.57 2.26,-2.96 3.76,-4.19 1.49,-1.24 3.26,-2.22 5.31,-2.97 2.03,-0.74 4.4,-1.11 7.07,-1.11 1.7,0 3.45,0.12 5.26,0.38 1.8,0.25 3.6,0.57 5.38,0.92l-4.52 21.68zm-1.5 -17.88c-0.75,-0.17 -1.62,-0.33 -2.62,-0.44 -0.99,-0.13 -1.92,-0.2 -2.79,-0.2 -1.85,0 -3.48,0.29 -4.9,0.87 -1.41,0.59 -2.64,1.35 -3.68,2.3 -1.04,0.94 -1.92,2.03 -2.63,3.27 -0.72,1.23 -1.28,2.49 -1.71,3.78 -0.42,1.28 -0.73,2.55 -0.9,3.8 -0.18,1.25 -0.27,2.4 -0.27,3.41 0,1.22 0.11,2.3 0.32,3.27 0.21,0.97 0.54,1.79 1,2.47 0.45,0.68 1.04,1.21 1.75,1.58 0.71,0.37 1.56,0.55 2.53,0.55 1.07,0 2.06,-0.21 2.98,-0.65 0.93,-0.43 1.8,-1.02 2.6,-1.77 0.81,-0.74 1.55,-1.6 2.2,-2.58 0.66,-0.98 1.25,-2.01 1.78,-3.11 0.54,-1.09 0.99,-2.21 1.36,-3.34 0.37,-1.14 0.68,-2.24 0.91,-3.3l2.07 -9.91zm21.3 28.2c-0.54,0.17 -1.14,0.32 -1.81,0.41 -0.66,0.11 -1.33,0.17 -1.99,0.17 -2.14,0 -3.75,-0.54 -4.81,-1.61 -1.07,-1.08 -1.6,-2.52 -1.6,-4.32 0,-0.54 0.06,-1.16 0.16,-1.88 0.11,-0.72 0.28,-1.61 0.52,-2.68l8.15 -38.31 5.29 0 -8.19 38.44c-0.18,0.89 -0.33,1.58 -0.39,2.07 -0.08,0.49 -0.12,0.9 -0.12,1.25 0,0.87 0.24,1.53 0.72,1.99 0.48,0.46 1.24,0.68 2.28,0.68 0.56,0 1.03,-0.03 1.45,-0.09 0.41,-0.07 0.8,-0.17 1.16,-0.3l-0.82 4.18zm34.17 -24.86c0,1.72 -0.38,3.29 -1.16,4.7 -0.76,1.42 -2.02,2.62 -3.78,3.63 -1.78,1.02 -4.09,1.8 -6.99,2.35 -2.89,0.55 -6.46,0.84 -10.7,0.86 -0.04,0.23 -0.07,0.48 -0.07,0.73 0,0.24 0,0.45 0,0.64 0,1.15 0.16,2.23 0.48,3.25 0.32,1.02 0.81,1.91 1.48,2.68 0.67,0.76 1.53,1.37 2.58,1.82 1.06,0.45 2.31,0.66 3.74,0.66 1.47,0 3.08,-0.28 4.83,-0.84 1.75,-0.56 3.43,-1.36 5.03,-2.41l-0.99 5.17c-1.18,0.67 -2.56,1.27 -4.18,1.78 -1.61,0.51 -3.41,0.76 -5.42,0.76 -2.4,0 -4.42,-0.36 -6.07,-1.1 -1.64,-0.76 -2.97,-1.75 -3.98,-2.99 -1.01,-1.25 -1.74,-2.67 -2.19,-4.3 -0.44,-1.62 -0.66,-3.33 -0.66,-5.12 0,-1.91 0.21,-3.75 0.63,-5.52 0.43,-1.78 1.02,-3.43 1.81,-4.96 0.77,-1.53 1.7,-2.93 2.78,-4.19 1.09,-1.27 2.29,-2.34 3.6,-3.23 1.32,-0.9 2.73,-1.59 4.25,-2.08 1.5,-0.49 3.06,-0.73 4.68,-0.73 1.68,0 3.16,0.22 4.44,0.66 1.29,0.45 2.37,1.06 3.22,1.84 0.86,0.77 1.52,1.67 1.96,2.69 0.45,1.02 0.68,2.11 0.68,3.25zm-5.33 0.26c0,-1.35 -0.49,-2.38 -1.48,-3.13 -0.99,-0.74 -2.3,-1.11 -3.94,-1.11 -1.3,0 -2.55,0.28 -3.76,0.85 -1.21,0.55 -2.32,1.34 -3.35,2.32 -1.02,0.99 -1.9,2.17 -2.64,3.54 -0.74,1.37 -1.28,2.85 -1.63,4.44 3.05,0 5.62,-0.15 7.74,-0.46 2.14,-0.31 3.87,-0.76 5.21,-1.36 1.33,-0.58 2.31,-1.31 2.92,-2.17 0.62,-0.86 0.93,-1.84 0.93,-2.92zm29.67 -2.17c-0.95,-0.61 -2.02,-1.11 -3.22,-1.49 -1.18,-0.38 -2.38,-0.58 -3.56,-0.58 -2.01,0 -3.55,0.46 -4.64,1.37 -1.1,0.91 -1.64,2.12 -1.64,3.63 0,0.61 0.1,1.18 0.3,1.69 0.2,0.51 0.5,0.99 0.9,1.45 0.39,0.45 0.89,0.9 1.49,1.33 0.61,0.42 1.3,0.88 2.09,1.37 2.38,1.38 4.1,2.79 5.14,4.25 1.06,1.46 1.58,3.1 1.58,4.93 0,1.23 -0.23,2.43 -0.69,3.61 -0.45,1.18 -1.17,2.22 -2.17,3.12 -1,0.9 -2.3,1.63 -3.88,2.19 -1.58,0.55 -3.51,0.82 -5.78,0.82 -0.63,0 -1.34,-0.04 -2.1,-0.13 -0.78,-0.07 -1.54,-0.2 -2.32,-0.38 -0.77,-0.16 -1.51,-0.37 -2.23,-0.62 -0.71,-0.24 -1.33,-0.52 -1.86,-0.83l1.05 -4.98c0.43,0.3 0.95,0.59 1.58,0.9 0.62,0.29 1.31,0.55 2.04,0.79 0.72,0.23 1.5,0.42 2.29,0.58 0.8,0.14 1.59,0.21 2.37,0.21 2.13,0 3.72,-0.42 4.77,-1.27 1.05,-0.85 1.58,-2.03 1.58,-3.53 0,-0.56 -0.08,-1.07 -0.24,-1.54 -0.16,-0.47 -0.44,-0.93 -0.84,-1.4 -0.4,-0.47 -0.94,-0.94 -1.6,-1.42 -0.65,-0.47 -1.49,-1.01 -2.48,-1.61 -2.18,-1.31 -3.78,-2.69 -4.8,-4.13 -1.03,-1.43 -1.54,-3.05 -1.54,-4.85 0,-1.32 0.24,-2.58 0.73,-3.79 0.48,-1.2 1.21,-2.26 2.18,-3.17 0.97,-0.93 2.18,-1.67 3.65,-2.22 1.46,-0.56 3.17,-0.83 5.13,-0.83 1.54,0 2.98,0.14 4.35,0.45 1.37,0.29 2.54,0.67 3.49,1.14l-1.12 4.94z"/>
  </g>
 </g>
</svg>
