<?xml version="1.0" encoding="UTF-8"?>
<!DOCTYPE svg PUBLIC "-//W3C//DTD SVG 1.1//EN" "http://www.w3.org/Graphics/SVG/1.1/DTD/svg11.dtd">
<!-- Creator: CorelDRAW -->
<svg xmlns="http://www.w3.org/2000/svg" xml:space="preserve" width="895px" height="244px" version="1.1" style="shape-rendering:geometricPrecision; text-rendering:geometricPrecision; image-rendering:optimizeQuality; fill-rule:evenodd; clip-rule:evenodd"
viewBox="0 0 429.13 117.15"
 xmlns:xlink="http://www.w3.org/1999/xlink"
 xmlns:xodm="http://www.corel.com/coreldraw/odm/2003">
 <defs>
  <style type="text/css">
   <![CDATA[
    .str0 {stroke:black;stroke-width:0.43;stroke-miterlimit:22.9256}
    .fil0 {fill:white}
    .fil2 {fill:black;fill-rule:nonzero}
    .fil1 {fill:black;fill-rule:nonzero}
   ]]>
  </style>
 </defs>
 <g id="Capa_x0020_1">
  <metadata id="CorelCorpID_0Corel-Layer"/>
  <g>
   <path class="fil0" d="M49.96 4.01l354.64 0c14.23,0 23.16,11.64 19.84,25.87l-13.37 57.39c-3.32,14.23 -17.67,25.87 -31.9,25.87l-354.64 0c-14.22,0 -23.15,-11.64 -19.84,-25.87l13.38 -57.39c3.31,-14.23 17.67,-25.87 31.89,-25.87z"/>
   <path id="_1" class="fil1" d="M404.6 8.03l-354.64 0 0 -8.03 354.64 0 0 0 0 8.03zm23.75 22.76l-7.81 -1.82 0 0 0.23 -1.14 0.17 -1.11 0.12 -1.08 0.05 -1.07 0 -1.03 -0.05 -1.01 -0.1 -0.98 -0.16 -0.96 -0.2 -0.92 -0.25 -0.9 -0.3 -0.86 -0.34 -0.84 -0.39 -0.8 -0.42 -0.77 -0.47 -0.74 -0.51 -0.7 -0.55 -0.68 -0.59 -0.63 -0.62 -0.61 -0.67 -0.56 -0.7 -0.53 -0.74 -0.5 -0.77 -0.45 -0.82 -0.41 -0.85 -0.37 -0.89 -0.33 -0.93 -0.29 -0.96 -0.23 -1 -0.19 -1.04 -0.14 -1.07 -0.08 -1.12 -0.03 0 -8.03 1.53 0.04 1.49 0.12 1.47 0.19 1.43 0.27 1.4 0.34 1.36 0.42 1.32 0.49 1.28 0.55 1.23 0.63 1.19 0.69 1.13 0.76 1.09 0.82 1.03 0.88 0.97 0.93 0.91 0.99 0.85 1.05 0.79 1.09 0.72 1.14 0.66 1.19 0.59 1.23 0.52 1.26 0.44 1.3 0.38 1.34 0.3 1.36 0.23 1.39 0.15 1.42 0.07 1.44 0 1.46 -0.07 1.48 -0.16 1.5 -0.24 1.5 -0.31 1.52 0 0zm-21.19 55.57l13.38 -57.39 7.81 1.82 -13.38 57.4 -7.81 -1.83zm-27.99 30.79l0 -8.02 0 0 1.13 -0.03 1.14 -0.09 1.14 -0.14 1.14 -0.2 1.14 -0.25 1.13 -0.3 1.13 -0.36 1.12 -0.41 1.12 -0.45 1.1 -0.51 1.09 -0.55 1.07 -0.6 1.05 -0.64 1.03 -0.69 1 -0.72 0.98 -0.77 0.96 -0.8 0.92 -0.84 0.89 -0.87 0.85 -0.9 0.82 -0.94 0.78 -0.96 0.74 -0.99 0.69 -1.01 0.66 -1.04 0.6 -1.05 0.56 -1.08 0.51 -1.09 0.45 -1.1 0.41 -1.12 0.35 -1.13 0.29 -1.14 7.81 1.83 -0.39 1.51 -0.46 1.48 -0.53 1.47 -0.59 1.43 -0.65 1.41 -0.72 1.38 -0.77 1.34 -0.82 1.31 -0.88 1.28 -0.93 1.24 -0.97 1.21 -1.02 1.16 -1.07 1.13 -1.11 1.08 -1.14 1.04 -1.18 1 -1.22 0.95 -1.25 0.9 -1.29 0.86 -1.31 0.8 -1.35 0.75 -1.37 0.7 -1.39 0.64 -1.42 0.58 -1.44 0.53 -1.46 0.46 -1.48 0.39 -1.5 0.33 -1.5 0.26 -1.52 0.19 -1.53 0.11 -1.54 0.04 0 0zm-354.64 -8.02l354.64 0 0 8.02 -354.64 0 0 0 0 -8.02zm-23.74 -22.77l7.81 1.83 0 0 -0.24 1.13 -0.17 1.11 -0.11 1.09 -0.06 1.06 0 1.04 0.05 1.01 0.11 0.98 0.15 0.95 0.21 0.93 0.25 0.89 0.3 0.87 0.34 0.83 0.38 0.8 0.43 0.77 0.47 0.74 0.51 0.71 0.54 0.67 0.59 0.64 0.63 0.6 0.66 0.57 0.7 0.53 0.74 0.49 0.78 0.45 0.81 0.42 0.85 0.37 0.89 0.33 0.93 0.28 0.97 0.24 1 0.19 1.04 0.13 1.07 0.09 1.11 0.03 0 8.02 -1.52 -0.04 -1.5 -0.11 -1.46 -0.2 -1.44 -0.26 -1.39 -0.35 -1.36 -0.41 -1.32 -0.49 -1.28 -0.56 -1.24 -0.63 -1.18 -0.69 -1.14 -0.76 -1.08 -0.81 -1.03 -0.88 -0.97 -0.94 -0.92 -0.99 -0.85 -1.04 -0.79 -1.1 -0.72 -1.14 -0.65 -1.18 -0.59 -1.23 -0.52 -1.27 -0.45 -1.3 -0.37 -1.33 -0.3 -1.37 -0.23 -1.39 -0.15 -1.42 -0.08 -1.44 0 -1.46 0.08 -1.48 0.16 -1.5 0.23 -1.5 0.32 -1.52 0 0zm21.18 -55.57l-13.37 57.4 -7.81 -1.83 13.37 -57.39 0 0 7.81 1.82zm27.99 -30.79l0 8.03 0 0 -1.13 0.03 -1.14 0.08 -1.13 0.14 -1.14 0.2 -1.14 0.25 -1.14 0.31 -1.13 0.35 -1.12 0.41 -1.11 0.46 -1.11 0.5 -1.08 0.55 -1.07 0.6 -1.05 0.65 -1.03 0.68 -1.01 0.73 -0.98 0.76 -0.95 0.8 -0.92 0.84 -0.89 0.87 -0.86 0.91 -0.82 0.93 -0.78 0.96 -0.73 0.99 -0.7 1.01 -0.65 1.04 -0.61 1.05 -0.55 1.08 -0.51 1.09 -0.46 1.1 -0.4 1.12 -0.35 1.13 -0.3 1.14 -7.81 -1.82 0.39 -1.51 0.46 -1.49 0.53 -1.47 0.6 -1.43 0.65 -1.41 0.71 -1.37 0.77 -1.35 0.83 -1.31 0.88 -1.28 0.92 -1.24 0.98 -1.2 1.02 -1.17 1.06 -1.12 1.11 -1.09 1.14 -1.04 1.19 -1 1.22 -0.95 1.25 -0.9 1.28 -0.86 1.32 -0.8 1.34 -0.75 1.37 -0.7 1.4 -0.64 1.42 -0.58 1.44 -0.52 1.46 -0.46 1.48 -0.4 1.49 -0.33 1.51 -0.26 1.52 -0.19 1.53 -0.11 1.53 -0.04 0 0z"/>
  </g>
  <path class="fil2 str0" d="M136.87 82.98l-7.45 -14.21c-0.74,-1.41 -1.45,-2.58 -2.15,-3.52 -0.68,-0.96 -1.4,-1.71 -2.13,-2.28 -0.73,-0.55 -1.52,-0.96 -2.36,-1.2 -0.84,-0.25 -1.78,-0.36 -2.81,-0.36l-5.45 0 0 21.57 -4.6 0 0 -49.51 14.25 0c1.87,0 3.67,0.27 5.42,0.82 1.73,0.56 3.27,1.37 4.63,2.46 1.35,1.08 2.45,2.44 3.26,4.06 0.82,1.64 1.23,3.54 1.23,5.7 0,1.74 -0.26,3.36 -0.79,4.83 -0.53,1.46 -1.29,2.77 -2.26,3.91 -0.98,1.13 -2.16,2.1 -3.55,2.89 -1.4,0.8 -2.97,1.39 -4.72,1.78l0 0.14c0.67,0.27 1.28,0.64 1.83,1.07 0.55,0.44 1.08,0.97 1.6,1.6 0.52,0.61 1.03,1.33 1.54,2.13 0.5,0.81 1.03,1.73 1.58,2.77l8.31 15.35 -5.38 0zm-22.35 -45.27l0 19.52 8.2 0c1.67,0 3.18,-0.23 4.55,-0.72 1.38,-0.48 2.56,-1.17 3.54,-2.07 0.98,-0.88 1.73,-1.97 2.28,-3.23 0.54,-1.26 0.81,-2.69 0.81,-4.27 0,-2.87 -0.92,-5.13 -2.77,-6.76 -1.85,-1.64 -4.53,-2.47 -8.03,-2.47l-8.58 0zm37.52 45.97c-0.92,0 -1.71,-0.31 -2.34,-0.96 -0.65,-0.64 -0.97,-1.43 -0.97,-2.35 0,-0.93 0.32,-1.73 0.94,-2.37 0.64,-0.65 1.43,-0.96 2.37,-0.96 0.46,0 0.88,0.08 1.29,0.26 0.4,0.17 0.75,0.4 1.04,0.68 0.31,0.29 0.55,0.64 0.74,1.05 0.17,0.42 0.27,0.87 0.27,1.34 0,0.46 -0.1,0.9 -0.27,1.3 -0.19,0.4 -0.43,0.75 -0.74,1.05 -0.29,0.29 -0.64,0.53 -1.04,0.7 -0.41,0.18 -0.83,0.26 -1.29,0.26zm18.77 -0.7l-4.6 0 0 -49.51 4.6 0 0 49.51zm44.97 0l-5.46 -14.64 -21.23 0 -5.32 14.64 -5.11 0 18.84 -49.51 4.64 0 18.74 49.51 -5.1 0zm-15.09 -40.85c-0.17,-0.43 -0.33,-0.94 -0.51,-1.52 -0.18,-0.56 -0.32,-1.22 -0.44,-1.97l-0.13 0c-0.14,0.75 -0.29,1.41 -0.47,1.97 -0.17,0.58 -0.34,1.09 -0.5,1.52l-8.03 22.03 18.18 0 -8.1 -22.03zm71.76 40.85l0 -34.19c0,-1.74 0.14,-4.56 0.41,-8.45l-0.14 0c-0.32,1.04 -0.61,1.93 -0.87,2.69 -0.27,0.77 -0.52,1.38 -0.74,1.86l-17.27 38.09 -1.97 0 -17.29 -37.84c-0.51,-1.16 -1.03,-2.77 -1.56,-4.87l-0.14 0c0.09,1.06 0.16,2.26 0.2,3.63 0.03,1.36 0.05,2.87 0.05,4.52l0 34.56 -4.46 0 0 -49.51 5.42 0 16.8 37.21c0.34,0.79 0.68,1.59 1.01,2.41 0.35,0.81 0.65,1.68 0.92,2.6l0.22 0c0.31,-0.92 0.61,-1.75 0.87,-2.52 0.27,-0.75 0.59,-1.58 0.99,-2.45l16.94 -37.25 5.14 0 0 49.51 -4.53 0zm17.41 0l0 -49.51 13.52 0c2.05,0 3.9,0.27 5.54,0.82 1.65,0.56 3.05,1.34 4.21,2.34 1.17,1 2.05,2.2 2.67,3.61 0.63,1.4 0.94,2.94 0.94,4.63 0,1.42 -0.21,2.76 -0.59,4.01 -0.39,1.23 -0.96,2.36 -1.69,3.39 -0.74,1.03 -1.64,1.92 -2.71,2.66 -1.07,0.76 -2.29,1.35 -3.64,1.78l0 0.15c1.66,0.15 3.18,0.55 4.55,1.2 1.35,0.65 2.53,1.48 3.5,2.52 0.96,1.04 1.72,2.25 2.25,3.64 0.53,1.39 0.8,2.91 0.8,4.58 0,2.08 -0.38,4 -1.14,5.74 -0.76,1.73 -1.83,3.23 -3.2,4.49 -1.36,1.25 -3,2.23 -4.89,2.91 -1.88,0.69 -3.97,1.04 -6.26,1.04l-13.86 0zm4.6 -45.27l0 17.54 6.42 0c1.68,0 3.2,-0.22 4.55,-0.66 1.37,-0.43 2.52,-1.06 3.49,-1.88 0.97,-0.83 1.71,-1.83 2.23,-3.01 0.52,-1.17 0.78,-2.49 0.78,-3.96 0,-5.35 -3.34,-8.03 -10.01,-8.03l-7.46 0zm0 21.72l0 19.37 8.53 0c3.67,0 6.48,-0.86 8.45,-2.57 1.97,-1.7 2.96,-4.13 2.96,-7.29 0,-6.34 -4.32,-9.51 -12.97,-9.51l-6.97 0z"/>
 </g>
</svg>
