<?xml version="1.0" encoding="UTF-8"?>
<!DOCTYPE svg PUBLIC "-//W3C//DTD SVG 1.1//EN" "http://www.w3.org/Graphics/SVG/1.1/DTD/svg11.dtd">
<!-- Creator: CorelDRAW -->
<svg xmlns="http://www.w3.org/2000/svg" xml:space="preserve" width="3850px" height="244px" version="1.1" style="shape-rendering:geometricPrecision; text-rendering:geometricPrecision; image-rendering:optimizeQuality; fill-rule:evenodd; clip-rule:evenodd"
viewBox="0 0 3430.26 217.73"
 xmlns:xlink="http://www.w3.org/1999/xlink"
 xmlns:xodm="http://www.corel.com/coreldraw/odm/2003">
 <defs>
  <style type="text/css">
   <![CDATA[
    .str0 {stroke:black;stroke-width:0.8;stroke-miterlimit:22.9256}
    .fil0 {fill:white}
    .fil2 {fill:black;fill-rule:nonzero}
    .fil1 {fill:black;fill-rule:nonzero}
   ]]>
  </style>
 </defs>
 <g id="Capa_x0020_1">
  <metadata id="CorelCorpID_0Corel-Layer"/>
  <g id="_2501634194384">
   <g>
    <path class="fil0" d="M2725.56 7.46l659.1 0c26.44,0 43.03,21.63 36.87,48.07l-24.85 106.67c-6.17,26.44 -32.84,48.07 -59.28,48.07l-659.11 0c-26.44,0 -43.03,-21.63 -36.87,-48.07l24.86 -106.67c6.16,-26.44 32.83,-48.07 59.28,-48.07z"/>
    <path id="_1" class="fil1" d="M3384.66 14.92l-659.1 0 -0.01 -14.92 659.11 0 0 0 0 14.92zm44.13 42.31l-14.52 -3.39 0 0 0.44 -2.11 0.32 -2.07 0.22 -2.01 0.1 -1.98 0 -1.93 -0.1 -1.87 -0.19 -1.83 -0.29 -1.77 -0.38 -1.72 -0.47 -1.66 -0.55 -1.61 -0.64 -1.55 -0.71 -1.49 -0.79 -1.43 -0.87 -1.37 -0.95 -1.32 -1.02 -1.25 -1.09 -1.18 -1.16 -1.12 -1.23 -1.05 -1.31 -0.99 -1.37 -0.92 -1.45 -0.84 -1.51 -0.77 -1.58 -0.69 -1.66 -0.61 -1.72 -0.53 -1.79 -0.44 -1.86 -0.34 -1.93 -0.26 -2 -0.16 -2.07 -0.05 0 -14.92 2.83 0.07 2.78 0.22 2.73 0.36 2.66 0.5 2.6 0.64 2.53 0.77 2.45 0.91 2.38 1.03 2.29 1.17 2.21 1.29 2.11 1.4 2.01 1.52 1.91 1.64 1.81 1.74 1.7 1.84 1.58 1.94 1.46 2.03 1.34 2.12 1.23 2.21 1.09 2.28 0.96 2.35 0.83 2.42 0.7 2.48 0.56 2.53 0.42 2.59 0.29 2.64 0.14 2.68 0 2.71 -0.15 2.75 -0.29 2.78 -0.44 2.8 -0.59 2.82 0 0zm-39.37 103.27l24.85 -106.66 14.52 3.39 -24.85 106.66 -14.52 -3.39zm-52.02 57.23l0 -14.92 0 0 2.1 -0.05 2.11 -0.16 2.12 -0.26 2.12 -0.37 2.11 -0.47 2.12 -0.56 2.1 -0.66 2.08 -0.76 2.07 -0.85 2.05 -0.94 2.02 -1.03 1.99 -1.11 1.95 -1.19 1.92 -1.27 1.87 -1.35 1.82 -1.43 1.77 -1.49 1.71 -1.55 1.66 -1.62 1.58 -1.68 1.52 -1.74 1.45 -1.79 1.37 -1.84 1.3 -1.88 1.21 -1.92 1.12 -1.96 1.04 -2 0.94 -2.03 0.85 -2.05 0.75 -2.08 0.65 -2.1 0.55 -2.12 14.52 3.39 -0.73 2.81 -0.86 2.77 -0.98 2.72 -1.1 2.67 -1.22 2.61 -1.32 2.56 -1.44 2.5 -1.53 2.44 -1.63 2.37 -1.72 2.31 -1.82 2.24 -1.89 2.16 -1.98 2.1 -2.06 2.01 -2.12 1.94 -2.2 1.85 -2.27 1.77 -2.33 1.67 -2.38 1.59 -2.45 1.5 -2.5 1.39 -2.54 1.3 -2.6 1.19 -2.63 1.08 -2.68 0.97 -2.71 0.86 -2.75 0.73 -2.78 0.61 -2.8 0.49 -2.82 0.35 -2.85 0.21 -2.85 0.07 0 0zm-659.11 -14.92l659.11 0 0 14.92 -659.1 0 0 0 -0.01 -14.92zm-44.13 -42.31l14.52 3.39 0 0 -0.43 2.11 -0.33 2.07 -0.21 2.02 -0.1 1.97 -0.01 1.93 0.1 1.87 0.2 1.83 0.29 1.77 0.38 1.72 0.46 1.67 0.56 1.6 0.63 1.55 0.72 1.49 0.79 1.44 0.87 1.37 0.94 1.31 1.02 1.25 1.09 1.18 1.17 1.12 1.23 1.06 1.3 0.98 1.38 0.92 1.44 0.84 1.52 0.77 1.58 0.69 1.65 0.61 1.73 0.53 1.79 0.44 1.86 0.35 1.93 0.25 1.99 0.16 2.07 0.05 0.01 14.92 -2.84 -0.07 -2.78 -0.22 -2.72 -0.36 -2.67 -0.5 -2.6 -0.63 -2.52 -0.78 -2.46 -0.9 -2.37 -1.04 -2.3 -1.16 -2.2 -1.29 -2.11 -1.41 -2.01 -1.52 -1.91 -1.63 -1.81 -1.74 -1.7 -1.85 -1.58 -1.94 -1.47 -2.03 -1.34 -2.12 -1.22 -2.2 -1.09 -2.28 -0.97 -2.35 -0.83 -2.43 -0.7 -2.47 -0.56 -2.54 -0.42 -2.59 -0.28 -2.64 -0.14 -2.67 0 -2.72 0.15 -2.75 0.29 -2.78 0.44 -2.8 0.58 -2.82 0 0zm39.38 -103.27l-24.86 106.66 -14.52 -3.39 24.86 -106.66 0 0 14.52 3.39zm52.01 -57.23l0.01 14.92 0 0 -2.11 0.05 -2.11 0.16 -2.11 0.27 -2.12 0.36 -2.12 0.47 -2.11 0.57 -2.1 0.66 -2.09 0.75 -2.07 0.85 -2.04 0.94 -2.02 1.03 -1.99 1.11 -1.96 1.2 -1.91 1.27 -1.87 1.35 -1.82 1.42 -1.77 1.49 -1.72 1.56 -1.65 1.62 -1.59 1.68 -1.52 1.74 -1.45 1.78 -1.37 1.84 -1.29 1.88 -1.21 1.92 -1.13 1.97 -1.03 1.99 -0.94 2.03 -0.85 2.05 -0.75 2.08 -0.65 2.1 -0.55 2.12 -14.52 -3.39 0.72 -2.81 0.86 -2.77 0.98 -2.72 1.11 -2.67 1.21 -2.61 1.33 -2.56 1.43 -2.5 1.54 -2.44 1.63 -2.37 1.72 -2.31 1.81 -2.24 1.9 -2.16 1.98 -2.09 2.05 -2.02 2.13 -1.93 2.2 -1.85 2.26 -1.77 2.33 -1.68 2.39 -1.59 2.44 -1.49 2.5 -1.4 2.55 -1.29 2.59 -1.19 2.64 -1.09 2.68 -0.97 2.71 -0.85 2.75 -0.74 2.77 -0.61 2.8 -0.48 2.83 -0.35 2.84 -0.22 2.85 -0.07 0 0z"/>
   </g>
   <path class="fil2 str0" d="M2887.08 154.21l-13.85 -26.39c-1.38,-2.63 -2.69,-4.8 -3.99,-6.55 -1.27,-1.78 -2.6,-3.18 -3.96,-4.23 -1.36,-1.03 -2.83,-1.8 -4.38,-2.24 -1.58,-0.46 -3.31,-0.68 -5.24,-0.68l-10.12 0 0 40.09 -8.54 0 0 -92.01 26.48 0c3.46,0 6.81,0.51 10.06,1.54 3.22,1.03 6.09,2.54 8.61,4.55 2.52,2.02 4.55,4.54 6.06,7.56 1.52,3.05 2.28,6.57 2.28,10.58 0,3.25 -0.48,6.25 -1.46,8.99 -0.99,2.71 -2.39,5.14 -4.21,7.27 -1.82,2.1 -4.01,3.9 -6.6,5.37 -2.6,1.49 -5.52,2.58 -8.76,3.3l0 0.27c1.25,0.5 2.37,1.18 3.4,1.99 1.03,0.81 2.01,1.8 2.98,2.96 0.96,1.14 1.9,2.47 2.84,3.96 0.95,1.52 1.93,3.22 2.94,5.15l15.44 28.52 -9.98 0zm-41.54 -84.12l0 36.28 15.25 0c3.08,0 5.89,-0.44 8.45,-1.34 2.57,-0.9 4.76,-2.19 6.57,-3.85 1.82,-1.65 3.22,-3.66 4.23,-6.01 1.01,-2.34 1.51,-4.99 1.51,-7.93 0,-5.34 -1.7,-9.53 -5.14,-12.57 -3.44,-3.05 -8.42,-4.58 -14.92,-4.58l-15.95 0zm69.73 85.44c-1.71,0 -3.18,-0.59 -4.36,-1.8 -1.2,-1.18 -1.79,-2.65 -1.79,-4.36 0,-1.73 0.59,-3.22 1.75,-4.4 1.18,-1.2 2.65,-1.8 4.4,-1.8 0.86,0 1.64,0.16 2.39,0.49 0.74,0.32 1.4,0.74 1.95,1.27 0.57,0.54 1.01,1.18 1.36,1.95 0.32,0.78 0.5,1.62 0.5,2.49 0,0.86 -0.18,1.67 -0.5,2.41 -0.35,0.75 -0.79,1.41 -1.36,1.95 -0.55,0.55 -1.21,0.99 -1.95,1.32 -0.75,0.33 -1.53,0.48 -2.39,0.48zm34.88 -1.32l-8.55 0 0 -92.01 8.55 0 0 92.01zm83.57 0l-10.14 -27.2 -39.46 0 -9.88 27.2 -9.5 0 35.03 -92.01 8.61 0 34.83 92.01 -9.49 0zm-28.04 -75.9c-0.31,-0.82 -0.61,-1.76 -0.94,-2.83 -0.33,-1.05 -0.59,-2.28 -0.81,-3.66l-0.24 0c-0.26,1.38 -0.55,2.61 -0.88,3.66 -0.33,1.07 -0.63,2.01 -0.94,2.83l-14.92 40.94 33.78 0 -15.05 -40.94zm133.37 75.9l0 -63.53c0,-3.24 0.27,-8.47 0.77,-15.7l-0.26 0c-0.59,1.92 -1.14,3.59 -1.62,4.99 -0.51,1.42 -0.97,2.56 -1.38,3.46l-32.1 70.78 -3.66 0 -32.13 -70.32c-0.95,-2.14 -1.91,-5.15 -2.9,-9.05l-0.26 0c0.18,1.98 0.31,4.21 0.37,6.75 0.07,2.52 0.09,5.32 0.09,8.39l0 64.23 -8.28 0 0 -92.01 10.08 0 31.21 69.17c0.64,1.46 1.28,2.95 1.89,4.46 0.63,1.52 1.2,3.14 1.71,4.85l0.39 0c0.59,-1.71 1.14,-3.27 1.62,-4.69 0.51,-1.4 1.1,-2.94 1.84,-4.56l31.48 -69.23 9.56 0 0 92.01 -8.42 0zm32.36 0l0 -92.01 25.13 0c3.81,0 7.25,0.51 10.3,1.54 3.06,1.03 5.67,2.47 7.82,4.33 2.16,1.87 3.81,4.1 4.97,6.71 1.16,2.61 1.73,5.48 1.73,8.61 0,2.65 -0.37,5.12 -1.1,7.45 -0.72,2.3 -1.77,4.4 -3.13,6.31 -1.38,1.9 -3.04,3.57 -5.04,4.95 -1.99,1.4 -4.25,2.49 -6.77,3.3l0 0.27c3.09,0.28 5.92,1.03 8.46,2.23 2.52,1.21 4.71,2.76 6.51,4.69 1.79,1.93 3.19,4.19 4.18,6.77 0.99,2.59 1.49,5.41 1.49,8.5 0,3.88 -0.7,7.45 -2.12,10.67 -1.41,3.22 -3.4,6 -5.94,8.35 -2.54,2.32 -5.59,4.14 -9.09,5.41 -3.51,1.29 -7.39,1.92 -11.64,1.92l-25.76 0zm8.54 -84.12l0 32.6 11.94 0c3.12,0 5.94,-0.42 8.46,-1.23 2.54,-0.81 4.69,-1.97 6.49,-3.5 1.79,-1.54 3.17,-3.4 4.14,-5.59 0.96,-2.17 1.44,-4.62 1.44,-7.36 0,-9.95 -6.2,-14.92 -18.6,-14.92l-13.87 0zm0 40.35l0 36.02 15.87 0c6.81,0 12.04,-1.6 15.7,-4.78 3.66,-3.17 5.5,-7.69 5.5,-13.56 0,-11.78 -8.04,-17.68 -24.1,-17.68l-12.97 0z"/>
  </g>
  <g id="_2501634200144">
   <path class="fil2" d="M34.46 80.19c-0.56,-0.37 -1.2,-0.75 -1.93,-1.13 -0.72,-0.39 -1.52,-0.73 -2.39,-1.05 -0.87,-0.31 -1.82,-0.56 -2.85,-0.75 -1.04,-0.19 -2.15,-0.29 -3.33,-0.29 -2.9,0 -5.52,0.52 -7.84,1.53 -2.34,1.03 -4.31,2.44 -5.93,4.24 -1.63,1.8 -2.88,3.91 -3.76,6.34 -0.89,2.42 -1.32,5.05 -1.32,7.87 0,2.31 0.32,4.34 0.96,6.11 0.63,1.77 1.54,3.26 2.72,4.46 1.18,1.21 2.6,2.13 4.24,2.74 1.64,0.63 3.46,0.94 5.45,0.94 1.28,0 2.44,-0.07 3.48,-0.22 1.05,-0.15 2.01,-0.35 2.9,-0.62 0.89,-0.25 1.72,-0.56 2.52,-0.92 0.78,-0.35 1.53,-0.74 2.27,-1.15l-1.14 5.11c-1.56,0.72 -3.23,1.26 -5.03,1.64 -1.79,0.37 -3.79,0.56 -6.02,0.56 -2.63,0 -5.02,-0.43 -7.17,-1.31 -2.16,-0.86 -3.99,-2.09 -5.52,-3.69 -1.51,-1.59 -2.69,-3.51 -3.52,-5.76 -0.83,-2.24 -1.25,-4.73 -1.25,-7.49 0,-3.63 0.57,-6.97 1.73,-9.99 1.15,-3.04 2.78,-5.66 4.9,-7.84 2.12,-2.18 4.67,-3.89 7.63,-5.1 2.97,-1.22 6.26,-1.84 9.88,-1.84 2.47,0 4.66,0.27 6.56,0.81 1.91,0.53 3.52,1.13 4.83,1.81l-1.07 4.99zm35.7 18.36c-0.57,2.71 -1.3,5.12 -2.18,7.24 -0.88,2.11 -2.01,3.9 -3.4,5.35 -1.37,1.45 -3.07,2.55 -5.06,3.31 -1.99,0.77 -4.37,1.15 -7.17,1.15 -2.13,0 -4.06,-0.34 -5.74,-1.01 -1.67,-0.68 -3.09,-1.6 -4.23,-2.79 -1.14,-1.18 -2.01,-2.56 -2.61,-4.17 -0.6,-1.61 -0.9,-3.34 -0.9,-5.23 0,-0.83 0.06,-1.76 0.16,-2.81 0.11,-1.04 0.25,-2.03 0.42,-2.96l5.05 -23.34 5.01 0 -5.01 23.05c-0.08,0.45 -0.17,0.94 -0.24,1.45 -0.09,0.53 -0.17,1.05 -0.24,1.57 -0.07,0.52 -0.12,1.01 -0.16,1.48 -0.04,0.47 -0.06,0.87 -0.06,1.22 0,1.54 0.24,2.89 0.7,4.03 0.46,1.15 1.1,2.09 1.92,2.84 0.83,0.76 1.8,1.33 2.9,1.7 1.12,0.38 2.32,0.57 3.62,0.57 1.64,0 3.12,-0.24 4.4,-0.7 1.3,-0.46 2.45,-1.19 3.43,-2.18 0.99,-0.99 1.83,-2.24 2.53,-3.77 0.72,-1.52 1.3,-3.35 1.77,-5.48l5.53 -25.78 4.99 0 -5.43 25.26zm38.68 -14.97c0,1.8 -0.32,3.43 -0.95,4.87 -0.63,1.46 -1.49,2.71 -2.6,3.75 -1.1,1.04 -2.41,1.88 -3.94,2.5 -1.52,0.64 -3.19,1.02 -4.99,1.18l0 0.12c0.91,0.29 1.7,0.9 2.4,1.82 0.68,0.93 1.23,2.18 1.66,3.74l3.49 13.32 -5.34 0 -3.08 -12.42c-0.45,-1.82 -1.16,-3.14 -2.13,-4 -0.98,-0.85 -2.27,-1.27 -3.87,-1.27l-3.63 0 -3.79 17.69 -5 0 8.79 -41.59 11.46 0c2.03,0 3.77,0.26 5.22,0.81 1.45,0.53 2.64,1.28 3.56,2.22 0.93,0.94 1.63,2.03 2.06,3.27 0.45,1.25 0.68,2.58 0.68,3.99zm-5.11 0.53c0,-0.93 -0.14,-1.79 -0.44,-2.58 -0.29,-0.78 -0.73,-1.45 -1.34,-2.03 -0.59,-0.56 -1.35,-1.01 -2.28,-1.33 -0.93,-0.32 -2.03,-0.48 -3.31,-0.48l-6.4 0 -3.2 15.09 5.74 0c2.04,0 3.76,-0.25 5.18,-0.73 1.42,-0.49 2.58,-1.12 3.48,-1.91 0.9,-0.8 1.56,-1.71 1.96,-2.77 0.41,-1.05 0.61,-2.14 0.61,-3.26zm34.51 -4.59c-0.48,-0.34 -1.06,-0.68 -1.72,-0.99 -0.67,-0.3 -1.39,-0.57 -2.15,-0.81 -0.76,-0.23 -1.56,-0.41 -2.39,-0.55 -0.83,-0.13 -1.65,-0.2 -2.46,-0.2 -1.56,0 -2.85,0.22 -3.91,0.65 -1.05,0.44 -1.89,0.98 -2.54,1.66 -0.63,0.66 -1.1,1.39 -1.37,2.18 -0.28,0.8 -0.42,1.54 -0.42,2.24 0,0.9 0.12,1.72 0.38,2.47 0.24,0.73 0.62,1.43 1.13,2.11 0.5,0.68 1.14,1.35 1.94,2.04 0.79,0.67 1.72,1.39 2.78,2.16 1.2,0.87 2.26,1.74 3.21,2.59 0.94,0.85 1.73,1.72 2.39,2.62 0.65,0.9 1.15,1.85 1.5,2.84 0.33,1 0.5,2.08 0.5,3.24 0,0.71 -0.07,1.51 -0.22,2.37 -0.14,0.86 -0.4,1.72 -0.78,2.59 -0.38,0.87 -0.9,1.72 -1.55,2.55 -0.66,0.84 -1.5,1.57 -2.51,2.2 -1.02,0.65 -2.24,1.16 -3.67,1.55 -1.43,0.38 -3.11,0.57 -5.05,0.57 -1.08,0 -2.14,-0.08 -3.19,-0.23 -1.04,-0.15 -2.04,-0.35 -2.97,-0.61 -0.94,-0.25 -1.8,-0.53 -2.58,-0.85 -0.78,-0.32 -1.46,-0.64 -2.02,-0.94l0.84 -5.05c0.62,0.44 1.33,0.86 2.12,1.26 0.79,0.39 1.63,0.75 2.52,1.05 0.89,0.29 1.81,0.53 2.76,0.71 0.95,0.17 1.89,0.26 2.82,0.26 1.46,0 2.73,-0.18 3.78,-0.53 1.05,-0.35 1.92,-0.82 2.61,-1.43 0.69,-0.61 1.19,-1.33 1.51,-2.16 0.31,-0.83 0.47,-1.74 0.47,-2.71 0,-0.86 -0.13,-1.65 -0.4,-2.34 -0.27,-0.69 -0.69,-1.38 -1.25,-2.04 -0.56,-0.67 -1.27,-1.35 -2.13,-2.03 -0.86,-0.69 -1.88,-1.46 -3.06,-2.29 -0.95,-0.67 -1.85,-1.4 -2.71,-2.19 -0.86,-0.78 -1.62,-1.63 -2.27,-2.56 -0.64,-0.93 -1.16,-1.94 -1.53,-3.03 -0.38,-1.09 -0.57,-2.28 -0.57,-3.55 0,-1.59 0.3,-3.09 0.88,-4.52 0.6,-1.41 1.47,-2.66 2.64,-3.73 1.16,-1.08 2.59,-1.93 4.3,-2.56 1.71,-0.63 3.7,-0.95 5.96,-0.95 0.88,0 1.74,0.06 2.6,0.17 0.86,0.1 1.69,0.25 2.5,0.44 0.81,0.18 1.59,0.38 2.31,0.6 0.72,0.23 1.37,0.46 1.93,0.69l-0.96 5.04zm43.91 10.65c0,1.8 -0.16,3.58 -0.49,5.34 -0.33,1.78 -0.8,3.48 -1.42,5.12 -0.62,1.64 -1.38,3.21 -2.28,4.67 -0.9,1.48 -1.92,2.8 -3.06,3.99 -0.93,0.95 -1.93,1.84 -3.02,2.62 -1.08,0.78 -2.24,1.44 -3.47,2 -1.24,0.55 -2.57,0.97 -3.98,1.26 -1.41,0.29 -2.92,0.43 -4.56,0.43 -2.6,0 -4.96,-0.44 -7.04,-1.35 -2.09,-0.9 -3.87,-2.13 -5.32,-3.71 -1.47,-1.57 -2.58,-3.44 -3.35,-5.61 -0.78,-2.17 -1.17,-4.52 -1.17,-7.05 0,-4.02 0.66,-7.62 1.96,-10.82 1.31,-3.19 3.13,-5.95 5.47,-8.29 1.9,-1.9 4.09,-3.4 6.57,-4.51 2.49,-1.11 5.31,-1.68 8.46,-1.68 2.55,0 4.86,0.44 6.92,1.31 2.06,0.87 3.81,2.09 5.25,3.65 1.46,1.58 2.58,3.43 3.36,5.58 0.78,2.15 1.17,4.49 1.17,7.05zm-5.16 0.17c0,-2.07 -0.28,-3.92 -0.84,-5.57 -0.57,-1.64 -1.37,-3.05 -2.41,-4.21 -1.05,-1.15 -2.3,-2.05 -3.77,-2.66 -1.46,-0.62 -3.11,-0.93 -4.93,-0.93 -2.15,0 -4.2,0.46 -6.15,1.39 -1.95,0.93 -3.68,2.21 -5.2,3.86 -0.84,0.93 -1.61,1.99 -2.29,3.18 -0.69,1.2 -1.28,2.48 -1.77,3.84 -0.5,1.35 -0.88,2.76 -1.13,4.23 -0.27,1.47 -0.4,2.96 -0.4,4.47 0,1.93 0.27,3.71 0.8,5.34 0.53,1.62 1.3,3.02 2.32,4.18 1.01,1.18 2.27,2.09 3.75,2.75 1.5,0.66 3.21,0.99 5.14,0.99 2.15,0 4.2,-0.44 6.16,-1.29 1.97,-0.86 3.69,-2.14 5.18,-3.82 0.93,-1.04 1.74,-2.21 2.42,-3.5 0.68,-1.28 1.26,-2.61 1.72,-4 0.47,-1.38 0.82,-2.78 1.05,-4.19 0.23,-1.41 0.35,-2.77 0.35,-4.06zm19.05 -2.61c0,0.45 -0.08,0.86 -0.26,1.26 -0.18,0.39 -0.41,0.74 -0.69,1.03 -0.3,0.3 -0.64,0.51 -1.02,0.68 -0.39,0.17 -0.8,0.25 -1.25,0.25 -0.44,0 -0.86,-0.08 -1.25,-0.25 -0.38,-0.17 -0.72,-0.38 -1.01,-0.68 -0.29,-0.29 -0.52,-0.64 -0.68,-1.03 -0.17,-0.4 -0.25,-0.81 -0.25,-1.26 0,-0.42 0.08,-0.83 0.25,-1.22 0.16,-0.38 0.39,-0.73 0.68,-1.03 0.29,-0.3 0.63,-0.53 1.01,-0.71 0.39,-0.18 0.81,-0.26 1.25,-0.26 0.45,0 0.87,0.08 1.27,0.26 0.39,0.18 0.73,0.41 1.03,0.71 0.28,0.3 0.51,0.65 0.67,1.03 0.17,0.39 0.25,0.8 0.25,1.22zm-5.16 24.59c0,0.45 -0.08,0.87 -0.25,1.25 -0.17,0.39 -0.39,0.72 -0.68,1.02 -0.29,0.29 -0.63,0.52 -1.03,0.69 -0.4,0.18 -0.81,0.26 -1.26,0.26 -0.44,0 -0.86,-0.08 -1.24,-0.26 -0.39,-0.17 -0.74,-0.4 -1.02,-0.69 -0.29,-0.3 -0.52,-0.63 -0.69,-1.02 -0.16,-0.38 -0.25,-0.8 -0.25,-1.25 0,-0.44 0.09,-0.86 0.25,-1.25 0.17,-0.4 0.4,-0.75 0.69,-1.03 0.28,-0.3 0.63,-0.53 1.02,-0.69 0.38,-0.16 0.8,-0.24 1.24,-0.24 0.45,0 0.86,0.08 1.26,0.24 0.4,0.16 0.74,0.39 1.03,0.69 0.29,0.28 0.51,0.63 0.68,1.03 0.17,0.39 0.25,0.81 0.25,1.25zm50.93 -32.8c-0.48,-0.34 -1.06,-0.68 -1.72,-0.99 -0.67,-0.3 -1.39,-0.57 -2.15,-0.81 -0.77,-0.23 -1.56,-0.41 -2.39,-0.55 -0.83,-0.13 -1.65,-0.2 -2.46,-0.2 -1.56,0 -2.86,0.22 -3.91,0.65 -1.05,0.44 -1.9,0.98 -2.54,1.66 -0.63,0.66 -1.1,1.39 -1.38,2.18 -0.27,0.8 -0.41,1.54 -0.41,2.24 0,0.9 0.12,1.72 0.37,2.47 0.25,0.73 0.63,1.43 1.13,2.11 0.51,0.68 1.15,1.35 1.94,2.04 0.8,0.67 1.73,1.39 2.79,2.16 1.19,0.87 2.26,1.74 3.2,2.59 0.94,0.85 1.74,1.72 2.4,2.62 0.65,0.9 1.15,1.85 1.49,2.84 0.34,1 0.51,2.08 0.51,3.24 0,0.71 -0.07,1.51 -0.22,2.37 -0.15,0.86 -0.4,1.72 -0.78,2.59 -0.38,0.87 -0.9,1.72 -1.55,2.55 -0.66,0.84 -1.5,1.57 -2.51,2.2 -1.02,0.65 -2.24,1.16 -3.67,1.55 -1.43,0.38 -3.11,0.57 -5.05,0.57 -1.08,0 -2.14,-0.08 -3.19,-0.23 -1.04,-0.15 -2.04,-0.35 -2.97,-0.61 -0.94,-0.25 -1.8,-0.53 -2.58,-0.85 -0.79,-0.32 -1.46,-0.64 -2.02,-0.94l0.84 -5.05c0.62,0.44 1.32,0.86 2.12,1.26 0.79,0.39 1.63,0.75 2.52,1.05 0.89,0.29 1.81,0.53 2.75,0.71 0.95,0.17 1.89,0.26 2.83,0.26 1.46,0 2.73,-0.18 3.78,-0.53 1.05,-0.35 1.92,-0.82 2.61,-1.43 0.68,-0.61 1.19,-1.33 1.51,-2.16 0.31,-0.83 0.47,-1.74 0.47,-2.71 0,-0.86 -0.13,-1.65 -0.4,-2.34 -0.27,-0.69 -0.69,-1.38 -1.25,-2.04 -0.56,-0.67 -1.27,-1.35 -2.13,-2.03 -0.86,-0.69 -1.88,-1.46 -3.06,-2.29 -0.95,-0.67 -1.85,-1.4 -2.71,-2.19 -0.86,-0.78 -1.62,-1.63 -2.27,-2.56 -0.64,-0.93 -1.16,-1.94 -1.53,-3.03 -0.38,-1.09 -0.57,-2.28 -0.57,-3.55 0,-1.59 0.3,-3.09 0.88,-4.52 0.6,-1.41 1.47,-2.66 2.64,-3.73 1.15,-1.08 2.59,-1.93 4.3,-2.56 1.71,-0.63 3.7,-0.95 5.96,-0.95 0.87,0 1.73,0.06 2.6,0.17 0.86,0.1 1.69,0.25 2.5,0.44 0.81,0.18 1.59,0.38 2.31,0.6 0.72,0.23 1.36,0.46 1.93,0.69l-0.96 5.04zm12.85 35.24c-0.49,0.16 -1.03,0.29 -1.64,0.38 -0.61,0.1 -1.21,0.14 -1.82,0.14 -1.95,0 -3.41,-0.48 -4.37,-1.46 -0.97,-0.98 -1.46,-2.29 -1.46,-3.93 0,-0.49 0.05,-1.05 0.15,-1.71 0.1,-0.66 0.25,-1.47 0.47,-2.44l4.31 -20.56 4.82 0 -4.35 20.68c-0.17,0.81 -0.3,1.43 -0.36,1.88 -0.07,0.45 -0.11,0.82 -0.11,1.14 0,0.79 0.22,1.4 0.66,1.81 0.43,0.42 1.13,0.62 2.08,0.62 0.5,0 0.94,-0.03 1.31,-0.08 0.38,-0.06 0.73,-0.15 1.06,-0.27l-0.75 3.8zm3.39 -40.17c0,0.87 -0.29,1.62 -0.89,2.23 -0.58,0.63 -1.31,0.93 -2.18,0.93 -0.85,0 -1.6,-0.3 -2.22,-0.91 -0.64,-0.61 -0.94,-1.36 -0.94,-2.25 0,-0.89 0.3,-1.61 0.94,-2.17 0.62,-0.57 1.37,-0.85 2.22,-0.85 0.85,0 1.57,0.29 2.17,0.86 0.6,0.57 0.9,1.29 0.9,2.16zm20.94 15.81c-0.87,-0.56 -1.84,-1.02 -2.93,-1.36 -1.08,-0.35 -2.16,-0.53 -3.24,-0.53 -1.82,0 -3.23,0.42 -4.22,1.25 -1,0.83 -1.5,1.93 -1.5,3.31 0,0.55 0.09,1.07 0.28,1.53 0.18,0.47 0.46,0.9 0.81,1.32 0.36,0.42 0.82,0.82 1.36,1.21 0.55,0.38 1.19,0.8 1.9,1.24 2.17,1.26 3.73,2.55 4.68,3.88 0.96,1.32 1.44,2.82 1.44,4.48 0,1.12 -0.21,2.22 -0.62,3.29 -0.42,1.08 -1.07,2.02 -1.99,2.84 -0.91,0.82 -2.08,1.48 -3.52,1.99 -1.44,0.5 -3.2,0.75 -5.27,0.75 -0.57,0 -1.21,-0.04 -1.91,-0.12 -0.7,-0.07 -1.39,-0.19 -2.11,-0.34 -0.7,-0.15 -1.37,-0.34 -2.03,-0.57 -0.64,-0.22 -1.2,-0.47 -1.69,-0.76l0.96 -4.52c0.39,0.26 0.86,0.53 1.44,0.81 0.56,0.26 1.19,0.5 1.85,0.72 0.66,0.21 1.37,0.39 2.09,0.52 0.72,0.13 1.44,0.2 2.16,0.2 1.94,0 3.38,-0.38 4.33,-1.16 0.96,-0.77 1.44,-1.85 1.44,-3.21 0,-0.51 -0.07,-0.97 -0.22,-1.4 -0.14,-0.43 -0.4,-0.85 -0.76,-1.28 -0.37,-0.42 -0.85,-0.85 -1.46,-1.28 -0.59,-0.44 -1.35,-0.92 -2.25,-1.47 -1.98,-1.2 -3.44,-2.45 -4.37,-3.76 -0.94,-1.3 -1.41,-2.77 -1.41,-4.42 0,-1.19 0.22,-2.34 0.67,-3.44 0.44,-1.09 1.11,-2.06 1.99,-2.89 0.88,-0.84 1.98,-1.52 3.31,-2.02 1.34,-0.51 2.89,-0.76 4.68,-0.76 1.39,0 2.71,0.13 3.96,0.41 1.24,0.27 2.3,0.61 3.17,1.04l-1.02 4.5zm22.46 -1.19l-7.49 0 -3.33 15.75c-0.12,0.6 -0.24,1.25 -0.35,1.94 -0.12,0.7 -0.18,1.26 -0.18,1.68 0,0.99 0.22,1.7 0.66,2.14 0.43,0.44 1.12,0.65 2.07,0.65 0.23,0 0.53,-0.04 0.9,-0.11 0.36,-0.08 0.74,-0.18 1.12,-0.29 0.4,-0.12 0.78,-0.25 1.15,-0.4 0.38,-0.15 0.72,-0.28 1,-0.39l-0.9 4.17c-0.67,0.3 -1.44,0.54 -2.29,0.75 -0.87,0.19 -1.69,0.3 -2.46,0.3 -1.1,0 -2.04,-0.14 -2.81,-0.42 -0.77,-0.28 -1.41,-0.69 -1.9,-1.2 -0.5,-0.53 -0.85,-1.16 -1.07,-1.9 -0.23,-0.74 -0.34,-1.59 -0.34,-2.52 0,-0.55 0.05,-1.2 0.16,-1.95 0.11,-0.75 0.24,-1.42 0.4,-2.05l3.41 -16.15 -4.93 0 0.9 -4.03 4.87 0 1.54 -7.25c0.08,-0.04 0.37,-0.14 0.89,-0.28 0.51,-0.15 1.07,-0.31 1.68,-0.49 0.61,-0.19 1.17,-0.36 1.69,-0.51 0.5,-0.16 0.79,-0.24 0.85,-0.26l-1.84 8.79 7.49 0 -0.89 4.03zm27.03 2.93c0,1.56 -0.35,2.99 -1.05,4.27 -0.7,1.29 -1.84,2.39 -3.45,3.31 -1.61,0.92 -3.72,1.64 -6.35,2.14 -2.64,0.49 -5.89,0.76 -9.75,0.78 -0.04,0.21 -0.06,0.44 -0.06,0.67 0,0.21 0,0.4 0,0.58 0,1.04 0.14,2.03 0.44,2.95 0.29,0.93 0.73,1.74 1.35,2.45 0.6,0.69 1.39,1.24 2.34,1.65 0.96,0.4 2.1,0.6 3.41,0.6 1.34,0 2.8,-0.26 4.39,-0.77 1.6,-0.51 3.12,-1.24 4.58,-2.19l-0.9 4.7c-1.07,0.62 -2.33,1.16 -3.8,1.63 -1.47,0.46 -3.11,0.69 -4.94,0.69 -2.18,0 -4.02,-0.34 -5.52,-1.01 -1.49,-0.68 -2.7,-1.58 -3.62,-2.71 -0.92,-1.14 -1.59,-2.44 -1.99,-3.92 -0.41,-1.48 -0.61,-3.03 -0.61,-4.65 0,-1.75 0.19,-3.42 0.58,-5.03 0.38,-1.62 0.93,-3.12 1.64,-4.52 0.7,-1.39 1.55,-2.66 2.54,-3.81 0.99,-1.15 2.07,-2.13 3.27,-2.94 1.2,-0.81 2.49,-1.45 3.86,-1.89 1.37,-0.45 2.8,-0.67 4.26,-0.67 1.54,0 2.88,0.2 4.05,0.61 1.17,0.4 2.15,0.96 2.93,1.67 0.78,0.7 1.38,1.52 1.78,2.45 0.41,0.93 0.62,1.92 0.62,2.96zm-4.85 0.23c0,-1.22 -0.45,-2.16 -1.35,-2.85 -0.9,-0.67 -2.09,-1.01 -3.59,-1.01 -1.17,0 -2.31,0.26 -3.41,0.78 -1.11,0.5 -2.12,1.21 -3.05,2.11 -0.93,0.9 -1.73,1.97 -2.41,3.22 -0.67,1.25 -1.16,2.6 -1.48,4.04 2.77,0 5.12,-0.14 7.05,-0.41 1.94,-0.29 3.51,-0.7 4.73,-1.24 1.22,-0.54 2.11,-1.2 2.66,-1.98 0.57,-0.78 0.85,-1.68 0.85,-2.66zm53.92 0.29c0,0.25 -0.04,0.64 -0.1,1.15 -0.06,0.51 -0.15,1.06 -0.26,1.63 -0.11,0.59 -0.21,1.16 -0.32,1.73 -0.11,0.57 -0.2,1.05 -0.28,1.43l-3.5 16.28 -4.76 0 3.62 -17.41c0.08,-0.32 0.16,-0.69 0.24,-1.09 0.08,-0.41 0.15,-0.82 0.22,-1.21 0.06,-0.4 0.11,-0.77 0.15,-1.1 0.04,-0.34 0.06,-0.61 0.06,-0.8 0,-1.53 -0.32,-2.71 -0.99,-3.53 -0.65,-0.82 -1.68,-1.23 -3.07,-1.23 -0.74,0 -1.49,0.17 -2.27,0.51 -0.8,0.34 -1.56,0.8 -2.3,1.38 -0.74,0.58 -1.46,1.25 -2.15,2.02 -0.68,0.78 -1.31,1.61 -1.88,2.49 -0.57,0.88 -1.06,1.78 -1.46,2.69 -0.41,0.92 -0.71,1.82 -0.91,2.72l-3.09 14.56 -4.83 0 3.69 -17.41c0.08,-0.32 0.16,-0.69 0.23,-1.09 0.08,-0.41 0.15,-0.82 0.22,-1.21 0.07,-0.4 0.12,-0.77 0.16,-1.1 0.04,-0.34 0.06,-0.61 0.06,-0.8 0,-1.53 -0.34,-2.71 -1.02,-3.53 -0.67,-0.82 -1.69,-1.23 -3.04,-1.23 -0.75,0 -1.53,0.17 -2.33,0.51 -0.79,0.34 -1.56,0.8 -2.31,1.39 -0.76,0.59 -1.48,1.28 -2.16,2.06 -0.69,0.79 -1.32,1.62 -1.89,2.5 -0.57,0.88 -1.05,1.77 -1.45,2.69 -0.39,0.92 -0.69,1.82 -0.89,2.71l-3.1 14.51 -4.81 0 4.58 -21.21c0.15,-0.75 0.31,-1.53 0.46,-2.35 0.16,-0.83 0.31,-1.62 0.44,-2.39 0.14,-0.76 0.25,-1.48 0.34,-2.13 0.1,-0.65 0.18,-1.2 0.24,-1.62l4.64 0c-0.1,0.75 -0.21,1.54 -0.35,2.36 -0.13,0.83 -0.25,1.58 -0.35,2.28 -0.11,0.81 -0.24,1.6 -0.38,2.38l0.12 0c0.7,-1.12 1.45,-2.16 2.26,-3.11 0.81,-0.94 1.67,-1.76 2.58,-2.45 0.92,-0.68 1.87,-1.22 2.85,-1.61 0.99,-0.39 2.01,-0.58 3.07,-0.58 1.24,0 2.3,0.18 3.19,0.55 0.89,0.38 1.64,0.89 2.22,1.55 0.59,0.67 1.04,1.48 1.35,2.43 0.31,0.94 0.49,2 0.55,3.16 0.71,-1.08 1.49,-2.09 2.31,-3.03 0.82,-0.94 1.7,-1.75 2.64,-2.44 0.93,-0.68 1.93,-1.23 2.98,-1.62 1.06,-0.4 2.18,-0.6 3.36,-0.6 2.47,0 4.32,0.73 5.56,2.16 1.24,1.45 1.86,3.46 1.86,6.05zm29.26 12.7c-0.15,0.74 -0.3,1.57 -0.45,2.49 -0.14,0.91 -0.26,1.82 -0.37,2.72 -0.11,0.9 -0.2,1.73 -0.26,2.51 -0.07,0.77 -0.11,1.37 -0.11,1.8l-4.93 0c0.02,-0.39 0.05,-0.85 0.09,-1.4 0.04,-0.53 0.09,-1.1 0.16,-1.68 0.07,-0.57 0.14,-1.15 0.21,-1.7 0.06,-0.57 0.14,-1.05 0.21,-1.46l-0.11 0c-0.61,0.95 -1.21,1.84 -1.84,2.68 -0.61,0.85 -1.29,1.59 -2.06,2.22 -0.75,0.65 -1.59,1.14 -2.52,1.52 -0.92,0.36 -2.02,0.54 -3.28,0.54 -1.28,0 -2.47,-0.23 -3.55,-0.69 -1.07,-0.47 -1.99,-1.16 -2.76,-2.08 -0.78,-0.91 -1.38,-2.07 -1.79,-3.45 -0.41,-1.38 -0.62,-2.99 -0.62,-4.83 0,-1.12 0.11,-2.39 0.35,-3.83 0.22,-1.42 0.62,-2.89 1.17,-4.38 0.55,-1.48 1.28,-2.94 2.2,-4.36 0.92,-1.43 2.06,-2.69 3.43,-3.81 1.35,-1.13 2.97,-2.02 4.83,-2.71 1.85,-0.67 4,-1.01 6.44,-1.01 1.54,0 3.13,0.11 4.78,0.35 1.64,0.23 3.27,0.52 4.9,0.84l-4.12 19.72zm-1.36 -16.26c-0.68,-0.16 -1.47,-0.3 -2.38,-0.41 -0.9,-0.12 -1.76,-0.18 -2.55,-0.18 -1.68,0 -3.17,0.27 -4.45,0.8 -1.29,0.53 -2.41,1.22 -3.35,2.09 -0.95,0.86 -1.75,1.85 -2.39,2.97 -0.66,1.12 -1.17,2.27 -1.56,3.44 -0.39,1.17 -0.66,2.33 -0.82,3.47 -0.17,1.13 -0.25,2.17 -0.25,3.09 0,1.11 0.1,2.1 0.29,2.98 0.2,0.89 0.49,1.63 0.91,2.25 0.42,0.62 0.95,1.1 1.59,1.44 0.66,0.33 1.43,0.5 2.31,0.5 0.97,0 1.87,-0.2 2.71,-0.59 0.84,-0.4 1.64,-0.93 2.37,-1.62 0.73,-0.67 1.4,-1.45 2,-2.34 0.6,-0.89 1.14,-1.83 1.62,-2.83 0.49,-0.99 0.9,-2.01 1.24,-3.04 0.34,-1.04 0.61,-2.04 0.82,-3l1.89 -9.02zm28.34 1.3c-0.87,-0.56 -1.84,-1.02 -2.93,-1.36 -1.08,-0.35 -2.17,-0.53 -3.25,-0.53 -1.82,0 -3.23,0.42 -4.22,1.25 -1,0.83 -1.49,1.93 -1.49,3.31 0,0.55 0.09,1.07 0.27,1.53 0.18,0.47 0.46,0.9 0.82,1.32 0.35,0.42 0.81,0.82 1.35,1.21 0.56,0.38 1.19,0.8 1.9,1.24 2.17,1.26 3.74,2.55 4.69,3.88 0.96,1.32 1.43,2.82 1.43,4.48 0,1.12 -0.2,2.22 -0.62,3.29 -0.42,1.08 -1.07,2.02 -1.98,2.84 -0.91,0.82 -2.09,1.48 -3.53,1.99 -1.44,0.5 -3.19,0.75 -5.26,0.75 -0.58,0 -1.22,-0.04 -1.91,-0.12 -0.71,-0.07 -1.4,-0.19 -2.11,-0.34 -0.71,-0.15 -1.38,-0.34 -2.03,-0.57 -0.65,-0.22 -1.21,-0.47 -1.69,-0.76l0.96 -4.52c0.38,0.26 0.86,0.53 1.43,0.81 0.57,0.26 1.19,0.5 1.85,0.72 0.67,0.21 1.37,0.39 2.09,0.52 0.72,0.13 1.45,0.2 2.16,0.2 1.94,0 3.39,-0.38 4.34,-1.16 0.96,-0.77 1.43,-1.85 1.43,-3.21 0,-0.51 -0.07,-0.97 -0.22,-1.4 -0.14,-0.43 -0.39,-0.85 -0.76,-1.28 -0.36,-0.42 -0.85,-0.85 -1.45,-1.28 -0.6,-0.44 -1.36,-0.92 -2.26,-1.47 -1.98,-1.2 -3.44,-2.45 -4.37,-3.76 -0.94,-1.3 -1.4,-2.77 -1.4,-4.42 0,-1.19 0.22,-2.34 0.66,-3.44 0.45,-1.09 1.11,-2.06 1.99,-2.89 0.88,-0.84 1.98,-1.52 3.32,-2.02 1.33,-0.51 2.89,-0.76 4.67,-0.76 1.4,0 2.71,0.13 3.96,0.41 1.25,0.27 2.31,0.61 3.18,1.04l-1.02 4.5z"/>
   <path class="fil2" d="M478.69 105.74c-0.14,0.62 -0.27,1.37 -0.4,2.24 -0.13,0.87 -0.24,1.74 -0.34,2.62 -0.08,0.88 -0.17,1.7 -0.23,2.48 -0.07,0.77 -0.11,1.37 -0.11,1.8l-4.93 0c0,-0.33 0.03,-0.77 0.08,-1.32 0.04,-0.55 0.1,-1.13 0.16,-1.73 0.07,-0.59 0.14,-1.17 0.22,-1.72 0.08,-0.56 0.15,-1 0.21,-1.35l-0.12 0c-0.69,1.12 -1.39,2.11 -2.09,2.97 -0.69,0.86 -1.43,1.57 -2.21,2.15 -0.77,0.57 -1.59,1 -2.46,1.29 -0.87,0.29 -1.82,0.43 -2.87,0.43 -1.35,0 -2.58,-0.24 -3.65,-0.72 -1.08,-0.49 -2.01,-1.2 -2.78,-2.13 -0.76,-0.94 -1.34,-2.1 -1.75,-3.48 -0.41,-1.39 -0.6,-2.97 -0.6,-4.78 0,-1.42 0.15,-2.92 0.44,-4.46 0.3,-1.55 0.76,-3.07 1.4,-4.56 0.62,-1.48 1.42,-2.9 2.38,-4.23 0.97,-1.33 2.12,-2.51 3.46,-3.51 1.34,-1.01 2.86,-1.8 4.58,-2.39 1.73,-0.59 3.65,-0.89 5.78,-0.89 1.07,0 2.08,0.07 3.01,0.22 0.93,0.14 1.73,0.29 2.41,0.45l3.01 -14.21 4.7 0 -7.3 34.83zm-1.25 -16.53c-0.74,-0.21 -1.51,-0.38 -2.31,-0.51 -0.8,-0.13 -1.66,-0.19 -2.56,-0.19 -1.68,0 -3.17,0.26 -4.46,0.79 -1.28,0.52 -2.4,1.21 -3.36,2.08 -0.96,0.88 -1.77,1.87 -2.41,2.98 -0.65,1.11 -1.17,2.25 -1.56,3.42 -0.4,1.17 -0.69,2.32 -0.84,3.46 -0.17,1.12 -0.25,2.14 -0.25,3.06 0,1.07 0.09,2.06 0.28,2.95 0.17,0.89 0.47,1.65 0.89,2.29 0.41,0.64 0.96,1.13 1.61,1.48 0.65,0.34 1.45,0.52 2.38,0.52 0.97,0 1.87,-0.2 2.71,-0.6 0.84,-0.41 1.63,-0.96 2.37,-1.65 0.73,-0.71 1.39,-1.51 1.99,-2.42 0.61,-0.9 1.14,-1.87 1.63,-2.9 0.48,-1.02 0.89,-2.06 1.24,-3.12 0.33,-1.05 0.61,-2.06 0.82,-3.03l1.83 -8.61zm35.1 2.93c0,1.56 -0.35,2.99 -1.05,4.27 -0.7,1.29 -1.84,2.39 -3.45,3.31 -1.61,0.92 -3.72,1.64 -6.35,2.14 -2.64,0.49 -5.88,0.76 -9.75,0.78 -0.04,0.21 -0.06,0.44 -0.06,0.67 0,0.21 0,0.4 0,0.58 0,1.04 0.14,2.03 0.44,2.95 0.29,0.93 0.73,1.74 1.35,2.45 0.6,0.69 1.39,1.24 2.34,1.65 0.96,0.4 2.1,0.6 3.41,0.6 1.34,0 2.8,-0.26 4.4,-0.77 1.59,-0.51 3.11,-1.24 4.57,-2.19l-0.9 4.7c-1.07,0.62 -2.33,1.16 -3.8,1.63 -1.47,0.46 -3.11,0.69 -4.93,0.69 -2.19,0 -4.03,-0.34 -5.53,-1.01 -1.49,-0.68 -2.7,-1.58 -3.62,-2.71 -0.92,-1.14 -1.59,-2.44 -1.99,-3.92 -0.41,-1.48 -0.61,-3.03 -0.61,-4.65 0,-1.75 0.19,-3.42 0.58,-5.03 0.38,-1.62 0.93,-3.12 1.64,-4.52 0.7,-1.39 1.55,-2.66 2.54,-3.81 0.99,-1.15 2.07,-2.13 3.27,-2.94 1.2,-0.81 2.49,-1.45 3.86,-1.89 1.37,-0.45 2.8,-0.67 4.26,-0.67 1.54,0 2.88,0.2 4.05,0.61 1.17,0.4 2.15,0.96 2.93,1.67 0.78,0.7 1.38,1.52 1.78,2.45 0.41,0.93 0.62,1.92 0.62,2.96zm-4.85 0.23c0,-1.22 -0.45,-2.16 -1.35,-2.85 -0.9,-0.67 -2.09,-1.01 -3.58,-1.01 -1.18,0 -2.32,0.26 -3.42,0.78 -1.11,0.5 -2.12,1.21 -3.05,2.11 -0.93,0.9 -1.73,1.97 -2.41,3.22 -0.67,1.25 -1.16,2.6 -1.48,4.04 2.77,0 5.12,-0.14 7.05,-0.41 1.94,-0.29 3.51,-0.7 4.73,-1.24 1.22,-0.54 2.11,-1.2 2.66,-1.98 0.57,-0.78 0.85,-1.68 0.85,-2.66zm29.44 22.51l-4.99 0 8.78 -41.59 5.05 0 -8.84 41.59zm39.02 -22.28c0,0.29 -0.04,0.69 -0.11,1.19 -0.07,0.51 -0.15,1.05 -0.26,1.62 -0.11,0.59 -0.22,1.16 -0.32,1.73 -0.1,0.57 -0.2,1.06 -0.3,1.46l-3.46 16.28 -4.81 0 3.63 -17.41c0.07,-0.3 0.15,-0.66 0.23,-1.07 0.07,-0.4 0.14,-0.81 0.2,-1.21 0.06,-0.41 0.11,-0.79 0.15,-1.12 0.04,-0.34 0.06,-0.61 0.06,-0.8 0,-1.47 -0.36,-2.63 -1.06,-3.48 -0.71,-0.85 -1.76,-1.28 -3.15,-1.28 -1.28,0 -2.54,0.38 -3.8,1.13 -1.26,0.76 -2.42,1.72 -3.49,2.87 -1.05,1.16 -1.97,2.44 -2.73,3.83 -0.77,1.4 -1.29,2.74 -1.55,4.03l-3.11 14.51 -4.81 0 4.58 -21.21c0.16,-0.75 0.31,-1.53 0.47,-2.35 0.14,-0.83 0.29,-1.62 0.43,-2.39 0.13,-0.76 0.25,-1.48 0.35,-2.13 0.1,-0.65 0.17,-1.2 0.23,-1.62l4.64 0c-0.1,0.75 -0.21,1.54 -0.35,2.36 -0.14,0.83 -0.24,1.58 -0.34,2.28 -0.12,0.81 -0.25,1.6 -0.38,2.38l0.11 0c0.68,-1.06 1.42,-2.07 2.25,-3 0.82,-0.94 1.71,-1.77 2.67,-2.47 0.96,-0.71 1.97,-1.27 3.05,-1.67 1.07,-0.41 2.2,-0.61 3.38,-0.61 1.31,0 2.44,0.2 3.39,0.6 0.94,0.39 1.73,0.95 2.36,1.66 0.63,0.71 1.1,1.58 1.39,2.59 0.3,1.01 0.46,2.1 0.46,3.3zm26.91 -17.57c-0.19,-0.1 -0.43,-0.19 -0.69,-0.28 -0.28,-0.09 -0.57,-0.17 -0.88,-0.25 -0.3,-0.07 -0.63,-0.13 -0.97,-0.18 -0.33,-0.05 -0.66,-0.07 -0.97,-0.07 -1.58,0 -2.81,0.51 -3.67,1.54 -0.86,1.04 -1.51,2.58 -1.96,4.63l-1.07 4.76 7.02 0 -0.96 4.03 -7.02 0 -7.59 35.53 -4.82 0 7.66 -35.53 -5.11 0 0.9 -4.03 5.11 0 1.19 -5.52c0.36,-1.7 0.88,-3.15 1.53,-4.34 0.66,-1.2 1.44,-2.18 2.35,-2.93 0.91,-0.76 1.94,-1.31 3.09,-1.66 1.16,-0.34 2.41,-0.52 3.79,-0.52 0.71,0 1.41,0.06 2.1,0.18 0.68,0.11 1.26,0.24 1.75,0.4l-0.78 4.24zm23.18 21.14c0,2.63 -0.37,5.13 -1.11,7.48 -0.76,2.37 -1.83,4.43 -3.23,6.2 -1.4,1.76 -3.1,3.17 -5.1,4.2 -2,1.04 -4.26,1.55 -6.77,1.55 -1.7,0 -3.24,-0.27 -4.61,-0.81 -1.35,-0.54 -2.51,-1.32 -3.47,-2.34 -0.96,-1.01 -1.69,-2.23 -2.21,-3.68 -0.51,-1.44 -0.76,-3.07 -0.76,-4.88 0,-2.73 0.39,-5.28 1.17,-7.64 0.78,-2.38 1.89,-4.44 3.3,-6.18 1.43,-1.75 3.13,-3.13 5.11,-4.12 1.98,-1 4.17,-1.5 6.57,-1.5 1.68,0 3.2,0.27 4.57,0.82 1.37,0.53 2.53,1.31 3.5,2.33 0.96,1.01 1.71,2.24 2.24,3.69 0.54,1.43 0.8,3.07 0.8,4.88zm-4.88 0.23c0,-1.25 -0.14,-2.37 -0.46,-3.35 -0.31,-0.97 -0.74,-1.79 -1.3,-2.47 -0.56,-0.66 -1.24,-1.18 -2.04,-1.53 -0.79,-0.36 -1.67,-0.54 -2.66,-0.54 -1.7,0 -3.24,0.44 -4.62,1.31 -1.37,0.87 -2.53,2.01 -3.47,3.44 -0.95,1.41 -1.68,3.04 -2.2,4.84 -0.5,1.81 -0.76,3.66 -0.76,5.55 0,1.2 0.15,2.29 0.45,3.27 0.29,0.97 0.72,1.8 1.27,2.49 0.56,0.69 1.23,1.21 2.03,1.58 0.8,0.37 1.71,0.55 2.72,0.55 1.72,0 3.26,-0.42 4.64,-1.28 1.36,-0.87 2.53,-2.01 3.47,-3.43 0.95,-1.43 1.68,-3.04 2.18,-4.86 0.51,-1.81 0.75,-3.67 0.75,-5.57zm29.36 -6.17l-0.12 0c-0.39,-0.24 -0.89,-0.47 -1.51,-0.69 -0.64,-0.22 -1.26,-0.33 -1.88,-0.33 -1.12,0 -2.19,0.36 -3.22,1.09 -1.02,0.72 -1.95,1.68 -2.8,2.87 -0.84,1.19 -1.57,2.54 -2.2,4.08 -0.63,1.52 -1.12,3.09 -1.47,4.69l-2.78 12.94 -4.76 0 4.18 -19.72c0.17,-0.82 0.34,-1.67 0.52,-2.56 0.18,-0.89 0.34,-1.78 0.48,-2.67 0.14,-0.88 0.27,-1.73 0.39,-2.54 0.12,-0.82 0.2,-1.56 0.26,-2.21l4.7 0c-0.06,0.58 -0.13,1.2 -0.21,1.84 -0.07,0.64 -0.15,1.28 -0.22,1.88 -0.08,0.61 -0.16,1.17 -0.23,1.65 -0.08,0.5 -0.14,0.88 -0.18,1.15l0.12 0c0.61,-1.1 1.25,-2.1 1.88,-2.99 0.64,-0.88 1.31,-1.64 2.02,-2.27 0.7,-0.63 1.46,-1.11 2.25,-1.46 0.79,-0.36 1.65,-0.53 2.58,-0.53 0.54,0 1.07,0.05 1.61,0.16 0.53,0.11 1,0.22 1.43,0.34l-0.84 5.28zm46.88 2.43c0,0.25 -0.04,0.64 -0.1,1.15 -0.07,0.51 -0.16,1.06 -0.27,1.63 -0.11,0.59 -0.21,1.16 -0.32,1.73 -0.1,0.57 -0.19,1.05 -0.27,1.43l-3.51 16.28 -4.76 0 3.62 -17.41c0.08,-0.32 0.16,-0.69 0.24,-1.09 0.08,-0.41 0.15,-0.82 0.22,-1.21 0.07,-0.4 0.12,-0.77 0.16,-1.1 0.04,-0.34 0.06,-0.61 0.06,-0.8 0,-1.53 -0.33,-2.71 -0.99,-3.53 -0.66,-0.82 -1.69,-1.23 -3.07,-1.23 -0.75,0 -1.5,0.17 -2.28,0.51 -0.79,0.34 -1.55,0.8 -2.3,1.38 -0.74,0.58 -1.45,1.25 -2.14,2.02 -0.69,0.78 -1.31,1.61 -1.89,2.49 -0.57,0.88 -1.06,1.78 -1.46,2.69 -0.41,0.92 -0.7,1.82 -0.9,2.72l-3.1 14.56 -4.82 0 3.68 -17.41c0.08,-0.32 0.16,-0.69 0.24,-1.09 0.08,-0.41 0.15,-0.82 0.22,-1.21 0.07,-0.4 0.12,-0.77 0.15,-1.1 0.04,-0.34 0.06,-0.61 0.06,-0.8 0,-1.53 -0.33,-2.71 -1.02,-3.53 -0.67,-0.82 -1.69,-1.23 -3.04,-1.23 -0.75,0 -1.53,0.17 -2.32,0.51 -0.79,0.34 -1.57,0.8 -2.32,1.39 -0.75,0.59 -1.47,1.28 -2.16,2.06 -0.69,0.79 -1.31,1.62 -1.89,2.5 -0.56,0.88 -1.05,1.77 -1.44,2.69 -0.4,0.92 -0.7,1.82 -0.89,2.71l-3.1 14.51 -4.81 0 4.57 -21.21c0.16,-0.75 0.32,-1.53 0.46,-2.35 0.16,-0.83 0.31,-1.62 0.44,-2.39 0.14,-0.76 0.26,-1.48 0.35,-2.13 0.1,-0.65 0.18,-1.2 0.23,-1.62l4.65 0c-0.1,0.75 -0.22,1.54 -0.36,2.36 -0.13,0.83 -0.25,1.58 -0.35,2.28 -0.1,0.81 -0.23,1.6 -0.37,2.38l0.12 0c0.69,-1.12 1.44,-2.16 2.25,-3.11 0.82,-0.94 1.68,-1.76 2.59,-2.45 0.91,-0.68 1.86,-1.22 2.84,-1.61 0.99,-0.39 2.01,-0.58 3.08,-0.58 1.24,0 2.3,0.18 3.19,0.55 0.89,0.38 1.63,0.89 2.22,1.55 0.59,0.67 1.03,1.48 1.34,2.43 0.32,0.94 0.5,2 0.56,3.16 0.71,-1.08 1.48,-2.09 2.3,-3.03 0.82,-0.94 1.71,-1.75 2.65,-2.44 0.93,-0.68 1.93,-1.23 2.98,-1.62 1.06,-0.4 2.17,-0.6 3.35,-0.6 2.48,0 4.33,0.73 5.57,2.16 1.23,1.45 1.86,3.46 1.86,6.05zm29.25 12.7c-0.14,0.74 -0.29,1.57 -0.44,2.49 -0.15,0.91 -0.27,1.82 -0.38,2.72 -0.11,0.9 -0.2,1.73 -0.26,2.51 -0.06,0.77 -0.1,1.37 -0.1,1.8l-4.93 0c0.02,-0.39 0.04,-0.85 0.08,-1.4 0.04,-0.53 0.09,-1.1 0.16,-1.68 0.07,-0.57 0.14,-1.15 0.21,-1.7 0.06,-0.57 0.14,-1.05 0.22,-1.46l-0.12 0c-0.6,0.95 -1.21,1.84 -1.83,2.68 -0.62,0.85 -1.3,1.59 -2.06,2.22 -0.75,0.65 -1.6,1.14 -2.53,1.52 -0.92,0.36 -2.02,0.54 -3.27,0.54 -1.29,0 -2.48,-0.23 -3.56,-0.69 -1.07,-0.47 -1.99,-1.16 -2.76,-2.08 -0.77,-0.91 -1.38,-2.07 -1.78,-3.45 -0.42,-1.38 -0.63,-2.99 -0.63,-4.83 0,-1.12 0.11,-2.39 0.35,-3.83 0.23,-1.42 0.62,-2.89 1.17,-4.38 0.55,-1.48 1.29,-2.94 2.21,-4.36 0.92,-1.43 2.06,-2.69 3.42,-3.81 1.36,-1.13 2.97,-2.02 4.83,-2.71 1.86,-0.67 4,-1.01 6.44,-1.01 1.54,0 3.14,0.11 4.78,0.35 1.64,0.23 3.28,0.52 4.9,0.84l-4.12 19.72zm-1.35 -16.26c-0.69,-0.16 -1.48,-0.3 -2.39,-0.41 -0.9,-0.12 -1.75,-0.18 -2.54,-0.18 -1.69,0 -3.17,0.27 -4.46,0.8 -1.29,0.53 -2.4,1.22 -3.34,2.09 -0.96,0.86 -1.76,1.85 -2.4,2.97 -0.65,1.12 -1.17,2.27 -1.55,3.44 -0.39,1.17 -0.67,2.33 -0.83,3.47 -0.16,1.13 -0.24,2.17 -0.24,3.09 0,1.11 0.1,2.1 0.28,2.98 0.2,0.89 0.5,1.63 0.91,2.25 0.42,0.62 0.95,1.1 1.6,1.44 0.65,0.33 1.42,0.5 2.3,0.5 0.97,0 1.88,-0.2 2.72,-0.59 0.84,-0.4 1.63,-0.93 2.36,-1.62 0.74,-0.67 1.41,-1.45 2,-2.34 0.61,-0.89 1.14,-1.83 1.63,-2.83 0.48,-0.99 0.9,-2.01 1.23,-3.04 0.34,-1.04 0.62,-2.04 0.83,-3l1.89 -9.02zm32.36 1.97c-0.81,-0.72 -1.79,-1.33 -2.94,-1.81 -1.15,-0.5 -2.42,-0.75 -3.81,-0.75 -1.34,0 -2.54,0.23 -3.61,0.7 -1.07,0.46 -2.03,1.09 -2.86,1.86 -0.84,0.77 -1.55,1.66 -2.14,2.66 -0.61,1.01 -1.1,2.05 -1.49,3.14 -0.38,1.08 -0.67,2.16 -0.85,3.23 -0.19,1.08 -0.28,2.08 -0.28,3 0,2.77 0.61,4.87 1.82,6.29 1.23,1.44 2.89,2.15 4.99,2.15 1.28,0 2.61,-0.26 3.98,-0.8 1.37,-0.52 2.67,-1.21 3.89,-2.04l-1.01 4.75c-1.26,0.69 -2.52,1.21 -3.77,1.59 -1.24,0.37 -2.56,0.56 -3.96,0.56 -1.81,0 -3.39,-0.31 -4.74,-0.93 -1.34,-0.61 -2.45,-1.46 -3.35,-2.54 -0.89,-1.09 -1.55,-2.37 -1.99,-3.86 -0.45,-1.47 -0.67,-3.07 -0.67,-4.79 0,-1.62 0.16,-3.22 0.49,-4.8 0.33,-1.57 0.82,-3.07 1.46,-4.46 0.65,-1.41 1.45,-2.71 2.4,-3.9 0.95,-1.21 2.04,-2.24 3.27,-3.09 1.22,-0.86 2.59,-1.55 4.09,-2.04 1.51,-0.49 3.15,-0.74 4.9,-0.74 0.84,0 1.63,0.06 2.38,0.17 0.76,0.12 1.45,0.28 2.06,0.47 0.62,0.2 1.18,0.4 1.65,0.62 0.49,0.23 0.87,0.45 1.17,0.66l-1.08 4.7zm12.91 23.69c-0.48,0.16 -1.03,0.29 -1.64,0.38 -0.6,0.1 -1.21,0.14 -1.81,0.14 -1.95,0 -3.42,-0.48 -4.38,-1.46 -0.97,-0.98 -1.45,-2.29 -1.45,-3.93 0,-0.49 0.05,-1.05 0.15,-1.71 0.09,-0.66 0.24,-1.47 0.46,-2.44l4.32 -20.56 4.82 0 -4.36 20.68c-0.17,0.81 -0.3,1.43 -0.35,1.88 -0.07,0.45 -0.11,0.82 -0.11,1.14 0,0.79 0.21,1.4 0.65,1.81 0.44,0.42 1.13,0.62 2.08,0.62 0.5,0 0.94,-0.03 1.32,-0.08 0.37,-0.06 0.73,-0.15 1.05,-0.27l-0.75 3.8zm3.4 -40.17c0,0.87 -0.3,1.62 -0.89,2.23 -0.59,0.63 -1.32,0.93 -2.19,0.93 -0.85,0 -1.59,-0.3 -2.22,-0.91 -0.63,-0.61 -0.94,-1.36 -0.94,-2.25 0,-0.89 0.31,-1.61 0.94,-2.17 0.63,-0.57 1.37,-0.85 2.22,-0.85 0.85,0 1.57,0.29 2.18,0.86 0.59,0.57 0.9,1.29 0.9,2.16zm29.43 21.58c0,2.63 -0.36,5.13 -1.11,7.48 -0.75,2.37 -1.82,4.43 -3.22,6.2 -1.4,1.76 -3.1,3.17 -5.1,4.2 -2,1.04 -4.26,1.55 -6.77,1.55 -1.71,0 -3.24,-0.27 -4.61,-0.81 -1.35,-0.54 -2.51,-1.32 -3.47,-2.34 -0.96,-1.01 -1.7,-2.23 -2.21,-3.68 -0.52,-1.44 -0.76,-3.07 -0.76,-4.88 0,-2.73 0.38,-5.28 1.17,-7.64 0.78,-2.38 1.89,-4.44 3.3,-6.18 1.43,-1.75 3.13,-3.13 5.11,-4.12 1.98,-1 4.17,-1.5 6.57,-1.5 1.68,0 3.2,0.27 4.57,0.82 1.37,0.53 2.52,1.31 3.49,2.33 0.96,1.01 1.72,2.24 2.25,3.69 0.54,1.43 0.79,3.07 0.79,4.88zm-4.87 0.23c0,-1.25 -0.15,-2.37 -0.46,-3.35 -0.31,-0.97 -0.75,-1.79 -1.3,-2.47 -0.56,-0.66 -1.24,-1.18 -2.04,-1.53 -0.79,-0.36 -1.67,-0.54 -2.66,-0.54 -1.71,0 -3.24,0.44 -4.62,1.31 -1.37,0.87 -2.53,2.01 -3.47,3.44 -0.95,1.41 -1.68,3.04 -2.2,4.84 -0.5,1.81 -0.76,3.66 -0.76,5.55 0,1.2 0.15,2.29 0.44,3.27 0.3,0.97 0.73,1.8 1.28,2.49 0.55,0.69 1.23,1.21 2.03,1.58 0.8,0.37 1.7,0.55 2.71,0.55 1.73,0 3.27,-0.42 4.65,-1.28 1.36,-0.87 2.53,-2.01 3.47,-3.43 0.95,-1.43 1.68,-3.04 2.18,-4.86 0.5,-1.81 0.75,-3.67 0.75,-5.57zm-6.11 -16.88l-3.56 0 8.38 -9.48 4.67 0 -9.49 9.48zm43.59 13.08c0,0.29 -0.03,0.69 -0.1,1.19 -0.07,0.51 -0.15,1.05 -0.26,1.62 -0.11,0.59 -0.22,1.16 -0.32,1.73 -0.11,0.57 -0.21,1.06 -0.3,1.46l-3.46 16.28 -4.81 0 3.62 -17.41c0.08,-0.3 0.16,-0.66 0.24,-1.07 0.07,-0.4 0.14,-0.81 0.2,-1.21 0.06,-0.41 0.11,-0.79 0.15,-1.12 0.04,-0.34 0.06,-0.61 0.06,-0.8 0,-1.47 -0.36,-2.63 -1.06,-3.48 -0.72,-0.85 -1.77,-1.28 -3.15,-1.28 -1.28,0 -2.55,0.38 -3.8,1.13 -1.26,0.76 -2.42,1.72 -3.49,2.87 -1.06,1.16 -1.97,2.44 -2.73,3.83 -0.77,1.4 -1.29,2.74 -1.56,4.03l-3.1 14.51 -4.82 0 4.59 -21.21c0.16,-0.75 0.3,-1.53 0.46,-2.35 0.15,-0.83 0.3,-1.62 0.44,-2.39 0.13,-0.76 0.25,-1.48 0.35,-2.13 0.09,-0.65 0.16,-1.2 0.22,-1.62l4.65 0c-0.1,0.75 -0.21,1.54 -0.35,2.36 -0.14,0.83 -0.25,1.58 -0.35,2.28 -0.12,0.81 -0.24,1.6 -0.37,2.38l0.11 0c0.68,-1.06 1.42,-2.07 2.24,-3 0.82,-0.94 1.72,-1.77 2.68,-2.47 0.96,-0.71 1.97,-1.27 3.05,-1.67 1.07,-0.41 2.19,-0.61 3.37,-0.61 1.32,0 2.45,0.2 3.4,0.6 0.94,0.39 1.73,0.95 2.35,1.66 0.64,0.71 1.1,1.58 1.4,2.59 0.3,1.01 0.45,2.1 0.45,3.3zm58.53 -12.23c-0.64,-0.43 -1.37,-0.85 -2.19,-1.25 -0.82,-0.41 -1.72,-0.77 -2.71,-1.09 -0.99,-0.32 -2.06,-0.58 -3.21,-0.77 -1.15,-0.19 -2.37,-0.29 -3.66,-0.29 -2.89,0 -5.46,0.52 -7.73,1.53 -2.25,1.03 -4.17,2.43 -5.74,4.19 -1.56,1.77 -2.76,3.86 -3.59,6.26 -0.83,2.4 -1.25,4.96 -1.25,7.68 0,2.27 0.32,4.3 0.94,6.09 0.63,1.8 1.53,3.33 2.71,4.58 1.18,1.26 2.61,2.22 4.28,2.9 1.67,0.66 3.56,1 5.67,1 1.46,0 2.77,-0.12 3.93,-0.37 1.17,-0.24 2.26,-0.55 3.27,-0.94l2.5 -12.13 -9.64 0 0.96 -4.32 14.62 0 -4.09 19.17c-1.65,0.87 -3.47,1.61 -5.46,2.18 -1.99,0.58 -4.22,0.87 -6.67,0.87 -2.84,0 -5.38,-0.47 -7.62,-1.41 -2.25,-0.96 -4.15,-2.26 -5.71,-3.92 -1.55,-1.65 -2.74,-3.6 -3.56,-5.85 -0.82,-2.25 -1.24,-4.68 -1.24,-7.29 0,-2.25 0.24,-4.41 0.7,-6.5 0.47,-2.09 1.15,-4.05 2.06,-5.88 0.91,-1.82 2.04,-3.48 3.39,-4.99 1.36,-1.49 2.92,-2.78 4.7,-3.85 1.78,-1.08 3.76,-1.91 5.96,-2.49 2.2,-0.6 4.61,-0.9 7.21,-0.9 1.44,0 2.76,0.09 3.99,0.27 1.23,0.17 2.35,0.4 3.37,0.66 1.01,0.28 1.92,0.57 2.71,0.9 0.79,0.31 1.46,0.62 2.03,0.91l-0.93 5.05zm29.5 11.77c0,1.56 -0.35,2.99 -1.05,4.27 -0.69,1.29 -1.84,2.39 -3.44,3.31 -1.62,0.92 -3.73,1.64 -6.36,2.14 -2.63,0.49 -5.88,0.76 -9.74,0.78 -0.04,0.21 -0.06,0.44 -0.06,0.67 0,0.21 0,0.4 0,0.58 0,1.04 0.14,2.03 0.43,2.95 0.29,0.93 0.74,1.74 1.35,2.45 0.6,0.69 1.4,1.24 2.35,1.65 0.96,0.4 2.1,0.6 3.4,0.6 1.34,0 2.8,-0.26 4.4,-0.77 1.59,-0.51 3.12,-1.24 4.57,-2.19l-0.9 4.7c-1.07,0.62 -2.33,1.16 -3.8,1.63 -1.47,0.46 -3.11,0.69 -4.93,0.69 -2.19,0 -4.03,-0.34 -5.53,-1.01 -1.49,-0.68 -2.7,-1.58 -3.62,-2.71 -0.92,-1.14 -1.58,-2.44 -1.99,-3.92 -0.41,-1.48 -0.6,-3.03 -0.6,-4.65 0,-1.75 0.19,-3.42 0.57,-5.03 0.39,-1.62 0.93,-3.12 1.65,-4.52 0.7,-1.39 1.54,-2.66 2.53,-3.81 0.99,-1.15 2.08,-2.13 3.28,-2.94 1.19,-0.81 2.48,-1.45 3.86,-1.89 1.36,-0.45 2.79,-0.67 4.25,-0.67 1.54,0 2.89,0.2 4.05,0.61 1.17,0.4 2.15,0.96 2.93,1.67 0.79,0.7 1.38,1.52 1.79,2.45 0.4,0.93 0.61,1.92 0.61,2.96zm-4.85 0.23c0,-1.22 -0.45,-2.16 -1.35,-2.85 -0.9,-0.67 -2.09,-1.01 -3.58,-1.01 -1.18,0 -2.32,0.26 -3.42,0.78 -1.11,0.5 -2.12,1.21 -3.05,2.11 -0.93,0.9 -1.73,1.97 -2.4,3.22 -0.68,1.25 -1.17,2.6 -1.49,4.04 2.78,0 5.12,-0.14 7.05,-0.41 1.94,-0.29 3.52,-0.7 4.73,-1.24 1.22,-0.54 2.11,-1.2 2.67,-1.98 0.56,-0.78 0.84,-1.68 0.84,-2.66zm35.5 3.8c0,2.63 -0.36,5.13 -1.11,7.48 -0.75,2.37 -1.82,4.43 -3.22,6.2 -1.4,1.76 -3.1,3.17 -5.1,4.2 -2,1.04 -4.26,1.55 -6.77,1.55 -1.71,0 -3.24,-0.27 -4.61,-0.81 -1.35,-0.54 -2.51,-1.32 -3.47,-2.34 -0.96,-1.01 -1.7,-2.23 -2.21,-3.68 -0.52,-1.44 -0.76,-3.07 -0.76,-4.88 0,-2.73 0.38,-5.28 1.16,-7.64 0.79,-2.38 1.9,-4.44 3.31,-6.18 1.43,-1.75 3.13,-3.13 5.11,-4.12 1.98,-1 4.17,-1.5 6.56,-1.5 1.69,0 3.21,0.27 4.58,0.82 1.36,0.53 2.52,1.31 3.49,2.33 0.96,1.01 1.72,2.24 2.25,3.69 0.53,1.43 0.79,3.07 0.79,4.88zm-4.87 0.23c0,-1.25 -0.15,-2.37 -0.46,-3.35 -0.31,-0.97 -0.75,-1.79 -1.3,-2.47 -0.56,-0.66 -1.24,-1.18 -2.04,-1.53 -0.79,-0.36 -1.67,-0.54 -2.66,-0.54 -1.71,0 -3.24,0.44 -4.62,1.31 -1.37,0.87 -2.53,2.01 -3.47,3.44 -0.95,1.41 -1.69,3.04 -2.2,4.84 -0.51,1.81 -0.76,3.66 -0.76,5.55 0,1.2 0.15,2.29 0.44,3.27 0.3,0.97 0.73,1.8 1.28,2.49 0.55,0.69 1.23,1.21 2.03,1.58 0.8,0.37 1.7,0.55 2.71,0.55 1.73,0 3.27,-0.42 4.65,-1.28 1.36,-0.87 2.53,-2.01 3.47,-3.43 0.95,-1.43 1.67,-3.04 2.18,-4.86 0.5,-1.81 0.75,-3.67 0.75,-5.57z"/>
   <path class="fil2" d="M981.81 112.73c-0.48,2.33 -1.12,4.47 -1.91,6.43 -0.79,1.96 -1.84,3.66 -3.15,5.1 -1.3,1.44 -2.91,2.56 -4.83,3.37 -1.91,0.8 -4.24,1.2 -6.99,1.2 -1.89,0 -3.54,-0.22 -4.94,-0.66 -1.4,-0.45 -2.68,-0.99 -3.85,-1.6l0.9 -4.44c1.22,0.74 2.52,1.35 3.89,1.86 1.38,0.5 2.85,0.75 4.44,0.75 1.72,0 3.21,-0.25 4.48,-0.75 1.27,-0.51 2.36,-1.25 3.28,-2.22 0.92,-0.98 1.68,-2.17 2.29,-3.58 0.61,-1.42 1.11,-3.03 1.52,-4.85l1.02 -4.64 -0.12 0c-0.73,1.18 -1.45,2.2 -2.16,3.06 -0.71,0.86 -1.44,1.57 -2.21,2.15 -0.79,0.56 -1.6,0.99 -2.45,1.28 -0.84,0.27 -1.78,0.41 -2.81,0.41 -1.34,0 -2.55,-0.24 -3.62,-0.71 -1.08,-0.47 -2.01,-1.17 -2.78,-2.1 -0.76,-0.93 -1.35,-2.09 -1.76,-3.48 -0.42,-1.39 -0.62,-2.99 -0.62,-4.82 0,-1.72 0.18,-3.41 0.56,-5.08 0.38,-1.66 0.92,-3.23 1.63,-4.72 0.72,-1.48 1.6,-2.86 2.63,-4.11 1.04,-1.24 2.22,-2.32 3.52,-3.22 1.32,-0.92 2.76,-1.63 4.34,-2.14 1.57,-0.51 3.27,-0.77 5.07,-0.77 1.79,0 3.59,0.11 5.38,0.35 1.81,0.23 3.46,0.5 4.96,0.78l-5.71 27.15zm0.24 -23.63c-0.66,-0.16 -1.46,-0.3 -2.4,-0.41 -0.94,-0.12 -1.94,-0.18 -3,-0.18 -1.82,0 -3.48,0.42 -4.99,1.26 -1.5,0.84 -2.81,1.99 -3.9,3.43 -1.1,1.44 -1.94,3.12 -2.55,5.03 -0.61,1.92 -0.91,3.94 -0.91,6.07 0,1.03 0.09,2 0.27,2.9 0.18,0.88 0.47,1.65 0.87,2.28 0.4,0.65 0.91,1.14 1.54,1.51 0.62,0.37 1.4,0.55 2.31,0.55 1.06,0 2.04,-0.22 2.94,-0.66 0.9,-0.45 1.72,-1.04 2.47,-1.77 0.77,-0.74 1.44,-1.58 2.02,-2.51 0.6,-0.94 1.11,-1.9 1.57,-2.89 0.45,-0.99 0.84,-1.96 1.15,-2.91 0.3,-0.96 0.55,-1.82 0.72,-2.6l1.89 -9.1zm29.52 1.13l-0.12 0c-0.38,-0.24 -0.89,-0.47 -1.51,-0.69 -0.63,-0.22 -1.26,-0.33 -1.87,-0.33 -1.13,0 -2.2,0.36 -3.23,1.09 -1.02,0.72 -1.95,1.68 -2.79,2.87 -0.84,1.19 -1.58,2.54 -2.21,4.08 -0.62,1.52 -1.12,3.09 -1.46,4.69l-2.79 12.94 -4.76 0 4.18 -19.72c0.18,-0.82 0.35,-1.67 0.52,-2.56 0.18,-0.89 0.34,-1.78 0.48,-2.67 0.15,-0.88 0.28,-1.73 0.4,-2.54 0.11,-0.82 0.19,-1.56 0.25,-2.21l4.71 0c-0.06,0.58 -0.13,1.2 -0.21,1.84 -0.07,0.64 -0.15,1.28 -0.23,1.88 -0.08,0.61 -0.16,1.17 -0.23,1.65 -0.08,0.5 -0.14,0.88 -0.18,1.15l0.12 0c0.62,-1.1 1.25,-2.1 1.88,-2.99 0.65,-0.88 1.31,-1.64 2.02,-2.27 0.71,-0.63 1.46,-1.11 2.25,-1.46 0.79,-0.36 1.65,-0.53 2.59,-0.53 0.53,0 1.06,0.05 1.6,0.16 0.53,0.11 1.01,0.22 1.43,0.34l-0.84 5.28zm24.71 15.13c-0.14,0.74 -0.29,1.57 -0.44,2.49 -0.15,0.91 -0.27,1.82 -0.38,2.72 -0.11,0.9 -0.2,1.73 -0.26,2.51 -0.06,0.77 -0.1,1.37 -0.1,1.8l-4.93 0c0.02,-0.39 0.05,-0.85 0.09,-1.4 0.03,-0.53 0.08,-1.1 0.15,-1.68 0.07,-0.57 0.14,-1.15 0.21,-1.7 0.06,-0.57 0.14,-1.05 0.22,-1.46l-0.12 0c-0.6,0.95 -1.21,1.84 -1.83,2.68 -0.62,0.85 -1.3,1.59 -2.06,2.22 -0.75,0.65 -1.59,1.14 -2.53,1.52 -0.92,0.36 -2.01,0.54 -3.27,0.54 -1.29,0 -2.48,-0.23 -3.56,-0.69 -1.07,-0.47 -1.99,-1.16 -2.76,-2.08 -0.77,-0.91 -1.37,-2.07 -1.78,-3.45 -0.42,-1.38 -0.62,-2.99 -0.62,-4.83 0,-1.12 0.1,-2.39 0.34,-3.83 0.23,-1.42 0.63,-2.89 1.17,-4.38 0.55,-1.48 1.29,-2.94 2.21,-4.36 0.92,-1.43 2.06,-2.69 3.42,-3.81 1.36,-1.13 2.97,-2.02 4.83,-2.71 1.86,-0.67 4.01,-1.01 6.44,-1.01 1.54,0 3.14,0.11 4.78,0.35 1.65,0.23 3.28,0.52 4.9,0.84l-4.12 19.72zm-1.35 -16.26c-0.69,-0.16 -1.48,-0.3 -2.39,-0.41 -0.9,-0.12 -1.75,-0.18 -2.54,-0.18 -1.69,0 -3.17,0.27 -4.46,0.8 -1.28,0.53 -2.4,1.22 -3.34,2.09 -0.95,0.86 -1.76,1.85 -2.4,2.97 -0.65,1.12 -1.17,2.27 -1.55,3.44 -0.39,1.17 -0.67,2.33 -0.83,3.47 -0.16,1.13 -0.24,2.17 -0.24,3.09 0,1.11 0.1,2.1 0.28,2.98 0.2,0.89 0.5,1.63 0.91,2.25 0.42,0.62 0.95,1.1 1.6,1.44 0.65,0.33 1.42,0.5 2.3,0.5 0.97,0 1.88,-0.2 2.72,-0.59 0.84,-0.4 1.63,-0.93 2.36,-1.62 0.74,-0.67 1.41,-1.45 2,-2.34 0.61,-0.89 1.14,-1.83 1.63,-2.83 0.48,-0.99 0.9,-2.01 1.23,-3.04 0.34,-1.04 0.62,-2.04 0.83,-3l1.89 -9.02zm-4.63 -9.58l-3.56 0 8.38 -9.48 4.67 0 -9.49 9.48zm35.8 -4.49c-0.18,-0.1 -0.42,-0.19 -0.69,-0.28 -0.28,-0.09 -0.56,-0.17 -0.87,-0.25 -0.31,-0.07 -0.63,-0.13 -0.97,-0.18 -0.34,-0.05 -0.66,-0.07 -0.97,-0.07 -1.58,0 -2.81,0.51 -3.67,1.54 -0.86,1.04 -1.52,2.58 -1.96,4.63l-1.07 4.76 7.02 0 -0.96 4.03 -7.02 0 -7.6 35.53 -4.82 0 7.66 -35.53 -5.1 0 0.9 -4.03 5.11 0 1.18 -5.52c0.37,-1.7 0.88,-3.15 1.54,-4.34 0.65,-1.2 1.43,-2.18 2.35,-2.93 0.91,-0.76 1.94,-1.31 3.08,-1.66 1.16,-0.34 2.42,-0.52 3.8,-0.52 0.71,0 1.41,0.06 2.09,0.18 0.69,0.11 1.27,0.24 1.76,0.4l-0.79 4.24zm5.75 39.73c-0.49,0.16 -1.03,0.29 -1.64,0.38 -0.61,0.1 -1.21,0.14 -1.81,0.14 -1.96,0 -3.41,-0.48 -4.38,-1.46 -0.96,-0.98 -1.45,-2.29 -1.45,-3.93 0,-0.49 0.05,-1.05 0.14,-1.71 0.1,-0.66 0.26,-1.47 0.46,-2.44l4.33 -20.56 4.81 0 -4.34 20.68c-0.18,0.81 -0.3,1.43 -0.37,1.88 -0.07,0.45 -0.1,0.82 -0.1,1.14 0,0.79 0.22,1.4 0.65,1.81 0.44,0.42 1.12,0.62 2.07,0.62 0.51,0 0.94,-0.03 1.32,-0.08 0.39,-0.06 0.73,-0.15 1.06,-0.27l-0.75 3.8zm3.39 -40.17c0,0.87 -0.29,1.62 -0.88,2.23 -0.59,0.63 -1.33,0.93 -2.2,0.93 -0.84,0 -1.58,-0.3 -2.21,-0.91 -0.63,-0.61 -0.94,-1.36 -0.94,-2.25 0,-0.89 0.31,-1.61 0.94,-2.17 0.63,-0.57 1.37,-0.85 2.21,-0.85 0.85,0 1.59,0.29 2.18,0.86 0.61,0.57 0.9,1.29 0.9,2.16zm24.94 16.48c-0.81,-0.72 -1.79,-1.33 -2.94,-1.81 -1.15,-0.5 -2.42,-0.75 -3.81,-0.75 -1.34,0 -2.55,0.23 -3.61,0.7 -1.07,0.46 -2.03,1.09 -2.86,1.86 -0.84,0.77 -1.55,1.66 -2.14,2.66 -0.61,1.01 -1.1,2.05 -1.49,3.14 -0.38,1.08 -0.67,2.16 -0.85,3.23 -0.19,1.08 -0.28,2.08 -0.28,3 0,2.77 0.61,4.87 1.82,6.29 1.23,1.44 2.89,2.15 4.99,2.15 1.28,0 2.61,-0.26 3.98,-0.8 1.37,-0.52 2.67,-1.21 3.89,-2.04l-1.02 4.75c-1.25,0.69 -2.51,1.21 -3.76,1.59 -1.24,0.37 -2.56,0.56 -3.96,0.56 -1.81,0 -3.39,-0.31 -4.74,-0.93 -1.34,-0.61 -2.45,-1.46 -3.35,-2.54 -0.89,-1.09 -1.55,-2.37 -2,-3.86 -0.44,-1.47 -0.66,-3.07 -0.66,-4.79 0,-1.62 0.16,-3.22 0.49,-4.8 0.33,-1.57 0.82,-3.07 1.46,-4.46 0.65,-1.41 1.45,-2.71 2.4,-3.9 0.95,-1.21 2.04,-2.24 3.27,-3.09 1.22,-0.86 2.59,-1.55 4.09,-2.04 1.51,-0.49 3.15,-0.74 4.9,-0.74 0.84,0 1.63,0.06 2.38,0.17 0.76,0.12 1.45,0.28 2.06,0.47 0.62,0.2 1.18,0.4 1.65,0.62 0.49,0.23 0.87,0.45 1.17,0.66l-1.08 4.7zm27.09 14.29c-0.15,0.74 -0.3,1.57 -0.45,2.49 -0.14,0.91 -0.26,1.82 -0.37,2.72 -0.11,0.9 -0.2,1.73 -0.26,2.51 -0.07,0.77 -0.11,1.37 -0.11,1.8l-4.93 0c0.02,-0.39 0.05,-0.85 0.09,-1.4 0.04,-0.53 0.09,-1.1 0.16,-1.68 0.07,-0.57 0.14,-1.15 0.21,-1.7 0.06,-0.57 0.14,-1.05 0.21,-1.46l-0.11 0c-0.61,0.95 -1.21,1.84 -1.84,2.68 -0.61,0.85 -1.29,1.59 -2.05,2.22 -0.76,0.65 -1.6,1.14 -2.53,1.52 -0.92,0.36 -2.02,0.54 -3.28,0.54 -1.28,0 -2.47,-0.23 -3.55,-0.69 -1.07,-0.47 -1.99,-1.16 -2.76,-2.08 -0.78,-0.91 -1.38,-2.07 -1.79,-3.45 -0.41,-1.38 -0.62,-2.99 -0.62,-4.83 0,-1.12 0.11,-2.39 0.35,-3.83 0.23,-1.42 0.62,-2.89 1.17,-4.38 0.55,-1.48 1.28,-2.94 2.2,-4.36 0.92,-1.43 2.06,-2.69 3.43,-3.81 1.36,-1.13 2.97,-2.02 4.83,-2.71 1.85,-0.67 4,-1.01 6.44,-1.01 1.54,0 3.13,0.11 4.78,0.35 1.64,0.23 3.27,0.52 4.9,0.84l-4.12 19.72zm-1.36 -16.26c-0.68,-0.16 -1.47,-0.3 -2.38,-0.41 -0.9,-0.12 -1.75,-0.18 -2.55,-0.18 -1.68,0 -3.16,0.27 -4.45,0.8 -1.29,0.53 -2.41,1.22 -3.35,2.09 -0.95,0.86 -1.75,1.85 -2.39,2.97 -0.66,1.12 -1.17,2.27 -1.56,3.44 -0.38,1.17 -0.66,2.33 -0.82,3.47 -0.17,1.13 -0.25,2.17 -0.25,3.09 0,1.11 0.1,2.1 0.29,2.98 0.2,0.89 0.49,1.63 0.91,2.25 0.42,0.62 0.95,1.1 1.59,1.44 0.66,0.33 1.43,0.5 2.31,0.5 0.97,0 1.87,-0.2 2.71,-0.59 0.85,-0.4 1.64,-0.93 2.37,-1.62 0.73,-0.67 1.41,-1.45 2,-2.34 0.6,-0.89 1.14,-1.83 1.62,-2.83 0.49,-0.99 0.9,-2.01 1.24,-3.04 0.34,-1.04 0.61,-2.04 0.82,-3l1.89 -9.02zm49.88 16.26c-0.15,0.74 -0.29,1.57 -0.44,2.49 -0.15,0.91 -0.27,1.82 -0.38,2.72 -0.11,0.9 -0.2,1.73 -0.26,2.51 -0.07,0.77 -0.11,1.37 -0.11,1.8l-4.93 0c0.02,-0.39 0.05,-0.85 0.09,-1.4 0.04,-0.53 0.09,-1.1 0.16,-1.68 0.07,-0.57 0.14,-1.15 0.21,-1.7 0.06,-0.57 0.14,-1.05 0.22,-1.46l-0.12 0c-0.61,0.95 -1.21,1.84 -1.83,2.68 -0.62,0.85 -1.3,1.59 -2.06,2.22 -0.75,0.65 -1.6,1.14 -2.53,1.52 -0.92,0.36 -2.02,0.54 -3.27,0.54 -1.29,0 -2.48,-0.23 -3.56,-0.69 -1.07,-0.47 -1.99,-1.16 -2.76,-2.08 -0.77,-0.91 -1.38,-2.07 -1.78,-3.45 -0.42,-1.38 -0.63,-2.99 -0.63,-4.83 0,-1.12 0.11,-2.39 0.35,-3.83 0.23,-1.42 0.62,-2.89 1.17,-4.38 0.55,-1.48 1.29,-2.94 2.21,-4.36 0.92,-1.43 2.06,-2.69 3.42,-3.81 1.36,-1.13 2.97,-2.02 4.83,-2.71 1.85,-0.67 4,-1.01 6.44,-1.01 1.54,0 3.14,0.11 4.78,0.35 1.64,0.23 3.28,0.52 4.9,0.84l-4.12 19.72zm-1.35 -16.26c-0.69,-0.16 -1.48,-0.3 -2.39,-0.41 -0.9,-0.12 -1.75,-0.18 -2.54,-0.18 -1.69,0 -3.17,0.27 -4.46,0.8 -1.29,0.53 -2.41,1.22 -3.35,2.09 -0.95,0.86 -1.75,1.85 -2.39,2.97 -0.65,1.12 -1.17,2.27 -1.56,3.44 -0.38,1.17 -0.66,2.33 -0.82,3.47 -0.17,1.13 -0.24,2.17 -0.24,3.09 0,1.11 0.09,2.1 0.28,2.98 0.2,0.89 0.5,1.63 0.91,2.25 0.42,0.62 0.95,1.1 1.6,1.44 0.65,0.33 1.42,0.5 2.3,0.5 0.97,0 1.87,-0.2 2.72,-0.59 0.84,-0.4 1.63,-0.93 2.36,-1.62 0.74,-0.67 1.41,-1.45 2,-2.34 0.61,-0.89 1.14,-1.83 1.63,-2.83 0.48,-0.99 0.9,-2.01 1.23,-3.04 0.34,-1.04 0.62,-2.04 0.83,-3l1.89 -9.02zm37.23 6.46c0,1.43 -0.15,2.91 -0.45,4.46 -0.32,1.53 -0.8,3.05 -1.43,4.53 -0.63,1.49 -1.43,2.9 -2.4,4.24 -0.95,1.34 -2.07,2.51 -3.37,3.52 -1.3,1.01 -2.76,1.82 -4.41,2.41 -1.64,0.58 -3.46,0.88 -5.45,0.88 -1.14,0 -2.27,-0.11 -3.38,-0.32 -1.12,-0.2 -2.09,-0.46 -2.92,-0.75l-2.96 14.13 -4.81 0 7.25 -34.34c0.14,-0.63 0.26,-1.37 0.38,-2.24 0.11,-0.87 0.21,-1.74 0.3,-2.63 0.09,-0.88 0.16,-1.7 0.22,-2.47 0.06,-0.78 0.09,-1.38 0.09,-1.8l4.87 0c0,0.32 -0.02,0.77 -0.07,1.33 -0.05,0.56 -0.11,1.14 -0.19,1.76 -0.08,0.6 -0.16,1.19 -0.24,1.77 -0.07,0.56 -0.14,1.03 -0.19,1.38l0.11 0c1.37,-2.34 2.92,-4.09 4.64,-5.24 1.72,-1.15 3.6,-1.73 5.63,-1.73 1.35,0 2.57,0.23 3.65,0.7 1.08,0.46 2.01,1.16 2.78,2.09 0.76,0.93 1.34,2.09 1.75,3.48 0.4,1.39 0.6,3 0.6,4.84zm-4.87 0.2c0,-1.04 -0.09,-2.01 -0.28,-2.9 -0.17,-0.88 -0.48,-1.65 -0.91,-2.29 -0.42,-0.64 -0.97,-1.14 -1.63,-1.5 -0.67,-0.38 -1.49,-0.56 -2.46,-0.56 -1,0 -1.95,0.21 -2.83,0.63 -0.87,0.41 -1.69,0.97 -2.44,1.66 -0.75,0.7 -1.45,1.51 -2.06,2.43 -0.63,0.92 -1.17,1.87 -1.66,2.86 -0.48,0.98 -0.89,1.97 -1.23,2.97 -0.34,0.99 -0.6,1.93 -0.76,2.8l-1.84 8.61c0.35,0.15 0.77,0.29 1.25,0.42 0.49,0.13 0.99,0.24 1.51,0.34 0.52,0.09 1.05,0.16 1.6,0.22 0.53,0.06 1.04,0.09 1.5,0.09 1.34,0 2.57,-0.22 3.7,-0.66 1.14,-0.45 2.15,-1.05 3.05,-1.81 0.9,-0.78 1.69,-1.67 2.37,-2.71 0.7,-1.03 1.27,-2.13 1.74,-3.3 0.46,-1.17 0.81,-2.38 1.03,-3.63 0.24,-1.24 0.35,-2.47 0.35,-3.67zm19.21 19c-0.49,0.16 -1.03,0.29 -1.64,0.38 -0.61,0.1 -1.21,0.14 -1.82,0.14 -1.95,0 -3.41,-0.48 -4.37,-1.46 -0.97,-0.98 -1.46,-2.29 -1.46,-3.93 0,-0.49 0.05,-1.05 0.15,-1.71 0.1,-0.66 0.25,-1.47 0.47,-2.44l7.42 -34.86 4.81 0 -7.45 34.98c-0.17,0.81 -0.3,1.43 -0.36,1.88 -0.07,0.45 -0.11,0.82 -0.11,1.14 0,0.79 0.22,1.4 0.66,1.81 0.43,0.42 1.12,0.62 2.08,0.62 0.5,0 0.93,-0.03 1.31,-0.08 0.38,-0.06 0.73,-0.15 1.06,-0.27l-0.75 3.8zm15.37 0c-0.48,0.16 -1.03,0.29 -1.64,0.38 -0.6,0.1 -1.21,0.14 -1.81,0.14 -1.95,0 -3.42,-0.48 -4.38,-1.46 -0.97,-0.98 -1.45,-2.29 -1.45,-3.93 0,-0.49 0.05,-1.05 0.15,-1.71 0.1,-0.66 0.24,-1.47 0.46,-2.44l4.32 -20.56 4.82 0 -4.36 20.68c-0.16,0.81 -0.29,1.43 -0.35,1.88 -0.07,0.45 -0.11,0.82 -0.11,1.14 0,0.79 0.22,1.4 0.65,1.81 0.44,0.42 1.13,0.62 2.08,0.62 0.51,0 0.94,-0.03 1.32,-0.08 0.37,-0.06 0.73,-0.15 1.06,-0.27l-0.76 3.8zm3.4 -40.17c0,0.87 -0.3,1.62 -0.89,2.23 -0.58,0.63 -1.32,0.93 -2.19,0.93 -0.85,0 -1.59,-0.3 -2.22,-0.91 -0.63,-0.61 -0.94,-1.36 -0.94,-2.25 0,-0.89 0.31,-1.61 0.94,-2.17 0.63,-0.57 1.37,-0.85 2.22,-0.85 0.85,0 1.57,0.29 2.18,0.86 0.59,0.57 0.9,1.29 0.9,2.16zm24.97 16.48c-0.81,-0.72 -1.79,-1.33 -2.94,-1.81 -1.15,-0.5 -2.43,-0.75 -3.81,-0.75 -1.34,0 -2.55,0.23 -3.62,0.7 -1.07,0.46 -2.03,1.09 -2.86,1.86 -0.83,0.77 -1.54,1.66 -2.14,2.66 -0.6,1.01 -1.09,2.05 -1.48,3.14 -0.39,1.08 -0.67,2.16 -0.85,3.23 -0.19,1.08 -0.28,2.08 -0.28,3 0,2.77 0.6,4.87 1.82,6.29 1.23,1.44 2.88,2.15 4.99,2.15 1.28,0 2.61,-0.26 3.98,-0.8 1.37,-0.52 2.67,-1.21 3.88,-2.04l-1.01 4.75c-1.25,0.69 -2.51,1.21 -3.76,1.59 -1.25,0.37 -2.56,0.56 -3.96,0.56 -1.81,0 -3.4,-0.31 -4.74,-0.93 -1.34,-0.61 -2.46,-1.46 -3.35,-2.54 -0.89,-1.09 -1.55,-2.37 -2,-3.86 -0.44,-1.47 -0.66,-3.07 -0.66,-4.79 0,-1.62 0.16,-3.22 0.48,-4.8 0.34,-1.57 0.83,-3.07 1.47,-4.46 0.65,-1.41 1.44,-2.71 2.39,-3.9 0.96,-1.21 2.04,-2.24 3.27,-3.09 1.23,-0.86 2.6,-1.55 4.1,-2.04 1.51,-0.49 3.15,-0.74 4.9,-0.74 0.83,0 1.63,0.06 2.38,0.17 0.76,0.12 1.44,0.28 2.06,0.47 0.62,0.2 1.18,0.4 1.65,0.62 0.49,0.23 0.87,0.45 1.17,0.66l-1.08 4.7zm27.09 14.29c-0.15,0.74 -0.3,1.57 -0.45,2.49 -0.15,0.91 -0.26,1.82 -0.37,2.72 -0.11,0.9 -0.2,1.73 -0.26,2.51 -0.07,0.77 -0.11,1.37 -0.11,1.8l-4.93 0c0.02,-0.39 0.05,-0.85 0.09,-1.4 0.04,-0.53 0.09,-1.1 0.16,-1.68 0.07,-0.57 0.14,-1.15 0.2,-1.7 0.06,-0.57 0.14,-1.05 0.22,-1.46l-0.12 0c-0.6,0.95 -1.2,1.84 -1.83,2.68 -0.61,0.85 -1.3,1.59 -2.06,2.22 -0.75,0.65 -1.59,1.14 -2.52,1.52 -0.92,0.36 -2.02,0.54 -3.28,0.54 -1.29,0 -2.47,-0.23 -3.55,-0.69 -1.07,-0.47 -1.99,-1.16 -2.77,-2.08 -0.77,-0.91 -1.37,-2.07 -1.78,-3.45 -0.41,-1.38 -0.62,-2.99 -0.62,-4.83 0,-1.12 0.11,-2.39 0.35,-3.83 0.22,-1.42 0.62,-2.89 1.16,-4.38 0.56,-1.48 1.29,-2.94 2.21,-4.36 0.92,-1.43 2.06,-2.69 3.43,-3.81 1.35,-1.13 2.97,-2.02 4.83,-2.71 1.85,-0.67 4,-1.01 6.43,-1.01 1.55,0 3.14,0.11 4.79,0.35 1.64,0.23 3.27,0.52 4.9,0.84l-4.12 19.72zm-1.36 -16.26c-0.68,-0.16 -1.47,-0.3 -2.38,-0.41 -0.91,-0.12 -1.76,-0.18 -2.55,-0.18 -1.68,0 -3.17,0.27 -4.45,0.8 -1.29,0.53 -2.41,1.22 -3.35,2.09 -0.95,0.86 -1.75,1.85 -2.4,2.97 -0.65,1.12 -1.16,2.27 -1.55,3.44 -0.39,1.17 -0.66,2.33 -0.82,3.47 -0.17,1.13 -0.25,2.17 -0.25,3.09 0,1.11 0.1,2.1 0.29,2.98 0.2,0.89 0.49,1.63 0.91,2.25 0.41,0.62 0.95,1.1 1.59,1.44 0.65,0.33 1.43,0.5 2.31,0.5 0.97,0 1.87,-0.2 2.71,-0.59 0.84,-0.4 1.63,-0.93 2.37,-1.62 0.73,-0.67 1.4,-1.45 2,-2.34 0.6,-0.89 1.14,-1.83 1.62,-2.83 0.49,-0.99 0.9,-2.01 1.24,-3.04 0.33,-1.04 0.61,-2.04 0.82,-3l1.89 -9.02zm33.44 16.64c-0.13,0.62 -0.26,1.37 -0.39,2.24 -0.13,0.87 -0.24,1.74 -0.34,2.62 -0.09,0.88 -0.18,1.7 -0.24,2.48 -0.06,0.77 -0.1,1.37 -0.1,1.8l-4.93 0c0,-0.33 0.02,-0.77 0.07,-1.32 0.04,-0.55 0.1,-1.13 0.17,-1.73 0.07,-0.59 0.14,-1.17 0.22,-1.72 0.08,-0.56 0.15,-1 0.21,-1.35l-0.12 0c-0.69,1.12 -1.4,2.11 -2.09,2.97 -0.69,0.86 -1.43,1.57 -2.21,2.15 -0.77,0.57 -1.59,1 -2.46,1.29 -0.87,0.29 -1.82,0.43 -2.87,0.43 -1.35,0 -2.58,-0.24 -3.66,-0.72 -1.08,-0.49 -2.01,-1.2 -2.77,-2.13 -0.76,-0.94 -1.34,-2.1 -1.75,-3.48 -0.41,-1.39 -0.61,-2.97 -0.61,-4.78 0,-1.42 0.15,-2.92 0.45,-4.46 0.3,-1.55 0.76,-3.07 1.4,-4.56 0.62,-1.48 1.42,-2.9 2.38,-4.23 0.97,-1.33 2.12,-2.51 3.46,-3.51 1.33,-1.01 2.86,-1.8 4.58,-2.39 1.72,-0.59 3.65,-0.89 5.77,-0.89 1.08,0 2.09,0.07 3.01,0.22 0.93,0.14 1.74,0.29 2.42,0.45l3.01 -14.21 4.7 0 -7.31 34.83zm-1.24 -16.53c-0.75,-0.21 -1.51,-0.38 -2.31,-0.51 -0.8,-0.13 -1.66,-0.19 -2.56,-0.19 -1.69,0 -3.17,0.26 -4.46,0.79 -1.29,0.52 -2.4,1.21 -3.36,2.08 -0.97,0.88 -1.77,1.87 -2.41,2.98 -0.65,1.11 -1.17,2.25 -1.57,3.42 -0.39,1.17 -0.68,2.32 -0.84,3.46 -0.16,1.12 -0.24,2.14 -0.24,3.06 0,1.07 0.08,2.06 0.27,2.95 0.18,0.89 0.48,1.65 0.89,2.29 0.42,0.64 0.96,1.13 1.62,1.48 0.65,0.34 1.44,0.52 2.37,0.52 0.97,0 1.88,-0.2 2.72,-0.6 0.84,-0.41 1.63,-0.96 2.36,-1.65 0.74,-0.71 1.4,-1.51 2,-2.42 0.61,-0.9 1.14,-1.87 1.63,-2.9 0.48,-1.02 0.89,-2.06 1.23,-3.12 0.34,-1.05 0.62,-2.06 0.83,-3.03l1.83 -8.61zm36.83 6.96c0,2.63 -0.37,5.13 -1.11,7.48 -0.75,2.37 -1.82,4.43 -3.23,6.2 -1.39,1.76 -3.1,3.17 -5.1,4.2 -2,1.04 -4.25,1.55 -6.77,1.55 -1.7,0 -3.24,-0.27 -4.6,-0.81 -1.36,-0.54 -2.52,-1.32 -3.48,-2.34 -0.96,-1.01 -1.69,-2.23 -2.21,-3.68 -0.51,-1.44 -0.76,-3.07 -0.76,-4.88 0,-2.73 0.39,-5.28 1.17,-7.64 0.78,-2.38 1.89,-4.44 3.31,-6.18 1.42,-1.75 3.13,-3.13 5.11,-4.12 1.98,-1 4.16,-1.5 6.56,-1.5 1.68,0 3.21,0.27 4.57,0.82 1.37,0.53 2.53,1.31 3.5,2.33 0.96,1.01 1.71,2.24 2.25,3.69 0.53,1.43 0.79,3.07 0.79,4.88zm-4.87 0.23c0,-1.25 -0.15,-2.37 -0.47,-3.35 -0.31,-0.97 -0.74,-1.79 -1.3,-2.47 -0.56,-0.66 -1.23,-1.18 -2.03,-1.53 -0.8,-0.36 -1.68,-0.54 -2.67,-0.54 -1.7,0 -3.24,0.44 -4.61,1.31 -1.38,0.87 -2.54,2.01 -3.48,3.44 -0.95,1.41 -1.68,3.04 -2.19,4.84 -0.51,1.81 -0.77,3.66 -0.77,5.55 0,1.2 0.15,2.29 0.45,3.27 0.3,0.97 0.72,1.8 1.28,2.49 0.55,0.69 1.22,1.21 2.02,1.58 0.81,0.37 1.71,0.55 2.72,0.55 1.72,0 3.26,-0.42 4.64,-1.28 1.37,-0.87 2.54,-2.01 3.48,-3.43 0.95,-1.43 1.67,-3.04 2.17,-4.86 0.51,-1.81 0.76,-3.67 0.76,-5.57z"/>
   <path class="fil2" d="M1387.8 90.4c-0.87,-0.56 -1.84,-1.02 -2.93,-1.36 -1.08,-0.35 -2.17,-0.53 -3.24,-0.53 -1.83,0 -3.23,0.42 -4.22,1.25 -1,0.83 -1.5,1.93 -1.5,3.31 0,0.55 0.09,1.07 0.28,1.53 0.18,0.47 0.46,0.9 0.81,1.32 0.36,0.42 0.81,0.82 1.36,1.21 0.55,0.38 1.19,0.8 1.9,1.24 2.17,1.26 3.73,2.55 4.68,3.88 0.96,1.32 1.44,2.82 1.44,4.48 0,1.12 -0.21,2.22 -0.63,3.29 -0.41,1.08 -1.07,2.02 -1.98,2.84 -0.91,0.82 -2.09,1.48 -3.52,1.99 -1.45,0.5 -3.2,0.75 -5.27,0.75 -0.57,0 -1.21,-0.04 -1.91,-0.12 -0.7,-0.07 -1.39,-0.19 -2.11,-0.34 -0.7,-0.15 -1.37,-0.34 -2.03,-0.57 -0.64,-0.22 -1.2,-0.47 -1.69,-0.76l0.96 -4.52c0.39,0.26 0.86,0.53 1.44,0.81 0.56,0.26 1.18,0.5 1.85,0.72 0.66,0.21 1.36,0.39 2.09,0.52 0.72,0.13 1.44,0.2 2.16,0.2 1.93,0 3.38,-0.38 4.33,-1.16 0.96,-0.77 1.44,-1.85 1.44,-3.21 0,-0.51 -0.07,-0.97 -0.22,-1.4 -0.14,-0.43 -0.4,-0.85 -0.76,-1.28 -0.37,-0.42 -0.85,-0.85 -1.46,-1.28 -0.59,-0.44 -1.36,-0.92 -2.26,-1.47 -1.98,-1.2 -3.43,-2.45 -4.36,-3.76 -0.94,-1.3 -1.41,-2.77 -1.41,-4.42 0,-1.19 0.22,-2.34 0.67,-3.44 0.44,-1.09 1.1,-2.06 1.99,-2.89 0.88,-0.84 1.98,-1.52 3.31,-2.02 1.34,-0.51 2.89,-0.76 4.67,-0.76 1.4,0 2.72,0.13 3.96,0.41 1.25,0.27 2.31,0.61 3.18,1.04l-1.02 4.5zm45.01 14.96c-0.15,0.74 -0.3,1.57 -0.44,2.49 -0.15,0.91 -0.27,1.82 -0.38,2.72 -0.11,0.9 -0.2,1.73 -0.26,2.51 -0.07,0.77 -0.11,1.37 -0.11,1.8l-4.93 0c0.02,-0.39 0.05,-0.85 0.09,-1.4 0.04,-0.53 0.09,-1.1 0.16,-1.68 0.07,-0.57 0.14,-1.15 0.21,-1.7 0.06,-0.57 0.14,-1.05 0.22,-1.46l-0.12 0c-0.61,0.95 -1.21,1.84 -1.83,2.68 -0.62,0.85 -1.3,1.59 -2.06,2.22 -0.76,0.65 -1.6,1.14 -2.53,1.52 -0.92,0.36 -2.02,0.54 -3.28,0.54 -1.28,0 -2.47,-0.23 -3.55,-0.69 -1.07,-0.47 -1.99,-1.16 -2.76,-2.08 -0.78,-0.91 -1.38,-2.07 -1.78,-3.45 -0.42,-1.38 -0.63,-2.99 -0.63,-4.83 0,-1.12 0.11,-2.39 0.35,-3.83 0.23,-1.42 0.62,-2.89 1.17,-4.38 0.55,-1.48 1.28,-2.94 2.2,-4.36 0.92,-1.43 2.06,-2.69 3.43,-3.81 1.36,-1.13 2.97,-2.02 4.83,-2.71 1.85,-0.67 4,-1.01 6.44,-1.01 1.54,0 3.14,0.11 4.78,0.35 1.64,0.23 3.28,0.52 4.9,0.84l-4.12 19.72zm-1.36 -16.26c-0.68,-0.16 -1.47,-0.3 -2.38,-0.41 -0.9,-0.12 -1.75,-0.18 -2.55,-0.18 -1.68,0 -3.16,0.27 -4.45,0.8 -1.29,0.53 -2.41,1.22 -3.35,2.09 -0.95,0.86 -1.75,1.85 -2.39,2.97 -0.66,1.12 -1.17,2.27 -1.56,3.44 -0.38,1.17 -0.66,2.33 -0.82,3.47 -0.17,1.13 -0.25,2.17 -0.25,3.09 0,1.11 0.1,2.1 0.29,2.98 0.2,0.89 0.5,1.63 0.91,2.25 0.42,0.62 0.95,1.1 1.6,1.44 0.65,0.33 1.42,0.5 2.3,0.5 0.97,0 1.87,-0.2 2.71,-0.59 0.85,-0.4 1.64,-0.93 2.37,-1.62 0.73,-0.67 1.41,-1.45 2,-2.34 0.6,-0.89 1.14,-1.83 1.62,-2.83 0.49,-0.99 0.91,-2.01 1.24,-3.04 0.34,-1.04 0.62,-2.04 0.82,-3l1.89 -9.02zm54.7 -11.41l-16.03 0 -3.02 14.19 14.85 0 -0.96 4.41 -14.85 0 -3.04 14.18 17.05 0 -0.88 4.41 -22.03 0 8.78 -41.59 21.09 0 -0.96 4.4zm19.61 12.71c-0.87,-0.56 -1.84,-1.02 -2.93,-1.36 -1.08,-0.35 -2.17,-0.53 -3.25,-0.53 -1.82,0 -3.23,0.42 -4.22,1.25 -1,0.83 -1.49,1.93 -1.49,3.31 0,0.55 0.09,1.07 0.27,1.53 0.18,0.47 0.46,0.9 0.82,1.32 0.35,0.42 0.81,0.82 1.35,1.21 0.56,0.38 1.19,0.8 1.9,1.24 2.17,1.26 3.74,2.55 4.69,3.88 0.96,1.32 1.43,2.82 1.43,4.48 0,1.12 -0.21,2.22 -0.62,3.29 -0.42,1.08 -1.07,2.02 -1.98,2.84 -0.91,0.82 -2.09,1.48 -3.53,1.99 -1.44,0.5 -3.19,0.75 -5.26,0.75 -0.58,0 -1.22,-0.04 -1.91,-0.12 -0.71,-0.07 -1.4,-0.19 -2.11,-0.34 -0.71,-0.15 -1.38,-0.34 -2.03,-0.57 -0.65,-0.22 -1.21,-0.47 -1.7,-0.76l0.97 -4.52c0.38,0.26 0.86,0.53 1.43,0.81 0.57,0.26 1.19,0.5 1.85,0.72 0.67,0.21 1.37,0.39 2.09,0.52 0.72,0.13 1.45,0.2 2.16,0.2 1.94,0 3.39,-0.38 4.34,-1.16 0.96,-0.77 1.43,-1.85 1.43,-3.21 0,-0.51 -0.07,-0.97 -0.22,-1.4 -0.14,-0.43 -0.39,-0.85 -0.76,-1.28 -0.36,-0.42 -0.85,-0.85 -1.45,-1.28 -0.6,-0.44 -1.36,-0.92 -2.26,-1.47 -1.98,-1.2 -3.44,-2.45 -4.37,-3.76 -0.94,-1.3 -1.4,-2.77 -1.4,-4.42 0,-1.19 0.22,-2.34 0.66,-3.44 0.45,-1.09 1.11,-2.06 1.99,-2.89 0.88,-0.84 1.98,-1.52 3.32,-2.02 1.33,-0.51 2.89,-0.76 4.67,-0.76 1.4,0 2.71,0.13 3.96,0.41 1.25,0.27 2.31,0.61 3.18,1.04l-1.02 4.5zm22.45 -1.19l-7.48 0 -3.34 15.75c-0.12,0.6 -0.24,1.25 -0.35,1.94 -0.11,0.7 -0.17,1.26 -0.17,1.68 0,0.99 0.21,1.7 0.65,2.14 0.44,0.44 1.13,0.65 2.07,0.65 0.24,0 0.53,-0.04 0.9,-0.11 0.37,-0.08 0.74,-0.18 1.13,-0.29 0.39,-0.12 0.77,-0.25 1.15,-0.4 0.37,-0.15 0.71,-0.28 1,-0.39l-0.9 4.17c-0.68,0.3 -1.45,0.54 -2.3,0.75 -0.86,0.19 -1.68,0.3 -2.46,0.3 -1.1,0 -2.04,-0.14 -2.81,-0.42 -0.77,-0.28 -1.4,-0.69 -1.9,-1.2 -0.49,-0.53 -0.85,-1.16 -1.07,-1.9 -0.23,-0.74 -0.34,-1.59 -0.34,-2.52 0,-0.55 0.05,-1.2 0.16,-1.95 0.11,-0.75 0.24,-1.42 0.4,-2.05l3.42 -16.15 -4.94 0 0.91 -4.03 4.87 0 1.53 -7.25c0.08,-0.04 0.38,-0.14 0.89,-0.28 0.52,-0.15 1.07,-0.31 1.69,-0.49 0.6,-0.19 1.16,-0.36 1.68,-0.51 0.5,-0.16 0.79,-0.24 0.85,-0.26l-1.83 8.79 7.48 0 -0.89 4.03zm26.16 17.22c-0.18,0.77 -0.34,1.55 -0.49,2.36 -0.13,0.81 -0.27,1.59 -0.41,2.35 -0.14,0.75 -0.26,1.45 -0.35,2.11 -0.1,0.66 -0.18,1.2 -0.24,1.63l-4.64 0c0.1,-0.75 0.21,-1.55 0.34,-2.37 0.13,-0.82 0.25,-1.57 0.36,-2.27 0.13,-0.82 0.26,-1.61 0.38,-2.38l-0.12 0c-0.67,1.06 -1.42,2.06 -2.25,3 -0.82,0.94 -1.71,1.76 -2.66,2.46 -0.96,0.72 -1.98,1.27 -3.05,1.68 -1.07,0.4 -2.19,0.6 -3.35,0.6 -1.27,0 -2.39,-0.2 -3.35,-0.59 -0.96,-0.4 -1.75,-0.95 -2.4,-1.67 -0.63,-0.72 -1.11,-1.58 -1.43,-2.58 -0.32,-1.01 -0.48,-2.13 -0.48,-3.37 0,-0.24 0.04,-0.62 0.12,-1.12 0.08,-0.51 0.16,-1.05 0.26,-1.63 0.1,-0.58 0.21,-1.16 0.33,-1.73 0.13,-0.57 0.23,-1.05 0.31,-1.46l3.45 -16.27 4.82 0 -3.68 17.4c-0.08,0.31 -0.16,0.67 -0.24,1.07 -0.08,0.41 -0.15,0.81 -0.22,1.22 -0.07,0.41 -0.12,0.78 -0.16,1.12 -0.04,0.33 -0.06,0.6 -0.06,0.8 0,1.45 0.36,2.6 1.06,3.47 0.7,0.86 1.76,1.28 3.18,1.28 0.85,0 1.7,-0.18 2.55,-0.52 0.86,-0.35 1.68,-0.81 2.48,-1.41 0.8,-0.58 1.56,-1.28 2.28,-2.06 0.71,-0.78 1.36,-1.61 1.94,-2.49 0.58,-0.88 1.08,-1.78 1.48,-2.72 0.41,-0.92 0.71,-1.81 0.9,-2.66l3.1 -14.5 4.79 0 -4.55 21.25zm32.31 -0.69c-0.13,0.62 -0.26,1.37 -0.39,2.24 -0.13,0.87 -0.24,1.74 -0.34,2.62 -0.09,0.88 -0.18,1.7 -0.24,2.48 -0.06,0.77 -0.1,1.37 -0.1,1.8l-4.94 0c0,-0.33 0.03,-0.77 0.08,-1.32 0.04,-0.55 0.1,-1.13 0.17,-1.73 0.07,-0.59 0.14,-1.17 0.22,-1.72 0.08,-0.56 0.15,-1 0.21,-1.35l-0.12 0c-0.69,1.12 -1.4,2.11 -2.09,2.97 -0.69,0.86 -1.44,1.57 -2.21,2.15 -0.77,0.57 -1.59,1 -2.46,1.29 -0.87,0.29 -1.82,0.43 -2.87,0.43 -1.35,0 -2.58,-0.24 -3.66,-0.72 -1.08,-0.49 -2.01,-1.2 -2.77,-2.13 -0.76,-0.94 -1.35,-2.1 -1.75,-3.48 -0.41,-1.39 -0.61,-2.97 -0.61,-4.78 0,-1.42 0.15,-2.92 0.45,-4.46 0.3,-1.55 0.76,-3.07 1.4,-4.56 0.62,-1.48 1.42,-2.9 2.38,-4.23 0.97,-1.33 2.12,-2.51 3.46,-3.51 1.33,-1.01 2.86,-1.8 4.58,-2.39 1.72,-0.59 3.64,-0.89 5.77,-0.89 1.08,0 2.09,0.07 3.01,0.22 0.93,0.14 1.74,0.29 2.42,0.45l3.01 -14.21 4.7 0 -7.31 34.83zm-1.24 -16.53c-0.75,-0.21 -1.51,-0.38 -2.31,-0.51 -0.8,-0.13 -1.66,-0.19 -2.56,-0.19 -1.69,0 -3.17,0.26 -4.46,0.79 -1.29,0.52 -2.41,1.21 -3.37,2.08 -0.96,0.88 -1.76,1.87 -2.4,2.98 -0.65,1.11 -1.17,2.25 -1.57,3.42 -0.39,1.17 -0.68,2.32 -0.84,3.46 -0.17,1.12 -0.24,2.14 -0.24,3.06 0,1.07 0.08,2.06 0.27,2.95 0.18,0.89 0.48,1.65 0.89,2.29 0.42,0.64 0.96,1.13 1.62,1.48 0.65,0.34 1.44,0.52 2.37,0.52 0.97,0 1.87,-0.2 2.72,-0.6 0.84,-0.41 1.63,-0.96 2.36,-1.65 0.73,-0.71 1.4,-1.51 2,-2.42 0.61,-0.9 1.14,-1.87 1.63,-2.9 0.48,-1.02 0.89,-2.06 1.23,-3.12 0.34,-1.05 0.62,-2.06 0.83,-3.03l1.83 -8.61zm19.37 25.55c-0.48,0.16 -1.03,0.29 -1.64,0.38 -0.61,0.1 -1.21,0.14 -1.81,0.14 -1.95,0 -3.42,-0.48 -4.38,-1.46 -0.97,-0.98 -1.45,-2.29 -1.45,-3.93 0,-0.49 0.04,-1.05 0.14,-1.71 0.1,-0.66 0.25,-1.47 0.47,-2.44l4.32 -20.56 4.82 0 -4.36 20.68c-0.17,0.81 -0.3,1.43 -0.35,1.88 -0.07,0.45 -0.11,0.82 -0.11,1.14 0,0.79 0.21,1.4 0.65,1.81 0.43,0.42 1.13,0.62 2.08,0.62 0.5,0 0.94,-0.03 1.32,-0.08 0.37,-0.06 0.73,-0.15 1.05,-0.27l-0.75 3.8zm3.4 -40.17c0,0.87 -0.3,1.62 -0.89,2.23 -0.59,0.63 -1.32,0.93 -2.19,0.93 -0.85,0 -1.59,-0.3 -2.22,-0.91 -0.63,-0.61 -0.94,-1.36 -0.94,-2.25 0,-0.89 0.31,-1.61 0.94,-2.17 0.63,-0.57 1.37,-0.85 2.22,-0.85 0.85,0 1.57,0.29 2.18,0.86 0.59,0.57 0.9,1.29 0.9,2.16zm29.43 21.58c0,2.63 -0.36,5.13 -1.11,7.48 -0.75,2.37 -1.82,4.43 -3.22,6.2 -1.4,1.76 -3.1,3.17 -5.1,4.2 -2,1.04 -4.26,1.55 -6.77,1.55 -1.71,0 -3.24,-0.27 -4.61,-0.81 -1.35,-0.54 -2.51,-1.32 -3.47,-2.34 -0.96,-1.01 -1.7,-2.23 -2.21,-3.68 -0.52,-1.44 -0.76,-3.07 -0.76,-4.88 0,-2.73 0.38,-5.28 1.16,-7.64 0.79,-2.38 1.9,-4.44 3.31,-6.18 1.43,-1.75 3.13,-3.13 5.11,-4.12 1.98,-1 4.17,-1.5 6.56,-1.5 1.69,0 3.21,0.27 4.58,0.82 1.36,0.53 2.52,1.31 3.49,2.33 0.96,1.01 1.72,2.24 2.25,3.69 0.53,1.43 0.79,3.07 0.79,4.88zm-4.87 0.23c0,-1.25 -0.15,-2.37 -0.46,-3.35 -0.31,-0.97 -0.75,-1.79 -1.3,-2.47 -0.56,-0.66 -1.24,-1.18 -2.04,-1.53 -0.79,-0.36 -1.67,-0.54 -2.66,-0.54 -1.71,0 -3.24,0.44 -4.62,1.31 -1.37,0.87 -2.53,2.01 -3.47,3.44 -0.95,1.41 -1.69,3.04 -2.2,4.84 -0.51,1.81 -0.76,3.66 -0.76,5.55 0,1.2 0.15,2.29 0.44,3.27 0.3,0.97 0.73,1.8 1.28,2.49 0.55,0.69 1.23,1.21 2.03,1.58 0.8,0.37 1.7,0.55 2.71,0.55 1.73,0 3.27,-0.42 4.65,-1.28 1.36,-0.87 2.53,-2.01 3.47,-3.43 0.95,-1.43 1.67,-3.04 2.18,-4.86 0.5,-1.81 0.75,-3.67 0.75,-5.57zm28.17 -6c-0.87,-0.56 -1.84,-1.02 -2.93,-1.36 -1.08,-0.35 -2.17,-0.53 -3.25,-0.53 -1.82,0 -3.23,0.42 -4.22,1.25 -1,0.83 -1.49,1.93 -1.49,3.31 0,0.55 0.09,1.07 0.27,1.53 0.18,0.47 0.46,0.9 0.82,1.32 0.35,0.42 0.81,0.82 1.35,1.21 0.56,0.38 1.19,0.8 1.9,1.24 2.17,1.26 3.74,2.55 4.69,3.88 0.96,1.32 1.43,2.82 1.43,4.48 0,1.12 -0.21,2.22 -0.62,3.29 -0.42,1.08 -1.07,2.02 -1.98,2.84 -0.91,0.82 -2.09,1.48 -3.53,1.99 -1.44,0.5 -3.19,0.75 -5.26,0.75 -0.58,0 -1.22,-0.04 -1.91,-0.12 -0.71,-0.07 -1.4,-0.19 -2.11,-0.34 -0.71,-0.15 -1.38,-0.34 -2.03,-0.57 -0.65,-0.22 -1.21,-0.47 -1.7,-0.76l0.97 -4.52c0.38,0.26 0.86,0.53 1.43,0.81 0.57,0.26 1.19,0.5 1.85,0.72 0.67,0.21 1.37,0.39 2.09,0.52 0.72,0.13 1.45,0.2 2.16,0.2 1.94,0 3.39,-0.38 4.34,-1.16 0.96,-0.77 1.43,-1.85 1.43,-3.21 0,-0.51 -0.07,-0.97 -0.22,-1.4 -0.14,-0.43 -0.39,-0.85 -0.76,-1.28 -0.36,-0.42 -0.85,-0.85 -1.45,-1.28 -0.6,-0.44 -1.36,-0.92 -2.26,-1.47 -1.98,-1.2 -3.44,-2.45 -4.37,-3.76 -0.94,-1.3 -1.4,-2.77 -1.4,-4.42 0,-1.19 0.22,-2.34 0.66,-3.44 0.45,-1.09 1.11,-2.06 1.99,-2.89 0.88,-0.84 1.98,-1.52 3.32,-2.02 1.33,-0.51 2.89,-0.76 4.67,-0.76 1.4,0 2.71,0.13 3.96,0.41 1.25,0.27 2.31,0.61 3.18,1.04l-1.02 4.5zm47.74 24.48l-1.89 -11.63 -17.64 0 -6.73 11.63 -5.74 0 24.77 -41.59 5.11 0 7.25 41.59 -5.13 0zm-5.34 -33.73c-0.02,-0.2 -0.04,-0.42 -0.05,-0.67 -0.01,-0.25 -0.01,-0.5 -0.01,-0.76 0,-0.26 0,-0.52 0,-0.75 0,-0.25 0,-0.47 0,-0.63l-0.12 0c-0.06,0.16 -0.13,0.37 -0.22,0.62 -0.1,0.24 -0.21,0.48 -0.33,0.75 -0.11,0.26 -0.23,0.52 -0.36,0.77 -0.13,0.25 -0.24,0.47 -0.33,0.67l-10.27 17.69 14.35 0 -2.66 -17.69zm61.84 11.51c0,0.25 -0.04,0.64 -0.1,1.15 -0.07,0.51 -0.16,1.06 -0.27,1.63 -0.11,0.59 -0.2,1.16 -0.31,1.73 -0.11,0.57 -0.2,1.05 -0.28,1.43l-3.51 16.28 -4.76 0 3.63 -17.41c0.07,-0.32 0.15,-0.69 0.23,-1.09 0.08,-0.41 0.15,-0.82 0.22,-1.21 0.07,-0.4 0.12,-0.77 0.16,-1.1 0.04,-0.34 0.06,-0.61 0.06,-0.8 0,-1.53 -0.33,-2.71 -0.99,-3.53 -0.65,-0.82 -1.68,-1.23 -3.07,-1.23 -0.74,0 -1.5,0.17 -2.28,0.51 -0.79,0.34 -1.55,0.8 -2.29,1.38 -0.75,0.58 -1.46,1.25 -2.15,2.02 -0.69,0.78 -1.31,1.61 -1.88,2.49 -0.58,0.88 -1.06,1.78 -1.47,2.69 -0.4,0.92 -0.7,1.82 -0.9,2.72l-3.1 14.56 -4.82 0 3.68 -17.41c0.08,-0.32 0.16,-0.69 0.24,-1.09 0.08,-0.41 0.15,-0.82 0.22,-1.21 0.07,-0.4 0.12,-0.77 0.16,-1.1 0.04,-0.34 0.06,-0.61 0.06,-0.8 0,-1.53 -0.34,-2.71 -1.02,-3.53 -0.68,-0.82 -1.7,-1.23 -3.04,-1.23 -0.76,0 -1.54,0.17 -2.33,0.51 -0.79,0.34 -1.56,0.8 -2.32,1.39 -0.75,0.59 -1.47,1.28 -2.15,2.06 -0.7,0.79 -1.32,1.62 -1.9,2.5 -0.56,0.88 -1.05,1.77 -1.44,2.69 -0.4,0.92 -0.69,1.82 -0.89,2.71l-3.1 14.51 -4.81 0 4.57 -21.21c0.16,-0.75 0.32,-1.53 0.47,-2.35 0.16,-0.83 0.3,-1.62 0.43,-2.39 0.14,-0.76 0.26,-1.48 0.35,-2.13 0.1,-0.65 0.18,-1.2 0.24,-1.62l4.64 0c-0.1,0.75 -0.22,1.54 -0.36,2.36 -0.13,0.83 -0.24,1.58 -0.34,2.28 -0.11,0.81 -0.24,1.6 -0.38,2.38l0.12 0c0.69,-1.12 1.45,-2.16 2.26,-3.11 0.81,-0.94 1.67,-1.76 2.58,-2.45 0.91,-0.68 1.86,-1.22 2.84,-1.61 0.99,-0.39 2.01,-0.58 3.08,-0.58 1.24,0 2.3,0.18 3.19,0.55 0.89,0.38 1.63,0.89 2.22,1.55 0.59,0.67 1.04,1.48 1.34,2.43 0.32,0.94 0.5,2 0.56,3.16 0.71,-1.08 1.48,-2.09 2.3,-3.03 0.83,-0.94 1.71,-1.75 2.65,-2.44 0.93,-0.68 1.93,-1.23 2.98,-1.62 1.06,-0.4 2.18,-0.6 3.35,-0.6 2.48,0 4.33,0.73 5.57,2.16 1.24,1.45 1.86,3.46 1.86,6.05zm32.94 2.9c0,1.32 -0.13,2.73 -0.41,4.22 -0.26,1.5 -0.7,2.99 -1.29,4.47 -0.61,1.48 -1.37,2.91 -2.3,4.27 -0.93,1.38 -2.04,2.59 -3.35,3.64 -1.3,1.04 -2.81,1.88 -4.52,2.5 -1.71,0.62 -3.65,0.94 -5.82,0.94 -0.88,0 -1.81,-0.06 -2.76,-0.19 -0.95,-0.13 -1.87,-0.3 -2.78,-0.53 -0.91,-0.23 -1.78,-0.52 -2.61,-0.84 -0.83,-0.33 -1.59,-0.71 -2.26,-1.13l8.93 -42 4.81 0 -2.98 14.21c-0.21,0.95 -0.43,1.94 -0.65,2.99 -0.23,1.04 -0.45,1.97 -0.65,2.78l0.06 0c0.61,-0.99 1.26,-1.87 1.97,-2.66 0.69,-0.8 1.44,-1.48 2.24,-2.03 0.8,-0.57 1.67,-1 2.59,-1.3 0.91,-0.3 1.91,-0.45 3,-0.45 2.82,0 4.99,0.97 6.5,2.91 1.53,1.93 2.28,4.66 2.28,8.2zm-4.87 0.11c0,-1.1 -0.1,-2.09 -0.3,-2.98 -0.21,-0.89 -0.52,-1.64 -0.96,-2.27 -0.44,-0.61 -0.99,-1.08 -1.67,-1.41 -0.68,-0.33 -1.5,-0.5 -2.47,-0.5 -1.22,0 -2.38,0.36 -3.5,1.07 -1.12,0.73 -2.15,1.67 -3.08,2.84 -0.92,1.19 -1.72,2.52 -2.41,4.01 -0.67,1.49 -1.17,3 -1.47,4.56l-1.95 9.25c0.66,0.36 1.48,0.68 2.48,0.93 1,0.24 2.03,0.37 3.09,0.37 1.38,0 2.63,-0.23 3.77,-0.68 1.14,-0.46 2.17,-1.08 3.07,-1.87 0.91,-0.79 1.7,-1.72 2.39,-2.75 0.67,-1.05 1.24,-2.15 1.67,-3.32 0.45,-1.18 0.78,-2.39 1.01,-3.63 0.22,-1.25 0.33,-2.45 0.33,-3.62zm19.21 19.09c-0.49,0.16 -1.03,0.29 -1.65,0.38 -0.6,0.1 -1.21,0.14 -1.81,0.14 -1.95,0 -3.42,-0.48 -4.38,-1.46 -0.97,-0.98 -1.45,-2.29 -1.45,-3.93 0,-0.49 0.05,-1.05 0.15,-1.71 0.1,-0.66 0.24,-1.47 0.46,-2.44l4.32 -20.56 4.82 0 -4.36 20.68c-0.16,0.81 -0.29,1.43 -0.35,1.88 -0.07,0.45 -0.11,0.82 -0.11,1.14 0,0.79 0.22,1.4 0.65,1.81 0.44,0.42 1.13,0.62 2.08,0.62 0.51,0 0.94,-0.03 1.32,-0.08 0.37,-0.06 0.73,-0.15 1.06,-0.27l-0.75 3.8zm3.39 -40.17c0,0.87 -0.3,1.62 -0.89,2.23 -0.58,0.63 -1.32,0.93 -2.19,0.93 -0.85,0 -1.59,-0.3 -2.22,-0.91 -0.63,-0.61 -0.94,-1.36 -0.94,-2.25 0,-0.89 0.31,-1.61 0.94,-2.17 0.63,-0.57 1.37,-0.85 2.22,-0.85 0.85,0 1.58,0.29 2.18,0.86 0.59,0.57 0.9,1.29 0.9,2.16zm27.7 17.55c0,1.56 -0.34,2.99 -1.05,4.27 -0.69,1.29 -1.84,2.39 -3.44,3.31 -1.62,0.92 -3.72,1.64 -6.36,2.14 -2.63,0.49 -5.88,0.76 -9.74,0.78 -0.04,0.21 -0.06,0.44 -0.06,0.67 0,0.21 0,0.4 0,0.58 0,1.04 0.14,2.03 0.44,2.95 0.28,0.93 0.73,1.74 1.34,2.45 0.61,0.69 1.4,1.24 2.35,1.65 0.96,0.4 2.1,0.6 3.41,0.6 1.33,0 2.8,-0.26 4.39,-0.77 1.59,-0.51 3.12,-1.24 4.57,-2.19l-0.9 4.7c-1.07,0.62 -2.32,1.16 -3.8,1.63 -1.46,0.46 -3.11,0.69 -4.93,0.69 -2.19,0 -4.03,-0.34 -5.52,-1.01 -1.5,-0.68 -2.71,-1.58 -3.63,-2.71 -0.92,-1.14 -1.58,-2.44 -1.99,-3.92 -0.4,-1.48 -0.6,-3.03 -0.6,-4.65 0,-1.75 0.19,-3.42 0.57,-5.03 0.39,-1.62 0.93,-3.12 1.65,-4.52 0.7,-1.39 1.54,-2.66 2.53,-3.81 0.99,-1.15 2.08,-2.13 3.28,-2.94 1.2,-0.81 2.48,-1.45 3.86,-1.89 1.37,-0.45 2.79,-0.67 4.26,-0.67 1.53,0 2.88,0.2 4.05,0.61 1.16,0.4 2.15,0.96 2.93,1.67 0.78,0.7 1.37,1.52 1.78,2.45 0.41,0.93 0.61,1.92 0.61,2.96zm-4.85 0.23c0,-1.22 -0.44,-2.16 -1.35,-2.85 -0.9,-0.67 -2.08,-1.01 -3.58,-1.01 -1.18,0 -2.32,0.26 -3.41,0.78 -1.11,0.5 -2.12,1.21 -3.05,2.11 -0.93,0.9 -1.74,1.97 -2.41,3.22 -0.67,1.25 -1.17,2.6 -1.48,4.04 2.77,0 5.11,-0.14 7.04,-0.41 1.95,-0.29 3.52,-0.7 4.74,-1.24 1.21,-0.54 2.11,-1.2 2.66,-1.98 0.56,-0.78 0.84,-1.68 0.84,-2.66zm36.33 0.23c0,0.29 -0.04,0.69 -0.11,1.19 -0.07,0.51 -0.15,1.05 -0.26,1.62 -0.11,0.59 -0.22,1.16 -0.32,1.73 -0.11,0.57 -0.2,1.06 -0.3,1.46l-3.46 16.28 -4.81 0 3.62 -17.41c0.08,-0.3 0.16,-0.66 0.24,-1.07 0.07,-0.4 0.14,-0.81 0.2,-1.21 0.06,-0.41 0.11,-0.79 0.15,-1.12 0.04,-0.34 0.06,-0.61 0.06,-0.8 0,-1.47 -0.36,-2.63 -1.06,-3.48 -0.72,-0.85 -1.77,-1.28 -3.15,-1.28 -1.28,0 -2.55,0.38 -3.8,1.13 -1.26,0.76 -2.42,1.72 -3.49,2.87 -1.06,1.16 -1.97,2.44 -2.73,3.83 -0.77,1.4 -1.29,2.74 -1.55,4.03l-3.11 14.51 -4.82 0 4.59 -21.21c0.16,-0.75 0.31,-1.53 0.46,-2.35 0.15,-0.83 0.3,-1.62 0.44,-2.39 0.13,-0.76 0.25,-1.48 0.35,-2.13 0.1,-0.65 0.16,-1.2 0.22,-1.62l4.65 0c-0.1,0.75 -0.21,1.54 -0.35,2.36 -0.14,0.83 -0.25,1.58 -0.35,2.28 -0.11,0.81 -0.24,1.6 -0.37,2.38l0.11 0c0.68,-1.06 1.42,-2.07 2.24,-3 0.83,-0.94 1.72,-1.77 2.68,-2.47 0.96,-0.71 1.97,-1.27 3.05,-1.67 1.07,-0.41 2.19,-0.61 3.37,-0.61 1.32,0 2.45,0.2 3.4,0.6 0.94,0.39 1.73,0.95 2.35,1.66 0.64,0.71 1.1,1.58 1.4,2.59 0.3,1.01 0.46,2.1 0.46,3.3zm23.06 -3.39l-7.49 0 -3.34 15.75c-0.11,0.6 -0.23,1.25 -0.34,1.94 -0.12,0.7 -0.18,1.26 -0.18,1.68 0,0.99 0.22,1.7 0.65,2.14 0.44,0.44 1.13,0.65 2.07,0.65 0.24,0 0.54,-0.04 0.9,-0.11 0.37,-0.08 0.74,-0.18 1.13,-0.29 0.4,-0.12 0.77,-0.25 1.15,-0.4 0.38,-0.15 0.71,-0.28 1,-0.39l-0.9 4.17c-0.67,0.3 -1.45,0.54 -2.3,0.75 -0.86,0.19 -1.68,0.3 -2.45,0.3 -1.1,0 -2.04,-0.14 -2.82,-0.42 -0.77,-0.28 -1.4,-0.69 -1.9,-1.2 -0.49,-0.53 -0.85,-1.16 -1.07,-1.9 -0.22,-0.74 -0.33,-1.59 -0.33,-2.52 0,-0.55 0.05,-1.2 0.16,-1.95 0.11,-0.75 0.23,-1.42 0.39,-2.05l3.42 -16.15 -4.93 0 0.9 -4.03 4.87 0 1.53 -7.25c0.08,-0.04 0.38,-0.14 0.9,-0.28 0.51,-0.15 1.06,-0.31 1.68,-0.49 0.6,-0.19 1.17,-0.36 1.68,-0.51 0.51,-0.16 0.79,-0.24 0.85,-0.26l-1.83 8.79 7.49 0 -0.89 4.03z"/>
   <path class="fil2" d="M1923.22 105.36c-0.15,0.74 -0.29,1.57 -0.44,2.49 -0.15,0.91 -0.27,1.82 -0.38,2.72 -0.11,0.9 -0.2,1.73 -0.26,2.51 -0.07,0.77 -0.11,1.37 -0.11,1.8l-4.93 0c0.02,-0.39 0.05,-0.85 0.09,-1.4 0.04,-0.53 0.09,-1.1 0.16,-1.68 0.07,-0.57 0.14,-1.15 0.21,-1.7 0.06,-0.57 0.14,-1.05 0.22,-1.46l-0.12 0c-0.61,0.95 -1.21,1.84 -1.83,2.68 -0.62,0.85 -1.3,1.59 -2.06,2.22 -0.75,0.65 -1.6,1.14 -2.53,1.52 -0.92,0.36 -2.02,0.54 -3.27,0.54 -1.29,0 -2.48,-0.23 -3.56,-0.69 -1.07,-0.47 -1.99,-1.16 -2.76,-2.08 -0.77,-0.91 -1.38,-2.07 -1.78,-3.45 -0.42,-1.38 -0.63,-2.99 -0.63,-4.83 0,-1.12 0.11,-2.39 0.35,-3.83 0.23,-1.42 0.62,-2.89 1.17,-4.38 0.55,-1.48 1.29,-2.94 2.21,-4.36 0.92,-1.43 2.06,-2.69 3.42,-3.81 1.36,-1.13 2.97,-2.02 4.83,-2.71 1.85,-0.67 4,-1.01 6.44,-1.01 1.54,0 3.14,0.11 4.78,0.35 1.64,0.23 3.28,0.52 4.9,0.84l-4.12 19.72zm-1.35 -16.26c-0.69,-0.16 -1.48,-0.3 -2.39,-0.41 -0.9,-0.12 -1.75,-0.18 -2.54,-0.18 -1.69,0 -3.17,0.27 -4.46,0.8 -1.29,0.53 -2.41,1.22 -3.35,2.09 -0.95,0.86 -1.75,1.85 -2.39,2.97 -0.66,1.12 -1.17,2.27 -1.56,3.44 -0.38,1.17 -0.66,2.33 -0.82,3.47 -0.17,1.13 -0.25,2.17 -0.25,3.09 0,1.11 0.1,2.1 0.29,2.98 0.2,0.89 0.5,1.63 0.91,2.25 0.42,0.62 0.95,1.1 1.6,1.44 0.65,0.33 1.42,0.5 2.3,0.5 0.97,0 1.87,-0.2 2.72,-0.59 0.84,-0.4 1.63,-0.93 2.36,-1.62 0.74,-0.67 1.41,-1.45 2,-2.34 0.61,-0.89 1.14,-1.83 1.63,-2.83 0.48,-0.99 0.9,-2.01 1.23,-3.04 0.34,-1.04 0.62,-2.04 0.82,-3l1.9 -9.02zm19.37 25.66c-0.48,0.16 -1.03,0.29 -1.64,0.38 -0.61,0.1 -1.21,0.14 -1.81,0.14 -1.95,0 -3.42,-0.48 -4.38,-1.46 -0.97,-0.98 -1.46,-2.29 -1.46,-3.93 0,-0.49 0.05,-1.05 0.15,-1.71 0.1,-0.66 0.25,-1.47 0.47,-2.44l7.42 -34.86 4.82 0 -7.46 34.98c-0.17,0.81 -0.3,1.43 -0.36,1.88 -0.07,0.45 -0.11,0.82 -0.11,1.14 0,0.79 0.22,1.4 0.66,1.81 0.43,0.42 1.13,0.62 2.08,0.62 0.5,0 0.94,-0.03 1.31,-0.08 0.38,-0.06 0.74,-0.15 1.06,-0.27l-0.75 3.8zm31.1 -22.62c0,1.56 -0.35,2.99 -1.05,4.27 -0.69,1.29 -1.84,2.39 -3.45,3.31 -1.61,0.92 -3.72,1.64 -6.35,2.14 -2.63,0.49 -5.88,0.76 -9.74,0.78 -0.04,0.21 -0.06,0.44 -0.06,0.67 0,0.21 0,0.4 0,0.58 0,1.04 0.14,2.03 0.43,2.95 0.29,0.93 0.74,1.74 1.35,2.45 0.6,0.69 1.39,1.24 2.35,1.65 0.96,0.4 2.09,0.6 3.4,0.6 1.34,0 2.8,-0.26 4.4,-0.77 1.59,-0.51 3.12,-1.24 4.57,-2.19l-0.9 4.7c-1.07,0.62 -2.33,1.16 -3.8,1.63 -1.47,0.46 -3.11,0.69 -4.93,0.69 -2.19,0 -4.03,-0.34 -5.53,-1.01 -1.49,-0.68 -2.7,-1.58 -3.62,-2.71 -0.92,-1.14 -1.58,-2.44 -1.99,-3.92 -0.41,-1.48 -0.6,-3.03 -0.6,-4.65 0,-1.75 0.18,-3.42 0.57,-5.03 0.39,-1.62 0.93,-3.12 1.64,-4.52 0.71,-1.39 1.55,-2.66 2.54,-3.81 0.99,-1.15 2.08,-2.13 3.28,-2.94 1.19,-0.81 2.48,-1.45 3.86,-1.89 1.36,-0.45 2.79,-0.67 4.25,-0.67 1.54,0 2.88,0.2 4.05,0.61 1.17,0.4 2.15,0.96 2.93,1.67 0.79,0.7 1.38,1.52 1.79,2.45 0.4,0.93 0.61,1.92 0.61,2.96zm-4.85 0.23c0,-1.22 -0.45,-2.16 -1.35,-2.85 -0.9,-0.67 -2.09,-1.01 -3.58,-1.01 -1.18,0 -2.32,0.26 -3.42,0.78 -1.11,0.5 -2.12,1.21 -3.05,2.11 -0.93,0.9 -1.73,1.97 -2.4,3.22 -0.68,1.25 -1.17,2.6 -1.49,4.04 2.77,0 5.12,-0.14 7.05,-0.41 1.94,-0.29 3.51,-0.7 4.73,-1.24 1.22,-0.54 2.11,-1.2 2.67,-1.98 0.56,-0.78 0.84,-1.68 0.84,-2.66zm27.01 -1.97c-0.88,-0.56 -1.85,-1.02 -2.93,-1.36 -1.08,-0.35 -2.17,-0.53 -3.25,-0.53 -1.82,0 -3.23,0.42 -4.22,1.25 -1,0.83 -1.49,1.93 -1.49,3.31 0,0.55 0.09,1.07 0.27,1.53 0.18,0.47 0.46,0.9 0.82,1.32 0.35,0.42 0.81,0.82 1.35,1.21 0.56,0.38 1.19,0.8 1.9,1.24 2.17,1.26 3.73,2.55 4.68,3.88 0.97,1.32 1.44,2.82 1.44,4.48 0,1.12 -0.21,2.22 -0.62,3.29 -0.42,1.08 -1.07,2.02 -1.98,2.84 -0.91,0.82 -2.09,1.48 -3.53,1.99 -1.44,0.5 -3.2,0.75 -5.26,0.75 -0.58,0 -1.22,-0.04 -1.92,-0.12 -0.7,-0.07 -1.39,-0.19 -2.1,-0.34 -0.71,-0.15 -1.38,-0.34 -2.03,-0.57 -0.65,-0.22 -1.21,-0.47 -1.7,-0.76l0.96 -4.52c0.39,0.26 0.86,0.53 1.44,0.81 0.56,0.26 1.19,0.5 1.85,0.72 0.66,0.21 1.37,0.39 2.09,0.52 0.72,0.13 1.44,0.2 2.16,0.2 1.94,0 3.38,-0.38 4.33,-1.16 0.97,-0.77 1.44,-1.85 1.44,-3.21 0,-0.51 -0.07,-0.97 -0.22,-1.4 -0.14,-0.43 -0.39,-0.85 -0.76,-1.28 -0.37,-0.42 -0.85,-0.85 -1.46,-1.28 -0.59,-0.44 -1.35,-0.92 -2.25,-1.47 -1.98,-1.2 -3.44,-2.45 -4.37,-3.76 -0.94,-1.3 -1.4,-2.77 -1.4,-4.42 0,-1.19 0.21,-2.34 0.66,-3.44 0.44,-1.09 1.11,-2.06 1.99,-2.89 0.88,-0.84 1.98,-1.52 3.31,-2.02 1.34,-0.51 2.9,-0.76 4.68,-0.76 1.39,0 2.71,0.13 3.96,0.41 1.25,0.27 2.3,0.61 3.18,1.04l-1.02 4.5z"/>
  </g>
 </g>
</svg>
